G04 #@! TF.GenerationSoftware,KiCad,Pcbnew,(2017-05-18 revision 2a3a699)-master*
G04 #@! TF.CreationDate,2017-06-18T12:29:58+03:00*
G04 #@! TF.ProjectId,stm32f072c8tx_breakout,73746D333266303732633874785F6272,rev?*
G04 #@! TF.FileFunction,Legend,Top*
G04 #@! TF.FilePolarity,Positive*
%FSLAX46Y46*%
G04 Gerber Fmt 4.6, Leading zero omitted, Abs format (unit mm)*
G04 Created by KiCad (PCBNEW (2017-05-18 revision 2a3a699)-master) date Sun Jun 18 12:29:58 2017*
%MOMM*%
%LPD*%
G01*
G04 APERTURE LIST*
%ADD10C,0.100000*%
%ADD11C,0.120000*%
%ADD12C,0.150000*%
G04 APERTURE END LIST*
D10*
D11*
X151200000Y-121021428D02*
X151200000Y-120421428D01*
X151428571Y-120421428D01*
X151485714Y-120450000D01*
X151514285Y-120478571D01*
X151542857Y-120535714D01*
X151542857Y-120621428D01*
X151514285Y-120678571D01*
X151485714Y-120707142D01*
X151428571Y-120735714D01*
X151200000Y-120735714D01*
X151742857Y-120421428D02*
X151885714Y-121021428D01*
X152000000Y-120592857D01*
X152114285Y-121021428D01*
X152257142Y-120421428D01*
X152828571Y-121021428D02*
X152628571Y-120735714D01*
X152485714Y-121021428D02*
X152485714Y-120421428D01*
X152714285Y-120421428D01*
X152771428Y-120450000D01*
X152800000Y-120478571D01*
X152828571Y-120535714D01*
X152828571Y-120621428D01*
X152800000Y-120678571D01*
X152771428Y-120707142D01*
X152714285Y-120735714D01*
X152485714Y-120735714D01*
X150971428Y-109521428D02*
X150971428Y-108921428D01*
X151200000Y-108921428D01*
X151257142Y-108950000D01*
X151285714Y-108978571D01*
X151314285Y-109035714D01*
X151314285Y-109121428D01*
X151285714Y-109178571D01*
X151257142Y-109207142D01*
X151200000Y-109235714D01*
X150971428Y-109235714D01*
X151914285Y-109464285D02*
X151885714Y-109492857D01*
X151800000Y-109521428D01*
X151742857Y-109521428D01*
X151657142Y-109492857D01*
X151600000Y-109435714D01*
X151571428Y-109378571D01*
X151542857Y-109264285D01*
X151542857Y-109178571D01*
X151571428Y-109064285D01*
X151600000Y-109007142D01*
X151657142Y-108950000D01*
X151742857Y-108921428D01*
X151800000Y-108921428D01*
X151885714Y-108950000D01*
X151914285Y-108978571D01*
X152485714Y-109521428D02*
X152142857Y-109521428D01*
X152314285Y-109521428D02*
X152314285Y-108921428D01*
X152257142Y-109007142D01*
X152200000Y-109064285D01*
X152142857Y-109092857D01*
X152685714Y-108921428D02*
X153057142Y-108921428D01*
X152857142Y-109150000D01*
X152942857Y-109150000D01*
X153000000Y-109178571D01*
X153028571Y-109207142D01*
X153057142Y-109264285D01*
X153057142Y-109407142D01*
X153028571Y-109464285D01*
X153000000Y-109492857D01*
X152942857Y-109521428D01*
X152771428Y-109521428D01*
X152714285Y-109492857D01*
X152685714Y-109464285D01*
X148185714Y-109492857D02*
X148271428Y-109521428D01*
X148414285Y-109521428D01*
X148471428Y-109492857D01*
X148500000Y-109464285D01*
X148528571Y-109407142D01*
X148528571Y-109350000D01*
X148500000Y-109292857D01*
X148471428Y-109264285D01*
X148414285Y-109235714D01*
X148300000Y-109207142D01*
X148242857Y-109178571D01*
X148214285Y-109150000D01*
X148185714Y-109092857D01*
X148185714Y-109035714D01*
X148214285Y-108978571D01*
X148242857Y-108950000D01*
X148300000Y-108921428D01*
X148442857Y-108921428D01*
X148528571Y-108950000D01*
X148728571Y-108921428D02*
X148871428Y-109521428D01*
X148985714Y-109092857D01*
X149100000Y-109521428D01*
X149242857Y-108921428D01*
X149471428Y-109521428D02*
X149471428Y-108921428D01*
X149614285Y-108921428D01*
X149700000Y-108950000D01*
X149757142Y-109007142D01*
X149785714Y-109064285D01*
X149814285Y-109178571D01*
X149814285Y-109264285D01*
X149785714Y-109378571D01*
X149757142Y-109435714D01*
X149700000Y-109492857D01*
X149614285Y-109521428D01*
X149471428Y-109521428D01*
X137628571Y-121771428D02*
X137428571Y-121485714D01*
X137285714Y-121771428D02*
X137285714Y-121171428D01*
X137514285Y-121171428D01*
X137571428Y-121200000D01*
X137600000Y-121228571D01*
X137628571Y-121285714D01*
X137628571Y-121371428D01*
X137600000Y-121428571D01*
X137571428Y-121457142D01*
X137514285Y-121485714D01*
X137285714Y-121485714D01*
X137885714Y-121457142D02*
X138085714Y-121457142D01*
X138171428Y-121771428D02*
X137885714Y-121771428D01*
X137885714Y-121171428D01*
X138171428Y-121171428D01*
X138400000Y-121742857D02*
X138485714Y-121771428D01*
X138628571Y-121771428D01*
X138685714Y-121742857D01*
X138714285Y-121714285D01*
X138742857Y-121657142D01*
X138742857Y-121600000D01*
X138714285Y-121542857D01*
X138685714Y-121514285D01*
X138628571Y-121485714D01*
X138514285Y-121457142D01*
X138457142Y-121428571D01*
X138428571Y-121400000D01*
X138400000Y-121342857D01*
X138400000Y-121285714D01*
X138428571Y-121228571D01*
X138457142Y-121200000D01*
X138514285Y-121171428D01*
X138657142Y-121171428D01*
X138742857Y-121200000D01*
X139000000Y-121457142D02*
X139200000Y-121457142D01*
X139285714Y-121771428D02*
X139000000Y-121771428D01*
X139000000Y-121171428D01*
X139285714Y-121171428D01*
X139457142Y-121171428D02*
X139800000Y-121171428D01*
X139628571Y-121771428D02*
X139628571Y-121171428D01*
X141478000Y-114942857D02*
X141558952Y-114980952D01*
X141582761Y-115019047D01*
X141601809Y-115095238D01*
X141587523Y-115209523D01*
X141549428Y-115285714D01*
X141516095Y-115323809D01*
X141454190Y-115361904D01*
X141225619Y-115361904D01*
X141325619Y-114561904D01*
X141525619Y-114561904D01*
X141578000Y-114600000D01*
X141601809Y-114638095D01*
X141620857Y-114714285D01*
X141611333Y-114790476D01*
X141573238Y-114866666D01*
X141539904Y-114904761D01*
X141478000Y-114942857D01*
X141278000Y-114942857D01*
X142039904Y-114561904D02*
X142154190Y-114561904D01*
X142206571Y-114600000D01*
X142254190Y-114676190D01*
X142263714Y-114828571D01*
X142230380Y-115095238D01*
X142182761Y-115247619D01*
X142116095Y-115323809D01*
X142054190Y-115361904D01*
X141939904Y-115361904D01*
X141887523Y-115323809D01*
X141839904Y-115247619D01*
X141830380Y-115095238D01*
X141863714Y-114828571D01*
X141911333Y-114676190D01*
X141978000Y-114600000D01*
X142039904Y-114561904D01*
X142668476Y-114561904D02*
X142782761Y-114561904D01*
X142835142Y-114600000D01*
X142882761Y-114676190D01*
X142892285Y-114828571D01*
X142858952Y-115095238D01*
X142811333Y-115247619D01*
X142744666Y-115323809D01*
X142682761Y-115361904D01*
X142568476Y-115361904D01*
X142516095Y-115323809D01*
X142468476Y-115247619D01*
X142458952Y-115095238D01*
X142492285Y-114828571D01*
X142539904Y-114676190D01*
X142606571Y-114600000D01*
X142668476Y-114561904D01*
X143097047Y-114561904D02*
X143439904Y-114561904D01*
X143168476Y-115361904D02*
X143268476Y-114561904D01*
X143754190Y-114561904D02*
X143811333Y-114561904D01*
X143863714Y-114600000D01*
X143887523Y-114638095D01*
X143906571Y-114714285D01*
X143916095Y-114866666D01*
X143892285Y-115057142D01*
X143844666Y-115209523D01*
X143806571Y-115285714D01*
X143773238Y-115323809D01*
X143711333Y-115361904D01*
X143654190Y-115361904D01*
X143601809Y-115323809D01*
X143578000Y-115285714D01*
X143558952Y-115209523D01*
X143549428Y-115057142D01*
X143573238Y-114866666D01*
X143620857Y-114714285D01*
X143658952Y-114638095D01*
X143692285Y-114600000D01*
X143754190Y-114561904D01*
X141635142Y-117100000D02*
X141582761Y-117061904D01*
X141497047Y-117061904D01*
X141406571Y-117100000D01*
X141339904Y-117176190D01*
X141301809Y-117252380D01*
X141254190Y-117404761D01*
X141239904Y-117519047D01*
X141249428Y-117671428D01*
X141268476Y-117747619D01*
X141316095Y-117823809D01*
X141397047Y-117861904D01*
X141454190Y-117861904D01*
X141544666Y-117823809D01*
X141578000Y-117785714D01*
X141611333Y-117519047D01*
X141497047Y-117519047D01*
X141825619Y-117861904D02*
X141925619Y-117061904D01*
X142168476Y-117861904D01*
X142268476Y-117061904D01*
X142454190Y-117861904D02*
X142554190Y-117061904D01*
X142697047Y-117061904D01*
X142778000Y-117100000D01*
X142825619Y-117176190D01*
X142844666Y-117252380D01*
X142854190Y-117404761D01*
X142839904Y-117519047D01*
X142792285Y-117671428D01*
X142754190Y-117747619D01*
X142687523Y-117823809D01*
X142597047Y-117861904D01*
X142454190Y-117861904D01*
X141239904Y-112061904D02*
X141339904Y-112861904D01*
X141639904Y-112061904D01*
X141739904Y-112861904D02*
X141839904Y-112061904D01*
X141982761Y-112061904D01*
X142063714Y-112100000D01*
X142111333Y-112176190D01*
X142130380Y-112252380D01*
X142139904Y-112404761D01*
X142125619Y-112519047D01*
X142078000Y-112671428D01*
X142039904Y-112747619D01*
X141973238Y-112823809D01*
X141882761Y-112861904D01*
X141739904Y-112861904D01*
X142339904Y-112861904D02*
X142439904Y-112061904D01*
X142582761Y-112061904D01*
X142663714Y-112100000D01*
X142711333Y-112176190D01*
X142730380Y-112252380D01*
X142739904Y-112404761D01*
X142725619Y-112519047D01*
X142678000Y-112671428D01*
X142639904Y-112747619D01*
X142573238Y-112823809D01*
X142482761Y-112861904D01*
X142339904Y-112861904D01*
X147390000Y-111070000D02*
X147390000Y-113730000D01*
X146000000Y-111070000D02*
X147390000Y-111070000D01*
X144610000Y-112460000D02*
X144610000Y-113730000D01*
X141010000Y-118930000D02*
X144610000Y-118930000D01*
X141010000Y-116250000D02*
X144610000Y-116250000D01*
X141010000Y-113730000D02*
X144610000Y-113730000D01*
X141010000Y-118930000D02*
X141010000Y-111070000D01*
X141010000Y-111070000D02*
X144610000Y-111070000D01*
X104311904Y-126741047D02*
X105111904Y-126574380D01*
X104311904Y-126207714D01*
X105111904Y-126041047D02*
X104311904Y-125941047D01*
X104311904Y-125750571D01*
X104350000Y-125641047D01*
X104426190Y-125574380D01*
X104502380Y-125545809D01*
X104654761Y-125526761D01*
X104769047Y-125541047D01*
X104921428Y-125598190D01*
X104997619Y-125645809D01*
X105073809Y-125731523D01*
X105111904Y-125850571D01*
X105111904Y-126041047D01*
X105111904Y-125241047D02*
X104311904Y-125141047D01*
X104311904Y-124950571D01*
X104350000Y-124841047D01*
X104426190Y-124774380D01*
X104502380Y-124745809D01*
X104654761Y-124726761D01*
X104769047Y-124741047D01*
X104921428Y-124798190D01*
X104997619Y-124845809D01*
X105073809Y-124931523D01*
X105111904Y-125050571D01*
X105111904Y-125241047D01*
X101580000Y-126212476D02*
X101541904Y-126283904D01*
X101541904Y-126398190D01*
X101580000Y-126517238D01*
X101656190Y-126602952D01*
X101732380Y-126650571D01*
X101884761Y-126707714D01*
X101999047Y-126722000D01*
X102151428Y-126702952D01*
X102227619Y-126674380D01*
X102303809Y-126607714D01*
X102341904Y-126498190D01*
X102341904Y-126422000D01*
X102303809Y-126302952D01*
X102265714Y-126260095D01*
X101999047Y-126226761D01*
X101999047Y-126379142D01*
X102341904Y-125926761D02*
X101541904Y-125826761D01*
X102341904Y-125469619D01*
X101541904Y-125369619D01*
X102341904Y-125088666D02*
X101541904Y-124988666D01*
X101541904Y-124798190D01*
X101580000Y-124688666D01*
X101656190Y-124622000D01*
X101732380Y-124593428D01*
X101884761Y-124574380D01*
X101999047Y-124588666D01*
X102151428Y-124645809D01*
X102227619Y-124693428D01*
X102303809Y-124779142D01*
X102341904Y-124898190D01*
X102341904Y-125088666D01*
X98210000Y-123510000D02*
X98210000Y-127110000D01*
X100860000Y-123510000D02*
X100860000Y-127110000D01*
X140861904Y-106226761D02*
X140061904Y-106126761D01*
X140061904Y-105822000D01*
X140100000Y-105750571D01*
X140138095Y-105717238D01*
X140214285Y-105688666D01*
X140328571Y-105702952D01*
X140404761Y-105750571D01*
X140442857Y-105793428D01*
X140480952Y-105874380D01*
X140480952Y-106179142D01*
X140442857Y-105107714D02*
X140442857Y-105374380D01*
X140861904Y-105426761D02*
X140061904Y-105326761D01*
X140061904Y-104945809D01*
X140861904Y-104322000D02*
X140861904Y-104779142D01*
X140861904Y-104550571D02*
X140061904Y-104450571D01*
X140176190Y-104541047D01*
X140252380Y-104626761D01*
X140290476Y-104707714D01*
X120361904Y-106226761D02*
X119561904Y-106126761D01*
X119561904Y-105822000D01*
X119600000Y-105750571D01*
X119638095Y-105717238D01*
X119714285Y-105688666D01*
X119828571Y-105702952D01*
X119904761Y-105750571D01*
X119942857Y-105793428D01*
X119980952Y-105874380D01*
X119980952Y-106179142D01*
X120133333Y-105436285D02*
X120133333Y-105055333D01*
X120361904Y-105541047D02*
X119561904Y-105174380D01*
X120361904Y-105007714D01*
X119561904Y-104298190D02*
X119561904Y-104450571D01*
X119600000Y-104531523D01*
X119638095Y-104574380D01*
X119752380Y-104664857D01*
X119904761Y-104722000D01*
X120209523Y-104760095D01*
X120285714Y-104731523D01*
X120323809Y-104698190D01*
X120361904Y-104626761D01*
X120361904Y-104474380D01*
X120323809Y-104393428D01*
X120285714Y-104350571D01*
X120209523Y-104302952D01*
X120019047Y-104279142D01*
X119942857Y-104307714D01*
X119904761Y-104341047D01*
X119866666Y-104412476D01*
X119866666Y-104564857D01*
X119904761Y-104645809D01*
X119942857Y-104688666D01*
X120019047Y-104736285D01*
X151690000Y-106500000D02*
X151690000Y-102890000D01*
X98230000Y-102880000D02*
X98230000Y-106500000D01*
X148489904Y-118311904D02*
X148589904Y-119111904D01*
X148889904Y-118311904D01*
X148989904Y-119111904D02*
X149089904Y-118311904D01*
X149232761Y-118311904D01*
X149313714Y-118350000D01*
X149361333Y-118426190D01*
X149380380Y-118502380D01*
X149389904Y-118654761D01*
X149375619Y-118769047D01*
X149328000Y-118921428D01*
X149289904Y-118997619D01*
X149223238Y-119073809D01*
X149132761Y-119111904D01*
X148989904Y-119111904D01*
X149589904Y-119111904D02*
X149689904Y-118311904D01*
X149832761Y-118311904D01*
X149913714Y-118350000D01*
X149961333Y-118426190D01*
X149980380Y-118502380D01*
X149989904Y-118654761D01*
X149975619Y-118769047D01*
X149928000Y-118921428D01*
X149889904Y-118997619D01*
X149823238Y-119073809D01*
X149732761Y-119111904D01*
X149589904Y-119111904D01*
X148451809Y-116573809D02*
X148532761Y-116611904D01*
X148675619Y-116611904D01*
X148737523Y-116573809D01*
X148770857Y-116535714D01*
X148808952Y-116459523D01*
X148818476Y-116383333D01*
X148799428Y-116307142D01*
X148775619Y-116269047D01*
X148723238Y-116230952D01*
X148613714Y-116192857D01*
X148561333Y-116154761D01*
X148537523Y-116116666D01*
X148518476Y-116040476D01*
X148528000Y-115964285D01*
X148566095Y-115888095D01*
X148599428Y-115850000D01*
X148661333Y-115811904D01*
X148804190Y-115811904D01*
X148885142Y-115850000D01*
X149089904Y-115811904D02*
X149132761Y-116611904D01*
X149318476Y-116040476D01*
X149361333Y-116611904D01*
X149604190Y-115811904D01*
X149732761Y-116611904D02*
X149832761Y-115811904D01*
X149975619Y-115811904D01*
X150056571Y-115850000D01*
X150104190Y-115926190D01*
X150123238Y-116002380D01*
X150132761Y-116154761D01*
X150118476Y-116269047D01*
X150070857Y-116421428D01*
X150032761Y-116497619D01*
X149966095Y-116573809D01*
X149875619Y-116611904D01*
X149732761Y-116611904D01*
X150332761Y-116611904D02*
X150432761Y-115811904D01*
X150832761Y-115811904D02*
X150947047Y-115811904D01*
X150999428Y-115850000D01*
X151047047Y-115926190D01*
X151056571Y-116078571D01*
X151023238Y-116345238D01*
X150975619Y-116497619D01*
X150908952Y-116573809D01*
X150847047Y-116611904D01*
X150732761Y-116611904D01*
X150680380Y-116573809D01*
X150632761Y-116497619D01*
X150623238Y-116345238D01*
X150656571Y-116078571D01*
X150704190Y-115926190D01*
X150770857Y-115850000D01*
X150832761Y-115811904D01*
X148521809Y-114073809D02*
X148602761Y-114111904D01*
X148745619Y-114111904D01*
X148807523Y-114073809D01*
X148840857Y-114035714D01*
X148878952Y-113959523D01*
X148888476Y-113883333D01*
X148869428Y-113807142D01*
X148845619Y-113769047D01*
X148793238Y-113730952D01*
X148683714Y-113692857D01*
X148631333Y-113654761D01*
X148607523Y-113616666D01*
X148588476Y-113540476D01*
X148598000Y-113464285D01*
X148636095Y-113388095D01*
X148669428Y-113350000D01*
X148731333Y-113311904D01*
X148874190Y-113311904D01*
X148955142Y-113350000D01*
X149159904Y-113311904D02*
X149202761Y-114111904D01*
X149388476Y-113540476D01*
X149431333Y-114111904D01*
X149674190Y-113311904D01*
X150155142Y-114035714D02*
X150121809Y-114073809D01*
X150031333Y-114111904D01*
X149974190Y-114111904D01*
X149893238Y-114073809D01*
X149845619Y-113997619D01*
X149826571Y-113921428D01*
X149817047Y-113769047D01*
X149831333Y-113654761D01*
X149878952Y-113502380D01*
X149917047Y-113426190D01*
X149983714Y-113350000D01*
X150074190Y-113311904D01*
X150131333Y-113311904D01*
X150212285Y-113350000D01*
X150236095Y-113388095D01*
X150688476Y-114111904D02*
X150402761Y-114111904D01*
X150502761Y-113311904D01*
X150888476Y-114111904D02*
X150988476Y-113311904D01*
X151231333Y-114111904D02*
X151031333Y-113654761D01*
X151331333Y-113311904D02*
X150931333Y-113769047D01*
X148955142Y-110850000D02*
X148902761Y-110811904D01*
X148817047Y-110811904D01*
X148726571Y-110850000D01*
X148659904Y-110926190D01*
X148621809Y-111002380D01*
X148574190Y-111154761D01*
X148559904Y-111269047D01*
X148569428Y-111421428D01*
X148588476Y-111497619D01*
X148636095Y-111573809D01*
X148717047Y-111611904D01*
X148774190Y-111611904D01*
X148864666Y-111573809D01*
X148898000Y-111535714D01*
X148931333Y-111269047D01*
X148817047Y-111269047D01*
X149145619Y-111611904D02*
X149245619Y-110811904D01*
X149488476Y-111611904D01*
X149588476Y-110811904D01*
X149774190Y-111611904D02*
X149874190Y-110811904D01*
X150017047Y-110811904D01*
X150098000Y-110850000D01*
X150145619Y-110926190D01*
X150164666Y-111002380D01*
X150174190Y-111154761D01*
X150159904Y-111269047D01*
X150112285Y-111421428D01*
X150074190Y-111497619D01*
X150007523Y-111573809D01*
X149917047Y-111611904D01*
X149774190Y-111611904D01*
X154640000Y-117560000D02*
X154640000Y-118830000D01*
X151860000Y-117560000D02*
X151860000Y-120220000D01*
X148260000Y-120220000D02*
X153250000Y-120220000D01*
X148260000Y-112450000D02*
X151860000Y-112450000D01*
X148260000Y-115040000D02*
X151860000Y-115040000D01*
X148260000Y-120220000D02*
X148260000Y-109820000D01*
X148260000Y-117560000D02*
X151860000Y-117560000D01*
X148260000Y-109820000D02*
X151860000Y-109820000D01*
X154350000Y-129890000D02*
X154350000Y-128500000D01*
X151690000Y-129890000D02*
X154350000Y-129890000D01*
X151690000Y-100110000D02*
X152960000Y-100110000D01*
X152960000Y-127110000D02*
X151690000Y-127110000D01*
X144035000Y-123510000D02*
X144035000Y-127110000D01*
X146560000Y-123510000D02*
X146560000Y-127110000D01*
X149135000Y-123510000D02*
X149135000Y-127110000D01*
X110071904Y-126836761D02*
X109271904Y-126736761D01*
X109271904Y-126432000D01*
X109310000Y-126360571D01*
X109348095Y-126327238D01*
X109424285Y-126298666D01*
X109538571Y-126312952D01*
X109614761Y-126360571D01*
X109652857Y-126403428D01*
X109690952Y-126484380D01*
X109690952Y-126789142D01*
X109652857Y-125717714D02*
X109690952Y-125608190D01*
X109729047Y-125574857D01*
X109805238Y-125546285D01*
X109919523Y-125560571D01*
X109995714Y-125608190D01*
X110033809Y-125651047D01*
X110071904Y-125732000D01*
X110071904Y-126036761D01*
X109271904Y-125936761D01*
X109271904Y-125670095D01*
X109310000Y-125598666D01*
X109348095Y-125565333D01*
X109424285Y-125536761D01*
X109500476Y-125546285D01*
X109576666Y-125593904D01*
X109614761Y-125636761D01*
X109652857Y-125717714D01*
X109652857Y-125984380D01*
X110071904Y-124817714D02*
X110071904Y-125274857D01*
X110071904Y-125046285D02*
X109271904Y-124946285D01*
X109386190Y-125036761D01*
X109462380Y-125122476D01*
X109500476Y-125203428D01*
X109271904Y-124451047D02*
X109271904Y-123955809D01*
X109576666Y-124260571D01*
X109576666Y-124146285D01*
X109614761Y-124074857D01*
X109652857Y-124041523D01*
X109729047Y-124012952D01*
X109919523Y-124036761D01*
X109995714Y-124084380D01*
X110033809Y-124127238D01*
X110071904Y-124208190D01*
X110071904Y-124436761D01*
X110033809Y-124508190D01*
X109995714Y-124541523D01*
X112571904Y-126836761D02*
X111771904Y-126736761D01*
X111771904Y-126432000D01*
X111810000Y-126360571D01*
X111848095Y-126327238D01*
X111924285Y-126298666D01*
X112038571Y-126312952D01*
X112114761Y-126360571D01*
X112152857Y-126403428D01*
X112190952Y-126484380D01*
X112190952Y-126789142D01*
X112152857Y-125717714D02*
X112190952Y-125608190D01*
X112229047Y-125574857D01*
X112305238Y-125546285D01*
X112419523Y-125560571D01*
X112495714Y-125608190D01*
X112533809Y-125651047D01*
X112571904Y-125732000D01*
X112571904Y-126036761D01*
X111771904Y-125936761D01*
X111771904Y-125670095D01*
X111810000Y-125598666D01*
X111848095Y-125565333D01*
X111924285Y-125536761D01*
X112000476Y-125546285D01*
X112076666Y-125593904D01*
X112114761Y-125636761D01*
X112152857Y-125717714D01*
X112152857Y-125984380D01*
X112571904Y-124817714D02*
X112571904Y-125274857D01*
X112571904Y-125046285D02*
X111771904Y-124946285D01*
X111886190Y-125036761D01*
X111962380Y-125122476D01*
X112000476Y-125203428D01*
X112038571Y-124065333D02*
X112571904Y-124132000D01*
X111733809Y-124217714D02*
X112305238Y-124479619D01*
X112305238Y-123984380D01*
X152591904Y-126851047D02*
X153391904Y-126684380D01*
X152591904Y-126317714D01*
X153391904Y-126151047D02*
X152591904Y-126051047D01*
X152591904Y-125860571D01*
X152630000Y-125751047D01*
X152706190Y-125684380D01*
X152782380Y-125655809D01*
X152934761Y-125636761D01*
X153049047Y-125651047D01*
X153201428Y-125708190D01*
X153277619Y-125755809D01*
X153353809Y-125841523D01*
X153391904Y-125960571D01*
X153391904Y-126151047D01*
X153391904Y-125351047D02*
X152591904Y-125251047D01*
X152591904Y-125060571D01*
X152630000Y-124951047D01*
X152706190Y-124884380D01*
X152782380Y-124855809D01*
X152934761Y-124836761D01*
X153049047Y-124851047D01*
X153201428Y-124908190D01*
X153277619Y-124955809D01*
X153353809Y-125041523D01*
X153391904Y-125160571D01*
X153391904Y-125351047D01*
X154350000Y-127120000D02*
X154350000Y-123510000D01*
X140571904Y-126836761D02*
X139771904Y-126736761D01*
X139771904Y-126432000D01*
X139810000Y-126360571D01*
X139848095Y-126327238D01*
X139924285Y-126298666D01*
X140038571Y-126312952D01*
X140114761Y-126360571D01*
X140152857Y-126403428D01*
X140190952Y-126484380D01*
X140190952Y-126789142D01*
X140152857Y-125717714D02*
X140190952Y-125608190D01*
X140229047Y-125574857D01*
X140305238Y-125546285D01*
X140419523Y-125560571D01*
X140495714Y-125608190D01*
X140533809Y-125651047D01*
X140571904Y-125732000D01*
X140571904Y-126036761D01*
X139771904Y-125936761D01*
X139771904Y-125670095D01*
X139810000Y-125598666D01*
X139848095Y-125565333D01*
X139924285Y-125536761D01*
X140000476Y-125546285D01*
X140076666Y-125593904D01*
X140114761Y-125636761D01*
X140152857Y-125717714D01*
X140152857Y-125984380D01*
X139771904Y-124793904D02*
X139771904Y-124946285D01*
X139810000Y-125027238D01*
X139848095Y-125070095D01*
X139962380Y-125160571D01*
X140114761Y-125217714D01*
X140419523Y-125255809D01*
X140495714Y-125227238D01*
X140533809Y-125193904D01*
X140571904Y-125122476D01*
X140571904Y-124970095D01*
X140533809Y-124889142D01*
X140495714Y-124846285D01*
X140419523Y-124798666D01*
X140229047Y-124774857D01*
X140152857Y-124803428D01*
X140114761Y-124836761D01*
X140076666Y-124908190D01*
X140076666Y-125060571D01*
X140114761Y-125141523D01*
X140152857Y-125184380D01*
X140229047Y-125232000D01*
X143071904Y-126836761D02*
X142271904Y-126736761D01*
X142271904Y-126432000D01*
X142310000Y-126360571D01*
X142348095Y-126327238D01*
X142424285Y-126298666D01*
X142538571Y-126312952D01*
X142614761Y-126360571D01*
X142652857Y-126403428D01*
X142690952Y-126484380D01*
X142690952Y-126789142D01*
X142652857Y-125717714D02*
X142690952Y-125608190D01*
X142729047Y-125574857D01*
X142805238Y-125546285D01*
X142919523Y-125560571D01*
X142995714Y-125608190D01*
X143033809Y-125651047D01*
X143071904Y-125732000D01*
X143071904Y-126036761D01*
X142271904Y-125936761D01*
X142271904Y-125670095D01*
X142310000Y-125598666D01*
X142348095Y-125565333D01*
X142424285Y-125536761D01*
X142500476Y-125546285D01*
X142576666Y-125593904D01*
X142614761Y-125636761D01*
X142652857Y-125717714D01*
X142652857Y-125984380D01*
X142271904Y-125212952D02*
X142271904Y-124679619D01*
X143071904Y-125122476D01*
X145821904Y-126836761D02*
X145021904Y-126736761D01*
X145021904Y-126432000D01*
X145060000Y-126360571D01*
X145098095Y-126327238D01*
X145174285Y-126298666D01*
X145288571Y-126312952D01*
X145364761Y-126360571D01*
X145402857Y-126403428D01*
X145440952Y-126484380D01*
X145440952Y-126789142D01*
X145402857Y-125717714D02*
X145440952Y-125608190D01*
X145479047Y-125574857D01*
X145555238Y-125546285D01*
X145669523Y-125560571D01*
X145745714Y-125608190D01*
X145783809Y-125651047D01*
X145821904Y-125732000D01*
X145821904Y-126036761D01*
X145021904Y-125936761D01*
X145021904Y-125670095D01*
X145060000Y-125598666D01*
X145098095Y-125565333D01*
X145174285Y-125536761D01*
X145250476Y-125546285D01*
X145326666Y-125593904D01*
X145364761Y-125636761D01*
X145402857Y-125717714D01*
X145402857Y-125984380D01*
X145364761Y-125065333D02*
X145326666Y-125136761D01*
X145288571Y-125170095D01*
X145212380Y-125198666D01*
X145174285Y-125193904D01*
X145098095Y-125146285D01*
X145060000Y-125103428D01*
X145021904Y-125022476D01*
X145021904Y-124870095D01*
X145060000Y-124798666D01*
X145098095Y-124765333D01*
X145174285Y-124736761D01*
X145212380Y-124741523D01*
X145288571Y-124789142D01*
X145326666Y-124832000D01*
X145364761Y-124912952D01*
X145364761Y-125065333D01*
X145402857Y-125146285D01*
X145440952Y-125189142D01*
X145517142Y-125236761D01*
X145669523Y-125255809D01*
X145745714Y-125227238D01*
X145783809Y-125193904D01*
X145821904Y-125122476D01*
X145821904Y-124970095D01*
X145783809Y-124889142D01*
X145745714Y-124846285D01*
X145669523Y-124798666D01*
X145517142Y-124779619D01*
X145440952Y-124808190D01*
X145402857Y-124841523D01*
X145364761Y-124912952D01*
X148321904Y-126836761D02*
X147521904Y-126736761D01*
X147521904Y-126432000D01*
X147560000Y-126360571D01*
X147598095Y-126327238D01*
X147674285Y-126298666D01*
X147788571Y-126312952D01*
X147864761Y-126360571D01*
X147902857Y-126403428D01*
X147940952Y-126484380D01*
X147940952Y-126789142D01*
X147902857Y-125717714D02*
X147940952Y-125608190D01*
X147979047Y-125574857D01*
X148055238Y-125546285D01*
X148169523Y-125560571D01*
X148245714Y-125608190D01*
X148283809Y-125651047D01*
X148321904Y-125732000D01*
X148321904Y-126036761D01*
X147521904Y-125936761D01*
X147521904Y-125670095D01*
X147560000Y-125598666D01*
X147598095Y-125565333D01*
X147674285Y-125536761D01*
X147750476Y-125546285D01*
X147826666Y-125593904D01*
X147864761Y-125636761D01*
X147902857Y-125717714D01*
X147902857Y-125984380D01*
X148321904Y-125198666D02*
X148321904Y-125046285D01*
X148283809Y-124965333D01*
X148245714Y-124922476D01*
X148131428Y-124832000D01*
X147979047Y-124774857D01*
X147674285Y-124736761D01*
X147598095Y-124765333D01*
X147560000Y-124798666D01*
X147521904Y-124870095D01*
X147521904Y-125022476D01*
X147560000Y-125103428D01*
X147598095Y-125146285D01*
X147674285Y-125193904D01*
X147864761Y-125217714D01*
X147940952Y-125189142D01*
X147979047Y-125155809D01*
X148017142Y-125084380D01*
X148017142Y-124932000D01*
X147979047Y-124851047D01*
X147940952Y-124808190D01*
X147864761Y-124760571D01*
X99557142Y-126688666D02*
X99557142Y-126079142D01*
X99861904Y-126422000D02*
X99252380Y-126345809D01*
X99061904Y-125255333D02*
X99061904Y-125636285D01*
X99442857Y-125722000D01*
X99404761Y-125679142D01*
X99366666Y-125598190D01*
X99366666Y-125407714D01*
X99404761Y-125336285D01*
X99442857Y-125302952D01*
X99519047Y-125274380D01*
X99709523Y-125298190D01*
X99785714Y-125345809D01*
X99823809Y-125388666D01*
X99861904Y-125469619D01*
X99861904Y-125660095D01*
X99823809Y-125731523D01*
X99785714Y-125764857D01*
X99061904Y-124988666D02*
X99861904Y-124822000D01*
X99061904Y-124455333D01*
X118660000Y-123510000D02*
X118660000Y-127110000D01*
X121210000Y-123510000D02*
X121210000Y-127110000D01*
X123735000Y-123510000D02*
X123735000Y-127110000D01*
X126260000Y-123510000D02*
X126260000Y-127110000D01*
X128810000Y-123510000D02*
X128810000Y-127110000D01*
X103310000Y-123510000D02*
X103310000Y-127110000D01*
X98230000Y-123510000D02*
X154350000Y-123510000D01*
X151690000Y-127120000D02*
X151690000Y-123510000D01*
X107571904Y-126836761D02*
X106771904Y-126736761D01*
X106771904Y-126432000D01*
X106810000Y-126360571D01*
X106848095Y-126327238D01*
X106924285Y-126298666D01*
X107038571Y-126312952D01*
X107114761Y-126360571D01*
X107152857Y-126403428D01*
X107190952Y-126484380D01*
X107190952Y-126789142D01*
X107152857Y-125717714D02*
X107190952Y-125608190D01*
X107229047Y-125574857D01*
X107305238Y-125546285D01*
X107419523Y-125560571D01*
X107495714Y-125608190D01*
X107533809Y-125651047D01*
X107571904Y-125732000D01*
X107571904Y-126036761D01*
X106771904Y-125936761D01*
X106771904Y-125670095D01*
X106810000Y-125598666D01*
X106848095Y-125565333D01*
X106924285Y-125536761D01*
X107000476Y-125546285D01*
X107076666Y-125593904D01*
X107114761Y-125636761D01*
X107152857Y-125717714D01*
X107152857Y-125984380D01*
X107571904Y-124817714D02*
X107571904Y-125274857D01*
X107571904Y-125046285D02*
X106771904Y-124946285D01*
X106886190Y-125036761D01*
X106962380Y-125122476D01*
X107000476Y-125203428D01*
X106848095Y-124422476D02*
X106810000Y-124379619D01*
X106771904Y-124298666D01*
X106771904Y-124108190D01*
X106810000Y-124036761D01*
X106848095Y-124003428D01*
X106924285Y-123974857D01*
X107000476Y-123984380D01*
X107114761Y-124036761D01*
X107571904Y-124551047D01*
X107571904Y-124055809D01*
X150060000Y-126322476D02*
X150021904Y-126393904D01*
X150021904Y-126508190D01*
X150060000Y-126627238D01*
X150136190Y-126712952D01*
X150212380Y-126760571D01*
X150364761Y-126817714D01*
X150479047Y-126832000D01*
X150631428Y-126812952D01*
X150707619Y-126784380D01*
X150783809Y-126717714D01*
X150821904Y-126608190D01*
X150821904Y-126532000D01*
X150783809Y-126412952D01*
X150745714Y-126370095D01*
X150479047Y-126336761D01*
X150479047Y-126489142D01*
X150821904Y-126036761D02*
X150021904Y-125936761D01*
X150821904Y-125579619D01*
X150021904Y-125479619D01*
X150821904Y-125198666D02*
X150021904Y-125098666D01*
X150021904Y-124908190D01*
X150060000Y-124798666D01*
X150136190Y-124732000D01*
X150212380Y-124703428D01*
X150364761Y-124684380D01*
X150479047Y-124698666D01*
X150631428Y-124755809D01*
X150707619Y-124803428D01*
X150783809Y-124889142D01*
X150821904Y-125008190D01*
X150821904Y-125198666D01*
X115321904Y-126836761D02*
X114521904Y-126736761D01*
X114521904Y-126432000D01*
X114560000Y-126360571D01*
X114598095Y-126327238D01*
X114674285Y-126298666D01*
X114788571Y-126312952D01*
X114864761Y-126360571D01*
X114902857Y-126403428D01*
X114940952Y-126484380D01*
X114940952Y-126789142D01*
X114902857Y-125717714D02*
X114940952Y-125608190D01*
X114979047Y-125574857D01*
X115055238Y-125546285D01*
X115169523Y-125560571D01*
X115245714Y-125608190D01*
X115283809Y-125651047D01*
X115321904Y-125732000D01*
X115321904Y-126036761D01*
X114521904Y-125936761D01*
X114521904Y-125670095D01*
X114560000Y-125598666D01*
X114598095Y-125565333D01*
X114674285Y-125536761D01*
X114750476Y-125546285D01*
X114826666Y-125593904D01*
X114864761Y-125636761D01*
X114902857Y-125717714D01*
X114902857Y-125984380D01*
X115321904Y-124817714D02*
X115321904Y-125274857D01*
X115321904Y-125046285D02*
X114521904Y-124946285D01*
X114636190Y-125036761D01*
X114712380Y-125122476D01*
X114750476Y-125203428D01*
X114521904Y-123993904D02*
X114521904Y-124374857D01*
X114902857Y-124460571D01*
X114864761Y-124417714D01*
X114826666Y-124336761D01*
X114826666Y-124146285D01*
X114864761Y-124074857D01*
X114902857Y-124041523D01*
X114979047Y-124012952D01*
X115169523Y-124036761D01*
X115245714Y-124084380D01*
X115283809Y-124127238D01*
X115321904Y-124208190D01*
X115321904Y-124398666D01*
X115283809Y-124470095D01*
X115245714Y-124503428D01*
X117821904Y-126836761D02*
X117021904Y-126736761D01*
X117021904Y-126432000D01*
X117060000Y-126360571D01*
X117098095Y-126327238D01*
X117174285Y-126298666D01*
X117288571Y-126312952D01*
X117364761Y-126360571D01*
X117402857Y-126403428D01*
X117440952Y-126484380D01*
X117440952Y-126789142D01*
X117593333Y-126046285D02*
X117593333Y-125665333D01*
X117821904Y-126151047D02*
X117021904Y-125784380D01*
X117821904Y-125617714D01*
X117364761Y-125179619D02*
X117326666Y-125251047D01*
X117288571Y-125284380D01*
X117212380Y-125312952D01*
X117174285Y-125308190D01*
X117098095Y-125260571D01*
X117060000Y-125217714D01*
X117021904Y-125136761D01*
X117021904Y-124984380D01*
X117060000Y-124912952D01*
X117098095Y-124879619D01*
X117174285Y-124851047D01*
X117212380Y-124855809D01*
X117288571Y-124903428D01*
X117326666Y-124946285D01*
X117364761Y-125027238D01*
X117364761Y-125179619D01*
X117402857Y-125260571D01*
X117440952Y-125303428D01*
X117517142Y-125351047D01*
X117669523Y-125370095D01*
X117745714Y-125341523D01*
X117783809Y-125308190D01*
X117821904Y-125236761D01*
X117821904Y-125084380D01*
X117783809Y-125003428D01*
X117745714Y-124960571D01*
X117669523Y-124912952D01*
X117517142Y-124893904D01*
X117440952Y-124922476D01*
X117402857Y-124955809D01*
X117364761Y-125027238D01*
X120321904Y-126836761D02*
X119521904Y-126736761D01*
X119521904Y-126432000D01*
X119560000Y-126360571D01*
X119598095Y-126327238D01*
X119674285Y-126298666D01*
X119788571Y-126312952D01*
X119864761Y-126360571D01*
X119902857Y-126403428D01*
X119940952Y-126484380D01*
X119940952Y-126789142D01*
X120093333Y-126046285D02*
X120093333Y-125665333D01*
X120321904Y-126151047D02*
X119521904Y-125784380D01*
X120321904Y-125617714D01*
X120321904Y-125312952D02*
X120321904Y-125160571D01*
X120283809Y-125079619D01*
X120245714Y-125036761D01*
X120131428Y-124946285D01*
X119979047Y-124889142D01*
X119674285Y-124851047D01*
X119598095Y-124879619D01*
X119560000Y-124912952D01*
X119521904Y-124984380D01*
X119521904Y-125136761D01*
X119560000Y-125217714D01*
X119598095Y-125260571D01*
X119674285Y-125308190D01*
X119864761Y-125332000D01*
X119940952Y-125303428D01*
X119979047Y-125270095D01*
X120017142Y-125198666D01*
X120017142Y-125046285D01*
X119979047Y-124965333D01*
X119940952Y-124922476D01*
X119864761Y-124874857D01*
X122821904Y-126836761D02*
X122021904Y-126736761D01*
X122021904Y-126432000D01*
X122060000Y-126360571D01*
X122098095Y-126327238D01*
X122174285Y-126298666D01*
X122288571Y-126312952D01*
X122364761Y-126360571D01*
X122402857Y-126403428D01*
X122440952Y-126484380D01*
X122440952Y-126789142D01*
X122593333Y-126046285D02*
X122593333Y-125665333D01*
X122821904Y-126151047D02*
X122021904Y-125784380D01*
X122821904Y-125617714D01*
X122821904Y-124932000D02*
X122821904Y-125389142D01*
X122821904Y-125160571D02*
X122021904Y-125060571D01*
X122136190Y-125151047D01*
X122212380Y-125236761D01*
X122250476Y-125317714D01*
X122021904Y-124336761D02*
X122021904Y-124260571D01*
X122060000Y-124189142D01*
X122098095Y-124155809D01*
X122174285Y-124127238D01*
X122326666Y-124108190D01*
X122517142Y-124132000D01*
X122669523Y-124189142D01*
X122745714Y-124236761D01*
X122783809Y-124279619D01*
X122821904Y-124360571D01*
X122821904Y-124436761D01*
X122783809Y-124508190D01*
X122745714Y-124541523D01*
X122669523Y-124570095D01*
X122517142Y-124589142D01*
X122326666Y-124565333D01*
X122174285Y-124508190D01*
X122098095Y-124460571D01*
X122060000Y-124417714D01*
X122021904Y-124336761D01*
X125321904Y-126836761D02*
X124521904Y-126736761D01*
X124521904Y-126432000D01*
X124560000Y-126360571D01*
X124598095Y-126327238D01*
X124674285Y-126298666D01*
X124788571Y-126312952D01*
X124864761Y-126360571D01*
X124902857Y-126403428D01*
X124940952Y-126484380D01*
X124940952Y-126789142D01*
X125093333Y-126046285D02*
X125093333Y-125665333D01*
X125321904Y-126151047D02*
X124521904Y-125784380D01*
X125321904Y-125617714D01*
X125321904Y-124932000D02*
X125321904Y-125389142D01*
X125321904Y-125160571D02*
X124521904Y-125060571D01*
X124636190Y-125151047D01*
X124712380Y-125236761D01*
X124750476Y-125317714D01*
X125321904Y-124170095D02*
X125321904Y-124627238D01*
X125321904Y-124398666D02*
X124521904Y-124298666D01*
X124636190Y-124389142D01*
X124712380Y-124474857D01*
X124750476Y-124555809D01*
X127821904Y-126836761D02*
X127021904Y-126736761D01*
X127021904Y-126432000D01*
X127060000Y-126360571D01*
X127098095Y-126327238D01*
X127174285Y-126298666D01*
X127288571Y-126312952D01*
X127364761Y-126360571D01*
X127402857Y-126403428D01*
X127440952Y-126484380D01*
X127440952Y-126789142D01*
X127593333Y-126046285D02*
X127593333Y-125665333D01*
X127821904Y-126151047D02*
X127021904Y-125784380D01*
X127821904Y-125617714D01*
X127821904Y-124932000D02*
X127821904Y-125389142D01*
X127821904Y-125160571D02*
X127021904Y-125060571D01*
X127136190Y-125151047D01*
X127212380Y-125236761D01*
X127250476Y-125317714D01*
X127098095Y-124536761D02*
X127060000Y-124493904D01*
X127021904Y-124412952D01*
X127021904Y-124222476D01*
X127060000Y-124151047D01*
X127098095Y-124117714D01*
X127174285Y-124089142D01*
X127250476Y-124098666D01*
X127364761Y-124151047D01*
X127821904Y-124665333D01*
X127821904Y-124170095D01*
X130321904Y-126836761D02*
X129521904Y-126736761D01*
X129521904Y-126432000D01*
X129560000Y-126360571D01*
X129598095Y-126327238D01*
X129674285Y-126298666D01*
X129788571Y-126312952D01*
X129864761Y-126360571D01*
X129902857Y-126403428D01*
X129940952Y-126484380D01*
X129940952Y-126789142D01*
X130093333Y-126046285D02*
X130093333Y-125665333D01*
X130321904Y-126151047D02*
X129521904Y-125784380D01*
X130321904Y-125617714D01*
X130321904Y-124932000D02*
X130321904Y-125389142D01*
X130321904Y-125160571D02*
X129521904Y-125060571D01*
X129636190Y-125151047D01*
X129712380Y-125236761D01*
X129750476Y-125317714D01*
X129521904Y-124108190D02*
X129521904Y-124489142D01*
X129902857Y-124574857D01*
X129864761Y-124532000D01*
X129826666Y-124451047D01*
X129826666Y-124260571D01*
X129864761Y-124189142D01*
X129902857Y-124155809D01*
X129979047Y-124127238D01*
X130169523Y-124151047D01*
X130245714Y-124198666D01*
X130283809Y-124241523D01*
X130321904Y-124322476D01*
X130321904Y-124512952D01*
X130283809Y-124584380D01*
X130245714Y-124617714D01*
X133071904Y-126836761D02*
X132271904Y-126736761D01*
X132271904Y-126432000D01*
X132310000Y-126360571D01*
X132348095Y-126327238D01*
X132424285Y-126298666D01*
X132538571Y-126312952D01*
X132614761Y-126360571D01*
X132652857Y-126403428D01*
X132690952Y-126484380D01*
X132690952Y-126789142D01*
X132652857Y-125717714D02*
X132690952Y-125608190D01*
X132729047Y-125574857D01*
X132805238Y-125546285D01*
X132919523Y-125560571D01*
X132995714Y-125608190D01*
X133033809Y-125651047D01*
X133071904Y-125732000D01*
X133071904Y-126036761D01*
X132271904Y-125936761D01*
X132271904Y-125670095D01*
X132310000Y-125598666D01*
X132348095Y-125565333D01*
X132424285Y-125536761D01*
X132500476Y-125546285D01*
X132576666Y-125593904D01*
X132614761Y-125636761D01*
X132652857Y-125717714D01*
X132652857Y-125984380D01*
X132271904Y-125212952D02*
X132271904Y-124717714D01*
X132576666Y-125022476D01*
X132576666Y-124908190D01*
X132614761Y-124836761D01*
X132652857Y-124803428D01*
X132729047Y-124774857D01*
X132919523Y-124798666D01*
X132995714Y-124846285D01*
X133033809Y-124889142D01*
X133071904Y-124970095D01*
X133071904Y-125198666D01*
X133033809Y-125270095D01*
X132995714Y-125303428D01*
X135571904Y-126836761D02*
X134771904Y-126736761D01*
X134771904Y-126432000D01*
X134810000Y-126360571D01*
X134848095Y-126327238D01*
X134924285Y-126298666D01*
X135038571Y-126312952D01*
X135114761Y-126360571D01*
X135152857Y-126403428D01*
X135190952Y-126484380D01*
X135190952Y-126789142D01*
X135152857Y-125717714D02*
X135190952Y-125608190D01*
X135229047Y-125574857D01*
X135305238Y-125546285D01*
X135419523Y-125560571D01*
X135495714Y-125608190D01*
X135533809Y-125651047D01*
X135571904Y-125732000D01*
X135571904Y-126036761D01*
X134771904Y-125936761D01*
X134771904Y-125670095D01*
X134810000Y-125598666D01*
X134848095Y-125565333D01*
X134924285Y-125536761D01*
X135000476Y-125546285D01*
X135076666Y-125593904D01*
X135114761Y-125636761D01*
X135152857Y-125717714D01*
X135152857Y-125984380D01*
X135038571Y-124827238D02*
X135571904Y-124893904D01*
X134733809Y-124979619D02*
X135305238Y-125241523D01*
X135305238Y-124746285D01*
X138071904Y-126836761D02*
X137271904Y-126736761D01*
X137271904Y-126432000D01*
X137310000Y-126360571D01*
X137348095Y-126327238D01*
X137424285Y-126298666D01*
X137538571Y-126312952D01*
X137614761Y-126360571D01*
X137652857Y-126403428D01*
X137690952Y-126484380D01*
X137690952Y-126789142D01*
X137652857Y-125717714D02*
X137690952Y-125608190D01*
X137729047Y-125574857D01*
X137805238Y-125546285D01*
X137919523Y-125560571D01*
X137995714Y-125608190D01*
X138033809Y-125651047D01*
X138071904Y-125732000D01*
X138071904Y-126036761D01*
X137271904Y-125936761D01*
X137271904Y-125670095D01*
X137310000Y-125598666D01*
X137348095Y-125565333D01*
X137424285Y-125536761D01*
X137500476Y-125546285D01*
X137576666Y-125593904D01*
X137614761Y-125636761D01*
X137652857Y-125717714D01*
X137652857Y-125984380D01*
X137271904Y-124755809D02*
X137271904Y-125136761D01*
X137652857Y-125222476D01*
X137614761Y-125179619D01*
X137576666Y-125098666D01*
X137576666Y-124908190D01*
X137614761Y-124836761D01*
X137652857Y-124803428D01*
X137729047Y-124774857D01*
X137919523Y-124798666D01*
X137995714Y-124846285D01*
X138033809Y-124889142D01*
X138071904Y-124970095D01*
X138071904Y-125160571D01*
X138033809Y-125232000D01*
X137995714Y-125265333D01*
X105960000Y-123510000D02*
X105960000Y-127110000D01*
X108510000Y-123510000D02*
X108510000Y-127110000D01*
X111035000Y-123510000D02*
X111035000Y-127110000D01*
X113560000Y-123510000D02*
X113560000Y-127110000D01*
X116110000Y-123510000D02*
X116110000Y-127110000D01*
X131335000Y-123510000D02*
X131335000Y-127110000D01*
X133885000Y-123510000D02*
X133885000Y-127110000D01*
X136460000Y-123510000D02*
X136460000Y-127110000D01*
X138985000Y-123510000D02*
X138985000Y-127110000D01*
X141510000Y-123510000D02*
X141510000Y-127110000D01*
X152611904Y-106241047D02*
X153411904Y-106074380D01*
X152611904Y-105707714D01*
X152992857Y-105222000D02*
X153030952Y-105112476D01*
X153069047Y-105079142D01*
X153145238Y-105050571D01*
X153259523Y-105064857D01*
X153335714Y-105112476D01*
X153373809Y-105155333D01*
X153411904Y-105236285D01*
X153411904Y-105541047D01*
X152611904Y-105441047D01*
X152611904Y-105174380D01*
X152650000Y-105102952D01*
X152688095Y-105069619D01*
X152764285Y-105041047D01*
X152840476Y-105050571D01*
X152916666Y-105098190D01*
X152954761Y-105141047D01*
X152992857Y-105222000D01*
X152992857Y-105488666D01*
X153183333Y-104750571D02*
X153183333Y-104369619D01*
X153411904Y-104855333D02*
X152611904Y-104488666D01*
X153411904Y-104322000D01*
X152611904Y-104069619D02*
X152611904Y-103612476D01*
X153411904Y-103941047D02*
X152611904Y-103841047D01*
X151690000Y-102890000D02*
X154350000Y-102890000D01*
X154350000Y-106500000D02*
X154350000Y-101500000D01*
X150861904Y-106226761D02*
X150061904Y-106126761D01*
X150061904Y-105822000D01*
X150100000Y-105750571D01*
X150138095Y-105717238D01*
X150214285Y-105688666D01*
X150328571Y-105702952D01*
X150404761Y-105750571D01*
X150442857Y-105793428D01*
X150480952Y-105874380D01*
X150480952Y-106179142D01*
X150785714Y-104960095D02*
X150823809Y-105002952D01*
X150861904Y-105122000D01*
X150861904Y-105198190D01*
X150823809Y-105307714D01*
X150747619Y-105374380D01*
X150671428Y-105402952D01*
X150519047Y-105422000D01*
X150404761Y-105407714D01*
X150252380Y-105350571D01*
X150176190Y-105302952D01*
X150100000Y-105217238D01*
X150061904Y-105098190D01*
X150061904Y-105022000D01*
X150100000Y-104912476D01*
X150138095Y-104879142D01*
X150861904Y-104207714D02*
X150861904Y-104664857D01*
X150861904Y-104436285D02*
X150061904Y-104336285D01*
X150176190Y-104426761D01*
X150252380Y-104512476D01*
X150290476Y-104593428D01*
X150061904Y-103841047D02*
X150061904Y-103345809D01*
X150366666Y-103650571D01*
X150366666Y-103536285D01*
X150404761Y-103464857D01*
X150442857Y-103431523D01*
X150519047Y-103402952D01*
X150709523Y-103426761D01*
X150785714Y-103474380D01*
X150823809Y-103517238D01*
X150861904Y-103598190D01*
X150861904Y-103826761D01*
X150823809Y-103898190D01*
X150785714Y-103931523D01*
X148111904Y-106226761D02*
X147311904Y-106126761D01*
X147311904Y-105822000D01*
X147350000Y-105750571D01*
X147388095Y-105717238D01*
X147464285Y-105688666D01*
X147578571Y-105702952D01*
X147654761Y-105750571D01*
X147692857Y-105793428D01*
X147730952Y-105874380D01*
X147730952Y-106179142D01*
X148035714Y-104960095D02*
X148073809Y-105002952D01*
X148111904Y-105122000D01*
X148111904Y-105198190D01*
X148073809Y-105307714D01*
X147997619Y-105374380D01*
X147921428Y-105402952D01*
X147769047Y-105422000D01*
X147654761Y-105407714D01*
X147502380Y-105350571D01*
X147426190Y-105302952D01*
X147350000Y-105217238D01*
X147311904Y-105098190D01*
X147311904Y-105022000D01*
X147350000Y-104912476D01*
X147388095Y-104879142D01*
X148111904Y-104207714D02*
X148111904Y-104664857D01*
X148111904Y-104436285D02*
X147311904Y-104336285D01*
X147426190Y-104426761D01*
X147502380Y-104512476D01*
X147540476Y-104593428D01*
X147578571Y-103455333D02*
X148111904Y-103522000D01*
X147273809Y-103607714D02*
X147845238Y-103869619D01*
X147845238Y-103374380D01*
X145861904Y-106226761D02*
X145061904Y-106126761D01*
X145061904Y-105822000D01*
X145100000Y-105750571D01*
X145138095Y-105717238D01*
X145214285Y-105688666D01*
X145328571Y-105702952D01*
X145404761Y-105750571D01*
X145442857Y-105793428D01*
X145480952Y-105874380D01*
X145480952Y-106179142D01*
X145785714Y-104960095D02*
X145823809Y-105002952D01*
X145861904Y-105122000D01*
X145861904Y-105198190D01*
X145823809Y-105307714D01*
X145747619Y-105374380D01*
X145671428Y-105402952D01*
X145519047Y-105422000D01*
X145404761Y-105407714D01*
X145252380Y-105350571D01*
X145176190Y-105302952D01*
X145100000Y-105217238D01*
X145061904Y-105098190D01*
X145061904Y-105022000D01*
X145100000Y-104912476D01*
X145138095Y-104879142D01*
X145861904Y-104207714D02*
X145861904Y-104664857D01*
X145861904Y-104436285D02*
X145061904Y-104336285D01*
X145176190Y-104426761D01*
X145252380Y-104512476D01*
X145290476Y-104593428D01*
X145061904Y-103383904D02*
X145061904Y-103764857D01*
X145442857Y-103850571D01*
X145404761Y-103807714D01*
X145366666Y-103726761D01*
X145366666Y-103536285D01*
X145404761Y-103464857D01*
X145442857Y-103431523D01*
X145519047Y-103402952D01*
X145709523Y-103426761D01*
X145785714Y-103474380D01*
X145823809Y-103517238D01*
X145861904Y-103598190D01*
X145861904Y-103788666D01*
X145823809Y-103860095D01*
X145785714Y-103893428D01*
X135611904Y-106226761D02*
X134811904Y-106126761D01*
X134811904Y-105822000D01*
X134850000Y-105750571D01*
X134888095Y-105717238D01*
X134964285Y-105688666D01*
X135078571Y-105702952D01*
X135154761Y-105750571D01*
X135192857Y-105793428D01*
X135230952Y-105874380D01*
X135230952Y-106179142D01*
X135383333Y-105436285D02*
X135383333Y-105055333D01*
X135611904Y-105541047D02*
X134811904Y-105174380D01*
X135611904Y-105007714D01*
X134811904Y-104488666D02*
X134811904Y-104412476D01*
X134850000Y-104341047D01*
X134888095Y-104307714D01*
X134964285Y-104279142D01*
X135116666Y-104260095D01*
X135307142Y-104283904D01*
X135459523Y-104341047D01*
X135535714Y-104388666D01*
X135573809Y-104431523D01*
X135611904Y-104512476D01*
X135611904Y-104588666D01*
X135573809Y-104660095D01*
X135535714Y-104693428D01*
X135459523Y-104722000D01*
X135307142Y-104741047D01*
X135116666Y-104717238D01*
X134964285Y-104660095D01*
X134888095Y-104612476D01*
X134850000Y-104569619D01*
X134811904Y-104488666D01*
X132861904Y-106226761D02*
X132061904Y-106126761D01*
X132061904Y-105822000D01*
X132100000Y-105750571D01*
X132138095Y-105717238D01*
X132214285Y-105688666D01*
X132328571Y-105702952D01*
X132404761Y-105750571D01*
X132442857Y-105793428D01*
X132480952Y-105874380D01*
X132480952Y-106179142D01*
X132633333Y-105436285D02*
X132633333Y-105055333D01*
X132861904Y-105541047D02*
X132061904Y-105174380D01*
X132861904Y-105007714D01*
X132861904Y-104322000D02*
X132861904Y-104779142D01*
X132861904Y-104550571D02*
X132061904Y-104450571D01*
X132176190Y-104541047D01*
X132252380Y-104626761D01*
X132290476Y-104707714D01*
X130361904Y-106226761D02*
X129561904Y-106126761D01*
X129561904Y-105822000D01*
X129600000Y-105750571D01*
X129638095Y-105717238D01*
X129714285Y-105688666D01*
X129828571Y-105702952D01*
X129904761Y-105750571D01*
X129942857Y-105793428D01*
X129980952Y-105874380D01*
X129980952Y-106179142D01*
X130133333Y-105436285D02*
X130133333Y-105055333D01*
X130361904Y-105541047D02*
X129561904Y-105174380D01*
X130361904Y-105007714D01*
X129638095Y-104688666D02*
X129600000Y-104645809D01*
X129561904Y-104564857D01*
X129561904Y-104374380D01*
X129600000Y-104302952D01*
X129638095Y-104269619D01*
X129714285Y-104241047D01*
X129790476Y-104250571D01*
X129904761Y-104302952D01*
X130361904Y-104817238D01*
X130361904Y-104322000D01*
X127861904Y-106226761D02*
X127061904Y-106126761D01*
X127061904Y-105822000D01*
X127100000Y-105750571D01*
X127138095Y-105717238D01*
X127214285Y-105688666D01*
X127328571Y-105702952D01*
X127404761Y-105750571D01*
X127442857Y-105793428D01*
X127480952Y-105874380D01*
X127480952Y-106179142D01*
X127633333Y-105436285D02*
X127633333Y-105055333D01*
X127861904Y-105541047D02*
X127061904Y-105174380D01*
X127861904Y-105007714D01*
X127061904Y-104717238D02*
X127061904Y-104222000D01*
X127366666Y-104526761D01*
X127366666Y-104412476D01*
X127404761Y-104341047D01*
X127442857Y-104307714D01*
X127519047Y-104279142D01*
X127709523Y-104302952D01*
X127785714Y-104350571D01*
X127823809Y-104393428D01*
X127861904Y-104474380D01*
X127861904Y-104702952D01*
X127823809Y-104774380D01*
X127785714Y-104807714D01*
X125361904Y-106226761D02*
X124561904Y-106126761D01*
X124561904Y-105822000D01*
X124600000Y-105750571D01*
X124638095Y-105717238D01*
X124714285Y-105688666D01*
X124828571Y-105702952D01*
X124904761Y-105750571D01*
X124942857Y-105793428D01*
X124980952Y-105874380D01*
X124980952Y-106179142D01*
X125133333Y-105436285D02*
X125133333Y-105055333D01*
X125361904Y-105541047D02*
X124561904Y-105174380D01*
X125361904Y-105007714D01*
X124828571Y-104331523D02*
X125361904Y-104398190D01*
X124523809Y-104483904D02*
X125095238Y-104745809D01*
X125095238Y-104250571D01*
X122861904Y-106226761D02*
X122061904Y-106126761D01*
X122061904Y-105822000D01*
X122100000Y-105750571D01*
X122138095Y-105717238D01*
X122214285Y-105688666D01*
X122328571Y-105702952D01*
X122404761Y-105750571D01*
X122442857Y-105793428D01*
X122480952Y-105874380D01*
X122480952Y-106179142D01*
X122633333Y-105436285D02*
X122633333Y-105055333D01*
X122861904Y-105541047D02*
X122061904Y-105174380D01*
X122861904Y-105007714D01*
X122061904Y-104260095D02*
X122061904Y-104641047D01*
X122442857Y-104726761D01*
X122404761Y-104683904D01*
X122366666Y-104602952D01*
X122366666Y-104412476D01*
X122404761Y-104341047D01*
X122442857Y-104307714D01*
X122519047Y-104279142D01*
X122709523Y-104302952D01*
X122785714Y-104350571D01*
X122823809Y-104393428D01*
X122861904Y-104474380D01*
X122861904Y-104664857D01*
X122823809Y-104736285D01*
X122785714Y-104769619D01*
X143361904Y-106226761D02*
X142561904Y-106126761D01*
X142561904Y-105822000D01*
X142600000Y-105750571D01*
X142638095Y-105717238D01*
X142714285Y-105688666D01*
X142828571Y-105702952D01*
X142904761Y-105750571D01*
X142942857Y-105793428D01*
X142980952Y-105874380D01*
X142980952Y-106179142D01*
X142942857Y-105107714D02*
X142942857Y-105374380D01*
X143361904Y-105426761D02*
X142561904Y-105326761D01*
X142561904Y-104945809D01*
X142561904Y-104488666D02*
X142561904Y-104412476D01*
X142600000Y-104341047D01*
X142638095Y-104307714D01*
X142714285Y-104279142D01*
X142866666Y-104260095D01*
X143057142Y-104283904D01*
X143209523Y-104341047D01*
X143285714Y-104388666D01*
X143323809Y-104431523D01*
X143361904Y-104512476D01*
X143361904Y-104588666D01*
X143323809Y-104660095D01*
X143285714Y-104693428D01*
X143209523Y-104722000D01*
X143057142Y-104741047D01*
X142866666Y-104717238D01*
X142714285Y-104660095D01*
X142638095Y-104612476D01*
X142600000Y-104569619D01*
X142561904Y-104488666D01*
X117611904Y-106226761D02*
X116811904Y-106126761D01*
X116811904Y-105822000D01*
X116850000Y-105750571D01*
X116888095Y-105717238D01*
X116964285Y-105688666D01*
X117078571Y-105702952D01*
X117154761Y-105750571D01*
X117192857Y-105793428D01*
X117230952Y-105874380D01*
X117230952Y-106179142D01*
X117383333Y-105436285D02*
X117383333Y-105055333D01*
X117611904Y-105541047D02*
X116811904Y-105174380D01*
X117611904Y-105007714D01*
X116811904Y-104717238D02*
X116811904Y-104183904D01*
X117611904Y-104626761D01*
X115111904Y-106226761D02*
X114311904Y-106126761D01*
X114311904Y-105822000D01*
X114350000Y-105750571D01*
X114388095Y-105717238D01*
X114464285Y-105688666D01*
X114578571Y-105702952D01*
X114654761Y-105750571D01*
X114692857Y-105793428D01*
X114730952Y-105874380D01*
X114730952Y-106179142D01*
X114692857Y-105107714D02*
X114730952Y-104998190D01*
X114769047Y-104964857D01*
X114845238Y-104936285D01*
X114959523Y-104950571D01*
X115035714Y-104998190D01*
X115073809Y-105041047D01*
X115111904Y-105122000D01*
X115111904Y-105426761D01*
X114311904Y-105326761D01*
X114311904Y-105060095D01*
X114350000Y-104988666D01*
X114388095Y-104955333D01*
X114464285Y-104926761D01*
X114540476Y-104936285D01*
X114616666Y-104983904D01*
X114654761Y-105026761D01*
X114692857Y-105107714D01*
X114692857Y-105374380D01*
X114311904Y-104374380D02*
X114311904Y-104298190D01*
X114350000Y-104226761D01*
X114388095Y-104193428D01*
X114464285Y-104164857D01*
X114616666Y-104145809D01*
X114807142Y-104169619D01*
X114959523Y-104226761D01*
X115035714Y-104274380D01*
X115073809Y-104317238D01*
X115111904Y-104398190D01*
X115111904Y-104474380D01*
X115073809Y-104545809D01*
X115035714Y-104579142D01*
X114959523Y-104607714D01*
X114807142Y-104626761D01*
X114616666Y-104602952D01*
X114464285Y-104545809D01*
X114388095Y-104498190D01*
X114350000Y-104455333D01*
X114311904Y-104374380D01*
X112611904Y-106226761D02*
X111811904Y-106126761D01*
X111811904Y-105822000D01*
X111850000Y-105750571D01*
X111888095Y-105717238D01*
X111964285Y-105688666D01*
X112078571Y-105702952D01*
X112154761Y-105750571D01*
X112192857Y-105793428D01*
X112230952Y-105874380D01*
X112230952Y-106179142D01*
X112192857Y-105107714D02*
X112230952Y-104998190D01*
X112269047Y-104964857D01*
X112345238Y-104936285D01*
X112459523Y-104950571D01*
X112535714Y-104998190D01*
X112573809Y-105041047D01*
X112611904Y-105122000D01*
X112611904Y-105426761D01*
X111811904Y-105326761D01*
X111811904Y-105060095D01*
X111850000Y-104988666D01*
X111888095Y-104955333D01*
X111964285Y-104926761D01*
X112040476Y-104936285D01*
X112116666Y-104983904D01*
X112154761Y-105026761D01*
X112192857Y-105107714D01*
X112192857Y-105374380D01*
X112611904Y-104207714D02*
X112611904Y-104664857D01*
X112611904Y-104436285D02*
X111811904Y-104336285D01*
X111926190Y-104426761D01*
X112002380Y-104512476D01*
X112040476Y-104593428D01*
X110111904Y-106226761D02*
X109311904Y-106126761D01*
X109311904Y-105822000D01*
X109350000Y-105750571D01*
X109388095Y-105717238D01*
X109464285Y-105688666D01*
X109578571Y-105702952D01*
X109654761Y-105750571D01*
X109692857Y-105793428D01*
X109730952Y-105874380D01*
X109730952Y-106179142D01*
X109692857Y-105107714D02*
X109730952Y-104998190D01*
X109769047Y-104964857D01*
X109845238Y-104936285D01*
X109959523Y-104950571D01*
X110035714Y-104998190D01*
X110073809Y-105041047D01*
X110111904Y-105122000D01*
X110111904Y-105426761D01*
X109311904Y-105326761D01*
X109311904Y-105060095D01*
X109350000Y-104988666D01*
X109388095Y-104955333D01*
X109464285Y-104926761D01*
X109540476Y-104936285D01*
X109616666Y-104983904D01*
X109654761Y-105026761D01*
X109692857Y-105107714D01*
X109692857Y-105374380D01*
X109388095Y-104574380D02*
X109350000Y-104531523D01*
X109311904Y-104450571D01*
X109311904Y-104260095D01*
X109350000Y-104188666D01*
X109388095Y-104155333D01*
X109464285Y-104126761D01*
X109540476Y-104136285D01*
X109654761Y-104188666D01*
X110111904Y-104702952D01*
X110111904Y-104207714D01*
X107611904Y-106226761D02*
X106811904Y-106126761D01*
X106811904Y-105822000D01*
X106850000Y-105750571D01*
X106888095Y-105717238D01*
X106964285Y-105688666D01*
X107078571Y-105702952D01*
X107154761Y-105750571D01*
X107192857Y-105793428D01*
X107230952Y-105874380D01*
X107230952Y-106179142D01*
X107192857Y-105107714D02*
X107230952Y-104998190D01*
X107269047Y-104964857D01*
X107345238Y-104936285D01*
X107459523Y-104950571D01*
X107535714Y-104998190D01*
X107573809Y-105041047D01*
X107611904Y-105122000D01*
X107611904Y-105426761D01*
X106811904Y-105326761D01*
X106811904Y-105060095D01*
X106850000Y-104988666D01*
X106888095Y-104955333D01*
X106964285Y-104926761D01*
X107040476Y-104936285D01*
X107116666Y-104983904D01*
X107154761Y-105026761D01*
X107192857Y-105107714D01*
X107192857Y-105374380D01*
X107611904Y-104207714D02*
X107611904Y-104664857D01*
X107611904Y-104436285D02*
X106811904Y-104336285D01*
X106926190Y-104426761D01*
X107002380Y-104512476D01*
X107040476Y-104593428D01*
X106811904Y-103612476D02*
X106811904Y-103536285D01*
X106850000Y-103464857D01*
X106888095Y-103431523D01*
X106964285Y-103402952D01*
X107116666Y-103383904D01*
X107307142Y-103407714D01*
X107459523Y-103464857D01*
X107535714Y-103512476D01*
X107573809Y-103555333D01*
X107611904Y-103636285D01*
X107611904Y-103712476D01*
X107573809Y-103783904D01*
X107535714Y-103817238D01*
X107459523Y-103845809D01*
X107307142Y-103864857D01*
X107116666Y-103841047D01*
X106964285Y-103783904D01*
X106888095Y-103736285D01*
X106850000Y-103693428D01*
X106811904Y-103612476D01*
X105111904Y-106226761D02*
X104311904Y-106126761D01*
X104311904Y-105822000D01*
X104350000Y-105750571D01*
X104388095Y-105717238D01*
X104464285Y-105688666D01*
X104578571Y-105702952D01*
X104654761Y-105750571D01*
X104692857Y-105793428D01*
X104730952Y-105874380D01*
X104730952Y-106179142D01*
X104692857Y-105107714D02*
X104730952Y-104998190D01*
X104769047Y-104964857D01*
X104845238Y-104936285D01*
X104959523Y-104950571D01*
X105035714Y-104998190D01*
X105073809Y-105041047D01*
X105111904Y-105122000D01*
X105111904Y-105426761D01*
X104311904Y-105326761D01*
X104311904Y-105060095D01*
X104350000Y-104988666D01*
X104388095Y-104955333D01*
X104464285Y-104926761D01*
X104540476Y-104936285D01*
X104616666Y-104983904D01*
X104654761Y-105026761D01*
X104692857Y-105107714D01*
X104692857Y-105374380D01*
X105111904Y-104207714D02*
X105111904Y-104664857D01*
X105111904Y-104436285D02*
X104311904Y-104336285D01*
X104426190Y-104426761D01*
X104502380Y-104512476D01*
X104540476Y-104593428D01*
X105111904Y-103445809D02*
X105111904Y-103902952D01*
X105111904Y-103674380D02*
X104311904Y-103574380D01*
X104426190Y-103664857D01*
X104502380Y-103750571D01*
X104540476Y-103831523D01*
X138111904Y-106226761D02*
X137311904Y-106126761D01*
X138111904Y-105769619D01*
X137311904Y-105669619D01*
X138111904Y-104931523D02*
X137730952Y-105150571D01*
X138111904Y-105388666D02*
X137311904Y-105288666D01*
X137311904Y-104983904D01*
X137350000Y-104912476D01*
X137388095Y-104879142D01*
X137464285Y-104850571D01*
X137578571Y-104864857D01*
X137654761Y-104912476D01*
X137692857Y-104955333D01*
X137730952Y-105036285D01*
X137730952Y-105341047D01*
X138073809Y-104622000D02*
X138111904Y-104512476D01*
X138111904Y-104322000D01*
X138073809Y-104241047D01*
X138035714Y-104198190D01*
X137959523Y-104150571D01*
X137883333Y-104141047D01*
X137807142Y-104169619D01*
X137769047Y-104202952D01*
X137730952Y-104274380D01*
X137692857Y-104422000D01*
X137654761Y-104493428D01*
X137616666Y-104526761D01*
X137540476Y-104555333D01*
X137464285Y-104545809D01*
X137388095Y-104498190D01*
X137350000Y-104455333D01*
X137311904Y-104374380D01*
X137311904Y-104183904D01*
X137350000Y-104074380D01*
X137311904Y-103841047D02*
X137311904Y-103383904D01*
X138111904Y-103712476D02*
X137311904Y-103612476D01*
X101561904Y-106241047D02*
X102361904Y-106074380D01*
X101561904Y-105707714D01*
X102361904Y-105541047D02*
X101561904Y-105441047D01*
X101561904Y-105250571D01*
X101600000Y-105141047D01*
X101676190Y-105074380D01*
X101752380Y-105045809D01*
X101904761Y-105026761D01*
X102019047Y-105041047D01*
X102171428Y-105098190D01*
X102247619Y-105145809D01*
X102323809Y-105231523D01*
X102361904Y-105350571D01*
X102361904Y-105541047D01*
X102361904Y-104741047D02*
X101561904Y-104641047D01*
X101561904Y-104450571D01*
X101600000Y-104341047D01*
X101676190Y-104274380D01*
X101752380Y-104245809D01*
X101904761Y-104226761D01*
X102019047Y-104241047D01*
X102171428Y-104298190D01*
X102247619Y-104345809D01*
X102323809Y-104431523D01*
X102361904Y-104550571D01*
X102361904Y-104741047D01*
X146675000Y-102900000D02*
X146675000Y-106500000D01*
X144100000Y-102900000D02*
X144100000Y-106500000D01*
X141575000Y-102900000D02*
X141575000Y-106500000D01*
X139050000Y-102900000D02*
X139050000Y-106500000D01*
X136525000Y-102900000D02*
X136525000Y-106500000D01*
X134000000Y-102900000D02*
X134000000Y-106500000D01*
X131425000Y-102900000D02*
X131425000Y-106500000D01*
X128875000Y-102900000D02*
X128875000Y-106500000D01*
X126350000Y-102900000D02*
X126350000Y-106500000D01*
X123800000Y-102900000D02*
X123800000Y-106500000D01*
X121275000Y-102900000D02*
X121275000Y-106500000D01*
X118750000Y-102900000D02*
X118750000Y-106500000D01*
X116200000Y-102900000D02*
X116200000Y-106500000D01*
X113650000Y-102900000D02*
X113650000Y-106500000D01*
X111100000Y-102900000D02*
X111100000Y-106500000D01*
X108575000Y-102900000D02*
X108575000Y-106500000D01*
X106050000Y-102900000D02*
X106050000Y-106500000D01*
X103500000Y-102900000D02*
X103500000Y-106500000D01*
X99100000Y-105712476D02*
X99061904Y-105783904D01*
X99061904Y-105898190D01*
X99100000Y-106017238D01*
X99176190Y-106102952D01*
X99252380Y-106150571D01*
X99404761Y-106207714D01*
X99519047Y-106222000D01*
X99671428Y-106202952D01*
X99747619Y-106174380D01*
X99823809Y-106107714D01*
X99861904Y-105998190D01*
X99861904Y-105922000D01*
X99823809Y-105802952D01*
X99785714Y-105760095D01*
X99519047Y-105726761D01*
X99519047Y-105879142D01*
X99861904Y-105426761D02*
X99061904Y-105326761D01*
X99861904Y-104969619D01*
X99061904Y-104869619D01*
X99861904Y-104588666D02*
X99061904Y-104488666D01*
X99061904Y-104298190D01*
X99100000Y-104188666D01*
X99176190Y-104122000D01*
X99252380Y-104093428D01*
X99404761Y-104074380D01*
X99519047Y-104088666D01*
X99671428Y-104145809D01*
X99747619Y-104193428D01*
X99823809Y-104279142D01*
X99861904Y-104398190D01*
X99861904Y-104588666D01*
X149230000Y-106500000D02*
X149230000Y-102890000D01*
X98230000Y-106500000D02*
X154350000Y-106500000D01*
X100850000Y-102900000D02*
X100850000Y-106500000D01*
X96970000Y-110650000D02*
X103380000Y-110650000D01*
X98200000Y-119350000D02*
X98200000Y-110650000D01*
X103380000Y-119350000D02*
X96970000Y-119350000D01*
X103380000Y-110650000D02*
X103380000Y-119350000D01*
X96970000Y-110650000D02*
X96970000Y-119350000D01*
X151690000Y-127110000D02*
X98230000Y-127110000D01*
X98230000Y-127110000D02*
X98230000Y-129890000D01*
X98230000Y-129890000D02*
X151690000Y-129890000D01*
X151690000Y-129890000D02*
X151690000Y-127110000D01*
X152960000Y-127110000D02*
X154350000Y-127110000D01*
X154350000Y-127110000D02*
X154350000Y-128500000D01*
X154350000Y-100110000D02*
X154350000Y-101500000D01*
X152960000Y-100110000D02*
X154350000Y-100110000D01*
X151690000Y-102890000D02*
X151690000Y-100110000D01*
X98230000Y-102890000D02*
X151690000Y-102890000D01*
X98230000Y-100110000D02*
X98230000Y-102890000D01*
X151690000Y-100110000D02*
X98230000Y-100110000D01*
X140310000Y-118060000D02*
X136690000Y-118060000D01*
X140310000Y-111940000D02*
X140310000Y-118060000D01*
X136690000Y-111940000D02*
X140310000Y-111940000D01*
X136690000Y-118060000D02*
X136690000Y-111940000D01*
X135850000Y-112900000D02*
X135850000Y-113600000D01*
X134650000Y-113600000D02*
X134650000Y-112900000D01*
X124573223Y-122421751D02*
X124078249Y-121926777D01*
X124926777Y-121078249D02*
X125421751Y-121573223D01*
X118400000Y-112850000D02*
X118400000Y-112150000D01*
X119600000Y-112150000D02*
X119600000Y-112850000D01*
X130578249Y-108073223D02*
X131073223Y-107578249D01*
X131921751Y-108426777D02*
X131426777Y-108921751D01*
X134421751Y-116926777D02*
X133926777Y-117421751D01*
X133078249Y-116573223D02*
X133573223Y-116078249D01*
X106250000Y-109770000D02*
X108250000Y-109770000D01*
X108250000Y-107730000D02*
X106250000Y-107730000D01*
X107500000Y-116980000D02*
X105500000Y-116980000D01*
X105500000Y-119020000D02*
X107500000Y-119020000D01*
X107250000Y-112570000D02*
X105250000Y-112570000D01*
X105250000Y-110430000D02*
X107250000Y-110430000D01*
D12*
X131308326Y-114681802D02*
X132280598Y-113709530D01*
X126500000Y-120126524D02*
X126871231Y-119755293D01*
X121373476Y-115000000D02*
X121744707Y-114628769D01*
X126500000Y-109873476D02*
X126128769Y-110244707D01*
X131626524Y-115000000D02*
X131255293Y-115371231D01*
X126500000Y-109873476D02*
X126871231Y-110244707D01*
X121373476Y-115000000D02*
X121744707Y-115371231D01*
X126500000Y-120126524D02*
X126128769Y-119755293D01*
X131626524Y-115000000D02*
X131308326Y-114681802D01*
D11*
X150200000Y-121300000D02*
X150200000Y-122700000D01*
X150200000Y-122700000D02*
X153000000Y-122700000D01*
X150200000Y-121300000D02*
X153000000Y-121300000D01*
X150200000Y-107300000D02*
X153000000Y-107300000D01*
X150200000Y-108700000D02*
X153000000Y-108700000D01*
X150200000Y-107300000D02*
X150200000Y-108700000D01*
X144610000Y-111070000D02*
X146000000Y-111070000D01*
X144610000Y-112460000D02*
X144610000Y-111070000D01*
X147390000Y-113730000D02*
X144610000Y-113730000D01*
X147390000Y-118930000D02*
X147390000Y-113730000D01*
X144610000Y-118930000D02*
X147390000Y-118930000D01*
X144610000Y-113730000D02*
X144610000Y-118930000D01*
X154640000Y-120220000D02*
X153250000Y-120220000D01*
X154640000Y-118830000D02*
X154640000Y-120220000D01*
X151860000Y-117560000D02*
X154640000Y-117560000D01*
X151860000Y-109820000D02*
X151860000Y-117560000D01*
X154640000Y-109820000D02*
X151860000Y-109820000D01*
X154640000Y-117560000D02*
X154640000Y-109820000D01*
X143250000Y-110680000D02*
X142250000Y-110680000D01*
X142250000Y-109320000D02*
X143250000Y-109320000D01*
X104750000Y-115070000D02*
X105750000Y-115070000D01*
X105750000Y-116430000D02*
X104750000Y-116430000D01*
X105750000Y-114930000D02*
X104750000Y-114930000D01*
X104750000Y-113570000D02*
X105750000Y-113570000D01*
X106820000Y-114750000D02*
X106820000Y-113750000D01*
X108180000Y-113750000D02*
X108180000Y-114750000D01*
X142250000Y-119320000D02*
X143250000Y-119320000D01*
X143250000Y-120680000D02*
X142250000Y-120680000D01*
X148000000Y-121320000D02*
X149000000Y-121320000D01*
X149000000Y-122680000D02*
X148000000Y-122680000D01*
X149000000Y-108680000D02*
X148000000Y-108680000D01*
X148000000Y-107320000D02*
X149000000Y-107320000D01*
X115910000Y-110650000D02*
X115910000Y-116660000D01*
X109090000Y-112900000D02*
X109090000Y-116660000D01*
X115910000Y-116660000D02*
X114650000Y-116660000D01*
X109090000Y-116660000D02*
X110350000Y-116660000D01*
X100800000Y-109171428D02*
X100800000Y-109600000D01*
X100771428Y-109685714D01*
X100714285Y-109742857D01*
X100628571Y-109771428D01*
X100571428Y-109771428D01*
X101400000Y-109771428D02*
X101057142Y-109771428D01*
X101228571Y-109771428D02*
X101228571Y-109171428D01*
X101171428Y-109257142D01*
X101114285Y-109314285D01*
X101057142Y-109342857D01*
X135150000Y-111464285D02*
X135121428Y-111492857D01*
X135035714Y-111521428D01*
X134978571Y-111521428D01*
X134892857Y-111492857D01*
X134835714Y-111435714D01*
X134807142Y-111378571D01*
X134778571Y-111264285D01*
X134778571Y-111178571D01*
X134807142Y-111064285D01*
X134835714Y-111007142D01*
X134892857Y-110950000D01*
X134978571Y-110921428D01*
X135035714Y-110921428D01*
X135121428Y-110950000D01*
X135150000Y-110978571D01*
X135378571Y-110978571D02*
X135407142Y-110950000D01*
X135464285Y-110921428D01*
X135607142Y-110921428D01*
X135664285Y-110950000D01*
X135692857Y-110978571D01*
X135721428Y-111035714D01*
X135721428Y-111092857D01*
X135692857Y-111178571D01*
X135350000Y-111521428D01*
X135721428Y-111521428D01*
X123650000Y-122964285D02*
X123621428Y-122992857D01*
X123535714Y-123021428D01*
X123478571Y-123021428D01*
X123392857Y-122992857D01*
X123335714Y-122935714D01*
X123307142Y-122878571D01*
X123278571Y-122764285D01*
X123278571Y-122678571D01*
X123307142Y-122564285D01*
X123335714Y-122507142D01*
X123392857Y-122450000D01*
X123478571Y-122421428D01*
X123535714Y-122421428D01*
X123621428Y-122450000D01*
X123650000Y-122478571D01*
X124164285Y-122621428D02*
X124164285Y-123021428D01*
X124021428Y-122392857D02*
X123878571Y-122821428D01*
X124250000Y-122821428D01*
X118900000Y-110714285D02*
X118871428Y-110742857D01*
X118785714Y-110771428D01*
X118728571Y-110771428D01*
X118642857Y-110742857D01*
X118585714Y-110685714D01*
X118557142Y-110628571D01*
X118528571Y-110514285D01*
X118528571Y-110428571D01*
X118557142Y-110314285D01*
X118585714Y-110257142D01*
X118642857Y-110200000D01*
X118728571Y-110171428D01*
X118785714Y-110171428D01*
X118871428Y-110200000D01*
X118900000Y-110228571D01*
X119442857Y-110171428D02*
X119157142Y-110171428D01*
X119128571Y-110457142D01*
X119157142Y-110428571D01*
X119214285Y-110400000D01*
X119357142Y-110400000D01*
X119414285Y-110428571D01*
X119442857Y-110457142D01*
X119471428Y-110514285D01*
X119471428Y-110657142D01*
X119442857Y-110714285D01*
X119414285Y-110742857D01*
X119357142Y-110771428D01*
X119214285Y-110771428D01*
X119157142Y-110742857D01*
X119128571Y-110714285D01*
X129912563Y-107714285D02*
X129883991Y-107742857D01*
X129798277Y-107771428D01*
X129741134Y-107771428D01*
X129655420Y-107742857D01*
X129598277Y-107685714D01*
X129569705Y-107628571D01*
X129541134Y-107514285D01*
X129541134Y-107428571D01*
X129569705Y-107314285D01*
X129598277Y-107257142D01*
X129655420Y-107200000D01*
X129741134Y-107171428D01*
X129798277Y-107171428D01*
X129883991Y-107200000D01*
X129912563Y-107228571D01*
X130426848Y-107171428D02*
X130312563Y-107171428D01*
X130255420Y-107200000D01*
X130226848Y-107228571D01*
X130169705Y-107314285D01*
X130141134Y-107428571D01*
X130141134Y-107657142D01*
X130169705Y-107714285D01*
X130198277Y-107742857D01*
X130255420Y-107771428D01*
X130369705Y-107771428D01*
X130426848Y-107742857D01*
X130455420Y-107714285D01*
X130483991Y-107657142D01*
X130483991Y-107514285D01*
X130455420Y-107457142D01*
X130426848Y-107428571D01*
X130369705Y-107400000D01*
X130255420Y-107400000D01*
X130198277Y-107428571D01*
X130169705Y-107457142D01*
X130141134Y-107514285D01*
X134650000Y-117964285D02*
X134621428Y-117992857D01*
X134535714Y-118021428D01*
X134478571Y-118021428D01*
X134392857Y-117992857D01*
X134335714Y-117935714D01*
X134307142Y-117878571D01*
X134278571Y-117764285D01*
X134278571Y-117678571D01*
X134307142Y-117564285D01*
X134335714Y-117507142D01*
X134392857Y-117450000D01*
X134478571Y-117421428D01*
X134535714Y-117421428D01*
X134621428Y-117450000D01*
X134650000Y-117478571D01*
X134992857Y-117678571D02*
X134935714Y-117650000D01*
X134907142Y-117621428D01*
X134878571Y-117564285D01*
X134878571Y-117535714D01*
X134907142Y-117478571D01*
X134935714Y-117450000D01*
X134992857Y-117421428D01*
X135107142Y-117421428D01*
X135164285Y-117450000D01*
X135192857Y-117478571D01*
X135221428Y-117535714D01*
X135221428Y-117564285D01*
X135192857Y-117621428D01*
X135164285Y-117650000D01*
X135107142Y-117678571D01*
X134992857Y-117678571D01*
X134935714Y-117707142D01*
X134907142Y-117735714D01*
X134878571Y-117792857D01*
X134878571Y-117907142D01*
X134907142Y-117964285D01*
X134935714Y-117992857D01*
X134992857Y-118021428D01*
X135107142Y-118021428D01*
X135164285Y-117992857D01*
X135192857Y-117964285D01*
X135221428Y-117907142D01*
X135221428Y-117792857D01*
X135192857Y-117735714D01*
X135164285Y-117707142D01*
X135107142Y-117678571D01*
X107150000Y-107464285D02*
X107121428Y-107492857D01*
X107035714Y-107521428D01*
X106978571Y-107521428D01*
X106892857Y-107492857D01*
X106835714Y-107435714D01*
X106807142Y-107378571D01*
X106778571Y-107264285D01*
X106778571Y-107178571D01*
X106807142Y-107064285D01*
X106835714Y-107007142D01*
X106892857Y-106950000D01*
X106978571Y-106921428D01*
X107035714Y-106921428D01*
X107121428Y-106950000D01*
X107150000Y-106978571D01*
X107721428Y-107521428D02*
X107378571Y-107521428D01*
X107550000Y-107521428D02*
X107550000Y-106921428D01*
X107492857Y-107007142D01*
X107435714Y-107064285D01*
X107378571Y-107092857D01*
X106400000Y-119964285D02*
X106371428Y-119992857D01*
X106285714Y-120021428D01*
X106228571Y-120021428D01*
X106142857Y-119992857D01*
X106085714Y-119935714D01*
X106057142Y-119878571D01*
X106028571Y-119764285D01*
X106028571Y-119678571D01*
X106057142Y-119564285D01*
X106085714Y-119507142D01*
X106142857Y-119450000D01*
X106228571Y-119421428D01*
X106285714Y-119421428D01*
X106371428Y-119450000D01*
X106400000Y-119478571D01*
X106600000Y-119421428D02*
X106971428Y-119421428D01*
X106771428Y-119650000D01*
X106857142Y-119650000D01*
X106914285Y-119678571D01*
X106942857Y-119707142D01*
X106971428Y-119764285D01*
X106971428Y-119907142D01*
X106942857Y-119964285D01*
X106914285Y-119992857D01*
X106857142Y-120021428D01*
X106685714Y-120021428D01*
X106628571Y-119992857D01*
X106600000Y-119964285D01*
X104050000Y-109707142D02*
X103850000Y-109707142D01*
X103850000Y-110021428D02*
X103850000Y-109421428D01*
X104135714Y-109421428D01*
X104678571Y-110021428D02*
X104335714Y-110021428D01*
X104507142Y-110021428D02*
X104507142Y-109421428D01*
X104450000Y-109507142D01*
X104392857Y-109564285D01*
X104335714Y-109592857D01*
X121792857Y-110421428D02*
X121792857Y-110907142D01*
X121821428Y-110964285D01*
X121850000Y-110992857D01*
X121907142Y-111021428D01*
X122021428Y-111021428D01*
X122078571Y-110992857D01*
X122107142Y-110964285D01*
X122135714Y-110907142D01*
X122135714Y-110421428D01*
X122392857Y-110478571D02*
X122421428Y-110450000D01*
X122478571Y-110421428D01*
X122621428Y-110421428D01*
X122678571Y-110450000D01*
X122707142Y-110478571D01*
X122735714Y-110535714D01*
X122735714Y-110592857D01*
X122707142Y-110678571D01*
X122364285Y-111021428D01*
X122735714Y-111021428D01*
X142650000Y-109021428D02*
X142450000Y-108735714D01*
X142307142Y-109021428D02*
X142307142Y-108421428D01*
X142535714Y-108421428D01*
X142592857Y-108450000D01*
X142621428Y-108478571D01*
X142650000Y-108535714D01*
X142650000Y-108621428D01*
X142621428Y-108678571D01*
X142592857Y-108707142D01*
X142535714Y-108735714D01*
X142307142Y-108735714D01*
X143221428Y-109021428D02*
X142878571Y-109021428D01*
X143050000Y-109021428D02*
X143050000Y-108421428D01*
X142992857Y-108507142D01*
X142935714Y-108564285D01*
X142878571Y-108592857D01*
X104200000Y-113371428D02*
X104000000Y-113085714D01*
X103857142Y-113371428D02*
X103857142Y-112771428D01*
X104085714Y-112771428D01*
X104142857Y-112800000D01*
X104171428Y-112828571D01*
X104200000Y-112885714D01*
X104200000Y-112971428D01*
X104171428Y-113028571D01*
X104142857Y-113057142D01*
X104085714Y-113085714D01*
X103857142Y-113085714D01*
X104428571Y-112828571D02*
X104457142Y-112800000D01*
X104514285Y-112771428D01*
X104657142Y-112771428D01*
X104714285Y-112800000D01*
X104742857Y-112828571D01*
X104771428Y-112885714D01*
X104771428Y-112942857D01*
X104742857Y-113028571D01*
X104400000Y-113371428D01*
X104771428Y-113371428D01*
X107100000Y-116671428D02*
X106900000Y-116385714D01*
X106757142Y-116671428D02*
X106757142Y-116071428D01*
X106985714Y-116071428D01*
X107042857Y-116100000D01*
X107071428Y-116128571D01*
X107100000Y-116185714D01*
X107100000Y-116271428D01*
X107071428Y-116328571D01*
X107042857Y-116357142D01*
X106985714Y-116385714D01*
X106757142Y-116385714D01*
X107300000Y-116071428D02*
X107671428Y-116071428D01*
X107471428Y-116300000D01*
X107557142Y-116300000D01*
X107614285Y-116328571D01*
X107642857Y-116357142D01*
X107671428Y-116414285D01*
X107671428Y-116557142D01*
X107642857Y-116614285D01*
X107614285Y-116642857D01*
X107557142Y-116671428D01*
X107385714Y-116671428D01*
X107328571Y-116642857D01*
X107300000Y-116614285D01*
X106000000Y-113371428D02*
X105800000Y-113085714D01*
X105657142Y-113371428D02*
X105657142Y-112771428D01*
X105885714Y-112771428D01*
X105942857Y-112800000D01*
X105971428Y-112828571D01*
X106000000Y-112885714D01*
X106000000Y-112971428D01*
X105971428Y-113028571D01*
X105942857Y-113057142D01*
X105885714Y-113085714D01*
X105657142Y-113085714D01*
X106514285Y-112971428D02*
X106514285Y-113371428D01*
X106371428Y-112742857D02*
X106228571Y-113171428D01*
X106600000Y-113171428D01*
X142650000Y-121771428D02*
X142450000Y-121485714D01*
X142307142Y-121771428D02*
X142307142Y-121171428D01*
X142535714Y-121171428D01*
X142592857Y-121200000D01*
X142621428Y-121228571D01*
X142650000Y-121285714D01*
X142650000Y-121371428D01*
X142621428Y-121428571D01*
X142592857Y-121457142D01*
X142535714Y-121485714D01*
X142307142Y-121485714D01*
X143192857Y-121171428D02*
X142907142Y-121171428D01*
X142878571Y-121457142D01*
X142907142Y-121428571D01*
X142964285Y-121400000D01*
X143107142Y-121400000D01*
X143164285Y-121428571D01*
X143192857Y-121457142D01*
X143221428Y-121514285D01*
X143221428Y-121657142D01*
X143192857Y-121714285D01*
X143164285Y-121742857D01*
X143107142Y-121771428D01*
X142964285Y-121771428D01*
X142907142Y-121742857D01*
X142878571Y-121714285D01*
X148400000Y-121021428D02*
X148200000Y-120735714D01*
X148057142Y-121021428D02*
X148057142Y-120421428D01*
X148285714Y-120421428D01*
X148342857Y-120450000D01*
X148371428Y-120478571D01*
X148400000Y-120535714D01*
X148400000Y-120621428D01*
X148371428Y-120678571D01*
X148342857Y-120707142D01*
X148285714Y-120735714D01*
X148057142Y-120735714D01*
X148914285Y-120421428D02*
X148800000Y-120421428D01*
X148742857Y-120450000D01*
X148714285Y-120478571D01*
X148657142Y-120564285D01*
X148628571Y-120678571D01*
X148628571Y-120907142D01*
X148657142Y-120964285D01*
X148685714Y-120992857D01*
X148742857Y-121021428D01*
X148857142Y-121021428D01*
X148914285Y-120992857D01*
X148942857Y-120964285D01*
X148971428Y-120907142D01*
X148971428Y-120764285D01*
X148942857Y-120707142D01*
X148914285Y-120678571D01*
X148857142Y-120650000D01*
X148742857Y-120650000D01*
X148685714Y-120678571D01*
X148657142Y-120707142D01*
X148628571Y-120764285D01*
X146150000Y-108271428D02*
X145950000Y-107985714D01*
X145807142Y-108271428D02*
X145807142Y-107671428D01*
X146035714Y-107671428D01*
X146092857Y-107700000D01*
X146121428Y-107728571D01*
X146150000Y-107785714D01*
X146150000Y-107871428D01*
X146121428Y-107928571D01*
X146092857Y-107957142D01*
X146035714Y-107985714D01*
X145807142Y-107985714D01*
X146350000Y-107671428D02*
X146750000Y-107671428D01*
X146492857Y-108271428D01*
X112042857Y-109171428D02*
X112042857Y-109657142D01*
X112071428Y-109714285D01*
X112100000Y-109742857D01*
X112157142Y-109771428D01*
X112271428Y-109771428D01*
X112328571Y-109742857D01*
X112357142Y-109714285D01*
X112385714Y-109657142D01*
X112385714Y-109171428D01*
X112985714Y-109771428D02*
X112642857Y-109771428D01*
X112814285Y-109771428D02*
X112814285Y-109171428D01*
X112757142Y-109257142D01*
X112700000Y-109314285D01*
X112642857Y-109342857D01*
M02*
