G04 #@! TF.GenerationSoftware,KiCad,Pcbnew,(2017-05-18 revision 2a3a699)-master*
G04 #@! TF.CreationDate,2017-06-18T12:29:58+03:00*
G04 #@! TF.ProjectId,stm32f072c8tx_breakout,73746D333266303732633874785F6272,rev?*
G04 #@! TF.FileFunction,Copper,L1,Top,Signal*
G04 #@! TF.FilePolarity,Positive*
%FSLAX46Y46*%
G04 Gerber Fmt 4.6, Leading zero omitted, Abs format (unit mm)*
G04 Created by KiCad (PCBNEW (2017-05-18 revision 2a3a699)-master) date Sun Jun 18 12:29:58 2017*
%MOMM*%
%LPD*%
G01*
G04 APERTURE LIST*
%ADD10C,0.100000*%
%ADD11O,1.550000X1.000000*%
%ADD12O,0.950000X1.250000*%
%ADD13R,1.350000X0.400000*%
%ADD14R,1.700000X1.700000*%
%ADD15O,1.700000X1.700000*%
%ADD16R,1.600000X2.180000*%
%ADD17R,0.750000X0.800000*%
%ADD18C,0.750000*%
%ADD19R,1.000000X1.600000*%
%ADD20R,1.140000X2.030000*%
%ADD21C,0.250000*%
%ADD22R,1.200000X1.200000*%
%ADD23R,0.500000X0.900000*%
%ADD24R,0.900000X0.500000*%
%ADD25R,1.500000X2.000000*%
%ADD26R,3.800000X2.000000*%
%ADD27C,0.800000*%
%ADD28C,0.250000*%
%ADD29C,0.500000*%
%ADD30C,0.254000*%
G04 APERTURE END LIST*
D10*
D11*
X99650000Y-118500000D03*
X99650000Y-111500000D03*
D12*
X102350000Y-117500000D03*
X102350000Y-112500000D03*
D13*
X102350000Y-116300000D03*
X102350000Y-115650000D03*
X102350000Y-115000000D03*
X102350000Y-114350000D03*
X102350000Y-113700000D03*
D14*
X152960000Y-128500000D03*
D15*
X150420000Y-128500000D03*
X147880000Y-128500000D03*
X145340000Y-128500000D03*
X142800000Y-128500000D03*
X140260000Y-128500000D03*
X137720000Y-128500000D03*
X135180000Y-128500000D03*
X132640000Y-128500000D03*
X130100000Y-128500000D03*
X127560000Y-128500000D03*
X125020000Y-128500000D03*
X122480000Y-128500000D03*
X119940000Y-128500000D03*
X117400000Y-128500000D03*
X114860000Y-128500000D03*
X112320000Y-128500000D03*
X109780000Y-128500000D03*
X107240000Y-128500000D03*
X104700000Y-128500000D03*
X102160000Y-128500000D03*
X99620000Y-128500000D03*
X99620000Y-101500000D03*
X102160000Y-101500000D03*
X104700000Y-101500000D03*
X107240000Y-101500000D03*
X109780000Y-101500000D03*
X112320000Y-101500000D03*
X114860000Y-101500000D03*
X117400000Y-101500000D03*
X119940000Y-101500000D03*
X122480000Y-101500000D03*
X125020000Y-101500000D03*
X127560000Y-101500000D03*
X130100000Y-101500000D03*
X132640000Y-101500000D03*
X135180000Y-101500000D03*
X137720000Y-101500000D03*
X140260000Y-101500000D03*
X142800000Y-101500000D03*
X145340000Y-101500000D03*
X147880000Y-101500000D03*
X150420000Y-101500000D03*
D14*
X152960000Y-101500000D03*
D16*
X138500000Y-110410000D03*
X138500000Y-119590000D03*
D17*
X135250000Y-112500000D03*
X135250000Y-114000000D03*
D18*
X125280330Y-122280330D03*
D10*
G36*
X124732322Y-122262652D02*
X125262652Y-121732322D01*
X125828338Y-122298008D01*
X125298008Y-122828338D01*
X124732322Y-122262652D01*
X124732322Y-122262652D01*
G37*
D18*
X124219670Y-121219670D03*
D10*
G36*
X123671662Y-121201992D02*
X124201992Y-120671662D01*
X124767678Y-121237348D01*
X124237348Y-121767678D01*
X123671662Y-121201992D01*
X123671662Y-121201992D01*
G37*
D17*
X119000000Y-113250000D03*
X119000000Y-111750000D03*
D18*
X130719670Y-108780330D03*
D10*
G36*
X130701992Y-109328338D02*
X130171662Y-108798008D01*
X130737348Y-108232322D01*
X131267678Y-108762652D01*
X130701992Y-109328338D01*
X130701992Y-109328338D01*
G37*
D18*
X131780330Y-107719670D03*
D10*
G36*
X131762652Y-108267678D02*
X131232322Y-107737348D01*
X131798008Y-107171662D01*
X132328338Y-107701992D01*
X131762652Y-108267678D01*
X131762652Y-108267678D01*
G37*
D18*
X134280330Y-116219670D03*
D10*
G36*
X134262652Y-116767678D02*
X133732322Y-116237348D01*
X134298008Y-115671662D01*
X134828338Y-116201992D01*
X134262652Y-116767678D01*
X134262652Y-116767678D01*
G37*
D18*
X133219670Y-117280330D03*
D10*
G36*
X133201992Y-117828338D02*
X132671662Y-117298008D01*
X133237348Y-116732322D01*
X133767678Y-117262652D01*
X133201992Y-117828338D01*
X133201992Y-117828338D01*
G37*
D19*
X108750000Y-108750000D03*
X105750000Y-108750000D03*
X105000000Y-118000000D03*
X108000000Y-118000000D03*
D20*
X105050000Y-111500000D03*
X107450000Y-111500000D03*
D21*
X131520458Y-116131371D03*
D10*
G36*
X130972450Y-115760140D02*
X131149227Y-115583363D01*
X132068466Y-116502602D01*
X131891689Y-116679379D01*
X130972450Y-115760140D01*
X130972450Y-115760140D01*
G37*
D21*
X131166905Y-116484924D03*
D10*
G36*
X130618897Y-116113693D02*
X130795674Y-115936916D01*
X131714913Y-116856155D01*
X131538136Y-117032932D01*
X130618897Y-116113693D01*
X130618897Y-116113693D01*
G37*
D21*
X130813351Y-116838478D03*
D10*
G36*
X130265343Y-116467247D02*
X130442120Y-116290470D01*
X131361359Y-117209709D01*
X131184582Y-117386486D01*
X130265343Y-116467247D01*
X130265343Y-116467247D01*
G37*
D21*
X130459798Y-117192031D03*
D10*
G36*
X129911790Y-116820800D02*
X130088567Y-116644023D01*
X131007806Y-117563262D01*
X130831029Y-117740039D01*
X129911790Y-116820800D01*
X129911790Y-116820800D01*
G37*
D21*
X130106245Y-117545584D03*
D10*
G36*
X129558237Y-117174353D02*
X129735014Y-116997576D01*
X130654253Y-117916815D01*
X130477476Y-118093592D01*
X129558237Y-117174353D01*
X129558237Y-117174353D01*
G37*
D21*
X129752691Y-117899138D03*
D10*
G36*
X129204683Y-117527907D02*
X129381460Y-117351130D01*
X130300699Y-118270369D01*
X130123922Y-118447146D01*
X129204683Y-117527907D01*
X129204683Y-117527907D01*
G37*
D21*
X129399138Y-118252691D03*
D10*
G36*
X128851130Y-117881460D02*
X129027907Y-117704683D01*
X129947146Y-118623922D01*
X129770369Y-118800699D01*
X128851130Y-117881460D01*
X128851130Y-117881460D01*
G37*
D21*
X129045584Y-118606245D03*
D10*
G36*
X128497576Y-118235014D02*
X128674353Y-118058237D01*
X129593592Y-118977476D01*
X129416815Y-119154253D01*
X128497576Y-118235014D01*
X128497576Y-118235014D01*
G37*
D21*
X128692031Y-118959798D03*
D10*
G36*
X128144023Y-118588567D02*
X128320800Y-118411790D01*
X129240039Y-119331029D01*
X129063262Y-119507806D01*
X128144023Y-118588567D01*
X128144023Y-118588567D01*
G37*
D21*
X128338478Y-119313351D03*
D10*
G36*
X127790470Y-118942120D02*
X127967247Y-118765343D01*
X128886486Y-119684582D01*
X128709709Y-119861359D01*
X127790470Y-118942120D01*
X127790470Y-118942120D01*
G37*
D21*
X127984924Y-119666905D03*
D10*
G36*
X127436916Y-119295674D02*
X127613693Y-119118897D01*
X128532932Y-120038136D01*
X128356155Y-120214913D01*
X127436916Y-119295674D01*
X127436916Y-119295674D01*
G37*
D21*
X127631371Y-120020458D03*
D10*
G36*
X127083363Y-119649227D02*
X127260140Y-119472450D01*
X128179379Y-120391689D01*
X128002602Y-120568466D01*
X127083363Y-119649227D01*
X127083363Y-119649227D01*
G37*
D21*
X125368629Y-120020458D03*
D10*
G36*
X125739860Y-119472450D02*
X125916637Y-119649227D01*
X124997398Y-120568466D01*
X124820621Y-120391689D01*
X125739860Y-119472450D01*
X125739860Y-119472450D01*
G37*
D21*
X125015076Y-119666905D03*
D10*
G36*
X125386307Y-119118897D02*
X125563084Y-119295674D01*
X124643845Y-120214913D01*
X124467068Y-120038136D01*
X125386307Y-119118897D01*
X125386307Y-119118897D01*
G37*
D21*
X124661522Y-119313351D03*
D10*
G36*
X125032753Y-118765343D02*
X125209530Y-118942120D01*
X124290291Y-119861359D01*
X124113514Y-119684582D01*
X125032753Y-118765343D01*
X125032753Y-118765343D01*
G37*
D21*
X124307969Y-118959798D03*
D10*
G36*
X124679200Y-118411790D02*
X124855977Y-118588567D01*
X123936738Y-119507806D01*
X123759961Y-119331029D01*
X124679200Y-118411790D01*
X124679200Y-118411790D01*
G37*
D21*
X123954416Y-118606245D03*
D10*
G36*
X124325647Y-118058237D02*
X124502424Y-118235014D01*
X123583185Y-119154253D01*
X123406408Y-118977476D01*
X124325647Y-118058237D01*
X124325647Y-118058237D01*
G37*
D21*
X123600862Y-118252691D03*
D10*
G36*
X123972093Y-117704683D02*
X124148870Y-117881460D01*
X123229631Y-118800699D01*
X123052854Y-118623922D01*
X123972093Y-117704683D01*
X123972093Y-117704683D01*
G37*
D21*
X123247309Y-117899138D03*
D10*
G36*
X123618540Y-117351130D02*
X123795317Y-117527907D01*
X122876078Y-118447146D01*
X122699301Y-118270369D01*
X123618540Y-117351130D01*
X123618540Y-117351130D01*
G37*
D21*
X122893755Y-117545584D03*
D10*
G36*
X123264986Y-116997576D02*
X123441763Y-117174353D01*
X122522524Y-118093592D01*
X122345747Y-117916815D01*
X123264986Y-116997576D01*
X123264986Y-116997576D01*
G37*
D21*
X122540202Y-117192031D03*
D10*
G36*
X122911433Y-116644023D02*
X123088210Y-116820800D01*
X122168971Y-117740039D01*
X121992194Y-117563262D01*
X122911433Y-116644023D01*
X122911433Y-116644023D01*
G37*
D21*
X122186649Y-116838478D03*
D10*
G36*
X122557880Y-116290470D02*
X122734657Y-116467247D01*
X121815418Y-117386486D01*
X121638641Y-117209709D01*
X122557880Y-116290470D01*
X122557880Y-116290470D01*
G37*
D21*
X121833095Y-116484924D03*
D10*
G36*
X122204326Y-115936916D02*
X122381103Y-116113693D01*
X121461864Y-117032932D01*
X121285087Y-116856155D01*
X122204326Y-115936916D01*
X122204326Y-115936916D01*
G37*
D21*
X121479542Y-116131371D03*
D10*
G36*
X121850773Y-115583363D02*
X122027550Y-115760140D01*
X121108311Y-116679379D01*
X120931534Y-116502602D01*
X121850773Y-115583363D01*
X121850773Y-115583363D01*
G37*
D21*
X121479542Y-113868629D03*
D10*
G36*
X120931534Y-113497398D02*
X121108311Y-113320621D01*
X122027550Y-114239860D01*
X121850773Y-114416637D01*
X120931534Y-113497398D01*
X120931534Y-113497398D01*
G37*
D21*
X121833095Y-113515076D03*
D10*
G36*
X121285087Y-113143845D02*
X121461864Y-112967068D01*
X122381103Y-113886307D01*
X122204326Y-114063084D01*
X121285087Y-113143845D01*
X121285087Y-113143845D01*
G37*
D21*
X122186649Y-113161522D03*
D10*
G36*
X121638641Y-112790291D02*
X121815418Y-112613514D01*
X122734657Y-113532753D01*
X122557880Y-113709530D01*
X121638641Y-112790291D01*
X121638641Y-112790291D01*
G37*
D21*
X122540202Y-112807969D03*
D10*
G36*
X121992194Y-112436738D02*
X122168971Y-112259961D01*
X123088210Y-113179200D01*
X122911433Y-113355977D01*
X121992194Y-112436738D01*
X121992194Y-112436738D01*
G37*
D21*
X122893755Y-112454416D03*
D10*
G36*
X122345747Y-112083185D02*
X122522524Y-111906408D01*
X123441763Y-112825647D01*
X123264986Y-113002424D01*
X122345747Y-112083185D01*
X122345747Y-112083185D01*
G37*
D21*
X123247309Y-112100862D03*
D10*
G36*
X122699301Y-111729631D02*
X122876078Y-111552854D01*
X123795317Y-112472093D01*
X123618540Y-112648870D01*
X122699301Y-111729631D01*
X122699301Y-111729631D01*
G37*
D21*
X123600862Y-111747309D03*
D10*
G36*
X123052854Y-111376078D02*
X123229631Y-111199301D01*
X124148870Y-112118540D01*
X123972093Y-112295317D01*
X123052854Y-111376078D01*
X123052854Y-111376078D01*
G37*
D21*
X123954416Y-111393755D03*
D10*
G36*
X123406408Y-111022524D02*
X123583185Y-110845747D01*
X124502424Y-111764986D01*
X124325647Y-111941763D01*
X123406408Y-111022524D01*
X123406408Y-111022524D01*
G37*
D21*
X124307969Y-111040202D03*
D10*
G36*
X123759961Y-110668971D02*
X123936738Y-110492194D01*
X124855977Y-111411433D01*
X124679200Y-111588210D01*
X123759961Y-110668971D01*
X123759961Y-110668971D01*
G37*
D21*
X124661522Y-110686649D03*
D10*
G36*
X124113514Y-110315418D02*
X124290291Y-110138641D01*
X125209530Y-111057880D01*
X125032753Y-111234657D01*
X124113514Y-110315418D01*
X124113514Y-110315418D01*
G37*
D21*
X125015076Y-110333095D03*
D10*
G36*
X124467068Y-109961864D02*
X124643845Y-109785087D01*
X125563084Y-110704326D01*
X125386307Y-110881103D01*
X124467068Y-109961864D01*
X124467068Y-109961864D01*
G37*
D21*
X125368629Y-109979542D03*
D10*
G36*
X124820621Y-109608311D02*
X124997398Y-109431534D01*
X125916637Y-110350773D01*
X125739860Y-110527550D01*
X124820621Y-109608311D01*
X124820621Y-109608311D01*
G37*
D21*
X127631371Y-109979542D03*
D10*
G36*
X128002602Y-109431534D02*
X128179379Y-109608311D01*
X127260140Y-110527550D01*
X127083363Y-110350773D01*
X128002602Y-109431534D01*
X128002602Y-109431534D01*
G37*
D21*
X127984924Y-110333095D03*
D10*
G36*
X128356155Y-109785087D02*
X128532932Y-109961864D01*
X127613693Y-110881103D01*
X127436916Y-110704326D01*
X128356155Y-109785087D01*
X128356155Y-109785087D01*
G37*
D21*
X128338478Y-110686649D03*
D10*
G36*
X128709709Y-110138641D02*
X128886486Y-110315418D01*
X127967247Y-111234657D01*
X127790470Y-111057880D01*
X128709709Y-110138641D01*
X128709709Y-110138641D01*
G37*
D21*
X128692031Y-111040202D03*
D10*
G36*
X129063262Y-110492194D02*
X129240039Y-110668971D01*
X128320800Y-111588210D01*
X128144023Y-111411433D01*
X129063262Y-110492194D01*
X129063262Y-110492194D01*
G37*
D21*
X129045584Y-111393755D03*
D10*
G36*
X129416815Y-110845747D02*
X129593592Y-111022524D01*
X128674353Y-111941763D01*
X128497576Y-111764986D01*
X129416815Y-110845747D01*
X129416815Y-110845747D01*
G37*
D21*
X129399138Y-111747309D03*
D10*
G36*
X129770369Y-111199301D02*
X129947146Y-111376078D01*
X129027907Y-112295317D01*
X128851130Y-112118540D01*
X129770369Y-111199301D01*
X129770369Y-111199301D01*
G37*
D21*
X129752691Y-112100862D03*
D10*
G36*
X130123922Y-111552854D02*
X130300699Y-111729631D01*
X129381460Y-112648870D01*
X129204683Y-112472093D01*
X130123922Y-111552854D01*
X130123922Y-111552854D01*
G37*
D21*
X130106245Y-112454416D03*
D10*
G36*
X130477476Y-111906408D02*
X130654253Y-112083185D01*
X129735014Y-113002424D01*
X129558237Y-112825647D01*
X130477476Y-111906408D01*
X130477476Y-111906408D01*
G37*
D21*
X130459798Y-112807969D03*
D10*
G36*
X130831029Y-112259961D02*
X131007806Y-112436738D01*
X130088567Y-113355977D01*
X129911790Y-113179200D01*
X130831029Y-112259961D01*
X130831029Y-112259961D01*
G37*
D21*
X130813351Y-113161522D03*
D10*
G36*
X131184582Y-112613514D02*
X131361359Y-112790291D01*
X130442120Y-113709530D01*
X130265343Y-113532753D01*
X131184582Y-112613514D01*
X131184582Y-112613514D01*
G37*
D21*
X131166905Y-113515076D03*
D10*
G36*
X131538136Y-112967068D02*
X131714913Y-113143845D01*
X130795674Y-114063084D01*
X130618897Y-113886307D01*
X131538136Y-112967068D01*
X131538136Y-112967068D01*
G37*
D21*
X131520458Y-113868629D03*
D10*
G36*
X131891689Y-113320621D02*
X132068466Y-113497398D01*
X131149227Y-114416637D01*
X130972450Y-114239860D01*
X131891689Y-113320621D01*
X131891689Y-113320621D01*
G37*
D22*
X153100000Y-122000000D03*
X150900000Y-122000000D03*
X150900000Y-108000000D03*
X153100000Y-108000000D03*
D15*
X146000000Y-117540000D03*
X146000000Y-115000000D03*
D14*
X146000000Y-112460000D03*
D15*
X153250000Y-111210000D03*
X153250000Y-113750000D03*
X153250000Y-116290000D03*
D14*
X153250000Y-118830000D03*
D23*
X142000000Y-110000000D03*
X143500000Y-110000000D03*
X106000000Y-115750000D03*
X104500000Y-115750000D03*
X104500000Y-114250000D03*
X106000000Y-114250000D03*
D24*
X107500000Y-113500000D03*
X107500000Y-115000000D03*
D23*
X143500000Y-120000000D03*
X142000000Y-120000000D03*
X149250000Y-122000000D03*
X147750000Y-122000000D03*
X147750000Y-108000000D03*
X149250000Y-108000000D03*
D25*
X114800000Y-111600000D03*
X110200000Y-111600000D03*
X112500000Y-111600000D03*
D26*
X112500000Y-117900000D03*
D27*
X132750000Y-106750000D03*
X120500000Y-115000000D03*
X110000000Y-122500000D03*
X128012657Y-113487338D03*
X124000000Y-114500000D03*
X128000000Y-115250000D03*
X126500000Y-121000000D03*
X114750000Y-109000000D03*
X104000000Y-108750000D03*
X112500000Y-107500000D03*
X128000000Y-116750000D03*
X141000000Y-120000000D03*
X110500000Y-108750000D03*
X111000000Y-115000000D03*
X109250000Y-114250000D03*
X138500000Y-108250000D03*
X145500000Y-107500000D03*
X126746224Y-114503776D03*
X125500000Y-116000000D03*
D28*
X125015076Y-119666905D02*
X124484747Y-120197234D01*
X124484747Y-120197234D02*
X123802766Y-120197234D01*
X124810660Y-122750000D02*
X125280330Y-122280330D01*
X123802766Y-120197234D02*
X123000000Y-121000000D01*
X123000000Y-121000000D02*
X123000000Y-121500000D01*
X123000000Y-121500000D02*
X124250000Y-122750000D01*
X124250000Y-122750000D02*
X124810660Y-122750000D01*
X126500000Y-121000000D02*
X126500000Y-121060660D01*
X126500000Y-121060660D02*
X125280330Y-122280330D01*
X131780330Y-107719670D02*
X132750000Y-106750000D01*
X132750000Y-107739966D02*
X129989966Y-110500000D01*
X132750000Y-106750000D02*
X132750000Y-107739966D01*
X129939339Y-110500000D02*
X129045584Y-111393755D01*
X129989966Y-110500000D02*
X129939339Y-110500000D01*
X113750000Y-122500000D02*
X120500000Y-115750000D01*
X120500000Y-115750000D02*
X120500000Y-115000000D01*
X110000000Y-122500000D02*
X113750000Y-122500000D01*
X150420000Y-126750000D02*
X150420000Y-128500000D01*
X147750000Y-122000000D02*
X147750000Y-124080000D01*
X147750000Y-124080000D02*
X150420000Y-126750000D01*
X102160000Y-122840000D02*
X102350000Y-122650000D01*
X102350000Y-122650000D02*
X102350000Y-117500000D01*
X102160000Y-128500000D02*
X102160000Y-122840000D01*
X137750000Y-114000000D02*
X138500000Y-114750000D01*
X138500000Y-114750000D02*
X138500000Y-119590000D01*
X135250000Y-114000000D02*
X137750000Y-114000000D01*
X135250000Y-115250000D02*
X135250000Y-114000000D01*
X134280330Y-116219670D02*
X135250000Y-115250000D01*
X128012657Y-112426682D02*
X128012657Y-113487338D01*
X129045584Y-111393755D02*
X128012657Y-112426682D01*
X122818019Y-114500000D02*
X124000000Y-114500000D01*
X121833095Y-113515076D02*
X122818019Y-114500000D01*
X129931981Y-115250000D02*
X128000000Y-115250000D01*
X131166905Y-116484924D02*
X129931981Y-115250000D01*
X131166905Y-116484924D02*
X136681981Y-122000000D01*
X136681981Y-122000000D02*
X138500000Y-122000000D01*
X138500000Y-119590000D02*
X138500000Y-122000000D01*
X138500000Y-122000000D02*
X146000000Y-122000000D01*
X146000000Y-122000000D02*
X147750000Y-122000000D01*
X146000000Y-117540000D02*
X146000000Y-122000000D01*
X114800000Y-109050000D02*
X114750000Y-109000000D01*
X114800000Y-111600000D02*
X114800000Y-109050000D01*
X119000000Y-111750000D02*
X114950000Y-111750000D01*
X114950000Y-111750000D02*
X114800000Y-111600000D01*
X120068019Y-111750000D02*
X119000000Y-111750000D01*
X99650000Y-108750000D02*
X99650000Y-101530000D01*
X99650000Y-101530000D02*
X99620000Y-101500000D01*
X104000000Y-108750000D02*
X99650000Y-108750000D01*
X99650000Y-108750000D02*
X99650000Y-111500000D01*
X105750000Y-108750000D02*
X104000000Y-108750000D01*
X121833095Y-113515076D02*
X120068019Y-111750000D01*
X102350000Y-117500000D02*
X103250000Y-117500000D01*
X103250000Y-117500000D02*
X103750000Y-118000000D01*
X103750000Y-118000000D02*
X105000000Y-118000000D01*
X99650000Y-117500000D02*
X99650000Y-112500000D01*
X102350000Y-117500000D02*
X99650000Y-117500000D01*
X99650000Y-117500000D02*
X99650000Y-118500000D01*
X99650000Y-111500000D02*
X99650000Y-112500000D01*
X99650000Y-112500000D02*
X102350000Y-112500000D01*
X102350000Y-116300000D02*
X102350000Y-117500000D01*
X102350000Y-115650000D02*
X102350000Y-116300000D01*
X124219670Y-121219670D02*
X124219670Y-121169417D01*
X124219670Y-121169417D02*
X125368629Y-120020458D01*
X128692031Y-111040202D02*
X130719670Y-109012563D01*
X130719670Y-109012563D02*
X130719670Y-108780330D01*
D29*
X108000000Y-118000000D02*
X108000000Y-120750000D01*
X108000000Y-120750000D02*
X104700000Y-124050000D01*
X104700000Y-124050000D02*
X104700000Y-128500000D01*
X152960000Y-128500000D02*
X152960000Y-125790000D01*
X152960000Y-125790000D02*
X153250000Y-125500000D01*
X153250000Y-125500000D02*
X153250000Y-122150000D01*
X153250000Y-122150000D02*
X153100000Y-122000000D01*
X153250000Y-118830000D02*
X153250000Y-121850000D01*
X153250000Y-121850000D02*
X153100000Y-122000000D01*
D28*
X124232233Y-115500000D02*
X125250000Y-114482233D01*
X123110913Y-115500000D02*
X124232233Y-115500000D01*
X121479542Y-113868629D02*
X123110913Y-115500000D01*
X133219670Y-117280330D02*
X132689340Y-116750000D01*
X132689340Y-116750000D02*
X132139087Y-116750000D01*
X132139087Y-116750000D02*
X131520458Y-116131371D01*
X131520458Y-116131371D02*
X129639087Y-114250000D01*
X129639087Y-114250000D02*
X127517767Y-114250000D01*
X127517767Y-114250000D02*
X126500000Y-113232233D01*
X128692031Y-111040202D02*
X126500000Y-113232233D01*
X126500000Y-113232233D02*
X125250000Y-114482233D01*
X125368629Y-120020458D02*
X126250000Y-119139087D01*
X126250000Y-119139087D02*
X126250000Y-115482233D01*
X126250000Y-115482233D02*
X125250000Y-114482233D01*
D29*
X112500000Y-117900000D02*
X108100000Y-117900000D01*
X108100000Y-117900000D02*
X108000000Y-118000000D01*
X117100000Y-117900000D02*
X119000000Y-116000000D01*
X112500000Y-117900000D02*
X117100000Y-117900000D01*
X119000000Y-116000000D02*
X119000000Y-113250000D01*
X102160000Y-101500000D02*
X102160000Y-103160000D01*
X102160000Y-103160000D02*
X105750000Y-106750000D01*
X105750000Y-106750000D02*
X111750000Y-106750000D01*
X111750000Y-106750000D02*
X112500000Y-107500000D01*
X150000000Y-117250000D02*
X151580000Y-118830000D01*
X151580000Y-118830000D02*
X153250000Y-118830000D01*
X150000000Y-114250000D02*
X150000000Y-117250000D01*
X148210000Y-112460000D02*
X150000000Y-114250000D01*
X146000000Y-112460000D02*
X148210000Y-112460000D01*
X112500000Y-111600000D02*
X112500000Y-107500000D01*
D28*
X152000000Y-110000000D02*
X146000000Y-110000000D01*
X146000000Y-110000000D02*
X143500000Y-110000000D01*
X146000000Y-112460000D02*
X146000000Y-110000000D01*
X153100000Y-108000000D02*
X153100000Y-108900000D01*
X153100000Y-108900000D02*
X152000000Y-110000000D01*
D29*
X153100000Y-128360000D02*
X152960000Y-128500000D01*
D28*
X121479542Y-113868629D02*
X120860913Y-113250000D01*
X120860913Y-113250000D02*
X119000000Y-113250000D01*
D29*
X112500000Y-111600000D02*
X112500000Y-117900000D01*
D28*
X150420000Y-101500000D02*
X150420000Y-104080000D01*
X150420000Y-104080000D02*
X147750000Y-106750000D01*
X147750000Y-106750000D02*
X137931981Y-106750000D01*
X147750000Y-108000000D02*
X147750000Y-106750000D01*
X137931981Y-106750000D02*
X131166905Y-113515076D01*
X149250000Y-108000000D02*
X150900000Y-108000000D01*
X149250000Y-122000000D02*
X150900000Y-122000000D01*
X144250000Y-115000000D02*
X143500000Y-115750000D01*
X143500000Y-115750000D02*
X143500000Y-120000000D01*
X146000000Y-115000000D02*
X144250000Y-115000000D01*
X129310661Y-116750000D02*
X128000000Y-116750000D01*
X130106245Y-117545584D02*
X129310661Y-116750000D01*
X142000000Y-120000000D02*
X141000000Y-120000000D01*
D29*
X108750000Y-108750000D02*
X110500000Y-108750000D01*
D28*
X99650000Y-128470000D02*
X99620000Y-128500000D01*
X107500000Y-113500000D02*
X107500000Y-111550000D01*
X107500000Y-111550000D02*
X107450000Y-111500000D01*
D29*
X107450000Y-111500000D02*
X108750000Y-111500000D01*
X108750000Y-111500000D02*
X110100000Y-111500000D01*
X108750000Y-108750000D02*
X108750000Y-111500000D01*
X110100000Y-111500000D02*
X110200000Y-111600000D01*
X110500000Y-111550000D02*
X110450000Y-111600000D01*
X110350000Y-111500000D02*
X110450000Y-111600000D01*
D28*
X127560000Y-128500000D02*
X127560000Y-126810000D01*
X127560000Y-126810000D02*
X122500000Y-121750000D01*
X122500000Y-121750000D02*
X122500000Y-120767767D01*
X122500000Y-120767767D02*
X124307969Y-118959798D01*
X107250000Y-115750000D02*
X107500000Y-115500000D01*
X107500000Y-115500000D02*
X107500000Y-115000000D01*
X106000000Y-115750000D02*
X107250000Y-115750000D01*
X111000000Y-115000000D02*
X107500000Y-115000000D01*
X104000000Y-114250000D02*
X104500000Y-114250000D01*
X104000000Y-114250000D02*
X103900000Y-114350000D01*
X103900000Y-114350000D02*
X102350000Y-114350000D01*
X106000000Y-114250000D02*
X109250000Y-114250000D01*
X125020000Y-128500000D02*
X125020000Y-126770000D01*
X121750000Y-123500000D02*
X121750000Y-120810661D01*
X125020000Y-126770000D02*
X121750000Y-123500000D01*
X121750000Y-120810661D02*
X123954416Y-118606245D01*
X104025000Y-115750000D02*
X104500000Y-115750000D01*
X102350000Y-115000000D02*
X103275000Y-115000000D01*
X103275000Y-115000000D02*
X104025000Y-115750000D01*
X138500000Y-110410000D02*
X136340000Y-110410000D01*
X136340000Y-110410000D02*
X135250000Y-111500000D01*
X135250000Y-111500000D02*
X135250000Y-112500000D01*
X142000000Y-110000000D02*
X138910000Y-110000000D01*
X138910000Y-110000000D02*
X138500000Y-110410000D01*
X138500000Y-108250000D02*
X138500000Y-110410000D01*
X129399138Y-111747309D02*
X137720000Y-103426447D01*
X137720000Y-103426447D02*
X137720000Y-101500000D01*
X104700000Y-101500000D02*
X104700000Y-103200000D01*
X104700000Y-103200000D02*
X107250000Y-105750000D01*
X107250000Y-105750000D02*
X114775127Y-105750000D01*
X114775127Y-105750000D02*
X122186649Y-113161522D01*
X107240000Y-101500000D02*
X107240000Y-103240000D01*
X107240000Y-103240000D02*
X109272895Y-105272895D01*
X109272895Y-105272895D02*
X115005128Y-105272895D01*
X115005128Y-105272895D02*
X122540202Y-112807969D01*
X109780000Y-101500000D02*
X109780000Y-103280000D01*
X109780000Y-103280000D02*
X110960661Y-104460661D01*
X110960661Y-104460661D02*
X114900000Y-104460661D01*
X114900000Y-104460661D02*
X122893755Y-112454416D01*
X112320000Y-101500000D02*
X112320000Y-103070000D01*
X112320000Y-103070000D02*
X113043553Y-103793553D01*
X113043553Y-103793553D02*
X114940000Y-103793553D01*
X114940000Y-103793553D02*
X123247309Y-112100862D01*
X123600862Y-111747309D02*
X114860000Y-103006447D01*
X114860000Y-103006447D02*
X114860000Y-101500000D01*
X123750000Y-111189339D02*
X117400000Y-104839339D01*
X117400000Y-104839339D02*
X117400000Y-101500000D01*
X124307969Y-111040202D02*
X119940000Y-106672233D01*
X119940000Y-106672233D02*
X119940000Y-101500000D01*
X122480000Y-101500000D02*
X122480000Y-108505127D01*
X124661522Y-110686649D02*
X122480000Y-108505127D01*
X125020000Y-101500000D02*
X125020000Y-103230000D01*
X125020000Y-103230000D02*
X124000000Y-104250000D01*
X124000000Y-104250000D02*
X124000000Y-109318019D01*
X124000000Y-109318019D02*
X125015076Y-110333095D01*
X125368629Y-109979542D02*
X127560000Y-107788171D01*
X127560000Y-107788171D02*
X127560000Y-101500000D01*
X127631371Y-109979542D02*
X128500000Y-109110913D01*
X128500000Y-109110913D02*
X128500000Y-104750000D01*
X128500000Y-104750000D02*
X130100000Y-103150000D01*
X130100000Y-103150000D02*
X130100000Y-101500000D01*
X127984924Y-110333095D02*
X129000000Y-109318019D01*
X129000000Y-109318019D02*
X129000000Y-106750000D01*
X129000000Y-106750000D02*
X132640000Y-103110000D01*
X132640000Y-103110000D02*
X132640000Y-101500000D01*
X135180000Y-101500000D02*
X135180000Y-103070000D01*
X135180000Y-103070000D02*
X129500000Y-108750000D01*
X129500000Y-108750000D02*
X129500000Y-109525127D01*
X129500000Y-109525127D02*
X128338478Y-110686649D01*
X145340000Y-101500000D02*
X145340000Y-103160000D01*
X145340000Y-103160000D02*
X143250000Y-105250000D01*
X143250000Y-105250000D02*
X138017767Y-105250000D01*
X138017767Y-105250000D02*
X130459798Y-112807969D01*
X147880000Y-101500000D02*
X147880000Y-103120000D01*
X147880000Y-103120000D02*
X145000000Y-106000000D01*
X145000000Y-106000000D02*
X137974873Y-106000000D01*
X137974873Y-106000000D02*
X130813351Y-113161522D01*
X137889087Y-107500000D02*
X145500000Y-107500000D01*
X131520458Y-113868629D02*
X137889087Y-107500000D01*
X130813351Y-116838478D02*
X136474873Y-122500000D01*
X136474873Y-122500000D02*
X143630000Y-122500000D01*
X143630000Y-122500000D02*
X147880000Y-126750000D01*
X147880000Y-126750000D02*
X147880000Y-128500000D01*
X130459798Y-117192031D02*
X136517767Y-123250000D01*
X136517767Y-123250000D02*
X141840000Y-123250000D01*
X141840000Y-123250000D02*
X145340000Y-126750000D01*
X145340000Y-126750000D02*
X145340000Y-128500000D01*
X129752691Y-117899138D02*
X135853553Y-124000000D01*
X135853553Y-124000000D02*
X140050000Y-124000000D01*
X140050000Y-124000000D02*
X142800000Y-126750000D01*
X142800000Y-126750000D02*
X142800000Y-128500000D01*
X129399138Y-118252691D02*
X135896447Y-124750000D01*
X135896447Y-124750000D02*
X138260000Y-124750000D01*
X138260000Y-124750000D02*
X140260000Y-126750000D01*
X140260000Y-126750000D02*
X140260000Y-128500000D01*
X137720000Y-128500000D02*
X137720000Y-126720000D01*
X137720000Y-126720000D02*
X136560661Y-125560661D01*
X136000000Y-125560661D02*
X129045584Y-118606245D01*
X136560661Y-125560661D02*
X136000000Y-125560661D01*
X128692031Y-118959798D02*
X135180000Y-125447767D01*
X135180000Y-125447767D02*
X135180000Y-128500000D01*
X128338478Y-119313351D02*
X132640000Y-123614873D01*
X132640000Y-123614873D02*
X132640000Y-128500000D01*
X127984924Y-119666905D02*
X130100000Y-121781981D01*
X130100000Y-121781981D02*
X130100000Y-128500000D01*
X122480000Y-128500000D02*
X122480000Y-126730000D01*
X121000000Y-125250000D02*
X121000000Y-120853553D01*
X122480000Y-126730000D02*
X121000000Y-125250000D01*
X121000000Y-120853553D02*
X123600862Y-118252691D01*
X119940000Y-128500000D02*
X119940000Y-121206447D01*
X119940000Y-121206447D02*
X123247309Y-117899138D01*
X117400000Y-123039339D02*
X122893755Y-117545584D01*
X117400000Y-128500000D02*
X117400000Y-123039339D01*
X114860000Y-128500000D02*
X114860000Y-124872233D01*
X114860000Y-124872233D02*
X122540202Y-117192031D01*
X122186649Y-116838478D02*
X112320000Y-126705127D01*
X112320000Y-126705127D02*
X112320000Y-128500000D01*
X109780000Y-128500000D02*
X109780000Y-126720000D01*
X109780000Y-126720000D02*
X110750000Y-125750000D01*
X110750000Y-125750000D02*
X112568019Y-125750000D01*
X112568019Y-125750000D02*
X121833095Y-116484924D01*
X107240000Y-128500000D02*
X107240000Y-126760000D01*
X107240000Y-126760000D02*
X109000000Y-125000000D01*
X109000000Y-125000000D02*
X112610913Y-125000000D01*
X112610913Y-125000000D02*
X121479542Y-116131371D01*
X126746224Y-119135311D02*
X126746224Y-114503776D01*
X127631371Y-120020458D02*
X126746224Y-119135311D01*
X125500000Y-118474873D02*
X125500000Y-116000000D01*
X124661522Y-119313351D02*
X125500000Y-118474873D01*
X140260000Y-101500000D02*
X140260000Y-103240000D01*
X140260000Y-103240000D02*
X139750000Y-103750000D01*
X138103553Y-103750000D02*
X129752691Y-112100862D01*
X139750000Y-103750000D02*
X138103553Y-103750000D01*
X142800000Y-101500000D02*
X142800000Y-103200000D01*
X142800000Y-103200000D02*
X141500000Y-104500000D01*
X141500000Y-104500000D02*
X138060661Y-104500000D01*
X138060661Y-104500000D02*
X130106245Y-112454416D01*
X102350000Y-113700000D02*
X103300000Y-113700000D01*
X103300000Y-113700000D02*
X103750000Y-113250000D01*
D29*
X104480000Y-111500000D02*
X104250000Y-111500000D01*
X104250000Y-111500000D02*
X103750000Y-112000000D01*
X103750000Y-112000000D02*
X103750000Y-113250000D01*
D30*
G36*
X98642348Y-100751944D02*
X98430499Y-101183018D01*
X98490807Y-101373000D01*
X99493000Y-101373000D01*
X99493000Y-101353000D01*
X99747000Y-101353000D01*
X99747000Y-101373000D01*
X99767000Y-101373000D01*
X99767000Y-101627000D01*
X99747000Y-101627000D01*
X99747000Y-102628627D01*
X99936980Y-102689489D01*
X100236964Y-102565245D01*
X100597652Y-102248056D01*
X100760236Y-101917227D01*
X100795430Y-102094159D01*
X101115603Y-102573333D01*
X101529000Y-102849555D01*
X101529000Y-103160000D01*
X101575188Y-103392204D01*
X101577032Y-103401473D01*
X101713816Y-103606184D01*
X105303816Y-107196185D01*
X105508527Y-107332968D01*
X105750000Y-107381000D01*
X111488632Y-107381000D01*
X111718902Y-107611271D01*
X111718864Y-107654669D01*
X111837514Y-107941823D01*
X111869000Y-107973364D01*
X111869000Y-110211536D01*
X111750000Y-110211536D01*
X111601341Y-110241106D01*
X111475314Y-110325314D01*
X111391106Y-110451341D01*
X111361536Y-110600000D01*
X111361536Y-112600000D01*
X111391106Y-112748659D01*
X111475314Y-112874686D01*
X111601341Y-112958894D01*
X111750000Y-112988464D01*
X111869000Y-112988464D01*
X111869000Y-116511536D01*
X110600000Y-116511536D01*
X110451341Y-116541106D01*
X110325314Y-116625314D01*
X110241106Y-116751341D01*
X110211536Y-116900000D01*
X110211536Y-117269000D01*
X108888464Y-117269000D01*
X108888464Y-117200000D01*
X108858894Y-117051341D01*
X108774686Y-116925314D01*
X108648659Y-116841106D01*
X108500000Y-116811536D01*
X107500000Y-116811536D01*
X107351341Y-116841106D01*
X107225314Y-116925314D01*
X107141106Y-117051341D01*
X107111536Y-117200000D01*
X107111536Y-118800000D01*
X107141106Y-118948659D01*
X107225314Y-119074686D01*
X107351341Y-119158894D01*
X107369000Y-119162407D01*
X107369000Y-120488631D01*
X104253816Y-123603816D01*
X104117032Y-123808527D01*
X104069000Y-124050000D01*
X104069000Y-127150445D01*
X103655603Y-127426667D01*
X103335430Y-127905841D01*
X103300236Y-128082773D01*
X103137652Y-127751944D01*
X102776964Y-127434755D01*
X102476980Y-127310511D01*
X102287000Y-127371373D01*
X102287000Y-128373000D01*
X102307000Y-128373000D01*
X102307000Y-128627000D01*
X102287000Y-128627000D01*
X102287000Y-128647000D01*
X102033000Y-128647000D01*
X102033000Y-128627000D01*
X102013000Y-128627000D01*
X102013000Y-128373000D01*
X102033000Y-128373000D01*
X102033000Y-127371373D01*
X101843020Y-127310511D01*
X101543036Y-127434755D01*
X101182348Y-127751944D01*
X101019764Y-128082773D01*
X100984570Y-127905841D01*
X100664397Y-127426667D01*
X100185223Y-127106494D01*
X99620000Y-126994064D01*
X99054777Y-127106494D01*
X98575603Y-127426667D01*
X98255430Y-127905841D01*
X98206000Y-128154342D01*
X98206000Y-118761816D01*
X98533802Y-118761816D01*
X98662236Y-119033158D01*
X98920523Y-119265337D01*
X99248000Y-119381000D01*
X99523000Y-119381000D01*
X99523000Y-118627000D01*
X99777000Y-118627000D01*
X99777000Y-119381000D01*
X100052000Y-119381000D01*
X100379477Y-119265337D01*
X100637764Y-119033158D01*
X100766198Y-118761816D01*
X100700419Y-118627000D01*
X99777000Y-118627000D01*
X99523000Y-118627000D01*
X98599581Y-118627000D01*
X98533802Y-118761816D01*
X98206000Y-118761816D01*
X98206000Y-118238184D01*
X98533802Y-118238184D01*
X98599581Y-118373000D01*
X99523000Y-118373000D01*
X99523000Y-117619000D01*
X99777000Y-117619000D01*
X99777000Y-118373000D01*
X100700419Y-118373000D01*
X100766198Y-118238184D01*
X100637764Y-117966842D01*
X100409284Y-117761457D01*
X101499261Y-117761457D01*
X101606672Y-118078537D01*
X101827248Y-118330376D01*
X102092138Y-118466237D01*
X102223000Y-118400074D01*
X102223000Y-117627000D01*
X102477000Y-117627000D01*
X102477000Y-118400074D01*
X102607862Y-118466237D01*
X102872752Y-118330376D01*
X102967455Y-118222250D01*
X104119000Y-118222250D01*
X104119000Y-118875785D01*
X104177004Y-119015819D01*
X104284180Y-119122996D01*
X104424214Y-119181000D01*
X104777750Y-119181000D01*
X104873000Y-119085750D01*
X104873000Y-118127000D01*
X105127000Y-118127000D01*
X105127000Y-119085750D01*
X105222250Y-119181000D01*
X105575786Y-119181000D01*
X105715820Y-119122996D01*
X105822996Y-119015819D01*
X105881000Y-118875785D01*
X105881000Y-118222250D01*
X105785750Y-118127000D01*
X105127000Y-118127000D01*
X104873000Y-118127000D01*
X104214250Y-118127000D01*
X104119000Y-118222250D01*
X102967455Y-118222250D01*
X103093328Y-118078537D01*
X103200739Y-117761457D01*
X103112451Y-117627000D01*
X102477000Y-117627000D01*
X102223000Y-117627000D01*
X101587549Y-117627000D01*
X101499261Y-117761457D01*
X100409284Y-117761457D01*
X100379477Y-117734663D01*
X100052000Y-117619000D01*
X99777000Y-117619000D01*
X99523000Y-117619000D01*
X99248000Y-117619000D01*
X98920523Y-117734663D01*
X98662236Y-117966842D01*
X98533802Y-118238184D01*
X98206000Y-118238184D01*
X98206000Y-112750000D01*
X101123000Y-112750000D01*
X101123000Y-117250000D01*
X101132667Y-117298601D01*
X101160197Y-117339803D01*
X101201399Y-117367333D01*
X101250000Y-117377000D01*
X103500000Y-117377000D01*
X103548601Y-117367333D01*
X103589803Y-117339803D01*
X103617333Y-117298601D01*
X103627000Y-117250000D01*
X103627000Y-117124215D01*
X104119000Y-117124215D01*
X104119000Y-117777750D01*
X104214250Y-117873000D01*
X104873000Y-117873000D01*
X104873000Y-116914250D01*
X105127000Y-116914250D01*
X105127000Y-117873000D01*
X105785750Y-117873000D01*
X105881000Y-117777750D01*
X105881000Y-117124215D01*
X105822996Y-116984181D01*
X105715820Y-116877004D01*
X105575786Y-116819000D01*
X105222250Y-116819000D01*
X105127000Y-116914250D01*
X104873000Y-116914250D01*
X104777750Y-116819000D01*
X104424214Y-116819000D01*
X104284180Y-116877004D01*
X104177004Y-116984181D01*
X104119000Y-117124215D01*
X103627000Y-117124215D01*
X103627000Y-116067592D01*
X103667204Y-116107796D01*
X103831362Y-116217483D01*
X103866400Y-116224452D01*
X103891106Y-116348659D01*
X103975314Y-116474686D01*
X104101341Y-116558894D01*
X104250000Y-116588464D01*
X104750000Y-116588464D01*
X104898659Y-116558894D01*
X105024686Y-116474686D01*
X105108894Y-116348659D01*
X105138464Y-116200000D01*
X105138464Y-115300000D01*
X105108894Y-115151341D01*
X105024686Y-115025314D01*
X104986801Y-115000000D01*
X105024686Y-114974686D01*
X105108894Y-114848659D01*
X105138464Y-114700000D01*
X105138464Y-113800000D01*
X105361536Y-113800000D01*
X105361536Y-114700000D01*
X105391106Y-114848659D01*
X105475314Y-114974686D01*
X105513199Y-115000000D01*
X105475314Y-115025314D01*
X105391106Y-115151341D01*
X105361536Y-115300000D01*
X105361536Y-116200000D01*
X105391106Y-116348659D01*
X105475314Y-116474686D01*
X105601341Y-116558894D01*
X105750000Y-116588464D01*
X106250000Y-116588464D01*
X106398659Y-116558894D01*
X106524686Y-116474686D01*
X106608894Y-116348659D01*
X106627325Y-116256000D01*
X107250000Y-116256000D01*
X107443638Y-116217483D01*
X107607796Y-116107796D01*
X107857796Y-115857796D01*
X107967483Y-115693638D01*
X107979630Y-115632570D01*
X108098659Y-115608894D01*
X108224686Y-115524686D01*
X108237172Y-115506000D01*
X110401579Y-115506000D01*
X110557021Y-115661714D01*
X110843968Y-115780864D01*
X111154669Y-115781136D01*
X111441823Y-115662486D01*
X111661714Y-115442979D01*
X111780864Y-115156032D01*
X111781136Y-114845331D01*
X111662486Y-114558177D01*
X111442979Y-114338286D01*
X111156032Y-114219136D01*
X110845331Y-114218864D01*
X110558177Y-114337514D01*
X110401417Y-114494000D01*
X109994337Y-114494000D01*
X110030864Y-114406032D01*
X110031136Y-114095331D01*
X109912486Y-113808177D01*
X109692979Y-113588286D01*
X109406032Y-113469136D01*
X109095331Y-113468864D01*
X108808177Y-113587514D01*
X108651417Y-113744000D01*
X108338464Y-113744000D01*
X108338464Y-113250000D01*
X108308894Y-113101341D01*
X108224686Y-112975314D01*
X108098659Y-112891106D01*
X108090394Y-112889462D01*
X108168659Y-112873894D01*
X108294686Y-112789686D01*
X108378894Y-112663659D01*
X108408464Y-112515000D01*
X108408464Y-112131000D01*
X109061536Y-112131000D01*
X109061536Y-112600000D01*
X109091106Y-112748659D01*
X109175314Y-112874686D01*
X109301341Y-112958894D01*
X109450000Y-112988464D01*
X110950000Y-112988464D01*
X111098659Y-112958894D01*
X111224686Y-112874686D01*
X111308894Y-112748659D01*
X111338464Y-112600000D01*
X111338464Y-110600000D01*
X111308894Y-110451341D01*
X111224686Y-110325314D01*
X111098659Y-110241106D01*
X110950000Y-110211536D01*
X109450000Y-110211536D01*
X109381000Y-110225261D01*
X109381000Y-109912407D01*
X109398659Y-109908894D01*
X109524686Y-109824686D01*
X109608894Y-109698659D01*
X109638464Y-109550000D01*
X109638464Y-109381000D01*
X110026361Y-109381000D01*
X110057021Y-109411714D01*
X110343968Y-109530864D01*
X110654669Y-109531136D01*
X110941823Y-109412486D01*
X111161714Y-109192979D01*
X111280864Y-108906032D01*
X111281136Y-108595331D01*
X111162486Y-108308177D01*
X110942979Y-108088286D01*
X110656032Y-107969136D01*
X110345331Y-107968864D01*
X110058177Y-108087514D01*
X110026636Y-108119000D01*
X109638464Y-108119000D01*
X109638464Y-107950000D01*
X109608894Y-107801341D01*
X109524686Y-107675314D01*
X109398659Y-107591106D01*
X109250000Y-107561536D01*
X108250000Y-107561536D01*
X108101341Y-107591106D01*
X107975314Y-107675314D01*
X107891106Y-107801341D01*
X107861536Y-107950000D01*
X107861536Y-109550000D01*
X107891106Y-109698659D01*
X107975314Y-109824686D01*
X108101341Y-109908894D01*
X108119000Y-109912407D01*
X108119000Y-110116228D01*
X108020000Y-110096536D01*
X106880000Y-110096536D01*
X106731341Y-110126106D01*
X106605314Y-110210314D01*
X106521106Y-110336341D01*
X106491536Y-110485000D01*
X106491536Y-112515000D01*
X106521106Y-112663659D01*
X106605314Y-112789686D01*
X106731341Y-112873894D01*
X106880000Y-112903464D01*
X106882846Y-112903464D01*
X106775314Y-112975314D01*
X106691106Y-113101341D01*
X106661536Y-113250000D01*
X106661536Y-113744000D01*
X106627325Y-113744000D01*
X106608894Y-113651341D01*
X106524686Y-113525314D01*
X106398659Y-113441106D01*
X106250000Y-113411536D01*
X105750000Y-113411536D01*
X105601341Y-113441106D01*
X105475314Y-113525314D01*
X105391106Y-113651341D01*
X105361536Y-113800000D01*
X105138464Y-113800000D01*
X105108894Y-113651341D01*
X105024686Y-113525314D01*
X104898659Y-113441106D01*
X104750000Y-113411536D01*
X104348868Y-113411536D01*
X104381000Y-113250000D01*
X104381000Y-112883772D01*
X104480000Y-112903464D01*
X105620000Y-112903464D01*
X105768659Y-112873894D01*
X105894686Y-112789686D01*
X105978894Y-112663659D01*
X106008464Y-112515000D01*
X106008464Y-110485000D01*
X105978894Y-110336341D01*
X105894686Y-110210314D01*
X105768659Y-110126106D01*
X105620000Y-110096536D01*
X104480000Y-110096536D01*
X104331341Y-110126106D01*
X104205314Y-110210314D01*
X104121106Y-110336341D01*
X104091536Y-110485000D01*
X104091536Y-110900520D01*
X104008527Y-110917032D01*
X103803816Y-111053815D01*
X103303816Y-111553816D01*
X103167032Y-111758527D01*
X103119345Y-111998266D01*
X103093328Y-111921463D01*
X102872752Y-111669624D01*
X102607862Y-111533763D01*
X102477000Y-111599926D01*
X102477000Y-112373000D01*
X102497000Y-112373000D01*
X102497000Y-112623000D01*
X101250000Y-112623000D01*
X101201399Y-112632667D01*
X101160197Y-112660197D01*
X101132667Y-112701399D01*
X101123000Y-112750000D01*
X98206000Y-112750000D01*
X98206000Y-111761816D01*
X98533802Y-111761816D01*
X98662236Y-112033158D01*
X98920523Y-112265337D01*
X99248000Y-112381000D01*
X99523000Y-112381000D01*
X99523000Y-111627000D01*
X99777000Y-111627000D01*
X99777000Y-112381000D01*
X100052000Y-112381000D01*
X100379477Y-112265337D01*
X100409283Y-112238543D01*
X101499261Y-112238543D01*
X101587549Y-112373000D01*
X102223000Y-112373000D01*
X102223000Y-111599926D01*
X102092138Y-111533763D01*
X101827248Y-111669624D01*
X101606672Y-111921463D01*
X101499261Y-112238543D01*
X100409283Y-112238543D01*
X100637764Y-112033158D01*
X100766198Y-111761816D01*
X100700419Y-111627000D01*
X99777000Y-111627000D01*
X99523000Y-111627000D01*
X98599581Y-111627000D01*
X98533802Y-111761816D01*
X98206000Y-111761816D01*
X98206000Y-111238184D01*
X98533802Y-111238184D01*
X98599581Y-111373000D01*
X99523000Y-111373000D01*
X99523000Y-110619000D01*
X99777000Y-110619000D01*
X99777000Y-111373000D01*
X100700419Y-111373000D01*
X100766198Y-111238184D01*
X100637764Y-110966842D01*
X100379477Y-110734663D01*
X100052000Y-110619000D01*
X99777000Y-110619000D01*
X99523000Y-110619000D01*
X99248000Y-110619000D01*
X98920523Y-110734663D01*
X98662236Y-110966842D01*
X98533802Y-111238184D01*
X98206000Y-111238184D01*
X98206000Y-108972250D01*
X104869000Y-108972250D01*
X104869000Y-109625785D01*
X104927004Y-109765819D01*
X105034180Y-109872996D01*
X105174214Y-109931000D01*
X105527750Y-109931000D01*
X105623000Y-109835750D01*
X105623000Y-108877000D01*
X105877000Y-108877000D01*
X105877000Y-109835750D01*
X105972250Y-109931000D01*
X106325786Y-109931000D01*
X106465820Y-109872996D01*
X106572996Y-109765819D01*
X106631000Y-109625785D01*
X106631000Y-108972250D01*
X106535750Y-108877000D01*
X105877000Y-108877000D01*
X105623000Y-108877000D01*
X104964250Y-108877000D01*
X104869000Y-108972250D01*
X98206000Y-108972250D01*
X98206000Y-107874215D01*
X104869000Y-107874215D01*
X104869000Y-108527750D01*
X104964250Y-108623000D01*
X105623000Y-108623000D01*
X105623000Y-107664250D01*
X105877000Y-107664250D01*
X105877000Y-108623000D01*
X106535750Y-108623000D01*
X106631000Y-108527750D01*
X106631000Y-107874215D01*
X106572996Y-107734181D01*
X106465820Y-107627004D01*
X106325786Y-107569000D01*
X105972250Y-107569000D01*
X105877000Y-107664250D01*
X105623000Y-107664250D01*
X105527750Y-107569000D01*
X105174214Y-107569000D01*
X105034180Y-107627004D01*
X104927004Y-107734181D01*
X104869000Y-107874215D01*
X98206000Y-107874215D01*
X98206000Y-101816982D01*
X98430499Y-101816982D01*
X98642348Y-102248056D01*
X99003036Y-102565245D01*
X99303020Y-102689489D01*
X99493000Y-102628627D01*
X99493000Y-101627000D01*
X98490807Y-101627000D01*
X98430499Y-101816982D01*
X98206000Y-101816982D01*
X98206000Y-100456000D01*
X98978877Y-100456000D01*
X98642348Y-100751944D01*
X98642348Y-100751944D01*
G37*
X98642348Y-100751944D02*
X98430499Y-101183018D01*
X98490807Y-101373000D01*
X99493000Y-101373000D01*
X99493000Y-101353000D01*
X99747000Y-101353000D01*
X99747000Y-101373000D01*
X99767000Y-101373000D01*
X99767000Y-101627000D01*
X99747000Y-101627000D01*
X99747000Y-102628627D01*
X99936980Y-102689489D01*
X100236964Y-102565245D01*
X100597652Y-102248056D01*
X100760236Y-101917227D01*
X100795430Y-102094159D01*
X101115603Y-102573333D01*
X101529000Y-102849555D01*
X101529000Y-103160000D01*
X101575188Y-103392204D01*
X101577032Y-103401473D01*
X101713816Y-103606184D01*
X105303816Y-107196185D01*
X105508527Y-107332968D01*
X105750000Y-107381000D01*
X111488632Y-107381000D01*
X111718902Y-107611271D01*
X111718864Y-107654669D01*
X111837514Y-107941823D01*
X111869000Y-107973364D01*
X111869000Y-110211536D01*
X111750000Y-110211536D01*
X111601341Y-110241106D01*
X111475314Y-110325314D01*
X111391106Y-110451341D01*
X111361536Y-110600000D01*
X111361536Y-112600000D01*
X111391106Y-112748659D01*
X111475314Y-112874686D01*
X111601341Y-112958894D01*
X111750000Y-112988464D01*
X111869000Y-112988464D01*
X111869000Y-116511536D01*
X110600000Y-116511536D01*
X110451341Y-116541106D01*
X110325314Y-116625314D01*
X110241106Y-116751341D01*
X110211536Y-116900000D01*
X110211536Y-117269000D01*
X108888464Y-117269000D01*
X108888464Y-117200000D01*
X108858894Y-117051341D01*
X108774686Y-116925314D01*
X108648659Y-116841106D01*
X108500000Y-116811536D01*
X107500000Y-116811536D01*
X107351341Y-116841106D01*
X107225314Y-116925314D01*
X107141106Y-117051341D01*
X107111536Y-117200000D01*
X107111536Y-118800000D01*
X107141106Y-118948659D01*
X107225314Y-119074686D01*
X107351341Y-119158894D01*
X107369000Y-119162407D01*
X107369000Y-120488631D01*
X104253816Y-123603816D01*
X104117032Y-123808527D01*
X104069000Y-124050000D01*
X104069000Y-127150445D01*
X103655603Y-127426667D01*
X103335430Y-127905841D01*
X103300236Y-128082773D01*
X103137652Y-127751944D01*
X102776964Y-127434755D01*
X102476980Y-127310511D01*
X102287000Y-127371373D01*
X102287000Y-128373000D01*
X102307000Y-128373000D01*
X102307000Y-128627000D01*
X102287000Y-128627000D01*
X102287000Y-128647000D01*
X102033000Y-128647000D01*
X102033000Y-128627000D01*
X102013000Y-128627000D01*
X102013000Y-128373000D01*
X102033000Y-128373000D01*
X102033000Y-127371373D01*
X101843020Y-127310511D01*
X101543036Y-127434755D01*
X101182348Y-127751944D01*
X101019764Y-128082773D01*
X100984570Y-127905841D01*
X100664397Y-127426667D01*
X100185223Y-127106494D01*
X99620000Y-126994064D01*
X99054777Y-127106494D01*
X98575603Y-127426667D01*
X98255430Y-127905841D01*
X98206000Y-128154342D01*
X98206000Y-118761816D01*
X98533802Y-118761816D01*
X98662236Y-119033158D01*
X98920523Y-119265337D01*
X99248000Y-119381000D01*
X99523000Y-119381000D01*
X99523000Y-118627000D01*
X99777000Y-118627000D01*
X99777000Y-119381000D01*
X100052000Y-119381000D01*
X100379477Y-119265337D01*
X100637764Y-119033158D01*
X100766198Y-118761816D01*
X100700419Y-118627000D01*
X99777000Y-118627000D01*
X99523000Y-118627000D01*
X98599581Y-118627000D01*
X98533802Y-118761816D01*
X98206000Y-118761816D01*
X98206000Y-118238184D01*
X98533802Y-118238184D01*
X98599581Y-118373000D01*
X99523000Y-118373000D01*
X99523000Y-117619000D01*
X99777000Y-117619000D01*
X99777000Y-118373000D01*
X100700419Y-118373000D01*
X100766198Y-118238184D01*
X100637764Y-117966842D01*
X100409284Y-117761457D01*
X101499261Y-117761457D01*
X101606672Y-118078537D01*
X101827248Y-118330376D01*
X102092138Y-118466237D01*
X102223000Y-118400074D01*
X102223000Y-117627000D01*
X102477000Y-117627000D01*
X102477000Y-118400074D01*
X102607862Y-118466237D01*
X102872752Y-118330376D01*
X102967455Y-118222250D01*
X104119000Y-118222250D01*
X104119000Y-118875785D01*
X104177004Y-119015819D01*
X104284180Y-119122996D01*
X104424214Y-119181000D01*
X104777750Y-119181000D01*
X104873000Y-119085750D01*
X104873000Y-118127000D01*
X105127000Y-118127000D01*
X105127000Y-119085750D01*
X105222250Y-119181000D01*
X105575786Y-119181000D01*
X105715820Y-119122996D01*
X105822996Y-119015819D01*
X105881000Y-118875785D01*
X105881000Y-118222250D01*
X105785750Y-118127000D01*
X105127000Y-118127000D01*
X104873000Y-118127000D01*
X104214250Y-118127000D01*
X104119000Y-118222250D01*
X102967455Y-118222250D01*
X103093328Y-118078537D01*
X103200739Y-117761457D01*
X103112451Y-117627000D01*
X102477000Y-117627000D01*
X102223000Y-117627000D01*
X101587549Y-117627000D01*
X101499261Y-117761457D01*
X100409284Y-117761457D01*
X100379477Y-117734663D01*
X100052000Y-117619000D01*
X99777000Y-117619000D01*
X99523000Y-117619000D01*
X99248000Y-117619000D01*
X98920523Y-117734663D01*
X98662236Y-117966842D01*
X98533802Y-118238184D01*
X98206000Y-118238184D01*
X98206000Y-112750000D01*
X101123000Y-112750000D01*
X101123000Y-117250000D01*
X101132667Y-117298601D01*
X101160197Y-117339803D01*
X101201399Y-117367333D01*
X101250000Y-117377000D01*
X103500000Y-117377000D01*
X103548601Y-117367333D01*
X103589803Y-117339803D01*
X103617333Y-117298601D01*
X103627000Y-117250000D01*
X103627000Y-117124215D01*
X104119000Y-117124215D01*
X104119000Y-117777750D01*
X104214250Y-117873000D01*
X104873000Y-117873000D01*
X104873000Y-116914250D01*
X105127000Y-116914250D01*
X105127000Y-117873000D01*
X105785750Y-117873000D01*
X105881000Y-117777750D01*
X105881000Y-117124215D01*
X105822996Y-116984181D01*
X105715820Y-116877004D01*
X105575786Y-116819000D01*
X105222250Y-116819000D01*
X105127000Y-116914250D01*
X104873000Y-116914250D01*
X104777750Y-116819000D01*
X104424214Y-116819000D01*
X104284180Y-116877004D01*
X104177004Y-116984181D01*
X104119000Y-117124215D01*
X103627000Y-117124215D01*
X103627000Y-116067592D01*
X103667204Y-116107796D01*
X103831362Y-116217483D01*
X103866400Y-116224452D01*
X103891106Y-116348659D01*
X103975314Y-116474686D01*
X104101341Y-116558894D01*
X104250000Y-116588464D01*
X104750000Y-116588464D01*
X104898659Y-116558894D01*
X105024686Y-116474686D01*
X105108894Y-116348659D01*
X105138464Y-116200000D01*
X105138464Y-115300000D01*
X105108894Y-115151341D01*
X105024686Y-115025314D01*
X104986801Y-115000000D01*
X105024686Y-114974686D01*
X105108894Y-114848659D01*
X105138464Y-114700000D01*
X105138464Y-113800000D01*
X105361536Y-113800000D01*
X105361536Y-114700000D01*
X105391106Y-114848659D01*
X105475314Y-114974686D01*
X105513199Y-115000000D01*
X105475314Y-115025314D01*
X105391106Y-115151341D01*
X105361536Y-115300000D01*
X105361536Y-116200000D01*
X105391106Y-116348659D01*
X105475314Y-116474686D01*
X105601341Y-116558894D01*
X105750000Y-116588464D01*
X106250000Y-116588464D01*
X106398659Y-116558894D01*
X106524686Y-116474686D01*
X106608894Y-116348659D01*
X106627325Y-116256000D01*
X107250000Y-116256000D01*
X107443638Y-116217483D01*
X107607796Y-116107796D01*
X107857796Y-115857796D01*
X107967483Y-115693638D01*
X107979630Y-115632570D01*
X108098659Y-115608894D01*
X108224686Y-115524686D01*
X108237172Y-115506000D01*
X110401579Y-115506000D01*
X110557021Y-115661714D01*
X110843968Y-115780864D01*
X111154669Y-115781136D01*
X111441823Y-115662486D01*
X111661714Y-115442979D01*
X111780864Y-115156032D01*
X111781136Y-114845331D01*
X111662486Y-114558177D01*
X111442979Y-114338286D01*
X111156032Y-114219136D01*
X110845331Y-114218864D01*
X110558177Y-114337514D01*
X110401417Y-114494000D01*
X109994337Y-114494000D01*
X110030864Y-114406032D01*
X110031136Y-114095331D01*
X109912486Y-113808177D01*
X109692979Y-113588286D01*
X109406032Y-113469136D01*
X109095331Y-113468864D01*
X108808177Y-113587514D01*
X108651417Y-113744000D01*
X108338464Y-113744000D01*
X108338464Y-113250000D01*
X108308894Y-113101341D01*
X108224686Y-112975314D01*
X108098659Y-112891106D01*
X108090394Y-112889462D01*
X108168659Y-112873894D01*
X108294686Y-112789686D01*
X108378894Y-112663659D01*
X108408464Y-112515000D01*
X108408464Y-112131000D01*
X109061536Y-112131000D01*
X109061536Y-112600000D01*
X109091106Y-112748659D01*
X109175314Y-112874686D01*
X109301341Y-112958894D01*
X109450000Y-112988464D01*
X110950000Y-112988464D01*
X111098659Y-112958894D01*
X111224686Y-112874686D01*
X111308894Y-112748659D01*
X111338464Y-112600000D01*
X111338464Y-110600000D01*
X111308894Y-110451341D01*
X111224686Y-110325314D01*
X111098659Y-110241106D01*
X110950000Y-110211536D01*
X109450000Y-110211536D01*
X109381000Y-110225261D01*
X109381000Y-109912407D01*
X109398659Y-109908894D01*
X109524686Y-109824686D01*
X109608894Y-109698659D01*
X109638464Y-109550000D01*
X109638464Y-109381000D01*
X110026361Y-109381000D01*
X110057021Y-109411714D01*
X110343968Y-109530864D01*
X110654669Y-109531136D01*
X110941823Y-109412486D01*
X111161714Y-109192979D01*
X111280864Y-108906032D01*
X111281136Y-108595331D01*
X111162486Y-108308177D01*
X110942979Y-108088286D01*
X110656032Y-107969136D01*
X110345331Y-107968864D01*
X110058177Y-108087514D01*
X110026636Y-108119000D01*
X109638464Y-108119000D01*
X109638464Y-107950000D01*
X109608894Y-107801341D01*
X109524686Y-107675314D01*
X109398659Y-107591106D01*
X109250000Y-107561536D01*
X108250000Y-107561536D01*
X108101341Y-107591106D01*
X107975314Y-107675314D01*
X107891106Y-107801341D01*
X107861536Y-107950000D01*
X107861536Y-109550000D01*
X107891106Y-109698659D01*
X107975314Y-109824686D01*
X108101341Y-109908894D01*
X108119000Y-109912407D01*
X108119000Y-110116228D01*
X108020000Y-110096536D01*
X106880000Y-110096536D01*
X106731341Y-110126106D01*
X106605314Y-110210314D01*
X106521106Y-110336341D01*
X106491536Y-110485000D01*
X106491536Y-112515000D01*
X106521106Y-112663659D01*
X106605314Y-112789686D01*
X106731341Y-112873894D01*
X106880000Y-112903464D01*
X106882846Y-112903464D01*
X106775314Y-112975314D01*
X106691106Y-113101341D01*
X106661536Y-113250000D01*
X106661536Y-113744000D01*
X106627325Y-113744000D01*
X106608894Y-113651341D01*
X106524686Y-113525314D01*
X106398659Y-113441106D01*
X106250000Y-113411536D01*
X105750000Y-113411536D01*
X105601341Y-113441106D01*
X105475314Y-113525314D01*
X105391106Y-113651341D01*
X105361536Y-113800000D01*
X105138464Y-113800000D01*
X105108894Y-113651341D01*
X105024686Y-113525314D01*
X104898659Y-113441106D01*
X104750000Y-113411536D01*
X104348868Y-113411536D01*
X104381000Y-113250000D01*
X104381000Y-112883772D01*
X104480000Y-112903464D01*
X105620000Y-112903464D01*
X105768659Y-112873894D01*
X105894686Y-112789686D01*
X105978894Y-112663659D01*
X106008464Y-112515000D01*
X106008464Y-110485000D01*
X105978894Y-110336341D01*
X105894686Y-110210314D01*
X105768659Y-110126106D01*
X105620000Y-110096536D01*
X104480000Y-110096536D01*
X104331341Y-110126106D01*
X104205314Y-110210314D01*
X104121106Y-110336341D01*
X104091536Y-110485000D01*
X104091536Y-110900520D01*
X104008527Y-110917032D01*
X103803816Y-111053815D01*
X103303816Y-111553816D01*
X103167032Y-111758527D01*
X103119345Y-111998266D01*
X103093328Y-111921463D01*
X102872752Y-111669624D01*
X102607862Y-111533763D01*
X102477000Y-111599926D01*
X102477000Y-112373000D01*
X102497000Y-112373000D01*
X102497000Y-112623000D01*
X101250000Y-112623000D01*
X101201399Y-112632667D01*
X101160197Y-112660197D01*
X101132667Y-112701399D01*
X101123000Y-112750000D01*
X98206000Y-112750000D01*
X98206000Y-111761816D01*
X98533802Y-111761816D01*
X98662236Y-112033158D01*
X98920523Y-112265337D01*
X99248000Y-112381000D01*
X99523000Y-112381000D01*
X99523000Y-111627000D01*
X99777000Y-111627000D01*
X99777000Y-112381000D01*
X100052000Y-112381000D01*
X100379477Y-112265337D01*
X100409283Y-112238543D01*
X101499261Y-112238543D01*
X101587549Y-112373000D01*
X102223000Y-112373000D01*
X102223000Y-111599926D01*
X102092138Y-111533763D01*
X101827248Y-111669624D01*
X101606672Y-111921463D01*
X101499261Y-112238543D01*
X100409283Y-112238543D01*
X100637764Y-112033158D01*
X100766198Y-111761816D01*
X100700419Y-111627000D01*
X99777000Y-111627000D01*
X99523000Y-111627000D01*
X98599581Y-111627000D01*
X98533802Y-111761816D01*
X98206000Y-111761816D01*
X98206000Y-111238184D01*
X98533802Y-111238184D01*
X98599581Y-111373000D01*
X99523000Y-111373000D01*
X99523000Y-110619000D01*
X99777000Y-110619000D01*
X99777000Y-111373000D01*
X100700419Y-111373000D01*
X100766198Y-111238184D01*
X100637764Y-110966842D01*
X100379477Y-110734663D01*
X100052000Y-110619000D01*
X99777000Y-110619000D01*
X99523000Y-110619000D01*
X99248000Y-110619000D01*
X98920523Y-110734663D01*
X98662236Y-110966842D01*
X98533802Y-111238184D01*
X98206000Y-111238184D01*
X98206000Y-108972250D01*
X104869000Y-108972250D01*
X104869000Y-109625785D01*
X104927004Y-109765819D01*
X105034180Y-109872996D01*
X105174214Y-109931000D01*
X105527750Y-109931000D01*
X105623000Y-109835750D01*
X105623000Y-108877000D01*
X105877000Y-108877000D01*
X105877000Y-109835750D01*
X105972250Y-109931000D01*
X106325786Y-109931000D01*
X106465820Y-109872996D01*
X106572996Y-109765819D01*
X106631000Y-109625785D01*
X106631000Y-108972250D01*
X106535750Y-108877000D01*
X105877000Y-108877000D01*
X105623000Y-108877000D01*
X104964250Y-108877000D01*
X104869000Y-108972250D01*
X98206000Y-108972250D01*
X98206000Y-107874215D01*
X104869000Y-107874215D01*
X104869000Y-108527750D01*
X104964250Y-108623000D01*
X105623000Y-108623000D01*
X105623000Y-107664250D01*
X105877000Y-107664250D01*
X105877000Y-108623000D01*
X106535750Y-108623000D01*
X106631000Y-108527750D01*
X106631000Y-107874215D01*
X106572996Y-107734181D01*
X106465820Y-107627004D01*
X106325786Y-107569000D01*
X105972250Y-107569000D01*
X105877000Y-107664250D01*
X105623000Y-107664250D01*
X105527750Y-107569000D01*
X105174214Y-107569000D01*
X105034180Y-107627004D01*
X104927004Y-107734181D01*
X104869000Y-107874215D01*
X98206000Y-107874215D01*
X98206000Y-101816982D01*
X98430499Y-101816982D01*
X98642348Y-102248056D01*
X99003036Y-102565245D01*
X99303020Y-102689489D01*
X99493000Y-102628627D01*
X99493000Y-101627000D01*
X98490807Y-101627000D01*
X98430499Y-101816982D01*
X98206000Y-101816982D01*
X98206000Y-100456000D01*
X98978877Y-100456000D01*
X98642348Y-100751944D01*
G36*
X154544000Y-113035855D02*
X154323333Y-112705603D01*
X153844159Y-112385430D01*
X153667227Y-112350236D01*
X153998056Y-112187652D01*
X154315245Y-111826964D01*
X154439489Y-111526980D01*
X154378627Y-111337000D01*
X153377000Y-111337000D01*
X153377000Y-111357000D01*
X153123000Y-111357000D01*
X153123000Y-111337000D01*
X152121373Y-111337000D01*
X152060511Y-111526980D01*
X152184755Y-111826964D01*
X152501944Y-112187652D01*
X152832773Y-112350236D01*
X152655841Y-112385430D01*
X152176667Y-112705603D01*
X151856494Y-113184777D01*
X151744064Y-113750000D01*
X151856494Y-114315223D01*
X152176667Y-114794397D01*
X152514307Y-115020000D01*
X152176667Y-115245603D01*
X151856494Y-115724777D01*
X151744064Y-116290000D01*
X151856494Y-116855223D01*
X152176667Y-117334397D01*
X152235189Y-117373500D01*
X152155357Y-117389380D01*
X151947959Y-117527959D01*
X151809380Y-117735357D01*
X151760717Y-117980000D01*
X151760717Y-118118348D01*
X150631000Y-116988632D01*
X150631000Y-114250000D01*
X150582968Y-114008527D01*
X150582968Y-114008526D01*
X150446184Y-113803815D01*
X148656184Y-112013816D01*
X148451473Y-111877032D01*
X148451312Y-111877000D01*
X148210000Y-111829000D01*
X147489283Y-111829000D01*
X147489283Y-111610000D01*
X147440620Y-111365357D01*
X147302041Y-111157959D01*
X147094643Y-111019380D01*
X146850000Y-110970717D01*
X146506000Y-110970717D01*
X146506000Y-110893020D01*
X152060511Y-110893020D01*
X152121373Y-111083000D01*
X153123000Y-111083000D01*
X153123000Y-110080807D01*
X153377000Y-110080807D01*
X153377000Y-111083000D01*
X154378627Y-111083000D01*
X154439489Y-110893020D01*
X154315245Y-110593036D01*
X153998056Y-110232348D01*
X153566982Y-110020499D01*
X153377000Y-110080807D01*
X153123000Y-110080807D01*
X152933018Y-110020499D01*
X152501944Y-110232348D01*
X152184755Y-110593036D01*
X152060511Y-110893020D01*
X146506000Y-110893020D01*
X146506000Y-110506000D01*
X152000000Y-110506000D01*
X152193638Y-110467483D01*
X152357796Y-110357796D01*
X153457796Y-109257796D01*
X153567483Y-109093638D01*
X153588403Y-108988464D01*
X153700000Y-108988464D01*
X153848659Y-108958894D01*
X153974686Y-108874686D01*
X154058894Y-108748659D01*
X154088464Y-108600000D01*
X154088464Y-107400000D01*
X154058894Y-107251341D01*
X153974686Y-107125314D01*
X153848659Y-107041106D01*
X153700000Y-107011536D01*
X152500000Y-107011536D01*
X152351341Y-107041106D01*
X152225314Y-107125314D01*
X152141106Y-107251341D01*
X152111536Y-107400000D01*
X152111536Y-108600000D01*
X152141106Y-108748659D01*
X152225314Y-108874686D01*
X152335859Y-108948549D01*
X151790408Y-109494000D01*
X144127325Y-109494000D01*
X144108894Y-109401341D01*
X144024686Y-109275314D01*
X143898659Y-109191106D01*
X143750000Y-109161536D01*
X143250000Y-109161536D01*
X143101341Y-109191106D01*
X142975314Y-109275314D01*
X142891106Y-109401341D01*
X142861536Y-109550000D01*
X142861536Y-110450000D01*
X142891106Y-110598659D01*
X142975314Y-110724686D01*
X143101341Y-110808894D01*
X143250000Y-110838464D01*
X143750000Y-110838464D01*
X143898659Y-110808894D01*
X144024686Y-110724686D01*
X144108894Y-110598659D01*
X144127325Y-110506000D01*
X145494000Y-110506000D01*
X145494000Y-110970717D01*
X145150000Y-110970717D01*
X144905357Y-111019380D01*
X144697959Y-111157959D01*
X144559380Y-111365357D01*
X144510717Y-111610000D01*
X144510717Y-113310000D01*
X144559380Y-113554643D01*
X144697959Y-113762041D01*
X144905357Y-113900620D01*
X144985189Y-113916500D01*
X144926667Y-113955603D01*
X144606494Y-114434777D01*
X144594714Y-114494000D01*
X144250000Y-114494000D01*
X144056362Y-114532517D01*
X143892204Y-114642204D01*
X143142204Y-115392204D01*
X143032517Y-115556362D01*
X142994000Y-115750000D01*
X142994000Y-119262828D01*
X142975314Y-119275314D01*
X142891106Y-119401341D01*
X142861536Y-119550000D01*
X142861536Y-120450000D01*
X142891106Y-120598659D01*
X142975314Y-120724686D01*
X143101341Y-120808894D01*
X143250000Y-120838464D01*
X143750000Y-120838464D01*
X143898659Y-120808894D01*
X144024686Y-120724686D01*
X144108894Y-120598659D01*
X144138464Y-120450000D01*
X144138464Y-119550000D01*
X144108894Y-119401341D01*
X144024686Y-119275314D01*
X144006000Y-119262828D01*
X144006000Y-117856980D01*
X144810511Y-117856980D01*
X144934755Y-118156964D01*
X145251944Y-118517652D01*
X145683018Y-118729501D01*
X145873000Y-118669193D01*
X145873000Y-117667000D01*
X146127000Y-117667000D01*
X146127000Y-118669193D01*
X146316982Y-118729501D01*
X146748056Y-118517652D01*
X147065245Y-118156964D01*
X147189489Y-117856980D01*
X147128627Y-117667000D01*
X146127000Y-117667000D01*
X145873000Y-117667000D01*
X144871373Y-117667000D01*
X144810511Y-117856980D01*
X144006000Y-117856980D01*
X144006000Y-115959592D01*
X144459592Y-115506000D01*
X144594714Y-115506000D01*
X144606494Y-115565223D01*
X144926667Y-116044397D01*
X145405841Y-116364570D01*
X145582773Y-116399764D01*
X145251944Y-116562348D01*
X144934755Y-116923036D01*
X144810511Y-117223020D01*
X144871373Y-117413000D01*
X145873000Y-117413000D01*
X145873000Y-117393000D01*
X146127000Y-117393000D01*
X146127000Y-117413000D01*
X147128627Y-117413000D01*
X147189489Y-117223020D01*
X147065245Y-116923036D01*
X146748056Y-116562348D01*
X146417227Y-116399764D01*
X146594159Y-116364570D01*
X147073333Y-116044397D01*
X147393506Y-115565223D01*
X147505936Y-115000000D01*
X147393506Y-114434777D01*
X147073333Y-113955603D01*
X147014811Y-113916500D01*
X147094643Y-113900620D01*
X147302041Y-113762041D01*
X147440620Y-113554643D01*
X147489283Y-113310000D01*
X147489283Y-113091000D01*
X147948632Y-113091000D01*
X149369000Y-114511369D01*
X149369000Y-117250000D01*
X149409542Y-117453816D01*
X149417032Y-117491473D01*
X149553816Y-117696184D01*
X151133815Y-119276184D01*
X151338526Y-119412968D01*
X151378589Y-119420937D01*
X151580000Y-119461000D01*
X151760717Y-119461000D01*
X151760717Y-119680000D01*
X151809380Y-119924643D01*
X151947959Y-120132041D01*
X152155357Y-120270620D01*
X152400000Y-120319283D01*
X152619000Y-120319283D01*
X152619000Y-121011536D01*
X152500000Y-121011536D01*
X152351341Y-121041106D01*
X152225314Y-121125314D01*
X152141106Y-121251341D01*
X152111536Y-121400000D01*
X152111536Y-122600000D01*
X152141106Y-122748659D01*
X152225314Y-122874686D01*
X152351341Y-122958894D01*
X152500000Y-122988464D01*
X152619000Y-122988464D01*
X152619000Y-125238632D01*
X152513816Y-125343816D01*
X152377032Y-125548527D01*
X152329000Y-125790000D01*
X152329000Y-127010717D01*
X152110000Y-127010717D01*
X151865357Y-127059380D01*
X151657959Y-127197959D01*
X151519380Y-127405357D01*
X151470717Y-127650000D01*
X151470717Y-127900618D01*
X151397652Y-127751944D01*
X151036964Y-127434755D01*
X150736980Y-127310511D01*
X150547000Y-127371373D01*
X150547000Y-128373000D01*
X150567000Y-128373000D01*
X150567000Y-128627000D01*
X150547000Y-128627000D01*
X150547000Y-128647000D01*
X150293000Y-128647000D01*
X150293000Y-128627000D01*
X150273000Y-128627000D01*
X150273000Y-128373000D01*
X150293000Y-128373000D01*
X150293000Y-127371373D01*
X150103020Y-127310511D01*
X149803036Y-127434755D01*
X149442348Y-127751944D01*
X149279764Y-128082773D01*
X149244570Y-127905841D01*
X148924397Y-127426667D01*
X148445223Y-127106494D01*
X148386000Y-127094714D01*
X148386000Y-126750000D01*
X148347483Y-126556362D01*
X148237796Y-126392204D01*
X144067842Y-122222250D01*
X147119000Y-122222250D01*
X147119000Y-122525785D01*
X147177004Y-122665819D01*
X147284180Y-122772996D01*
X147424214Y-122831000D01*
X147529750Y-122831000D01*
X147625000Y-122735750D01*
X147625000Y-122127000D01*
X147875000Y-122127000D01*
X147875000Y-122735750D01*
X147970250Y-122831000D01*
X148075786Y-122831000D01*
X148215820Y-122772996D01*
X148322996Y-122665819D01*
X148381000Y-122525785D01*
X148381000Y-122222250D01*
X148285750Y-122127000D01*
X147875000Y-122127000D01*
X147625000Y-122127000D01*
X147214250Y-122127000D01*
X147119000Y-122222250D01*
X144067842Y-122222250D01*
X143987796Y-122142204D01*
X143823638Y-122032517D01*
X143630000Y-121994000D01*
X136684465Y-121994000D01*
X136164680Y-121474215D01*
X147119000Y-121474215D01*
X147119000Y-121777750D01*
X147214250Y-121873000D01*
X147625000Y-121873000D01*
X147625000Y-121264250D01*
X147875000Y-121264250D01*
X147875000Y-121873000D01*
X148285750Y-121873000D01*
X148381000Y-121777750D01*
X148381000Y-121550000D01*
X148611536Y-121550000D01*
X148611536Y-122450000D01*
X148641106Y-122598659D01*
X148725314Y-122724686D01*
X148851341Y-122808894D01*
X149000000Y-122838464D01*
X149500000Y-122838464D01*
X149648659Y-122808894D01*
X149774686Y-122724686D01*
X149858894Y-122598659D01*
X149877325Y-122506000D01*
X149911536Y-122506000D01*
X149911536Y-122600000D01*
X149941106Y-122748659D01*
X150025314Y-122874686D01*
X150151341Y-122958894D01*
X150300000Y-122988464D01*
X151500000Y-122988464D01*
X151648659Y-122958894D01*
X151774686Y-122874686D01*
X151858894Y-122748659D01*
X151888464Y-122600000D01*
X151888464Y-121400000D01*
X151858894Y-121251341D01*
X151774686Y-121125314D01*
X151648659Y-121041106D01*
X151500000Y-121011536D01*
X150300000Y-121011536D01*
X150151341Y-121041106D01*
X150025314Y-121125314D01*
X149941106Y-121251341D01*
X149911536Y-121400000D01*
X149911536Y-121494000D01*
X149877325Y-121494000D01*
X149858894Y-121401341D01*
X149774686Y-121275314D01*
X149648659Y-121191106D01*
X149500000Y-121161536D01*
X149000000Y-121161536D01*
X148851341Y-121191106D01*
X148725314Y-121275314D01*
X148641106Y-121401341D01*
X148611536Y-121550000D01*
X148381000Y-121550000D01*
X148381000Y-121474215D01*
X148322996Y-121334181D01*
X148215820Y-121227004D01*
X148075786Y-121169000D01*
X147970250Y-121169000D01*
X147875000Y-121264250D01*
X147625000Y-121264250D01*
X147529750Y-121169000D01*
X147424214Y-121169000D01*
X147284180Y-121227004D01*
X147177004Y-121334181D01*
X147119000Y-121474215D01*
X136164680Y-121474215D01*
X134502715Y-119812250D01*
X137319000Y-119812250D01*
X137319000Y-120755786D01*
X137377004Y-120895820D01*
X137484181Y-121002996D01*
X137624215Y-121061000D01*
X138277750Y-121061000D01*
X138373000Y-120965750D01*
X138373000Y-119717000D01*
X138627000Y-119717000D01*
X138627000Y-120965750D01*
X138722250Y-121061000D01*
X139375785Y-121061000D01*
X139515819Y-121002996D01*
X139622996Y-120895820D01*
X139681000Y-120755786D01*
X139681000Y-120154669D01*
X140218864Y-120154669D01*
X140337514Y-120441823D01*
X140557021Y-120661714D01*
X140843968Y-120780864D01*
X141154669Y-120781136D01*
X141435499Y-120665099D01*
X141475314Y-120724686D01*
X141601341Y-120808894D01*
X141750000Y-120838464D01*
X142250000Y-120838464D01*
X142398659Y-120808894D01*
X142524686Y-120724686D01*
X142608894Y-120598659D01*
X142638464Y-120450000D01*
X142638464Y-119550000D01*
X142608894Y-119401341D01*
X142524686Y-119275314D01*
X142398659Y-119191106D01*
X142250000Y-119161536D01*
X141750000Y-119161536D01*
X141601341Y-119191106D01*
X141475314Y-119275314D01*
X141435353Y-119335120D01*
X141156032Y-119219136D01*
X140845331Y-119218864D01*
X140558177Y-119337514D01*
X140338286Y-119557021D01*
X140219136Y-119843968D01*
X140218864Y-120154669D01*
X139681000Y-120154669D01*
X139681000Y-119812250D01*
X139585750Y-119717000D01*
X138627000Y-119717000D01*
X138373000Y-119717000D01*
X137414250Y-119717000D01*
X137319000Y-119812250D01*
X134502715Y-119812250D01*
X133114679Y-118424214D01*
X137319000Y-118424214D01*
X137319000Y-119367750D01*
X137414250Y-119463000D01*
X138373000Y-119463000D01*
X138373000Y-118214250D01*
X138627000Y-118214250D01*
X138627000Y-119463000D01*
X139585750Y-119463000D01*
X139681000Y-119367750D01*
X139681000Y-118424214D01*
X139622996Y-118284180D01*
X139515819Y-118177004D01*
X139375785Y-118119000D01*
X138722250Y-118119000D01*
X138627000Y-118214250D01*
X138373000Y-118214250D01*
X138277750Y-118119000D01*
X137624215Y-118119000D01*
X137484181Y-118177004D01*
X137377004Y-118284180D01*
X137319000Y-118424214D01*
X133114679Y-118424214D01*
X131900174Y-117209709D01*
X131913648Y-117196235D01*
X131945449Y-117217483D01*
X132139087Y-117256000D01*
X132291554Y-117256000D01*
X132283198Y-117298008D01*
X132312768Y-117446667D01*
X132396976Y-117572694D01*
X132927306Y-118103024D01*
X133053333Y-118187232D01*
X133201992Y-118216802D01*
X133350651Y-118187232D01*
X133476678Y-118103024D01*
X134042364Y-117537338D01*
X134126572Y-117411311D01*
X134156142Y-117262652D01*
X134128677Y-117124574D01*
X134186867Y-117148677D01*
X134338437Y-117148678D01*
X134478471Y-117090674D01*
X134657748Y-116911397D01*
X134657748Y-116776693D01*
X134280330Y-116399275D01*
X134266188Y-116413418D01*
X134086583Y-116233813D01*
X134100725Y-116219670D01*
X134459935Y-116219670D01*
X134837353Y-116597088D01*
X134972057Y-116597088D01*
X135151334Y-116417811D01*
X135209338Y-116277777D01*
X135209337Y-116126207D01*
X135151334Y-115986173D01*
X134989735Y-115824574D01*
X134855031Y-115824574D01*
X134459935Y-116219670D01*
X134100725Y-116219670D01*
X133723307Y-115842252D01*
X133588603Y-115842252D01*
X133409326Y-116021529D01*
X133351322Y-116161563D01*
X133351323Y-116313133D01*
X133375426Y-116371323D01*
X133237348Y-116343858D01*
X133088689Y-116373428D01*
X133052524Y-116397592D01*
X133047136Y-116392204D01*
X132882978Y-116282517D01*
X132689340Y-116244000D01*
X132353899Y-116244000D01*
X132343152Y-116227916D01*
X131643179Y-115527943D01*
X133902912Y-115527943D01*
X133902912Y-115662647D01*
X134280330Y-116040065D01*
X134675426Y-115644969D01*
X134675426Y-115510265D01*
X134513827Y-115348666D01*
X134373793Y-115290663D01*
X134222223Y-115290662D01*
X134082189Y-115348666D01*
X133902912Y-115527943D01*
X131643179Y-115527943D01*
X131423913Y-115308677D01*
X131392098Y-115287419D01*
X129996883Y-113892204D01*
X129832725Y-113782517D01*
X129639087Y-113744000D01*
X127727359Y-113744000D01*
X127215592Y-113232233D01*
X128320800Y-112127025D01*
X128406361Y-112212586D01*
X128428103Y-112190844D01*
X128428103Y-112234328D01*
X128381426Y-112187652D01*
X128458533Y-112264759D01*
X128502879Y-112283127D01*
X128576444Y-112393226D01*
X128753221Y-112570003D01*
X128859191Y-112640809D01*
X128929997Y-112746779D01*
X129106774Y-112923556D01*
X129212744Y-112994363D01*
X129283551Y-113100333D01*
X129460328Y-113277110D01*
X129566298Y-113347916D01*
X129637104Y-113453886D01*
X129813881Y-113630663D01*
X129919851Y-113701469D01*
X129990657Y-113807439D01*
X130167434Y-113984216D01*
X130273404Y-114055023D01*
X130344211Y-114160993D01*
X130520988Y-114337770D01*
X130626958Y-114408576D01*
X130697764Y-114514546D01*
X130874541Y-114691323D01*
X131000568Y-114775531D01*
X131149227Y-114805101D01*
X131297886Y-114775531D01*
X131423913Y-114691323D01*
X131892986Y-114222250D01*
X134494000Y-114222250D01*
X134494000Y-114475786D01*
X134552004Y-114615820D01*
X134659181Y-114722996D01*
X134799215Y-114781000D01*
X135027750Y-114781000D01*
X135123000Y-114685750D01*
X135123000Y-114127000D01*
X135377000Y-114127000D01*
X135377000Y-114685750D01*
X135472250Y-114781000D01*
X135700785Y-114781000D01*
X135840819Y-114722996D01*
X135947996Y-114615820D01*
X136006000Y-114475786D01*
X136006000Y-114222250D01*
X135910750Y-114127000D01*
X135377000Y-114127000D01*
X135123000Y-114127000D01*
X134589250Y-114127000D01*
X134494000Y-114222250D01*
X131892986Y-114222250D01*
X132343152Y-113772084D01*
X132364410Y-113740269D01*
X134778594Y-111326085D01*
X134744000Y-111500000D01*
X134744000Y-111737593D01*
X134726341Y-111741106D01*
X134600314Y-111825314D01*
X134516106Y-111951341D01*
X134486536Y-112100000D01*
X134486536Y-112900000D01*
X134516106Y-113048659D01*
X134600314Y-113174686D01*
X134717371Y-113252901D01*
X134659181Y-113277004D01*
X134552004Y-113384180D01*
X134494000Y-113524214D01*
X134494000Y-113777750D01*
X134589250Y-113873000D01*
X135123000Y-113873000D01*
X135123000Y-113853000D01*
X135377000Y-113853000D01*
X135377000Y-113873000D01*
X135910750Y-113873000D01*
X136006000Y-113777750D01*
X136006000Y-113524214D01*
X135947996Y-113384180D01*
X135840819Y-113277004D01*
X135782629Y-113252901D01*
X135899686Y-113174686D01*
X135983894Y-113048659D01*
X136013464Y-112900000D01*
X136013464Y-112100000D01*
X135983894Y-111951341D01*
X135899686Y-111825314D01*
X135773659Y-111741106D01*
X135756000Y-111737593D01*
X135756000Y-111709592D01*
X136549592Y-110916000D01*
X137311536Y-110916000D01*
X137311536Y-111500000D01*
X137341106Y-111648659D01*
X137425314Y-111774686D01*
X137551341Y-111858894D01*
X137700000Y-111888464D01*
X139300000Y-111888464D01*
X139448659Y-111858894D01*
X139574686Y-111774686D01*
X139658894Y-111648659D01*
X139688464Y-111500000D01*
X139688464Y-110506000D01*
X141372675Y-110506000D01*
X141391106Y-110598659D01*
X141475314Y-110724686D01*
X141601341Y-110808894D01*
X141750000Y-110838464D01*
X142250000Y-110838464D01*
X142398659Y-110808894D01*
X142524686Y-110724686D01*
X142608894Y-110598659D01*
X142638464Y-110450000D01*
X142638464Y-109550000D01*
X142608894Y-109401341D01*
X142524686Y-109275314D01*
X142398659Y-109191106D01*
X142250000Y-109161536D01*
X141750000Y-109161536D01*
X141601341Y-109191106D01*
X141475314Y-109275314D01*
X141391106Y-109401341D01*
X141372675Y-109494000D01*
X139688464Y-109494000D01*
X139688464Y-109320000D01*
X139658894Y-109171341D01*
X139574686Y-109045314D01*
X139448659Y-108961106D01*
X139300000Y-108931536D01*
X139006000Y-108931536D01*
X139006000Y-108848421D01*
X139161714Y-108692979D01*
X139280864Y-108406032D01*
X139281136Y-108095331D01*
X139244225Y-108006000D01*
X144901579Y-108006000D01*
X145057021Y-108161714D01*
X145343968Y-108280864D01*
X145654669Y-108281136D01*
X145941823Y-108162486D01*
X146161714Y-107942979D01*
X146280864Y-107656032D01*
X146281136Y-107345331D01*
X146244225Y-107256000D01*
X147244000Y-107256000D01*
X147244000Y-107262828D01*
X147225314Y-107275314D01*
X147141106Y-107401341D01*
X147111536Y-107550000D01*
X147111536Y-108450000D01*
X147141106Y-108598659D01*
X147225314Y-108724686D01*
X147351341Y-108808894D01*
X147500000Y-108838464D01*
X148000000Y-108838464D01*
X148148659Y-108808894D01*
X148274686Y-108724686D01*
X148358894Y-108598659D01*
X148388464Y-108450000D01*
X148388464Y-107550000D01*
X148611536Y-107550000D01*
X148611536Y-108450000D01*
X148641106Y-108598659D01*
X148725314Y-108724686D01*
X148851341Y-108808894D01*
X149000000Y-108838464D01*
X149500000Y-108838464D01*
X149648659Y-108808894D01*
X149774686Y-108724686D01*
X149858894Y-108598659D01*
X149877325Y-108506000D01*
X149911536Y-108506000D01*
X149911536Y-108600000D01*
X149941106Y-108748659D01*
X150025314Y-108874686D01*
X150151341Y-108958894D01*
X150300000Y-108988464D01*
X151500000Y-108988464D01*
X151648659Y-108958894D01*
X151774686Y-108874686D01*
X151858894Y-108748659D01*
X151888464Y-108600000D01*
X151888464Y-107400000D01*
X151858894Y-107251341D01*
X151774686Y-107125314D01*
X151648659Y-107041106D01*
X151500000Y-107011536D01*
X150300000Y-107011536D01*
X150151341Y-107041106D01*
X150025314Y-107125314D01*
X149941106Y-107251341D01*
X149911536Y-107400000D01*
X149911536Y-107494000D01*
X149877325Y-107494000D01*
X149858894Y-107401341D01*
X149774686Y-107275314D01*
X149648659Y-107191106D01*
X149500000Y-107161536D01*
X149000000Y-107161536D01*
X148851341Y-107191106D01*
X148725314Y-107275314D01*
X148641106Y-107401341D01*
X148611536Y-107550000D01*
X148388464Y-107550000D01*
X148358894Y-107401341D01*
X148274686Y-107275314D01*
X148256000Y-107262828D01*
X148256000Y-106959592D01*
X150777796Y-104437796D01*
X150887483Y-104273638D01*
X150926000Y-104080000D01*
X150926000Y-102905286D01*
X150985223Y-102893506D01*
X151464397Y-102573333D01*
X151503500Y-102514811D01*
X151519380Y-102594643D01*
X151657959Y-102802041D01*
X151865357Y-102940620D01*
X152110000Y-102989283D01*
X153810000Y-102989283D01*
X154054643Y-102940620D01*
X154262041Y-102802041D01*
X154400620Y-102594643D01*
X154449283Y-102350000D01*
X154449283Y-100650000D01*
X154410694Y-100456000D01*
X154544000Y-100456000D01*
X154544000Y-113035855D01*
X154544000Y-113035855D01*
G37*
X154544000Y-113035855D02*
X154323333Y-112705603D01*
X153844159Y-112385430D01*
X153667227Y-112350236D01*
X153998056Y-112187652D01*
X154315245Y-111826964D01*
X154439489Y-111526980D01*
X154378627Y-111337000D01*
X153377000Y-111337000D01*
X153377000Y-111357000D01*
X153123000Y-111357000D01*
X153123000Y-111337000D01*
X152121373Y-111337000D01*
X152060511Y-111526980D01*
X152184755Y-111826964D01*
X152501944Y-112187652D01*
X152832773Y-112350236D01*
X152655841Y-112385430D01*
X152176667Y-112705603D01*
X151856494Y-113184777D01*
X151744064Y-113750000D01*
X151856494Y-114315223D01*
X152176667Y-114794397D01*
X152514307Y-115020000D01*
X152176667Y-115245603D01*
X151856494Y-115724777D01*
X151744064Y-116290000D01*
X151856494Y-116855223D01*
X152176667Y-117334397D01*
X152235189Y-117373500D01*
X152155357Y-117389380D01*
X151947959Y-117527959D01*
X151809380Y-117735357D01*
X151760717Y-117980000D01*
X151760717Y-118118348D01*
X150631000Y-116988632D01*
X150631000Y-114250000D01*
X150582968Y-114008527D01*
X150582968Y-114008526D01*
X150446184Y-113803815D01*
X148656184Y-112013816D01*
X148451473Y-111877032D01*
X148451312Y-111877000D01*
X148210000Y-111829000D01*
X147489283Y-111829000D01*
X147489283Y-111610000D01*
X147440620Y-111365357D01*
X147302041Y-111157959D01*
X147094643Y-111019380D01*
X146850000Y-110970717D01*
X146506000Y-110970717D01*
X146506000Y-110893020D01*
X152060511Y-110893020D01*
X152121373Y-111083000D01*
X153123000Y-111083000D01*
X153123000Y-110080807D01*
X153377000Y-110080807D01*
X153377000Y-111083000D01*
X154378627Y-111083000D01*
X154439489Y-110893020D01*
X154315245Y-110593036D01*
X153998056Y-110232348D01*
X153566982Y-110020499D01*
X153377000Y-110080807D01*
X153123000Y-110080807D01*
X152933018Y-110020499D01*
X152501944Y-110232348D01*
X152184755Y-110593036D01*
X152060511Y-110893020D01*
X146506000Y-110893020D01*
X146506000Y-110506000D01*
X152000000Y-110506000D01*
X152193638Y-110467483D01*
X152357796Y-110357796D01*
X153457796Y-109257796D01*
X153567483Y-109093638D01*
X153588403Y-108988464D01*
X153700000Y-108988464D01*
X153848659Y-108958894D01*
X153974686Y-108874686D01*
X154058894Y-108748659D01*
X154088464Y-108600000D01*
X154088464Y-107400000D01*
X154058894Y-107251341D01*
X153974686Y-107125314D01*
X153848659Y-107041106D01*
X153700000Y-107011536D01*
X152500000Y-107011536D01*
X152351341Y-107041106D01*
X152225314Y-107125314D01*
X152141106Y-107251341D01*
X152111536Y-107400000D01*
X152111536Y-108600000D01*
X152141106Y-108748659D01*
X152225314Y-108874686D01*
X152335859Y-108948549D01*
X151790408Y-109494000D01*
X144127325Y-109494000D01*
X144108894Y-109401341D01*
X144024686Y-109275314D01*
X143898659Y-109191106D01*
X143750000Y-109161536D01*
X143250000Y-109161536D01*
X143101341Y-109191106D01*
X142975314Y-109275314D01*
X142891106Y-109401341D01*
X142861536Y-109550000D01*
X142861536Y-110450000D01*
X142891106Y-110598659D01*
X142975314Y-110724686D01*
X143101341Y-110808894D01*
X143250000Y-110838464D01*
X143750000Y-110838464D01*
X143898659Y-110808894D01*
X144024686Y-110724686D01*
X144108894Y-110598659D01*
X144127325Y-110506000D01*
X145494000Y-110506000D01*
X145494000Y-110970717D01*
X145150000Y-110970717D01*
X144905357Y-111019380D01*
X144697959Y-111157959D01*
X144559380Y-111365357D01*
X144510717Y-111610000D01*
X144510717Y-113310000D01*
X144559380Y-113554643D01*
X144697959Y-113762041D01*
X144905357Y-113900620D01*
X144985189Y-113916500D01*
X144926667Y-113955603D01*
X144606494Y-114434777D01*
X144594714Y-114494000D01*
X144250000Y-114494000D01*
X144056362Y-114532517D01*
X143892204Y-114642204D01*
X143142204Y-115392204D01*
X143032517Y-115556362D01*
X142994000Y-115750000D01*
X142994000Y-119262828D01*
X142975314Y-119275314D01*
X142891106Y-119401341D01*
X142861536Y-119550000D01*
X142861536Y-120450000D01*
X142891106Y-120598659D01*
X142975314Y-120724686D01*
X143101341Y-120808894D01*
X143250000Y-120838464D01*
X143750000Y-120838464D01*
X143898659Y-120808894D01*
X144024686Y-120724686D01*
X144108894Y-120598659D01*
X144138464Y-120450000D01*
X144138464Y-119550000D01*
X144108894Y-119401341D01*
X144024686Y-119275314D01*
X144006000Y-119262828D01*
X144006000Y-117856980D01*
X144810511Y-117856980D01*
X144934755Y-118156964D01*
X145251944Y-118517652D01*
X145683018Y-118729501D01*
X145873000Y-118669193D01*
X145873000Y-117667000D01*
X146127000Y-117667000D01*
X146127000Y-118669193D01*
X146316982Y-118729501D01*
X146748056Y-118517652D01*
X147065245Y-118156964D01*
X147189489Y-117856980D01*
X147128627Y-117667000D01*
X146127000Y-117667000D01*
X145873000Y-117667000D01*
X144871373Y-117667000D01*
X144810511Y-117856980D01*
X144006000Y-117856980D01*
X144006000Y-115959592D01*
X144459592Y-115506000D01*
X144594714Y-115506000D01*
X144606494Y-115565223D01*
X144926667Y-116044397D01*
X145405841Y-116364570D01*
X145582773Y-116399764D01*
X145251944Y-116562348D01*
X144934755Y-116923036D01*
X144810511Y-117223020D01*
X144871373Y-117413000D01*
X145873000Y-117413000D01*
X145873000Y-117393000D01*
X146127000Y-117393000D01*
X146127000Y-117413000D01*
X147128627Y-117413000D01*
X147189489Y-117223020D01*
X147065245Y-116923036D01*
X146748056Y-116562348D01*
X146417227Y-116399764D01*
X146594159Y-116364570D01*
X147073333Y-116044397D01*
X147393506Y-115565223D01*
X147505936Y-115000000D01*
X147393506Y-114434777D01*
X147073333Y-113955603D01*
X147014811Y-113916500D01*
X147094643Y-113900620D01*
X147302041Y-113762041D01*
X147440620Y-113554643D01*
X147489283Y-113310000D01*
X147489283Y-113091000D01*
X147948632Y-113091000D01*
X149369000Y-114511369D01*
X149369000Y-117250000D01*
X149409542Y-117453816D01*
X149417032Y-117491473D01*
X149553816Y-117696184D01*
X151133815Y-119276184D01*
X151338526Y-119412968D01*
X151378589Y-119420937D01*
X151580000Y-119461000D01*
X151760717Y-119461000D01*
X151760717Y-119680000D01*
X151809380Y-119924643D01*
X151947959Y-120132041D01*
X152155357Y-120270620D01*
X152400000Y-120319283D01*
X152619000Y-120319283D01*
X152619000Y-121011536D01*
X152500000Y-121011536D01*
X152351341Y-121041106D01*
X152225314Y-121125314D01*
X152141106Y-121251341D01*
X152111536Y-121400000D01*
X152111536Y-122600000D01*
X152141106Y-122748659D01*
X152225314Y-122874686D01*
X152351341Y-122958894D01*
X152500000Y-122988464D01*
X152619000Y-122988464D01*
X152619000Y-125238632D01*
X152513816Y-125343816D01*
X152377032Y-125548527D01*
X152329000Y-125790000D01*
X152329000Y-127010717D01*
X152110000Y-127010717D01*
X151865357Y-127059380D01*
X151657959Y-127197959D01*
X151519380Y-127405357D01*
X151470717Y-127650000D01*
X151470717Y-127900618D01*
X151397652Y-127751944D01*
X151036964Y-127434755D01*
X150736980Y-127310511D01*
X150547000Y-127371373D01*
X150547000Y-128373000D01*
X150567000Y-128373000D01*
X150567000Y-128627000D01*
X150547000Y-128627000D01*
X150547000Y-128647000D01*
X150293000Y-128647000D01*
X150293000Y-128627000D01*
X150273000Y-128627000D01*
X150273000Y-128373000D01*
X150293000Y-128373000D01*
X150293000Y-127371373D01*
X150103020Y-127310511D01*
X149803036Y-127434755D01*
X149442348Y-127751944D01*
X149279764Y-128082773D01*
X149244570Y-127905841D01*
X148924397Y-127426667D01*
X148445223Y-127106494D01*
X148386000Y-127094714D01*
X148386000Y-126750000D01*
X148347483Y-126556362D01*
X148237796Y-126392204D01*
X144067842Y-122222250D01*
X147119000Y-122222250D01*
X147119000Y-122525785D01*
X147177004Y-122665819D01*
X147284180Y-122772996D01*
X147424214Y-122831000D01*
X147529750Y-122831000D01*
X147625000Y-122735750D01*
X147625000Y-122127000D01*
X147875000Y-122127000D01*
X147875000Y-122735750D01*
X147970250Y-122831000D01*
X148075786Y-122831000D01*
X148215820Y-122772996D01*
X148322996Y-122665819D01*
X148381000Y-122525785D01*
X148381000Y-122222250D01*
X148285750Y-122127000D01*
X147875000Y-122127000D01*
X147625000Y-122127000D01*
X147214250Y-122127000D01*
X147119000Y-122222250D01*
X144067842Y-122222250D01*
X143987796Y-122142204D01*
X143823638Y-122032517D01*
X143630000Y-121994000D01*
X136684465Y-121994000D01*
X136164680Y-121474215D01*
X147119000Y-121474215D01*
X147119000Y-121777750D01*
X147214250Y-121873000D01*
X147625000Y-121873000D01*
X147625000Y-121264250D01*
X147875000Y-121264250D01*
X147875000Y-121873000D01*
X148285750Y-121873000D01*
X148381000Y-121777750D01*
X148381000Y-121550000D01*
X148611536Y-121550000D01*
X148611536Y-122450000D01*
X148641106Y-122598659D01*
X148725314Y-122724686D01*
X148851341Y-122808894D01*
X149000000Y-122838464D01*
X149500000Y-122838464D01*
X149648659Y-122808894D01*
X149774686Y-122724686D01*
X149858894Y-122598659D01*
X149877325Y-122506000D01*
X149911536Y-122506000D01*
X149911536Y-122600000D01*
X149941106Y-122748659D01*
X150025314Y-122874686D01*
X150151341Y-122958894D01*
X150300000Y-122988464D01*
X151500000Y-122988464D01*
X151648659Y-122958894D01*
X151774686Y-122874686D01*
X151858894Y-122748659D01*
X151888464Y-122600000D01*
X151888464Y-121400000D01*
X151858894Y-121251341D01*
X151774686Y-121125314D01*
X151648659Y-121041106D01*
X151500000Y-121011536D01*
X150300000Y-121011536D01*
X150151341Y-121041106D01*
X150025314Y-121125314D01*
X149941106Y-121251341D01*
X149911536Y-121400000D01*
X149911536Y-121494000D01*
X149877325Y-121494000D01*
X149858894Y-121401341D01*
X149774686Y-121275314D01*
X149648659Y-121191106D01*
X149500000Y-121161536D01*
X149000000Y-121161536D01*
X148851341Y-121191106D01*
X148725314Y-121275314D01*
X148641106Y-121401341D01*
X148611536Y-121550000D01*
X148381000Y-121550000D01*
X148381000Y-121474215D01*
X148322996Y-121334181D01*
X148215820Y-121227004D01*
X148075786Y-121169000D01*
X147970250Y-121169000D01*
X147875000Y-121264250D01*
X147625000Y-121264250D01*
X147529750Y-121169000D01*
X147424214Y-121169000D01*
X147284180Y-121227004D01*
X147177004Y-121334181D01*
X147119000Y-121474215D01*
X136164680Y-121474215D01*
X134502715Y-119812250D01*
X137319000Y-119812250D01*
X137319000Y-120755786D01*
X137377004Y-120895820D01*
X137484181Y-121002996D01*
X137624215Y-121061000D01*
X138277750Y-121061000D01*
X138373000Y-120965750D01*
X138373000Y-119717000D01*
X138627000Y-119717000D01*
X138627000Y-120965750D01*
X138722250Y-121061000D01*
X139375785Y-121061000D01*
X139515819Y-121002996D01*
X139622996Y-120895820D01*
X139681000Y-120755786D01*
X139681000Y-120154669D01*
X140218864Y-120154669D01*
X140337514Y-120441823D01*
X140557021Y-120661714D01*
X140843968Y-120780864D01*
X141154669Y-120781136D01*
X141435499Y-120665099D01*
X141475314Y-120724686D01*
X141601341Y-120808894D01*
X141750000Y-120838464D01*
X142250000Y-120838464D01*
X142398659Y-120808894D01*
X142524686Y-120724686D01*
X142608894Y-120598659D01*
X142638464Y-120450000D01*
X142638464Y-119550000D01*
X142608894Y-119401341D01*
X142524686Y-119275314D01*
X142398659Y-119191106D01*
X142250000Y-119161536D01*
X141750000Y-119161536D01*
X141601341Y-119191106D01*
X141475314Y-119275314D01*
X141435353Y-119335120D01*
X141156032Y-119219136D01*
X140845331Y-119218864D01*
X140558177Y-119337514D01*
X140338286Y-119557021D01*
X140219136Y-119843968D01*
X140218864Y-120154669D01*
X139681000Y-120154669D01*
X139681000Y-119812250D01*
X139585750Y-119717000D01*
X138627000Y-119717000D01*
X138373000Y-119717000D01*
X137414250Y-119717000D01*
X137319000Y-119812250D01*
X134502715Y-119812250D01*
X133114679Y-118424214D01*
X137319000Y-118424214D01*
X137319000Y-119367750D01*
X137414250Y-119463000D01*
X138373000Y-119463000D01*
X138373000Y-118214250D01*
X138627000Y-118214250D01*
X138627000Y-119463000D01*
X139585750Y-119463000D01*
X139681000Y-119367750D01*
X139681000Y-118424214D01*
X139622996Y-118284180D01*
X139515819Y-118177004D01*
X139375785Y-118119000D01*
X138722250Y-118119000D01*
X138627000Y-118214250D01*
X138373000Y-118214250D01*
X138277750Y-118119000D01*
X137624215Y-118119000D01*
X137484181Y-118177004D01*
X137377004Y-118284180D01*
X137319000Y-118424214D01*
X133114679Y-118424214D01*
X131900174Y-117209709D01*
X131913648Y-117196235D01*
X131945449Y-117217483D01*
X132139087Y-117256000D01*
X132291554Y-117256000D01*
X132283198Y-117298008D01*
X132312768Y-117446667D01*
X132396976Y-117572694D01*
X132927306Y-118103024D01*
X133053333Y-118187232D01*
X133201992Y-118216802D01*
X133350651Y-118187232D01*
X133476678Y-118103024D01*
X134042364Y-117537338D01*
X134126572Y-117411311D01*
X134156142Y-117262652D01*
X134128677Y-117124574D01*
X134186867Y-117148677D01*
X134338437Y-117148678D01*
X134478471Y-117090674D01*
X134657748Y-116911397D01*
X134657748Y-116776693D01*
X134280330Y-116399275D01*
X134266188Y-116413418D01*
X134086583Y-116233813D01*
X134100725Y-116219670D01*
X134459935Y-116219670D01*
X134837353Y-116597088D01*
X134972057Y-116597088D01*
X135151334Y-116417811D01*
X135209338Y-116277777D01*
X135209337Y-116126207D01*
X135151334Y-115986173D01*
X134989735Y-115824574D01*
X134855031Y-115824574D01*
X134459935Y-116219670D01*
X134100725Y-116219670D01*
X133723307Y-115842252D01*
X133588603Y-115842252D01*
X133409326Y-116021529D01*
X133351322Y-116161563D01*
X133351323Y-116313133D01*
X133375426Y-116371323D01*
X133237348Y-116343858D01*
X133088689Y-116373428D01*
X133052524Y-116397592D01*
X133047136Y-116392204D01*
X132882978Y-116282517D01*
X132689340Y-116244000D01*
X132353899Y-116244000D01*
X132343152Y-116227916D01*
X131643179Y-115527943D01*
X133902912Y-115527943D01*
X133902912Y-115662647D01*
X134280330Y-116040065D01*
X134675426Y-115644969D01*
X134675426Y-115510265D01*
X134513827Y-115348666D01*
X134373793Y-115290663D01*
X134222223Y-115290662D01*
X134082189Y-115348666D01*
X133902912Y-115527943D01*
X131643179Y-115527943D01*
X131423913Y-115308677D01*
X131392098Y-115287419D01*
X129996883Y-113892204D01*
X129832725Y-113782517D01*
X129639087Y-113744000D01*
X127727359Y-113744000D01*
X127215592Y-113232233D01*
X128320800Y-112127025D01*
X128406361Y-112212586D01*
X128428103Y-112190844D01*
X128428103Y-112234328D01*
X128381426Y-112187652D01*
X128458533Y-112264759D01*
X128502879Y-112283127D01*
X128576444Y-112393226D01*
X128753221Y-112570003D01*
X128859191Y-112640809D01*
X128929997Y-112746779D01*
X129106774Y-112923556D01*
X129212744Y-112994363D01*
X129283551Y-113100333D01*
X129460328Y-113277110D01*
X129566298Y-113347916D01*
X129637104Y-113453886D01*
X129813881Y-113630663D01*
X129919851Y-113701469D01*
X129990657Y-113807439D01*
X130167434Y-113984216D01*
X130273404Y-114055023D01*
X130344211Y-114160993D01*
X130520988Y-114337770D01*
X130626958Y-114408576D01*
X130697764Y-114514546D01*
X130874541Y-114691323D01*
X131000568Y-114775531D01*
X131149227Y-114805101D01*
X131297886Y-114775531D01*
X131423913Y-114691323D01*
X131892986Y-114222250D01*
X134494000Y-114222250D01*
X134494000Y-114475786D01*
X134552004Y-114615820D01*
X134659181Y-114722996D01*
X134799215Y-114781000D01*
X135027750Y-114781000D01*
X135123000Y-114685750D01*
X135123000Y-114127000D01*
X135377000Y-114127000D01*
X135377000Y-114685750D01*
X135472250Y-114781000D01*
X135700785Y-114781000D01*
X135840819Y-114722996D01*
X135947996Y-114615820D01*
X136006000Y-114475786D01*
X136006000Y-114222250D01*
X135910750Y-114127000D01*
X135377000Y-114127000D01*
X135123000Y-114127000D01*
X134589250Y-114127000D01*
X134494000Y-114222250D01*
X131892986Y-114222250D01*
X132343152Y-113772084D01*
X132364410Y-113740269D01*
X134778594Y-111326085D01*
X134744000Y-111500000D01*
X134744000Y-111737593D01*
X134726341Y-111741106D01*
X134600314Y-111825314D01*
X134516106Y-111951341D01*
X134486536Y-112100000D01*
X134486536Y-112900000D01*
X134516106Y-113048659D01*
X134600314Y-113174686D01*
X134717371Y-113252901D01*
X134659181Y-113277004D01*
X134552004Y-113384180D01*
X134494000Y-113524214D01*
X134494000Y-113777750D01*
X134589250Y-113873000D01*
X135123000Y-113873000D01*
X135123000Y-113853000D01*
X135377000Y-113853000D01*
X135377000Y-113873000D01*
X135910750Y-113873000D01*
X136006000Y-113777750D01*
X136006000Y-113524214D01*
X135947996Y-113384180D01*
X135840819Y-113277004D01*
X135782629Y-113252901D01*
X135899686Y-113174686D01*
X135983894Y-113048659D01*
X136013464Y-112900000D01*
X136013464Y-112100000D01*
X135983894Y-111951341D01*
X135899686Y-111825314D01*
X135773659Y-111741106D01*
X135756000Y-111737593D01*
X135756000Y-111709592D01*
X136549592Y-110916000D01*
X137311536Y-110916000D01*
X137311536Y-111500000D01*
X137341106Y-111648659D01*
X137425314Y-111774686D01*
X137551341Y-111858894D01*
X137700000Y-111888464D01*
X139300000Y-111888464D01*
X139448659Y-111858894D01*
X139574686Y-111774686D01*
X139658894Y-111648659D01*
X139688464Y-111500000D01*
X139688464Y-110506000D01*
X141372675Y-110506000D01*
X141391106Y-110598659D01*
X141475314Y-110724686D01*
X141601341Y-110808894D01*
X141750000Y-110838464D01*
X142250000Y-110838464D01*
X142398659Y-110808894D01*
X142524686Y-110724686D01*
X142608894Y-110598659D01*
X142638464Y-110450000D01*
X142638464Y-109550000D01*
X142608894Y-109401341D01*
X142524686Y-109275314D01*
X142398659Y-109191106D01*
X142250000Y-109161536D01*
X141750000Y-109161536D01*
X141601341Y-109191106D01*
X141475314Y-109275314D01*
X141391106Y-109401341D01*
X141372675Y-109494000D01*
X139688464Y-109494000D01*
X139688464Y-109320000D01*
X139658894Y-109171341D01*
X139574686Y-109045314D01*
X139448659Y-108961106D01*
X139300000Y-108931536D01*
X139006000Y-108931536D01*
X139006000Y-108848421D01*
X139161714Y-108692979D01*
X139280864Y-108406032D01*
X139281136Y-108095331D01*
X139244225Y-108006000D01*
X144901579Y-108006000D01*
X145057021Y-108161714D01*
X145343968Y-108280864D01*
X145654669Y-108281136D01*
X145941823Y-108162486D01*
X146161714Y-107942979D01*
X146280864Y-107656032D01*
X146281136Y-107345331D01*
X146244225Y-107256000D01*
X147244000Y-107256000D01*
X147244000Y-107262828D01*
X147225314Y-107275314D01*
X147141106Y-107401341D01*
X147111536Y-107550000D01*
X147111536Y-108450000D01*
X147141106Y-108598659D01*
X147225314Y-108724686D01*
X147351341Y-108808894D01*
X147500000Y-108838464D01*
X148000000Y-108838464D01*
X148148659Y-108808894D01*
X148274686Y-108724686D01*
X148358894Y-108598659D01*
X148388464Y-108450000D01*
X148388464Y-107550000D01*
X148611536Y-107550000D01*
X148611536Y-108450000D01*
X148641106Y-108598659D01*
X148725314Y-108724686D01*
X148851341Y-108808894D01*
X149000000Y-108838464D01*
X149500000Y-108838464D01*
X149648659Y-108808894D01*
X149774686Y-108724686D01*
X149858894Y-108598659D01*
X149877325Y-108506000D01*
X149911536Y-108506000D01*
X149911536Y-108600000D01*
X149941106Y-108748659D01*
X150025314Y-108874686D01*
X150151341Y-108958894D01*
X150300000Y-108988464D01*
X151500000Y-108988464D01*
X151648659Y-108958894D01*
X151774686Y-108874686D01*
X151858894Y-108748659D01*
X151888464Y-108600000D01*
X151888464Y-107400000D01*
X151858894Y-107251341D01*
X151774686Y-107125314D01*
X151648659Y-107041106D01*
X151500000Y-107011536D01*
X150300000Y-107011536D01*
X150151341Y-107041106D01*
X150025314Y-107125314D01*
X149941106Y-107251341D01*
X149911536Y-107400000D01*
X149911536Y-107494000D01*
X149877325Y-107494000D01*
X149858894Y-107401341D01*
X149774686Y-107275314D01*
X149648659Y-107191106D01*
X149500000Y-107161536D01*
X149000000Y-107161536D01*
X148851341Y-107191106D01*
X148725314Y-107275314D01*
X148641106Y-107401341D01*
X148611536Y-107550000D01*
X148388464Y-107550000D01*
X148358894Y-107401341D01*
X148274686Y-107275314D01*
X148256000Y-107262828D01*
X148256000Y-106959592D01*
X150777796Y-104437796D01*
X150887483Y-104273638D01*
X150926000Y-104080000D01*
X150926000Y-102905286D01*
X150985223Y-102893506D01*
X151464397Y-102573333D01*
X151503500Y-102514811D01*
X151519380Y-102594643D01*
X151657959Y-102802041D01*
X151865357Y-102940620D01*
X152110000Y-102989283D01*
X153810000Y-102989283D01*
X154054643Y-102940620D01*
X154262041Y-102802041D01*
X154400620Y-102594643D01*
X154449283Y-102350000D01*
X154449283Y-100650000D01*
X154410694Y-100456000D01*
X154544000Y-100456000D01*
X154544000Y-113035855D01*
G36*
X126787419Y-119892098D02*
X126808677Y-119923913D01*
X127727916Y-120843152D01*
X127853943Y-120927360D01*
X128002602Y-120956930D01*
X128151261Y-120927360D01*
X128277288Y-120843152D01*
X128361434Y-120759007D01*
X129594000Y-121991573D01*
X129594000Y-127094714D01*
X129534777Y-127106494D01*
X129055603Y-127426667D01*
X128830000Y-127764307D01*
X128604397Y-127426667D01*
X128125223Y-127106494D01*
X128066000Y-127094714D01*
X128066000Y-126810000D01*
X128027483Y-126616362D01*
X127917796Y-126452204D01*
X124302945Y-122837353D01*
X124902912Y-122837353D01*
X124902912Y-122972057D01*
X125082189Y-123151334D01*
X125222223Y-123209338D01*
X125373793Y-123209337D01*
X125513827Y-123151334D01*
X125675426Y-122989735D01*
X125675426Y-122855031D01*
X125280330Y-122459935D01*
X124902912Y-122837353D01*
X124302945Y-122837353D01*
X123006000Y-121540408D01*
X123006000Y-120977359D01*
X123931460Y-120051900D01*
X124015605Y-120136045D01*
X124125704Y-120209610D01*
X124144072Y-120253956D01*
X124178072Y-120287956D01*
X124053333Y-120312768D01*
X123927306Y-120396976D01*
X123396976Y-120927306D01*
X123312768Y-121053333D01*
X123283198Y-121201992D01*
X123312768Y-121350651D01*
X123396976Y-121476678D01*
X123962662Y-122042364D01*
X124088689Y-122126572D01*
X124237348Y-122156142D01*
X124375426Y-122128677D01*
X124351323Y-122186867D01*
X124351322Y-122338437D01*
X124409326Y-122478471D01*
X124588603Y-122657748D01*
X124723307Y-122657748D01*
X125100725Y-122280330D01*
X125459935Y-122280330D01*
X125855031Y-122675426D01*
X125989735Y-122675426D01*
X126151334Y-122513827D01*
X126209337Y-122373793D01*
X126209338Y-122222223D01*
X126151334Y-122082189D01*
X125972057Y-121902912D01*
X125837353Y-121902912D01*
X125459935Y-122280330D01*
X125100725Y-122280330D01*
X125086583Y-122266188D01*
X125266188Y-122086583D01*
X125280330Y-122100725D01*
X125657748Y-121723307D01*
X125657748Y-121588603D01*
X125478471Y-121409326D01*
X125338437Y-121351322D01*
X125186867Y-121351323D01*
X125128677Y-121375426D01*
X125156142Y-121237348D01*
X125126572Y-121088689D01*
X125082279Y-121022400D01*
X125240269Y-120864410D01*
X125272084Y-120843152D01*
X126191323Y-119923913D01*
X126212581Y-119892098D01*
X126500000Y-119604679D01*
X126787419Y-119892098D01*
X126787419Y-119892098D01*
G37*
X126787419Y-119892098D02*
X126808677Y-119923913D01*
X127727916Y-120843152D01*
X127853943Y-120927360D01*
X128002602Y-120956930D01*
X128151261Y-120927360D01*
X128277288Y-120843152D01*
X128361434Y-120759007D01*
X129594000Y-121991573D01*
X129594000Y-127094714D01*
X129534777Y-127106494D01*
X129055603Y-127426667D01*
X128830000Y-127764307D01*
X128604397Y-127426667D01*
X128125223Y-127106494D01*
X128066000Y-127094714D01*
X128066000Y-126810000D01*
X128027483Y-126616362D01*
X127917796Y-126452204D01*
X124302945Y-122837353D01*
X124902912Y-122837353D01*
X124902912Y-122972057D01*
X125082189Y-123151334D01*
X125222223Y-123209338D01*
X125373793Y-123209337D01*
X125513827Y-123151334D01*
X125675426Y-122989735D01*
X125675426Y-122855031D01*
X125280330Y-122459935D01*
X124902912Y-122837353D01*
X124302945Y-122837353D01*
X123006000Y-121540408D01*
X123006000Y-120977359D01*
X123931460Y-120051900D01*
X124015605Y-120136045D01*
X124125704Y-120209610D01*
X124144072Y-120253956D01*
X124178072Y-120287956D01*
X124053333Y-120312768D01*
X123927306Y-120396976D01*
X123396976Y-120927306D01*
X123312768Y-121053333D01*
X123283198Y-121201992D01*
X123312768Y-121350651D01*
X123396976Y-121476678D01*
X123962662Y-122042364D01*
X124088689Y-122126572D01*
X124237348Y-122156142D01*
X124375426Y-122128677D01*
X124351323Y-122186867D01*
X124351322Y-122338437D01*
X124409326Y-122478471D01*
X124588603Y-122657748D01*
X124723307Y-122657748D01*
X125100725Y-122280330D01*
X125459935Y-122280330D01*
X125855031Y-122675426D01*
X125989735Y-122675426D01*
X126151334Y-122513827D01*
X126209337Y-122373793D01*
X126209338Y-122222223D01*
X126151334Y-122082189D01*
X125972057Y-121902912D01*
X125837353Y-121902912D01*
X125459935Y-122280330D01*
X125100725Y-122280330D01*
X125086583Y-122266188D01*
X125266188Y-122086583D01*
X125280330Y-122100725D01*
X125657748Y-121723307D01*
X125657748Y-121588603D01*
X125478471Y-121409326D01*
X125338437Y-121351322D01*
X125186867Y-121351323D01*
X125128677Y-121375426D01*
X125156142Y-121237348D01*
X125126572Y-121088689D01*
X125082279Y-121022400D01*
X125240269Y-120864410D01*
X125272084Y-120843152D01*
X126191323Y-119923913D01*
X126212581Y-119892098D01*
X126500000Y-119604679D01*
X126787419Y-119892098D01*
G36*
X120656848Y-113772084D02*
X121576087Y-114691323D01*
X121607902Y-114712581D01*
X122753117Y-115857796D01*
X122917275Y-115967483D01*
X123110913Y-116006000D01*
X124232233Y-116006000D01*
X124425871Y-115967483D01*
X124590029Y-115857796D01*
X124800994Y-115646831D01*
X124719136Y-115843968D01*
X124718864Y-116154669D01*
X124837514Y-116441823D01*
X124994000Y-116598583D01*
X124994000Y-118177218D01*
X124953886Y-118137104D01*
X124847916Y-118066298D01*
X124777110Y-117960328D01*
X124600333Y-117783551D01*
X124494363Y-117712744D01*
X124423556Y-117606774D01*
X124246779Y-117429997D01*
X124140809Y-117359191D01*
X124070003Y-117253221D01*
X123893226Y-117076444D01*
X123787256Y-117005637D01*
X123716449Y-116899667D01*
X123539672Y-116722890D01*
X123433702Y-116652084D01*
X123362896Y-116546114D01*
X123186119Y-116369337D01*
X123080149Y-116298531D01*
X123009343Y-116192561D01*
X122832566Y-116015784D01*
X122726596Y-115944977D01*
X122655789Y-115839007D01*
X122479012Y-115662230D01*
X122373042Y-115591424D01*
X122302236Y-115485454D01*
X122125459Y-115308677D01*
X121999432Y-115224469D01*
X121850773Y-115194899D01*
X121702114Y-115224469D01*
X121576087Y-115308677D01*
X120656848Y-116227916D01*
X120635590Y-116259731D01*
X112401321Y-124494000D01*
X109000000Y-124494000D01*
X108806362Y-124532517D01*
X108642204Y-124642204D01*
X106882204Y-126402204D01*
X106772517Y-126566362D01*
X106734000Y-126760000D01*
X106734000Y-127094714D01*
X106674777Y-127106494D01*
X106195603Y-127426667D01*
X105970000Y-127764307D01*
X105744397Y-127426667D01*
X105331000Y-127150445D01*
X105331000Y-124311368D01*
X108446185Y-121196184D01*
X108582968Y-120991473D01*
X108631000Y-120750000D01*
X108631000Y-119162407D01*
X108648659Y-119158894D01*
X108774686Y-119074686D01*
X108858894Y-118948659D01*
X108888464Y-118800000D01*
X108888464Y-118531000D01*
X110211536Y-118531000D01*
X110211536Y-118900000D01*
X110241106Y-119048659D01*
X110325314Y-119174686D01*
X110451341Y-119258894D01*
X110600000Y-119288464D01*
X114400000Y-119288464D01*
X114548659Y-119258894D01*
X114674686Y-119174686D01*
X114758894Y-119048659D01*
X114788464Y-118900000D01*
X114788464Y-118531000D01*
X117100000Y-118531000D01*
X117341473Y-118482968D01*
X117546184Y-118346184D01*
X119446185Y-116446184D01*
X119582968Y-116241473D01*
X119631000Y-116000000D01*
X119631000Y-113937172D01*
X119649686Y-113924686D01*
X119733894Y-113798659D01*
X119742379Y-113756000D01*
X120646101Y-113756000D01*
X120656848Y-113772084D01*
X120656848Y-113772084D01*
G37*
X120656848Y-113772084D02*
X121576087Y-114691323D01*
X121607902Y-114712581D01*
X122753117Y-115857796D01*
X122917275Y-115967483D01*
X123110913Y-116006000D01*
X124232233Y-116006000D01*
X124425871Y-115967483D01*
X124590029Y-115857796D01*
X124800994Y-115646831D01*
X124719136Y-115843968D01*
X124718864Y-116154669D01*
X124837514Y-116441823D01*
X124994000Y-116598583D01*
X124994000Y-118177218D01*
X124953886Y-118137104D01*
X124847916Y-118066298D01*
X124777110Y-117960328D01*
X124600333Y-117783551D01*
X124494363Y-117712744D01*
X124423556Y-117606774D01*
X124246779Y-117429997D01*
X124140809Y-117359191D01*
X124070003Y-117253221D01*
X123893226Y-117076444D01*
X123787256Y-117005637D01*
X123716449Y-116899667D01*
X123539672Y-116722890D01*
X123433702Y-116652084D01*
X123362896Y-116546114D01*
X123186119Y-116369337D01*
X123080149Y-116298531D01*
X123009343Y-116192561D01*
X122832566Y-116015784D01*
X122726596Y-115944977D01*
X122655789Y-115839007D01*
X122479012Y-115662230D01*
X122373042Y-115591424D01*
X122302236Y-115485454D01*
X122125459Y-115308677D01*
X121999432Y-115224469D01*
X121850773Y-115194899D01*
X121702114Y-115224469D01*
X121576087Y-115308677D01*
X120656848Y-116227916D01*
X120635590Y-116259731D01*
X112401321Y-124494000D01*
X109000000Y-124494000D01*
X108806362Y-124532517D01*
X108642204Y-124642204D01*
X106882204Y-126402204D01*
X106772517Y-126566362D01*
X106734000Y-126760000D01*
X106734000Y-127094714D01*
X106674777Y-127106494D01*
X106195603Y-127426667D01*
X105970000Y-127764307D01*
X105744397Y-127426667D01*
X105331000Y-127150445D01*
X105331000Y-124311368D01*
X108446185Y-121196184D01*
X108582968Y-120991473D01*
X108631000Y-120750000D01*
X108631000Y-119162407D01*
X108648659Y-119158894D01*
X108774686Y-119074686D01*
X108858894Y-118948659D01*
X108888464Y-118800000D01*
X108888464Y-118531000D01*
X110211536Y-118531000D01*
X110211536Y-118900000D01*
X110241106Y-119048659D01*
X110325314Y-119174686D01*
X110451341Y-119258894D01*
X110600000Y-119288464D01*
X114400000Y-119288464D01*
X114548659Y-119258894D01*
X114674686Y-119174686D01*
X114758894Y-119048659D01*
X114788464Y-118900000D01*
X114788464Y-118531000D01*
X117100000Y-118531000D01*
X117341473Y-118482968D01*
X117546184Y-118346184D01*
X119446185Y-116446184D01*
X119582968Y-116241473D01*
X119631000Y-116000000D01*
X119631000Y-113937172D01*
X119649686Y-113924686D01*
X119733894Y-113798659D01*
X119742379Y-113756000D01*
X120646101Y-113756000D01*
X120656848Y-113772084D01*
G36*
X119278535Y-110969000D02*
X119222250Y-110969000D01*
X119127000Y-111064250D01*
X119127000Y-111623000D01*
X119660750Y-111623000D01*
X119756000Y-111527750D01*
X119756000Y-111446465D01*
X121099826Y-112790291D01*
X121086352Y-112803765D01*
X121054551Y-112782517D01*
X120860913Y-112744000D01*
X119742379Y-112744000D01*
X119733894Y-112701341D01*
X119649686Y-112575314D01*
X119532629Y-112497099D01*
X119590819Y-112472996D01*
X119697996Y-112365820D01*
X119756000Y-112225786D01*
X119756000Y-111972250D01*
X119660750Y-111877000D01*
X119127000Y-111877000D01*
X119127000Y-111897000D01*
X118873000Y-111897000D01*
X118873000Y-111877000D01*
X118339250Y-111877000D01*
X118244000Y-111972250D01*
X118244000Y-112225786D01*
X118302004Y-112365820D01*
X118409181Y-112472996D01*
X118467371Y-112497099D01*
X118350314Y-112575314D01*
X118266106Y-112701341D01*
X118236536Y-112850000D01*
X118236536Y-113650000D01*
X118266106Y-113798659D01*
X118350314Y-113924686D01*
X118369000Y-113937172D01*
X118369000Y-115738631D01*
X116838632Y-117269000D01*
X114788464Y-117269000D01*
X114788464Y-116900000D01*
X114758894Y-116751341D01*
X114674686Y-116625314D01*
X114548659Y-116541106D01*
X114400000Y-116511536D01*
X113131000Y-116511536D01*
X113131000Y-112988464D01*
X113250000Y-112988464D01*
X113398659Y-112958894D01*
X113524686Y-112874686D01*
X113608894Y-112748659D01*
X113638464Y-112600000D01*
X113638464Y-111822250D01*
X113669000Y-111822250D01*
X113669000Y-112675786D01*
X113727004Y-112815820D01*
X113834181Y-112922996D01*
X113974215Y-112981000D01*
X114577750Y-112981000D01*
X114673000Y-112885750D01*
X114673000Y-111727000D01*
X114927000Y-111727000D01*
X114927000Y-112885750D01*
X115022250Y-112981000D01*
X115625785Y-112981000D01*
X115765819Y-112922996D01*
X115872996Y-112815820D01*
X115931000Y-112675786D01*
X115931000Y-111822250D01*
X115835750Y-111727000D01*
X114927000Y-111727000D01*
X114673000Y-111727000D01*
X113764250Y-111727000D01*
X113669000Y-111822250D01*
X113638464Y-111822250D01*
X113638464Y-110600000D01*
X113623390Y-110524214D01*
X113669000Y-110524214D01*
X113669000Y-111377750D01*
X113764250Y-111473000D01*
X114673000Y-111473000D01*
X114673000Y-110314250D01*
X114927000Y-110314250D01*
X114927000Y-111473000D01*
X115835750Y-111473000D01*
X115931000Y-111377750D01*
X115931000Y-111274214D01*
X118244000Y-111274214D01*
X118244000Y-111527750D01*
X118339250Y-111623000D01*
X118873000Y-111623000D01*
X118873000Y-111064250D01*
X118777750Y-110969000D01*
X118549215Y-110969000D01*
X118409181Y-111027004D01*
X118302004Y-111134180D01*
X118244000Y-111274214D01*
X115931000Y-111274214D01*
X115931000Y-110524214D01*
X115872996Y-110384180D01*
X115765819Y-110277004D01*
X115625785Y-110219000D01*
X115022250Y-110219000D01*
X114927000Y-110314250D01*
X114673000Y-110314250D01*
X114577750Y-110219000D01*
X113974215Y-110219000D01*
X113834181Y-110277004D01*
X113727004Y-110384180D01*
X113669000Y-110524214D01*
X113623390Y-110524214D01*
X113608894Y-110451341D01*
X113524686Y-110325314D01*
X113398659Y-110241106D01*
X113250000Y-110211536D01*
X113131000Y-110211536D01*
X113131000Y-107973639D01*
X113161714Y-107942979D01*
X113280864Y-107656032D01*
X113281136Y-107345331D01*
X113162486Y-107058177D01*
X112942979Y-106838286D01*
X112656032Y-106719136D01*
X112611466Y-106719097D01*
X112196184Y-106303816D01*
X112124623Y-106256000D01*
X114565535Y-106256000D01*
X119278535Y-110969000D01*
X119278535Y-110969000D01*
G37*
X119278535Y-110969000D02*
X119222250Y-110969000D01*
X119127000Y-111064250D01*
X119127000Y-111623000D01*
X119660750Y-111623000D01*
X119756000Y-111527750D01*
X119756000Y-111446465D01*
X121099826Y-112790291D01*
X121086352Y-112803765D01*
X121054551Y-112782517D01*
X120860913Y-112744000D01*
X119742379Y-112744000D01*
X119733894Y-112701341D01*
X119649686Y-112575314D01*
X119532629Y-112497099D01*
X119590819Y-112472996D01*
X119697996Y-112365820D01*
X119756000Y-112225786D01*
X119756000Y-111972250D01*
X119660750Y-111877000D01*
X119127000Y-111877000D01*
X119127000Y-111897000D01*
X118873000Y-111897000D01*
X118873000Y-111877000D01*
X118339250Y-111877000D01*
X118244000Y-111972250D01*
X118244000Y-112225786D01*
X118302004Y-112365820D01*
X118409181Y-112472996D01*
X118467371Y-112497099D01*
X118350314Y-112575314D01*
X118266106Y-112701341D01*
X118236536Y-112850000D01*
X118236536Y-113650000D01*
X118266106Y-113798659D01*
X118350314Y-113924686D01*
X118369000Y-113937172D01*
X118369000Y-115738631D01*
X116838632Y-117269000D01*
X114788464Y-117269000D01*
X114788464Y-116900000D01*
X114758894Y-116751341D01*
X114674686Y-116625314D01*
X114548659Y-116541106D01*
X114400000Y-116511536D01*
X113131000Y-116511536D01*
X113131000Y-112988464D01*
X113250000Y-112988464D01*
X113398659Y-112958894D01*
X113524686Y-112874686D01*
X113608894Y-112748659D01*
X113638464Y-112600000D01*
X113638464Y-111822250D01*
X113669000Y-111822250D01*
X113669000Y-112675786D01*
X113727004Y-112815820D01*
X113834181Y-112922996D01*
X113974215Y-112981000D01*
X114577750Y-112981000D01*
X114673000Y-112885750D01*
X114673000Y-111727000D01*
X114927000Y-111727000D01*
X114927000Y-112885750D01*
X115022250Y-112981000D01*
X115625785Y-112981000D01*
X115765819Y-112922996D01*
X115872996Y-112815820D01*
X115931000Y-112675786D01*
X115931000Y-111822250D01*
X115835750Y-111727000D01*
X114927000Y-111727000D01*
X114673000Y-111727000D01*
X113764250Y-111727000D01*
X113669000Y-111822250D01*
X113638464Y-111822250D01*
X113638464Y-110600000D01*
X113623390Y-110524214D01*
X113669000Y-110524214D01*
X113669000Y-111377750D01*
X113764250Y-111473000D01*
X114673000Y-111473000D01*
X114673000Y-110314250D01*
X114927000Y-110314250D01*
X114927000Y-111473000D01*
X115835750Y-111473000D01*
X115931000Y-111377750D01*
X115931000Y-111274214D01*
X118244000Y-111274214D01*
X118244000Y-111527750D01*
X118339250Y-111623000D01*
X118873000Y-111623000D01*
X118873000Y-111064250D01*
X118777750Y-110969000D01*
X118549215Y-110969000D01*
X118409181Y-111027004D01*
X118302004Y-111134180D01*
X118244000Y-111274214D01*
X115931000Y-111274214D01*
X115931000Y-110524214D01*
X115872996Y-110384180D01*
X115765819Y-110277004D01*
X115625785Y-110219000D01*
X115022250Y-110219000D01*
X114927000Y-110314250D01*
X114673000Y-110314250D01*
X114577750Y-110219000D01*
X113974215Y-110219000D01*
X113834181Y-110277004D01*
X113727004Y-110384180D01*
X113669000Y-110524214D01*
X113623390Y-110524214D01*
X113608894Y-110451341D01*
X113524686Y-110325314D01*
X113398659Y-110241106D01*
X113250000Y-110211536D01*
X113131000Y-110211536D01*
X113131000Y-107973639D01*
X113161714Y-107942979D01*
X113280864Y-107656032D01*
X113281136Y-107345331D01*
X113162486Y-107058177D01*
X112942979Y-106838286D01*
X112656032Y-106719136D01*
X112611466Y-106719097D01*
X112196184Y-106303816D01*
X112124623Y-106256000D01*
X114565535Y-106256000D01*
X119278535Y-110969000D01*
G36*
X127517767Y-114756000D02*
X129429495Y-114756000D01*
X130433635Y-115760140D01*
X130348074Y-115845701D01*
X130369816Y-115867443D01*
X130326332Y-115867443D01*
X130348073Y-115845701D01*
X130295901Y-115897873D01*
X130277533Y-115942219D01*
X130167434Y-116015784D01*
X129990657Y-116192561D01*
X129919851Y-116298531D01*
X129813881Y-116369337D01*
X129729736Y-116453483D01*
X129668457Y-116392204D01*
X129504299Y-116282517D01*
X129310661Y-116244000D01*
X128598421Y-116244000D01*
X128442979Y-116088286D01*
X128156032Y-115969136D01*
X127845331Y-115968864D01*
X127558177Y-116087514D01*
X127338286Y-116307021D01*
X127252224Y-116514283D01*
X127252224Y-115102197D01*
X127407938Y-114946755D01*
X127489482Y-114750374D01*
X127517767Y-114756000D01*
X127517767Y-114756000D01*
G37*
X127517767Y-114756000D02*
X129429495Y-114756000D01*
X130433635Y-115760140D01*
X130348074Y-115845701D01*
X130369816Y-115867443D01*
X130326332Y-115867443D01*
X130348073Y-115845701D01*
X130295901Y-115897873D01*
X130277533Y-115942219D01*
X130167434Y-116015784D01*
X129990657Y-116192561D01*
X129919851Y-116298531D01*
X129813881Y-116369337D01*
X129729736Y-116453483D01*
X129668457Y-116392204D01*
X129504299Y-116282517D01*
X129310661Y-116244000D01*
X128598421Y-116244000D01*
X128442979Y-116088286D01*
X128156032Y-115969136D01*
X127845331Y-115968864D01*
X127558177Y-116087514D01*
X127338286Y-116307021D01*
X127252224Y-116514283D01*
X127252224Y-115102197D01*
X127407938Y-114946755D01*
X127489482Y-114750374D01*
X127517767Y-114756000D01*
G36*
X127994000Y-108901321D02*
X127759731Y-109135590D01*
X127727916Y-109156848D01*
X126808677Y-110076087D01*
X126724469Y-110202114D01*
X126694899Y-110350773D01*
X126724469Y-110499432D01*
X126808677Y-110625459D01*
X126985454Y-110802236D01*
X127091424Y-110873042D01*
X127162230Y-110979012D01*
X127339007Y-111155789D01*
X127444977Y-111226596D01*
X127515784Y-111332566D01*
X127599930Y-111416712D01*
X126142204Y-112874437D01*
X124022641Y-114994000D01*
X123320505Y-114994000D01*
X122566365Y-114239860D01*
X122645232Y-114160993D01*
X122596922Y-114209304D01*
X122704099Y-114102127D01*
X122722467Y-114057781D01*
X122832566Y-113984216D01*
X123009343Y-113807439D01*
X123080149Y-113701469D01*
X123186119Y-113630663D01*
X123362896Y-113453886D01*
X123433702Y-113347916D01*
X123539672Y-113277110D01*
X123716449Y-113100333D01*
X123787256Y-112994363D01*
X123893226Y-112923556D01*
X124070003Y-112746779D01*
X124140809Y-112640809D01*
X124246779Y-112570003D01*
X124423556Y-112393226D01*
X124494363Y-112287256D01*
X124600333Y-112216449D01*
X124777110Y-112039672D01*
X124847916Y-111933702D01*
X124953886Y-111862896D01*
X125130663Y-111686119D01*
X125201469Y-111580149D01*
X125307439Y-111509343D01*
X125484216Y-111332566D01*
X125555023Y-111226596D01*
X125660993Y-111155789D01*
X125837770Y-110979012D01*
X125908576Y-110873042D01*
X126014546Y-110802236D01*
X126191323Y-110625459D01*
X126275531Y-110499432D01*
X126305101Y-110350773D01*
X126275531Y-110202114D01*
X126191323Y-110076087D01*
X126089500Y-109974264D01*
X127917796Y-108145967D01*
X127951630Y-108095331D01*
X127994000Y-108031920D01*
X127994000Y-108901321D01*
X127994000Y-108901321D01*
G37*
X127994000Y-108901321D02*
X127759731Y-109135590D01*
X127727916Y-109156848D01*
X126808677Y-110076087D01*
X126724469Y-110202114D01*
X126694899Y-110350773D01*
X126724469Y-110499432D01*
X126808677Y-110625459D01*
X126985454Y-110802236D01*
X127091424Y-110873042D01*
X127162230Y-110979012D01*
X127339007Y-111155789D01*
X127444977Y-111226596D01*
X127515784Y-111332566D01*
X127599930Y-111416712D01*
X126142204Y-112874437D01*
X124022641Y-114994000D01*
X123320505Y-114994000D01*
X122566365Y-114239860D01*
X122645232Y-114160993D01*
X122596922Y-114209304D01*
X122704099Y-114102127D01*
X122722467Y-114057781D01*
X122832566Y-113984216D01*
X123009343Y-113807439D01*
X123080149Y-113701469D01*
X123186119Y-113630663D01*
X123362896Y-113453886D01*
X123433702Y-113347916D01*
X123539672Y-113277110D01*
X123716449Y-113100333D01*
X123787256Y-112994363D01*
X123893226Y-112923556D01*
X124070003Y-112746779D01*
X124140809Y-112640809D01*
X124246779Y-112570003D01*
X124423556Y-112393226D01*
X124494363Y-112287256D01*
X124600333Y-112216449D01*
X124777110Y-112039672D01*
X124847916Y-111933702D01*
X124953886Y-111862896D01*
X125130663Y-111686119D01*
X125201469Y-111580149D01*
X125307439Y-111509343D01*
X125484216Y-111332566D01*
X125555023Y-111226596D01*
X125660993Y-111155789D01*
X125837770Y-110979012D01*
X125908576Y-110873042D01*
X126014546Y-110802236D01*
X126191323Y-110625459D01*
X126275531Y-110499432D01*
X126305101Y-110350773D01*
X126275531Y-110202114D01*
X126191323Y-110076087D01*
X126089500Y-109974264D01*
X127917796Y-108145967D01*
X127951630Y-108095331D01*
X127994000Y-108031920D01*
X127994000Y-108901321D01*
G36*
X136675603Y-102573333D02*
X137154777Y-102893506D01*
X137214000Y-102905286D01*
X137214000Y-103216855D01*
X132709338Y-107721517D01*
X132709337Y-107626207D01*
X132651334Y-107486173D01*
X132489735Y-107324574D01*
X132355031Y-107324574D01*
X131959935Y-107719670D01*
X131974078Y-107733813D01*
X131794473Y-107913418D01*
X131780330Y-107899275D01*
X131766188Y-107913418D01*
X131586583Y-107733813D01*
X131600725Y-107719670D01*
X131586583Y-107705528D01*
X131766188Y-107525923D01*
X131780330Y-107540065D01*
X132175426Y-107144969D01*
X132175426Y-107010265D01*
X132065377Y-106900216D01*
X135537796Y-103427796D01*
X135647483Y-103263638D01*
X135686000Y-103070000D01*
X135686000Y-102905286D01*
X135745223Y-102893506D01*
X136224397Y-102573333D01*
X136450000Y-102235693D01*
X136675603Y-102573333D01*
X136675603Y-102573333D01*
G37*
X136675603Y-102573333D02*
X137154777Y-102893506D01*
X137214000Y-102905286D01*
X137214000Y-103216855D01*
X132709338Y-107721517D01*
X132709337Y-107626207D01*
X132651334Y-107486173D01*
X132489735Y-107324574D01*
X132355031Y-107324574D01*
X131959935Y-107719670D01*
X131974078Y-107733813D01*
X131794473Y-107913418D01*
X131780330Y-107899275D01*
X131766188Y-107913418D01*
X131586583Y-107733813D01*
X131600725Y-107719670D01*
X131586583Y-107705528D01*
X131766188Y-107525923D01*
X131780330Y-107540065D01*
X132175426Y-107144969D01*
X132175426Y-107010265D01*
X132065377Y-106900216D01*
X135537796Y-103427796D01*
X135647483Y-103263638D01*
X135686000Y-103070000D01*
X135686000Y-102905286D01*
X135745223Y-102893506D01*
X136224397Y-102573333D01*
X136450000Y-102235693D01*
X136675603Y-102573333D01*
M02*
