G04 #@! TF.GenerationSoftware,KiCad,Pcbnew,(2017-05-18 revision 2a3a699)-master*
G04 #@! TF.CreationDate,2017-06-17T08:25:41+03:00*
G04 #@! TF.ProjectId,stm32f072c8tx_breakout,73746D333266303732633874785F6272,rev?*
G04 #@! TF.FileFunction,Copper,L2,Bot,Signal*
G04 #@! TF.FilePolarity,Positive*
%FSLAX46Y46*%
G04 Gerber Fmt 4.6, Leading zero omitted, Abs format (unit mm)*
G04 Created by KiCad (PCBNEW (2017-05-18 revision 2a3a699)-master) date Sat Jun 17 08:25:41 2017*
%MOMM*%
%LPD*%
G01*
G04 APERTURE LIST*
%ADD10C,0.100000*%
%ADD11O,1.550000X1.000000*%
%ADD12O,0.950000X1.250000*%
%ADD13R,1.700000X1.700000*%
%ADD14O,1.700000X1.700000*%
%ADD15C,0.800000*%
%ADD16C,0.250000*%
%ADD17C,0.500000*%
%ADD18C,0.254000*%
G04 APERTURE END LIST*
D10*
D11*
X99650000Y-118500000D03*
X99650000Y-111500000D03*
D12*
X102350000Y-117500000D03*
X102350000Y-112500000D03*
D13*
X152960000Y-128500000D03*
D14*
X150420000Y-128500000D03*
X147880000Y-128500000D03*
X145340000Y-128500000D03*
X142800000Y-128500000D03*
X140260000Y-128500000D03*
X137720000Y-128500000D03*
X135180000Y-128500000D03*
X132640000Y-128500000D03*
X130100000Y-128500000D03*
X127560000Y-128500000D03*
X125020000Y-128500000D03*
X122480000Y-128500000D03*
X119940000Y-128500000D03*
X117400000Y-128500000D03*
X114860000Y-128500000D03*
X112320000Y-128500000D03*
X109780000Y-128500000D03*
X107240000Y-128500000D03*
X104700000Y-128500000D03*
X102160000Y-128500000D03*
X99620000Y-128500000D03*
X99620000Y-101500000D03*
X102160000Y-101500000D03*
X104700000Y-101500000D03*
X107240000Y-101500000D03*
X109780000Y-101500000D03*
X112320000Y-101500000D03*
X114860000Y-101500000D03*
X117400000Y-101500000D03*
X119940000Y-101500000D03*
X122480000Y-101500000D03*
X125020000Y-101500000D03*
X127560000Y-101500000D03*
X130100000Y-101500000D03*
X132640000Y-101500000D03*
X135180000Y-101500000D03*
X137720000Y-101500000D03*
X140260000Y-101500000D03*
X142800000Y-101500000D03*
X145340000Y-101500000D03*
X147880000Y-101500000D03*
X150420000Y-101500000D03*
D13*
X152960000Y-101500000D03*
D14*
X146000000Y-117540000D03*
X146000000Y-115000000D03*
D13*
X146000000Y-112460000D03*
D14*
X153250000Y-111210000D03*
X153250000Y-113750000D03*
X153250000Y-116290000D03*
D13*
X153250000Y-118830000D03*
D15*
X128000000Y-113000000D03*
X125750000Y-117000000D03*
X124000000Y-114250000D03*
X128750000Y-115250000D03*
X126500000Y-121000000D03*
X114750000Y-109000000D03*
X104000000Y-108750000D03*
X112500000Y-107500000D03*
X141000000Y-120000000D03*
X128000000Y-117000000D03*
X110750000Y-108750000D03*
X111000000Y-115000000D03*
X109500000Y-114250000D03*
X138500000Y-108250000D03*
X145500000Y-107500000D03*
X127000000Y-114500000D03*
X124750002Y-116000000D03*
D16*
X104000000Y-108750000D02*
X107750000Y-105000000D01*
X107750000Y-105000000D02*
X111250000Y-105000000D01*
X133250000Y-105000000D02*
X111250000Y-105000000D01*
X111250000Y-107750000D02*
X111250000Y-105000000D01*
X112100001Y-108600001D02*
X111250000Y-107750000D01*
X114750000Y-109000000D02*
X114350001Y-108600001D01*
X114350001Y-108600001D02*
X112100001Y-108600001D01*
X128000000Y-113000000D02*
X125250000Y-113000000D01*
X125250000Y-113000000D02*
X124000000Y-114250000D01*
X124000000Y-114250000D02*
X124000000Y-115250000D01*
X124000000Y-115250000D02*
X124000000Y-117000000D01*
X128750000Y-115250000D02*
X124000000Y-115250000D01*
X124000000Y-117000000D02*
X124000000Y-118500000D01*
X125750000Y-117000000D02*
X124000000Y-117000000D01*
X146000000Y-117540000D02*
X146000000Y-121250000D01*
X146000000Y-121250000D02*
X150420000Y-125670000D01*
X150420000Y-125670000D02*
X150420000Y-128500000D01*
X139460000Y-111210000D02*
X133250000Y-105000000D01*
X153250000Y-111210000D02*
X139460000Y-111210000D01*
X124000000Y-118500000D02*
X126500000Y-121000000D01*
D17*
X129750000Y-107500000D02*
X134710000Y-112460000D01*
X134710000Y-112460000D02*
X146000000Y-112460000D01*
X112500000Y-107500000D02*
X129750000Y-107500000D01*
D16*
X131000000Y-120000000D02*
X141000000Y-120000000D01*
X128000000Y-117000000D02*
X131000000Y-120000000D01*
D17*
X125500000Y-123500000D02*
X110750000Y-108750000D01*
X142880000Y-123500000D02*
X125500000Y-123500000D01*
X147880000Y-128500000D02*
X142880000Y-123500000D01*
D16*
X122472081Y-124750000D02*
X112722081Y-115000000D01*
X125020000Y-126020000D02*
X123750000Y-124750000D01*
X123750000Y-124750000D02*
X122472081Y-124750000D01*
X125020000Y-128500000D02*
X125020000Y-126020000D01*
X112722081Y-115000000D02*
X111000000Y-115000000D01*
X109500000Y-114250000D02*
X109500000Y-114815685D01*
X110434315Y-115750000D02*
X112500000Y-115750000D01*
X109500000Y-114815685D02*
X110434315Y-115750000D01*
X112500000Y-115750000D02*
X122480000Y-125730000D01*
X122480000Y-125730000D02*
X122480000Y-128500000D01*
X137720000Y-101500000D02*
X137720000Y-107470000D01*
X137720000Y-107470000D02*
X138500000Y-108250000D01*
X150000000Y-107500000D02*
X152960000Y-104540000D01*
X152960000Y-104540000D02*
X152960000Y-101500000D01*
X145500000Y-107500000D02*
X150000000Y-107500000D01*
X127750000Y-113750000D02*
X127000000Y-114500000D01*
X153250000Y-113750000D02*
X127750000Y-113750000D01*
X128073002Y-116000000D02*
X124750002Y-116000000D01*
X128363002Y-116290000D02*
X128073002Y-116000000D01*
X153250000Y-116290000D02*
X128363002Y-116290000D01*
D18*
G36*
X154398000Y-110307401D02*
X154131358Y-110014817D01*
X153606892Y-109768514D01*
X153377000Y-109889181D01*
X153377000Y-111083000D01*
X153397000Y-111083000D01*
X153397000Y-111337000D01*
X153377000Y-111337000D01*
X153377000Y-111357000D01*
X153123000Y-111357000D01*
X153123000Y-111337000D01*
X151929845Y-111337000D01*
X151808524Y-111566890D01*
X151978355Y-111976924D01*
X152368642Y-112405183D01*
X152624762Y-112525463D01*
X152249337Y-112776314D01*
X152034393Y-113098000D01*
X147387324Y-113098000D01*
X147387324Y-111610000D01*
X147346423Y-111404375D01*
X147229945Y-111230055D01*
X147055625Y-111113577D01*
X146850000Y-111072676D01*
X145150000Y-111072676D01*
X144944375Y-111113577D01*
X144770055Y-111230055D01*
X144653577Y-111404375D01*
X144612676Y-111610000D01*
X144612676Y-111683000D01*
X135031844Y-111683000D01*
X134201954Y-110853110D01*
X151808524Y-110853110D01*
X151929845Y-111083000D01*
X153123000Y-111083000D01*
X153123000Y-109889181D01*
X152893108Y-109768514D01*
X152368642Y-110014817D01*
X151978355Y-110443076D01*
X151808524Y-110853110D01*
X134201954Y-110853110D01*
X130299422Y-106950578D01*
X130047345Y-106782146D01*
X129750000Y-106723000D01*
X113034188Y-106723000D01*
X113025789Y-106714586D01*
X112685201Y-106573161D01*
X112316417Y-106572839D01*
X111975583Y-106713669D01*
X111714586Y-106974211D01*
X111573161Y-107314799D01*
X111572839Y-107683583D01*
X111713669Y-108024417D01*
X111974211Y-108285414D01*
X112314799Y-108426839D01*
X112683583Y-108427161D01*
X113024417Y-108286331D01*
X113033764Y-108277000D01*
X129428156Y-108277000D01*
X134160578Y-113009422D01*
X134293145Y-113098000D01*
X127750000Y-113098000D01*
X127500490Y-113147631D01*
X127288966Y-113288966D01*
X127288964Y-113288969D01*
X127004929Y-113573004D01*
X126816417Y-113572839D01*
X126475583Y-113713669D01*
X126214586Y-113974211D01*
X126073161Y-114314799D01*
X126072839Y-114683583D01*
X126213669Y-115024417D01*
X126474211Y-115285414D01*
X126624934Y-115348000D01*
X125408972Y-115348000D01*
X125275791Y-115214586D01*
X124935203Y-115073161D01*
X124566419Y-115072839D01*
X124225585Y-115213669D01*
X123964588Y-115474211D01*
X123823163Y-115814799D01*
X123822841Y-116183583D01*
X123963671Y-116524417D01*
X124224213Y-116785414D01*
X124564801Y-116926839D01*
X124933585Y-116927161D01*
X125274419Y-116786331D01*
X125408985Y-116652000D01*
X127140761Y-116652000D01*
X127073161Y-116814799D01*
X127072839Y-117183583D01*
X127213669Y-117524417D01*
X127474211Y-117785414D01*
X127814799Y-117926839D01*
X128004937Y-117927005D01*
X130538964Y-120461031D01*
X130538966Y-120461034D01*
X130680302Y-120555471D01*
X130750491Y-120602370D01*
X131000000Y-120652001D01*
X131000005Y-120652000D01*
X140341030Y-120652000D01*
X140474211Y-120785414D01*
X140814799Y-120926839D01*
X141183583Y-120927161D01*
X141524417Y-120786331D01*
X141785414Y-120525789D01*
X141926839Y-120185201D01*
X141927161Y-119816417D01*
X141786331Y-119475583D01*
X141525789Y-119214586D01*
X141185201Y-119073161D01*
X140816417Y-119072839D01*
X140475583Y-119213669D01*
X140341017Y-119348000D01*
X131270067Y-119348000D01*
X129818957Y-117896890D01*
X144558524Y-117896890D01*
X144728355Y-118306924D01*
X145118642Y-118735183D01*
X145643108Y-118981486D01*
X145873000Y-118860819D01*
X145873000Y-117667000D01*
X146127000Y-117667000D01*
X146127000Y-118860819D01*
X146356892Y-118981486D01*
X146881358Y-118735183D01*
X147271645Y-118306924D01*
X147441476Y-117896890D01*
X147320155Y-117667000D01*
X146127000Y-117667000D01*
X145873000Y-117667000D01*
X144679845Y-117667000D01*
X144558524Y-117896890D01*
X129818957Y-117896890D01*
X128926996Y-117004929D01*
X128927051Y-116942000D01*
X144658389Y-116942000D01*
X144558524Y-117183110D01*
X144679845Y-117413000D01*
X145873000Y-117413000D01*
X145873000Y-117393000D01*
X146127000Y-117393000D01*
X146127000Y-117413000D01*
X147320155Y-117413000D01*
X147441476Y-117183110D01*
X147341611Y-116942000D01*
X152034393Y-116942000D01*
X152249337Y-117263686D01*
X152517215Y-117442676D01*
X152400000Y-117442676D01*
X152194375Y-117483577D01*
X152020055Y-117600055D01*
X151903577Y-117774375D01*
X151862676Y-117980000D01*
X151862676Y-119680000D01*
X151903577Y-119885625D01*
X152020055Y-120059945D01*
X152194375Y-120176423D01*
X152400000Y-120217324D01*
X154100000Y-120217324D01*
X154305625Y-120176423D01*
X154398000Y-120114699D01*
X154398000Y-129398000D01*
X154337776Y-129398000D01*
X154347324Y-129350000D01*
X154347324Y-127650000D01*
X154306423Y-127444375D01*
X154189945Y-127270055D01*
X154015625Y-127153577D01*
X153810000Y-127112676D01*
X152110000Y-127112676D01*
X151904375Y-127153577D01*
X151730055Y-127270055D01*
X151613577Y-127444375D01*
X151584479Y-127590661D01*
X151186924Y-127228355D01*
X150776890Y-127058524D01*
X150547000Y-127179845D01*
X150547000Y-128373000D01*
X150567000Y-128373000D01*
X150567000Y-128627000D01*
X150547000Y-128627000D01*
X150547000Y-128647000D01*
X150293000Y-128647000D01*
X150293000Y-128627000D01*
X150273000Y-128627000D01*
X150273000Y-128373000D01*
X150293000Y-128373000D01*
X150293000Y-127179845D01*
X150063110Y-127058524D01*
X149653076Y-127228355D01*
X149224817Y-127618642D01*
X149104537Y-127874762D01*
X148853686Y-127499337D01*
X148406955Y-127200841D01*
X147880000Y-127096023D01*
X147625492Y-127146648D01*
X143429422Y-122950578D01*
X143177345Y-122782146D01*
X142880000Y-122723000D01*
X125821844Y-122723000D01*
X111677151Y-108578307D01*
X111677161Y-108566417D01*
X111536331Y-108225583D01*
X111275789Y-107964586D01*
X110935201Y-107823161D01*
X110566417Y-107822839D01*
X110225583Y-107963669D01*
X109964586Y-108224211D01*
X109823161Y-108564799D01*
X109822839Y-108933583D01*
X109963669Y-109274417D01*
X110224211Y-109535414D01*
X110564799Y-109676839D01*
X110578007Y-109676851D01*
X124950578Y-124049422D01*
X125202655Y-124217854D01*
X125500000Y-124277000D01*
X142558156Y-124277000D01*
X145386411Y-127105255D01*
X145340000Y-127096023D01*
X144813045Y-127200841D01*
X144366314Y-127499337D01*
X144070000Y-127942802D01*
X143773686Y-127499337D01*
X143326955Y-127200841D01*
X142800000Y-127096023D01*
X142273045Y-127200841D01*
X141826314Y-127499337D01*
X141530000Y-127942802D01*
X141233686Y-127499337D01*
X140786955Y-127200841D01*
X140260000Y-127096023D01*
X139733045Y-127200841D01*
X139286314Y-127499337D01*
X138990000Y-127942802D01*
X138693686Y-127499337D01*
X138246955Y-127200841D01*
X137720000Y-127096023D01*
X137193045Y-127200841D01*
X136746314Y-127499337D01*
X136450000Y-127942802D01*
X136153686Y-127499337D01*
X135706955Y-127200841D01*
X135180000Y-127096023D01*
X134653045Y-127200841D01*
X134206314Y-127499337D01*
X133910000Y-127942802D01*
X133613686Y-127499337D01*
X133166955Y-127200841D01*
X132640000Y-127096023D01*
X132113045Y-127200841D01*
X131666314Y-127499337D01*
X131370000Y-127942802D01*
X131073686Y-127499337D01*
X130626955Y-127200841D01*
X130100000Y-127096023D01*
X129573045Y-127200841D01*
X129126314Y-127499337D01*
X128830000Y-127942802D01*
X128533686Y-127499337D01*
X128086955Y-127200841D01*
X127560000Y-127096023D01*
X127033045Y-127200841D01*
X126586314Y-127499337D01*
X126290000Y-127942802D01*
X125993686Y-127499337D01*
X125672000Y-127284393D01*
X125672000Y-126020000D01*
X125622369Y-125770490D01*
X125481034Y-125558966D01*
X125481031Y-125558964D01*
X124211034Y-124288966D01*
X123999510Y-124147631D01*
X123958113Y-124139396D01*
X123750000Y-124097999D01*
X123749995Y-124098000D01*
X122742148Y-124098000D01*
X113183115Y-114538966D01*
X113088255Y-114475583D01*
X112971591Y-114397631D01*
X112930194Y-114389396D01*
X112722081Y-114347999D01*
X112722076Y-114348000D01*
X111658970Y-114348000D01*
X111525789Y-114214586D01*
X111185201Y-114073161D01*
X110816417Y-114072839D01*
X110475583Y-114213669D01*
X110426990Y-114262177D01*
X110427161Y-114066417D01*
X110286331Y-113725583D01*
X110025789Y-113464586D01*
X109685201Y-113323161D01*
X109316417Y-113322839D01*
X108975583Y-113463669D01*
X108714586Y-113724211D01*
X108573161Y-114064799D01*
X108572839Y-114433583D01*
X108713669Y-114774417D01*
X108871176Y-114932199D01*
X108897631Y-115065195D01*
X108922470Y-115102369D01*
X109038966Y-115276719D01*
X109973281Y-116211034D01*
X110184805Y-116352369D01*
X110226202Y-116360604D01*
X110434315Y-116402001D01*
X110434320Y-116402000D01*
X112229932Y-116402000D01*
X121828000Y-126000067D01*
X121828000Y-127284393D01*
X121506314Y-127499337D01*
X121210000Y-127942802D01*
X120913686Y-127499337D01*
X120466955Y-127200841D01*
X119940000Y-127096023D01*
X119413045Y-127200841D01*
X118966314Y-127499337D01*
X118670000Y-127942802D01*
X118373686Y-127499337D01*
X117926955Y-127200841D01*
X117400000Y-127096023D01*
X116873045Y-127200841D01*
X116426314Y-127499337D01*
X116130000Y-127942802D01*
X115833686Y-127499337D01*
X115386955Y-127200841D01*
X114860000Y-127096023D01*
X114333045Y-127200841D01*
X113886314Y-127499337D01*
X113590000Y-127942802D01*
X113293686Y-127499337D01*
X112846955Y-127200841D01*
X112320000Y-127096023D01*
X111793045Y-127200841D01*
X111346314Y-127499337D01*
X111050000Y-127942802D01*
X110753686Y-127499337D01*
X110306955Y-127200841D01*
X109780000Y-127096023D01*
X109253045Y-127200841D01*
X108806314Y-127499337D01*
X108510000Y-127942802D01*
X108213686Y-127499337D01*
X107766955Y-127200841D01*
X107240000Y-127096023D01*
X106713045Y-127200841D01*
X106266314Y-127499337D01*
X105970000Y-127942802D01*
X105673686Y-127499337D01*
X105226955Y-127200841D01*
X104700000Y-127096023D01*
X104173045Y-127200841D01*
X103726314Y-127499337D01*
X103430000Y-127942802D01*
X103133686Y-127499337D01*
X102686955Y-127200841D01*
X102160000Y-127096023D01*
X101633045Y-127200841D01*
X101186314Y-127499337D01*
X100935463Y-127874762D01*
X100815183Y-127618642D01*
X100386924Y-127228355D01*
X99976890Y-127058524D01*
X99747000Y-127179845D01*
X99747000Y-128373000D01*
X99767000Y-128373000D01*
X99767000Y-128627000D01*
X99747000Y-128627000D01*
X99747000Y-128647000D01*
X99493000Y-128647000D01*
X99493000Y-128627000D01*
X99473000Y-128627000D01*
X99473000Y-128373000D01*
X99493000Y-128373000D01*
X99493000Y-127179845D01*
X99263110Y-127058524D01*
X98853076Y-127228355D01*
X98424817Y-127618642D01*
X98352000Y-127773695D01*
X98352000Y-118946716D01*
X98482632Y-119212763D01*
X98823322Y-119500002D01*
X99248000Y-119635000D01*
X99523000Y-119635000D01*
X99523000Y-118627000D01*
X99777000Y-118627000D01*
X99777000Y-119635000D01*
X100052000Y-119635000D01*
X100476678Y-119500002D01*
X100817368Y-119212763D01*
X101019119Y-118801874D01*
X100892954Y-118627000D01*
X99777000Y-118627000D01*
X99523000Y-118627000D01*
X99503000Y-118627000D01*
X99503000Y-118373000D01*
X99523000Y-118373000D01*
X99523000Y-117365000D01*
X99777000Y-117365000D01*
X99777000Y-118373000D01*
X100892954Y-118373000D01*
X101019119Y-118198126D01*
X100824191Y-117801131D01*
X101248771Y-117801131D01*
X101390432Y-118211049D01*
X101678179Y-118535552D01*
X102052062Y-118719268D01*
X102223000Y-118592734D01*
X102223000Y-117627000D01*
X102477000Y-117627000D01*
X102477000Y-118592734D01*
X102647938Y-118719268D01*
X103021821Y-118535552D01*
X103309568Y-118211049D01*
X103451229Y-117801131D01*
X103302563Y-117627000D01*
X102477000Y-117627000D01*
X102223000Y-117627000D01*
X101397437Y-117627000D01*
X101248771Y-117801131D01*
X100824191Y-117801131D01*
X100817368Y-117787237D01*
X100476678Y-117499998D01*
X100052000Y-117365000D01*
X99777000Y-117365000D01*
X99523000Y-117365000D01*
X99248000Y-117365000D01*
X98823322Y-117499998D01*
X98482632Y-117787237D01*
X98352000Y-118053284D01*
X98352000Y-117198869D01*
X101248771Y-117198869D01*
X101397437Y-117373000D01*
X102223000Y-117373000D01*
X102223000Y-116407266D01*
X102477000Y-116407266D01*
X102477000Y-117373000D01*
X103302563Y-117373000D01*
X103451229Y-117198869D01*
X103309568Y-116788951D01*
X103021821Y-116464448D01*
X102647938Y-116280732D01*
X102477000Y-116407266D01*
X102223000Y-116407266D01*
X102052062Y-116280732D01*
X101678179Y-116464448D01*
X101390432Y-116788951D01*
X101248771Y-117198869D01*
X98352000Y-117198869D01*
X98352000Y-112801131D01*
X101248771Y-112801131D01*
X101390432Y-113211049D01*
X101678179Y-113535552D01*
X102052062Y-113719268D01*
X102223000Y-113592734D01*
X102223000Y-112627000D01*
X102477000Y-112627000D01*
X102477000Y-113592734D01*
X102647938Y-113719268D01*
X103021821Y-113535552D01*
X103309568Y-113211049D01*
X103451229Y-112801131D01*
X103302563Y-112627000D01*
X102477000Y-112627000D01*
X102223000Y-112627000D01*
X101397437Y-112627000D01*
X101248771Y-112801131D01*
X98352000Y-112801131D01*
X98352000Y-111946716D01*
X98482632Y-112212763D01*
X98823322Y-112500002D01*
X99248000Y-112635000D01*
X99523000Y-112635000D01*
X99523000Y-111627000D01*
X99777000Y-111627000D01*
X99777000Y-112635000D01*
X100052000Y-112635000D01*
X100476678Y-112500002D01*
X100817368Y-112212763D01*
X100824190Y-112198869D01*
X101248771Y-112198869D01*
X101397437Y-112373000D01*
X102223000Y-112373000D01*
X102223000Y-111407266D01*
X102477000Y-111407266D01*
X102477000Y-112373000D01*
X103302563Y-112373000D01*
X103451229Y-112198869D01*
X103309568Y-111788951D01*
X103021821Y-111464448D01*
X102647938Y-111280732D01*
X102477000Y-111407266D01*
X102223000Y-111407266D01*
X102052062Y-111280732D01*
X101678179Y-111464448D01*
X101390432Y-111788951D01*
X101248771Y-112198869D01*
X100824190Y-112198869D01*
X101019119Y-111801874D01*
X100892954Y-111627000D01*
X99777000Y-111627000D01*
X99523000Y-111627000D01*
X99503000Y-111627000D01*
X99503000Y-111373000D01*
X99523000Y-111373000D01*
X99523000Y-110365000D01*
X99777000Y-110365000D01*
X99777000Y-111373000D01*
X100892954Y-111373000D01*
X101019119Y-111198126D01*
X100817368Y-110787237D01*
X100476678Y-110499998D01*
X100052000Y-110365000D01*
X99777000Y-110365000D01*
X99523000Y-110365000D01*
X99248000Y-110365000D01*
X98823322Y-110499998D01*
X98482632Y-110787237D01*
X98352000Y-111053284D01*
X98352000Y-102226305D01*
X98424817Y-102381358D01*
X98853076Y-102771645D01*
X99263110Y-102941476D01*
X99493000Y-102820155D01*
X99493000Y-101627000D01*
X99473000Y-101627000D01*
X99473000Y-101373000D01*
X99493000Y-101373000D01*
X99493000Y-101353000D01*
X99747000Y-101353000D01*
X99747000Y-101373000D01*
X99767000Y-101373000D01*
X99767000Y-101627000D01*
X99747000Y-101627000D01*
X99747000Y-102820155D01*
X99976890Y-102941476D01*
X100386924Y-102771645D01*
X100815183Y-102381358D01*
X100935463Y-102125238D01*
X101186314Y-102500663D01*
X101633045Y-102799159D01*
X102160000Y-102903977D01*
X102686955Y-102799159D01*
X103133686Y-102500663D01*
X103430000Y-102057198D01*
X103726314Y-102500663D01*
X104173045Y-102799159D01*
X104700000Y-102903977D01*
X105226955Y-102799159D01*
X105673686Y-102500663D01*
X105970000Y-102057198D01*
X106266314Y-102500663D01*
X106713045Y-102799159D01*
X107240000Y-102903977D01*
X107766955Y-102799159D01*
X108213686Y-102500663D01*
X108510000Y-102057198D01*
X108806314Y-102500663D01*
X109253045Y-102799159D01*
X109780000Y-102903977D01*
X110306955Y-102799159D01*
X110753686Y-102500663D01*
X111050000Y-102057198D01*
X111346314Y-102500663D01*
X111793045Y-102799159D01*
X112320000Y-102903977D01*
X112846955Y-102799159D01*
X113293686Y-102500663D01*
X113590000Y-102057198D01*
X113886314Y-102500663D01*
X114333045Y-102799159D01*
X114860000Y-102903977D01*
X115386955Y-102799159D01*
X115833686Y-102500663D01*
X116130000Y-102057198D01*
X116426314Y-102500663D01*
X116873045Y-102799159D01*
X117400000Y-102903977D01*
X117926955Y-102799159D01*
X118373686Y-102500663D01*
X118670000Y-102057198D01*
X118966314Y-102500663D01*
X119413045Y-102799159D01*
X119940000Y-102903977D01*
X120466955Y-102799159D01*
X120913686Y-102500663D01*
X121210000Y-102057198D01*
X121506314Y-102500663D01*
X121953045Y-102799159D01*
X122480000Y-102903977D01*
X123006955Y-102799159D01*
X123453686Y-102500663D01*
X123750000Y-102057198D01*
X124046314Y-102500663D01*
X124493045Y-102799159D01*
X125020000Y-102903977D01*
X125546955Y-102799159D01*
X125993686Y-102500663D01*
X126290000Y-102057198D01*
X126586314Y-102500663D01*
X127033045Y-102799159D01*
X127560000Y-102903977D01*
X128086955Y-102799159D01*
X128533686Y-102500663D01*
X128830000Y-102057198D01*
X129126314Y-102500663D01*
X129573045Y-102799159D01*
X130100000Y-102903977D01*
X130626955Y-102799159D01*
X131073686Y-102500663D01*
X131370000Y-102057198D01*
X131666314Y-102500663D01*
X132113045Y-102799159D01*
X132640000Y-102903977D01*
X133166955Y-102799159D01*
X133613686Y-102500663D01*
X133910000Y-102057198D01*
X134206314Y-102500663D01*
X134653045Y-102799159D01*
X135180000Y-102903977D01*
X135706955Y-102799159D01*
X136153686Y-102500663D01*
X136450000Y-102057198D01*
X136746314Y-102500663D01*
X137068000Y-102715607D01*
X137068000Y-107469995D01*
X137067999Y-107470000D01*
X137073967Y-107500000D01*
X137117631Y-107719510D01*
X137186673Y-107822839D01*
X137258966Y-107931034D01*
X137573004Y-108245071D01*
X137572839Y-108433583D01*
X137713669Y-108774417D01*
X137974211Y-109035414D01*
X138314799Y-109176839D01*
X138683583Y-109177161D01*
X139024417Y-109036331D01*
X139285414Y-108775789D01*
X139426839Y-108435201D01*
X139427161Y-108066417D01*
X139286331Y-107725583D01*
X139025789Y-107464586D01*
X138685201Y-107323161D01*
X138495063Y-107322995D01*
X138372000Y-107199932D01*
X138372000Y-102715607D01*
X138693686Y-102500663D01*
X138990000Y-102057198D01*
X139286314Y-102500663D01*
X139733045Y-102799159D01*
X140260000Y-102903977D01*
X140786955Y-102799159D01*
X141233686Y-102500663D01*
X141530000Y-102057198D01*
X141826314Y-102500663D01*
X142273045Y-102799159D01*
X142800000Y-102903977D01*
X143326955Y-102799159D01*
X143773686Y-102500663D01*
X144070000Y-102057198D01*
X144366314Y-102500663D01*
X144813045Y-102799159D01*
X145340000Y-102903977D01*
X145866955Y-102799159D01*
X146313686Y-102500663D01*
X146610000Y-102057198D01*
X146906314Y-102500663D01*
X147353045Y-102799159D01*
X147880000Y-102903977D01*
X148406955Y-102799159D01*
X148853686Y-102500663D01*
X149150000Y-102057198D01*
X149446314Y-102500663D01*
X149893045Y-102799159D01*
X150420000Y-102903977D01*
X150946955Y-102799159D01*
X151393686Y-102500663D01*
X151572676Y-102232785D01*
X151572676Y-102350000D01*
X151613577Y-102555625D01*
X151730055Y-102729945D01*
X151904375Y-102846423D01*
X152110000Y-102887324D01*
X152308000Y-102887324D01*
X152308000Y-104269932D01*
X149729932Y-106848000D01*
X146158970Y-106848000D01*
X146025789Y-106714586D01*
X145685201Y-106573161D01*
X145316417Y-106572839D01*
X144975583Y-106713669D01*
X144714586Y-106974211D01*
X144573161Y-107314799D01*
X144572839Y-107683583D01*
X144713669Y-108024417D01*
X144974211Y-108285414D01*
X145314799Y-108426839D01*
X145683583Y-108427161D01*
X146024417Y-108286331D01*
X146158983Y-108152000D01*
X149999995Y-108152000D01*
X150000000Y-108152001D01*
X150208113Y-108110604D01*
X150249510Y-108102369D01*
X150461034Y-107961034D01*
X153421034Y-105001034D01*
X153562369Y-104789510D01*
X153612000Y-104540000D01*
X153612000Y-102887324D01*
X153810000Y-102887324D01*
X154015625Y-102846423D01*
X154189945Y-102729945D01*
X154306423Y-102555625D01*
X154347324Y-102350000D01*
X154347324Y-100650000D01*
X154337776Y-100602000D01*
X154398000Y-100602000D01*
X154398000Y-110307401D01*
X154398000Y-110307401D01*
G37*
X154398000Y-110307401D02*
X154131358Y-110014817D01*
X153606892Y-109768514D01*
X153377000Y-109889181D01*
X153377000Y-111083000D01*
X153397000Y-111083000D01*
X153397000Y-111337000D01*
X153377000Y-111337000D01*
X153377000Y-111357000D01*
X153123000Y-111357000D01*
X153123000Y-111337000D01*
X151929845Y-111337000D01*
X151808524Y-111566890D01*
X151978355Y-111976924D01*
X152368642Y-112405183D01*
X152624762Y-112525463D01*
X152249337Y-112776314D01*
X152034393Y-113098000D01*
X147387324Y-113098000D01*
X147387324Y-111610000D01*
X147346423Y-111404375D01*
X147229945Y-111230055D01*
X147055625Y-111113577D01*
X146850000Y-111072676D01*
X145150000Y-111072676D01*
X144944375Y-111113577D01*
X144770055Y-111230055D01*
X144653577Y-111404375D01*
X144612676Y-111610000D01*
X144612676Y-111683000D01*
X135031844Y-111683000D01*
X134201954Y-110853110D01*
X151808524Y-110853110D01*
X151929845Y-111083000D01*
X153123000Y-111083000D01*
X153123000Y-109889181D01*
X152893108Y-109768514D01*
X152368642Y-110014817D01*
X151978355Y-110443076D01*
X151808524Y-110853110D01*
X134201954Y-110853110D01*
X130299422Y-106950578D01*
X130047345Y-106782146D01*
X129750000Y-106723000D01*
X113034188Y-106723000D01*
X113025789Y-106714586D01*
X112685201Y-106573161D01*
X112316417Y-106572839D01*
X111975583Y-106713669D01*
X111714586Y-106974211D01*
X111573161Y-107314799D01*
X111572839Y-107683583D01*
X111713669Y-108024417D01*
X111974211Y-108285414D01*
X112314799Y-108426839D01*
X112683583Y-108427161D01*
X113024417Y-108286331D01*
X113033764Y-108277000D01*
X129428156Y-108277000D01*
X134160578Y-113009422D01*
X134293145Y-113098000D01*
X127750000Y-113098000D01*
X127500490Y-113147631D01*
X127288966Y-113288966D01*
X127288964Y-113288969D01*
X127004929Y-113573004D01*
X126816417Y-113572839D01*
X126475583Y-113713669D01*
X126214586Y-113974211D01*
X126073161Y-114314799D01*
X126072839Y-114683583D01*
X126213669Y-115024417D01*
X126474211Y-115285414D01*
X126624934Y-115348000D01*
X125408972Y-115348000D01*
X125275791Y-115214586D01*
X124935203Y-115073161D01*
X124566419Y-115072839D01*
X124225585Y-115213669D01*
X123964588Y-115474211D01*
X123823163Y-115814799D01*
X123822841Y-116183583D01*
X123963671Y-116524417D01*
X124224213Y-116785414D01*
X124564801Y-116926839D01*
X124933585Y-116927161D01*
X125274419Y-116786331D01*
X125408985Y-116652000D01*
X127140761Y-116652000D01*
X127073161Y-116814799D01*
X127072839Y-117183583D01*
X127213669Y-117524417D01*
X127474211Y-117785414D01*
X127814799Y-117926839D01*
X128004937Y-117927005D01*
X130538964Y-120461031D01*
X130538966Y-120461034D01*
X130680302Y-120555471D01*
X130750491Y-120602370D01*
X131000000Y-120652001D01*
X131000005Y-120652000D01*
X140341030Y-120652000D01*
X140474211Y-120785414D01*
X140814799Y-120926839D01*
X141183583Y-120927161D01*
X141524417Y-120786331D01*
X141785414Y-120525789D01*
X141926839Y-120185201D01*
X141927161Y-119816417D01*
X141786331Y-119475583D01*
X141525789Y-119214586D01*
X141185201Y-119073161D01*
X140816417Y-119072839D01*
X140475583Y-119213669D01*
X140341017Y-119348000D01*
X131270067Y-119348000D01*
X129818957Y-117896890D01*
X144558524Y-117896890D01*
X144728355Y-118306924D01*
X145118642Y-118735183D01*
X145643108Y-118981486D01*
X145873000Y-118860819D01*
X145873000Y-117667000D01*
X146127000Y-117667000D01*
X146127000Y-118860819D01*
X146356892Y-118981486D01*
X146881358Y-118735183D01*
X147271645Y-118306924D01*
X147441476Y-117896890D01*
X147320155Y-117667000D01*
X146127000Y-117667000D01*
X145873000Y-117667000D01*
X144679845Y-117667000D01*
X144558524Y-117896890D01*
X129818957Y-117896890D01*
X128926996Y-117004929D01*
X128927051Y-116942000D01*
X144658389Y-116942000D01*
X144558524Y-117183110D01*
X144679845Y-117413000D01*
X145873000Y-117413000D01*
X145873000Y-117393000D01*
X146127000Y-117393000D01*
X146127000Y-117413000D01*
X147320155Y-117413000D01*
X147441476Y-117183110D01*
X147341611Y-116942000D01*
X152034393Y-116942000D01*
X152249337Y-117263686D01*
X152517215Y-117442676D01*
X152400000Y-117442676D01*
X152194375Y-117483577D01*
X152020055Y-117600055D01*
X151903577Y-117774375D01*
X151862676Y-117980000D01*
X151862676Y-119680000D01*
X151903577Y-119885625D01*
X152020055Y-120059945D01*
X152194375Y-120176423D01*
X152400000Y-120217324D01*
X154100000Y-120217324D01*
X154305625Y-120176423D01*
X154398000Y-120114699D01*
X154398000Y-129398000D01*
X154337776Y-129398000D01*
X154347324Y-129350000D01*
X154347324Y-127650000D01*
X154306423Y-127444375D01*
X154189945Y-127270055D01*
X154015625Y-127153577D01*
X153810000Y-127112676D01*
X152110000Y-127112676D01*
X151904375Y-127153577D01*
X151730055Y-127270055D01*
X151613577Y-127444375D01*
X151584479Y-127590661D01*
X151186924Y-127228355D01*
X150776890Y-127058524D01*
X150547000Y-127179845D01*
X150547000Y-128373000D01*
X150567000Y-128373000D01*
X150567000Y-128627000D01*
X150547000Y-128627000D01*
X150547000Y-128647000D01*
X150293000Y-128647000D01*
X150293000Y-128627000D01*
X150273000Y-128627000D01*
X150273000Y-128373000D01*
X150293000Y-128373000D01*
X150293000Y-127179845D01*
X150063110Y-127058524D01*
X149653076Y-127228355D01*
X149224817Y-127618642D01*
X149104537Y-127874762D01*
X148853686Y-127499337D01*
X148406955Y-127200841D01*
X147880000Y-127096023D01*
X147625492Y-127146648D01*
X143429422Y-122950578D01*
X143177345Y-122782146D01*
X142880000Y-122723000D01*
X125821844Y-122723000D01*
X111677151Y-108578307D01*
X111677161Y-108566417D01*
X111536331Y-108225583D01*
X111275789Y-107964586D01*
X110935201Y-107823161D01*
X110566417Y-107822839D01*
X110225583Y-107963669D01*
X109964586Y-108224211D01*
X109823161Y-108564799D01*
X109822839Y-108933583D01*
X109963669Y-109274417D01*
X110224211Y-109535414D01*
X110564799Y-109676839D01*
X110578007Y-109676851D01*
X124950578Y-124049422D01*
X125202655Y-124217854D01*
X125500000Y-124277000D01*
X142558156Y-124277000D01*
X145386411Y-127105255D01*
X145340000Y-127096023D01*
X144813045Y-127200841D01*
X144366314Y-127499337D01*
X144070000Y-127942802D01*
X143773686Y-127499337D01*
X143326955Y-127200841D01*
X142800000Y-127096023D01*
X142273045Y-127200841D01*
X141826314Y-127499337D01*
X141530000Y-127942802D01*
X141233686Y-127499337D01*
X140786955Y-127200841D01*
X140260000Y-127096023D01*
X139733045Y-127200841D01*
X139286314Y-127499337D01*
X138990000Y-127942802D01*
X138693686Y-127499337D01*
X138246955Y-127200841D01*
X137720000Y-127096023D01*
X137193045Y-127200841D01*
X136746314Y-127499337D01*
X136450000Y-127942802D01*
X136153686Y-127499337D01*
X135706955Y-127200841D01*
X135180000Y-127096023D01*
X134653045Y-127200841D01*
X134206314Y-127499337D01*
X133910000Y-127942802D01*
X133613686Y-127499337D01*
X133166955Y-127200841D01*
X132640000Y-127096023D01*
X132113045Y-127200841D01*
X131666314Y-127499337D01*
X131370000Y-127942802D01*
X131073686Y-127499337D01*
X130626955Y-127200841D01*
X130100000Y-127096023D01*
X129573045Y-127200841D01*
X129126314Y-127499337D01*
X128830000Y-127942802D01*
X128533686Y-127499337D01*
X128086955Y-127200841D01*
X127560000Y-127096023D01*
X127033045Y-127200841D01*
X126586314Y-127499337D01*
X126290000Y-127942802D01*
X125993686Y-127499337D01*
X125672000Y-127284393D01*
X125672000Y-126020000D01*
X125622369Y-125770490D01*
X125481034Y-125558966D01*
X125481031Y-125558964D01*
X124211034Y-124288966D01*
X123999510Y-124147631D01*
X123958113Y-124139396D01*
X123750000Y-124097999D01*
X123749995Y-124098000D01*
X122742148Y-124098000D01*
X113183115Y-114538966D01*
X113088255Y-114475583D01*
X112971591Y-114397631D01*
X112930194Y-114389396D01*
X112722081Y-114347999D01*
X112722076Y-114348000D01*
X111658970Y-114348000D01*
X111525789Y-114214586D01*
X111185201Y-114073161D01*
X110816417Y-114072839D01*
X110475583Y-114213669D01*
X110426990Y-114262177D01*
X110427161Y-114066417D01*
X110286331Y-113725583D01*
X110025789Y-113464586D01*
X109685201Y-113323161D01*
X109316417Y-113322839D01*
X108975583Y-113463669D01*
X108714586Y-113724211D01*
X108573161Y-114064799D01*
X108572839Y-114433583D01*
X108713669Y-114774417D01*
X108871176Y-114932199D01*
X108897631Y-115065195D01*
X108922470Y-115102369D01*
X109038966Y-115276719D01*
X109973281Y-116211034D01*
X110184805Y-116352369D01*
X110226202Y-116360604D01*
X110434315Y-116402001D01*
X110434320Y-116402000D01*
X112229932Y-116402000D01*
X121828000Y-126000067D01*
X121828000Y-127284393D01*
X121506314Y-127499337D01*
X121210000Y-127942802D01*
X120913686Y-127499337D01*
X120466955Y-127200841D01*
X119940000Y-127096023D01*
X119413045Y-127200841D01*
X118966314Y-127499337D01*
X118670000Y-127942802D01*
X118373686Y-127499337D01*
X117926955Y-127200841D01*
X117400000Y-127096023D01*
X116873045Y-127200841D01*
X116426314Y-127499337D01*
X116130000Y-127942802D01*
X115833686Y-127499337D01*
X115386955Y-127200841D01*
X114860000Y-127096023D01*
X114333045Y-127200841D01*
X113886314Y-127499337D01*
X113590000Y-127942802D01*
X113293686Y-127499337D01*
X112846955Y-127200841D01*
X112320000Y-127096023D01*
X111793045Y-127200841D01*
X111346314Y-127499337D01*
X111050000Y-127942802D01*
X110753686Y-127499337D01*
X110306955Y-127200841D01*
X109780000Y-127096023D01*
X109253045Y-127200841D01*
X108806314Y-127499337D01*
X108510000Y-127942802D01*
X108213686Y-127499337D01*
X107766955Y-127200841D01*
X107240000Y-127096023D01*
X106713045Y-127200841D01*
X106266314Y-127499337D01*
X105970000Y-127942802D01*
X105673686Y-127499337D01*
X105226955Y-127200841D01*
X104700000Y-127096023D01*
X104173045Y-127200841D01*
X103726314Y-127499337D01*
X103430000Y-127942802D01*
X103133686Y-127499337D01*
X102686955Y-127200841D01*
X102160000Y-127096023D01*
X101633045Y-127200841D01*
X101186314Y-127499337D01*
X100935463Y-127874762D01*
X100815183Y-127618642D01*
X100386924Y-127228355D01*
X99976890Y-127058524D01*
X99747000Y-127179845D01*
X99747000Y-128373000D01*
X99767000Y-128373000D01*
X99767000Y-128627000D01*
X99747000Y-128627000D01*
X99747000Y-128647000D01*
X99493000Y-128647000D01*
X99493000Y-128627000D01*
X99473000Y-128627000D01*
X99473000Y-128373000D01*
X99493000Y-128373000D01*
X99493000Y-127179845D01*
X99263110Y-127058524D01*
X98853076Y-127228355D01*
X98424817Y-127618642D01*
X98352000Y-127773695D01*
X98352000Y-118946716D01*
X98482632Y-119212763D01*
X98823322Y-119500002D01*
X99248000Y-119635000D01*
X99523000Y-119635000D01*
X99523000Y-118627000D01*
X99777000Y-118627000D01*
X99777000Y-119635000D01*
X100052000Y-119635000D01*
X100476678Y-119500002D01*
X100817368Y-119212763D01*
X101019119Y-118801874D01*
X100892954Y-118627000D01*
X99777000Y-118627000D01*
X99523000Y-118627000D01*
X99503000Y-118627000D01*
X99503000Y-118373000D01*
X99523000Y-118373000D01*
X99523000Y-117365000D01*
X99777000Y-117365000D01*
X99777000Y-118373000D01*
X100892954Y-118373000D01*
X101019119Y-118198126D01*
X100824191Y-117801131D01*
X101248771Y-117801131D01*
X101390432Y-118211049D01*
X101678179Y-118535552D01*
X102052062Y-118719268D01*
X102223000Y-118592734D01*
X102223000Y-117627000D01*
X102477000Y-117627000D01*
X102477000Y-118592734D01*
X102647938Y-118719268D01*
X103021821Y-118535552D01*
X103309568Y-118211049D01*
X103451229Y-117801131D01*
X103302563Y-117627000D01*
X102477000Y-117627000D01*
X102223000Y-117627000D01*
X101397437Y-117627000D01*
X101248771Y-117801131D01*
X100824191Y-117801131D01*
X100817368Y-117787237D01*
X100476678Y-117499998D01*
X100052000Y-117365000D01*
X99777000Y-117365000D01*
X99523000Y-117365000D01*
X99248000Y-117365000D01*
X98823322Y-117499998D01*
X98482632Y-117787237D01*
X98352000Y-118053284D01*
X98352000Y-117198869D01*
X101248771Y-117198869D01*
X101397437Y-117373000D01*
X102223000Y-117373000D01*
X102223000Y-116407266D01*
X102477000Y-116407266D01*
X102477000Y-117373000D01*
X103302563Y-117373000D01*
X103451229Y-117198869D01*
X103309568Y-116788951D01*
X103021821Y-116464448D01*
X102647938Y-116280732D01*
X102477000Y-116407266D01*
X102223000Y-116407266D01*
X102052062Y-116280732D01*
X101678179Y-116464448D01*
X101390432Y-116788951D01*
X101248771Y-117198869D01*
X98352000Y-117198869D01*
X98352000Y-112801131D01*
X101248771Y-112801131D01*
X101390432Y-113211049D01*
X101678179Y-113535552D01*
X102052062Y-113719268D01*
X102223000Y-113592734D01*
X102223000Y-112627000D01*
X102477000Y-112627000D01*
X102477000Y-113592734D01*
X102647938Y-113719268D01*
X103021821Y-113535552D01*
X103309568Y-113211049D01*
X103451229Y-112801131D01*
X103302563Y-112627000D01*
X102477000Y-112627000D01*
X102223000Y-112627000D01*
X101397437Y-112627000D01*
X101248771Y-112801131D01*
X98352000Y-112801131D01*
X98352000Y-111946716D01*
X98482632Y-112212763D01*
X98823322Y-112500002D01*
X99248000Y-112635000D01*
X99523000Y-112635000D01*
X99523000Y-111627000D01*
X99777000Y-111627000D01*
X99777000Y-112635000D01*
X100052000Y-112635000D01*
X100476678Y-112500002D01*
X100817368Y-112212763D01*
X100824190Y-112198869D01*
X101248771Y-112198869D01*
X101397437Y-112373000D01*
X102223000Y-112373000D01*
X102223000Y-111407266D01*
X102477000Y-111407266D01*
X102477000Y-112373000D01*
X103302563Y-112373000D01*
X103451229Y-112198869D01*
X103309568Y-111788951D01*
X103021821Y-111464448D01*
X102647938Y-111280732D01*
X102477000Y-111407266D01*
X102223000Y-111407266D01*
X102052062Y-111280732D01*
X101678179Y-111464448D01*
X101390432Y-111788951D01*
X101248771Y-112198869D01*
X100824190Y-112198869D01*
X101019119Y-111801874D01*
X100892954Y-111627000D01*
X99777000Y-111627000D01*
X99523000Y-111627000D01*
X99503000Y-111627000D01*
X99503000Y-111373000D01*
X99523000Y-111373000D01*
X99523000Y-110365000D01*
X99777000Y-110365000D01*
X99777000Y-111373000D01*
X100892954Y-111373000D01*
X101019119Y-111198126D01*
X100817368Y-110787237D01*
X100476678Y-110499998D01*
X100052000Y-110365000D01*
X99777000Y-110365000D01*
X99523000Y-110365000D01*
X99248000Y-110365000D01*
X98823322Y-110499998D01*
X98482632Y-110787237D01*
X98352000Y-111053284D01*
X98352000Y-102226305D01*
X98424817Y-102381358D01*
X98853076Y-102771645D01*
X99263110Y-102941476D01*
X99493000Y-102820155D01*
X99493000Y-101627000D01*
X99473000Y-101627000D01*
X99473000Y-101373000D01*
X99493000Y-101373000D01*
X99493000Y-101353000D01*
X99747000Y-101353000D01*
X99747000Y-101373000D01*
X99767000Y-101373000D01*
X99767000Y-101627000D01*
X99747000Y-101627000D01*
X99747000Y-102820155D01*
X99976890Y-102941476D01*
X100386924Y-102771645D01*
X100815183Y-102381358D01*
X100935463Y-102125238D01*
X101186314Y-102500663D01*
X101633045Y-102799159D01*
X102160000Y-102903977D01*
X102686955Y-102799159D01*
X103133686Y-102500663D01*
X103430000Y-102057198D01*
X103726314Y-102500663D01*
X104173045Y-102799159D01*
X104700000Y-102903977D01*
X105226955Y-102799159D01*
X105673686Y-102500663D01*
X105970000Y-102057198D01*
X106266314Y-102500663D01*
X106713045Y-102799159D01*
X107240000Y-102903977D01*
X107766955Y-102799159D01*
X108213686Y-102500663D01*
X108510000Y-102057198D01*
X108806314Y-102500663D01*
X109253045Y-102799159D01*
X109780000Y-102903977D01*
X110306955Y-102799159D01*
X110753686Y-102500663D01*
X111050000Y-102057198D01*
X111346314Y-102500663D01*
X111793045Y-102799159D01*
X112320000Y-102903977D01*
X112846955Y-102799159D01*
X113293686Y-102500663D01*
X113590000Y-102057198D01*
X113886314Y-102500663D01*
X114333045Y-102799159D01*
X114860000Y-102903977D01*
X115386955Y-102799159D01*
X115833686Y-102500663D01*
X116130000Y-102057198D01*
X116426314Y-102500663D01*
X116873045Y-102799159D01*
X117400000Y-102903977D01*
X117926955Y-102799159D01*
X118373686Y-102500663D01*
X118670000Y-102057198D01*
X118966314Y-102500663D01*
X119413045Y-102799159D01*
X119940000Y-102903977D01*
X120466955Y-102799159D01*
X120913686Y-102500663D01*
X121210000Y-102057198D01*
X121506314Y-102500663D01*
X121953045Y-102799159D01*
X122480000Y-102903977D01*
X123006955Y-102799159D01*
X123453686Y-102500663D01*
X123750000Y-102057198D01*
X124046314Y-102500663D01*
X124493045Y-102799159D01*
X125020000Y-102903977D01*
X125546955Y-102799159D01*
X125993686Y-102500663D01*
X126290000Y-102057198D01*
X126586314Y-102500663D01*
X127033045Y-102799159D01*
X127560000Y-102903977D01*
X128086955Y-102799159D01*
X128533686Y-102500663D01*
X128830000Y-102057198D01*
X129126314Y-102500663D01*
X129573045Y-102799159D01*
X130100000Y-102903977D01*
X130626955Y-102799159D01*
X131073686Y-102500663D01*
X131370000Y-102057198D01*
X131666314Y-102500663D01*
X132113045Y-102799159D01*
X132640000Y-102903977D01*
X133166955Y-102799159D01*
X133613686Y-102500663D01*
X133910000Y-102057198D01*
X134206314Y-102500663D01*
X134653045Y-102799159D01*
X135180000Y-102903977D01*
X135706955Y-102799159D01*
X136153686Y-102500663D01*
X136450000Y-102057198D01*
X136746314Y-102500663D01*
X137068000Y-102715607D01*
X137068000Y-107469995D01*
X137067999Y-107470000D01*
X137073967Y-107500000D01*
X137117631Y-107719510D01*
X137186673Y-107822839D01*
X137258966Y-107931034D01*
X137573004Y-108245071D01*
X137572839Y-108433583D01*
X137713669Y-108774417D01*
X137974211Y-109035414D01*
X138314799Y-109176839D01*
X138683583Y-109177161D01*
X139024417Y-109036331D01*
X139285414Y-108775789D01*
X139426839Y-108435201D01*
X139427161Y-108066417D01*
X139286331Y-107725583D01*
X139025789Y-107464586D01*
X138685201Y-107323161D01*
X138495063Y-107322995D01*
X138372000Y-107199932D01*
X138372000Y-102715607D01*
X138693686Y-102500663D01*
X138990000Y-102057198D01*
X139286314Y-102500663D01*
X139733045Y-102799159D01*
X140260000Y-102903977D01*
X140786955Y-102799159D01*
X141233686Y-102500663D01*
X141530000Y-102057198D01*
X141826314Y-102500663D01*
X142273045Y-102799159D01*
X142800000Y-102903977D01*
X143326955Y-102799159D01*
X143773686Y-102500663D01*
X144070000Y-102057198D01*
X144366314Y-102500663D01*
X144813045Y-102799159D01*
X145340000Y-102903977D01*
X145866955Y-102799159D01*
X146313686Y-102500663D01*
X146610000Y-102057198D01*
X146906314Y-102500663D01*
X147353045Y-102799159D01*
X147880000Y-102903977D01*
X148406955Y-102799159D01*
X148853686Y-102500663D01*
X149150000Y-102057198D01*
X149446314Y-102500663D01*
X149893045Y-102799159D01*
X150420000Y-102903977D01*
X150946955Y-102799159D01*
X151393686Y-102500663D01*
X151572676Y-102232785D01*
X151572676Y-102350000D01*
X151613577Y-102555625D01*
X151730055Y-102729945D01*
X151904375Y-102846423D01*
X152110000Y-102887324D01*
X152308000Y-102887324D01*
X152308000Y-104269932D01*
X149729932Y-106848000D01*
X146158970Y-106848000D01*
X146025789Y-106714586D01*
X145685201Y-106573161D01*
X145316417Y-106572839D01*
X144975583Y-106713669D01*
X144714586Y-106974211D01*
X144573161Y-107314799D01*
X144572839Y-107683583D01*
X144713669Y-108024417D01*
X144974211Y-108285414D01*
X145314799Y-108426839D01*
X145683583Y-108427161D01*
X146024417Y-108286331D01*
X146158983Y-108152000D01*
X149999995Y-108152000D01*
X150000000Y-108152001D01*
X150208113Y-108110604D01*
X150249510Y-108102369D01*
X150461034Y-107961034D01*
X153421034Y-105001034D01*
X153562369Y-104789510D01*
X153612000Y-104540000D01*
X153612000Y-102887324D01*
X153810000Y-102887324D01*
X154015625Y-102846423D01*
X154189945Y-102729945D01*
X154306423Y-102555625D01*
X154347324Y-102350000D01*
X154347324Y-100650000D01*
X154337776Y-100602000D01*
X154398000Y-100602000D01*
X154398000Y-110307401D01*
G36*
X144700841Y-114473045D02*
X144596023Y-115000000D01*
X144700841Y-115526955D01*
X144775039Y-115638000D01*
X128633070Y-115638000D01*
X128534036Y-115538966D01*
X128512262Y-115524417D01*
X128322512Y-115397631D01*
X128281115Y-115389396D01*
X128073002Y-115347999D01*
X128072997Y-115348000D01*
X127375167Y-115348000D01*
X127524417Y-115286331D01*
X127785414Y-115025789D01*
X127926839Y-114685201D01*
X127927005Y-114495062D01*
X128020067Y-114402000D01*
X144748312Y-114402000D01*
X144700841Y-114473045D01*
X144700841Y-114473045D01*
G37*
X144700841Y-114473045D02*
X144596023Y-115000000D01*
X144700841Y-115526955D01*
X144775039Y-115638000D01*
X128633070Y-115638000D01*
X128534036Y-115538966D01*
X128512262Y-115524417D01*
X128322512Y-115397631D01*
X128281115Y-115389396D01*
X128073002Y-115347999D01*
X128072997Y-115348000D01*
X127375167Y-115348000D01*
X127524417Y-115286331D01*
X127785414Y-115025789D01*
X127926839Y-114685201D01*
X127927005Y-114495062D01*
X128020067Y-114402000D01*
X144748312Y-114402000D01*
X144700841Y-114473045D01*
M02*
