G04 #@! TF.GenerationSoftware,KiCad,Pcbnew,(2017-05-18 revision 2a3a699)-master*
G04 #@! TF.CreationDate,2017-06-18T12:29:58+03:00*
G04 #@! TF.ProjectId,stm32f072c8tx_breakout,73746D333266303732633874785F6272,rev?*
G04 #@! TF.FileFunction,Copper,L2,Bot,Signal*
G04 #@! TF.FilePolarity,Positive*
%FSLAX46Y46*%
G04 Gerber Fmt 4.6, Leading zero omitted, Abs format (unit mm)*
G04 Created by KiCad (PCBNEW (2017-05-18 revision 2a3a699)-master) date Sun Jun 18 12:29:58 2017*
%MOMM*%
%LPD*%
G01*
G04 APERTURE LIST*
%ADD10C,0.100000*%
%ADD11O,1.550000X1.000000*%
%ADD12O,0.950000X1.250000*%
%ADD13R,1.700000X1.700000*%
%ADD14O,1.700000X1.700000*%
%ADD15C,0.800000*%
%ADD16C,0.250000*%
%ADD17C,0.500000*%
%ADD18C,0.254000*%
G04 APERTURE END LIST*
D10*
D11*
X99650000Y-118500000D03*
X99650000Y-111500000D03*
D12*
X102350000Y-117500000D03*
X102350000Y-112500000D03*
D13*
X152960000Y-128500000D03*
D14*
X150420000Y-128500000D03*
X147880000Y-128500000D03*
X145340000Y-128500000D03*
X142800000Y-128500000D03*
X140260000Y-128500000D03*
X137720000Y-128500000D03*
X135180000Y-128500000D03*
X132640000Y-128500000D03*
X130100000Y-128500000D03*
X127560000Y-128500000D03*
X125020000Y-128500000D03*
X122480000Y-128500000D03*
X119940000Y-128500000D03*
X117400000Y-128500000D03*
X114860000Y-128500000D03*
X112320000Y-128500000D03*
X109780000Y-128500000D03*
X107240000Y-128500000D03*
X104700000Y-128500000D03*
X102160000Y-128500000D03*
X99620000Y-128500000D03*
X99620000Y-101500000D03*
X102160000Y-101500000D03*
X104700000Y-101500000D03*
X107240000Y-101500000D03*
X109780000Y-101500000D03*
X112320000Y-101500000D03*
X114860000Y-101500000D03*
X117400000Y-101500000D03*
X119940000Y-101500000D03*
X122480000Y-101500000D03*
X125020000Y-101500000D03*
X127560000Y-101500000D03*
X130100000Y-101500000D03*
X132640000Y-101500000D03*
X135180000Y-101500000D03*
X137720000Y-101500000D03*
X140260000Y-101500000D03*
X142800000Y-101500000D03*
X145340000Y-101500000D03*
X147880000Y-101500000D03*
X150420000Y-101500000D03*
D13*
X152960000Y-101500000D03*
D14*
X146000000Y-117540000D03*
X146000000Y-115000000D03*
D13*
X146000000Y-112460000D03*
D14*
X153250000Y-111210000D03*
X153250000Y-113750000D03*
X153250000Y-116290000D03*
D13*
X153250000Y-118830000D03*
D15*
X132750000Y-106750000D03*
X120500000Y-115000000D03*
X110000000Y-122500000D03*
X128012657Y-113487338D03*
X124000000Y-114500000D03*
X128000000Y-115250000D03*
X126500000Y-121000000D03*
X114750000Y-109000000D03*
X104000000Y-108750000D03*
X112500000Y-107500000D03*
X128000000Y-116750000D03*
X141000000Y-120000000D03*
X110500000Y-108750000D03*
X111000000Y-115000000D03*
X109250000Y-114250000D03*
X138500000Y-108250000D03*
X145500000Y-107500000D03*
X126746224Y-114503776D03*
X125500000Y-116000000D03*
D16*
X132750000Y-106750000D02*
X136000000Y-110000000D01*
X136000000Y-110000000D02*
X149750000Y-110000000D01*
X131000000Y-105000000D02*
X111250000Y-105000000D01*
X132750000Y-106750000D02*
X131000000Y-105000000D01*
X124000000Y-118500000D02*
X124000000Y-115000000D01*
X124000000Y-115000000D02*
X124000000Y-114500000D01*
X120500000Y-115000000D02*
X124000000Y-115000000D01*
X102160000Y-126840000D02*
X106500000Y-122500000D01*
X106500000Y-122500000D02*
X110000000Y-122500000D01*
X102160000Y-128500000D02*
X102160000Y-126840000D01*
X128000000Y-115250000D02*
X126250000Y-115250000D01*
X126250000Y-115250000D02*
X125750000Y-114750000D01*
X125750000Y-114750000D02*
X125750000Y-113487338D01*
X125012662Y-113487338D02*
X125750000Y-113487338D01*
X125750000Y-113487338D02*
X128012657Y-113487338D01*
X153250000Y-111210000D02*
X150960000Y-111210000D01*
X150960000Y-111210000D02*
X149750000Y-110000000D01*
X124000000Y-114500000D02*
X125012662Y-113487338D01*
X124000000Y-118500000D02*
X126500000Y-121000000D01*
X104000000Y-108750000D02*
X107750000Y-105000000D01*
X107750000Y-105000000D02*
X111250000Y-105000000D01*
X111250000Y-107750000D02*
X111250000Y-105000000D01*
X112100001Y-108600001D02*
X111250000Y-107750000D01*
X114750000Y-109000000D02*
X114350001Y-108600001D01*
X114350001Y-108600001D02*
X112100001Y-108600001D01*
D17*
X129750000Y-107500000D02*
X134710000Y-112460000D01*
X134710000Y-112460000D02*
X146000000Y-112460000D01*
X112500000Y-107500000D02*
X129750000Y-107500000D01*
D16*
X137750000Y-116750000D02*
X128000000Y-116750000D01*
X141000000Y-120000000D02*
X137750000Y-116750000D01*
D17*
X110500000Y-108750000D02*
X107000000Y-112250000D01*
X107000000Y-112250000D02*
X107000000Y-117500000D01*
X107000000Y-117500000D02*
X99620000Y-124880000D01*
X99620000Y-124880000D02*
X99620000Y-128500000D01*
D16*
X127560000Y-126810000D02*
X115750000Y-115000000D01*
X115750000Y-115000000D02*
X111000000Y-115000000D01*
X127560000Y-128500000D02*
X127560000Y-126810000D01*
X125020000Y-128500000D02*
X113270000Y-116750000D01*
X113270000Y-116750000D02*
X110500000Y-116750000D01*
X110500000Y-116750000D02*
X109250000Y-115500000D01*
X109250000Y-115500000D02*
X109250000Y-114250000D01*
X137720000Y-101500000D02*
X137720000Y-107470000D01*
X137720000Y-107470000D02*
X138500000Y-108250000D01*
X145500000Y-107500000D02*
X148750000Y-107500000D01*
X148750000Y-107500000D02*
X152960000Y-103290000D01*
X152960000Y-103290000D02*
X152960000Y-101500000D01*
X153250000Y-113750000D02*
X151750000Y-113750000D01*
X151750000Y-113750000D02*
X151000000Y-114500000D01*
X151000000Y-114500000D02*
X151000000Y-115500000D01*
X147000000Y-119500000D02*
X144500000Y-119500000D01*
X151000000Y-115500000D02*
X147000000Y-119500000D01*
X144500000Y-119500000D02*
X139503776Y-114503776D01*
X139503776Y-114503776D02*
X126746224Y-114503776D01*
X125500000Y-116000000D02*
X139500000Y-116000000D01*
X139500000Y-116000000D02*
X143750000Y-120250000D01*
X147500000Y-120250000D02*
X151460000Y-116290000D01*
X151460000Y-116290000D02*
X153250000Y-116290000D01*
X143750000Y-120250000D02*
X147500000Y-120250000D01*
D18*
G36*
X98642348Y-100751944D02*
X98430499Y-101183018D01*
X98490807Y-101373000D01*
X99493000Y-101373000D01*
X99493000Y-101353000D01*
X99747000Y-101353000D01*
X99747000Y-101373000D01*
X99767000Y-101373000D01*
X99767000Y-101627000D01*
X99747000Y-101627000D01*
X99747000Y-102628627D01*
X99936980Y-102689489D01*
X100236964Y-102565245D01*
X100597652Y-102248056D01*
X100760236Y-101917227D01*
X100795430Y-102094159D01*
X101115603Y-102573333D01*
X101594777Y-102893506D01*
X102160000Y-103005936D01*
X102725223Y-102893506D01*
X103204397Y-102573333D01*
X103430000Y-102235693D01*
X103655603Y-102573333D01*
X104134777Y-102893506D01*
X104700000Y-103005936D01*
X105265223Y-102893506D01*
X105744397Y-102573333D01*
X105970000Y-102235693D01*
X106195603Y-102573333D01*
X106674777Y-102893506D01*
X107240000Y-103005936D01*
X107805223Y-102893506D01*
X108284397Y-102573333D01*
X108510000Y-102235693D01*
X108735603Y-102573333D01*
X109214777Y-102893506D01*
X109780000Y-103005936D01*
X110345223Y-102893506D01*
X110824397Y-102573333D01*
X111050000Y-102235693D01*
X111275603Y-102573333D01*
X111754777Y-102893506D01*
X112320000Y-103005936D01*
X112885223Y-102893506D01*
X113364397Y-102573333D01*
X113590000Y-102235693D01*
X113815603Y-102573333D01*
X114294777Y-102893506D01*
X114860000Y-103005936D01*
X115425223Y-102893506D01*
X115904397Y-102573333D01*
X116130000Y-102235693D01*
X116355603Y-102573333D01*
X116834777Y-102893506D01*
X117400000Y-103005936D01*
X117965223Y-102893506D01*
X118444397Y-102573333D01*
X118670000Y-102235693D01*
X118895603Y-102573333D01*
X119374777Y-102893506D01*
X119940000Y-103005936D01*
X120505223Y-102893506D01*
X120984397Y-102573333D01*
X121210000Y-102235693D01*
X121435603Y-102573333D01*
X121914777Y-102893506D01*
X122480000Y-103005936D01*
X123045223Y-102893506D01*
X123524397Y-102573333D01*
X123750000Y-102235693D01*
X123975603Y-102573333D01*
X124454777Y-102893506D01*
X125020000Y-103005936D01*
X125585223Y-102893506D01*
X126064397Y-102573333D01*
X126290000Y-102235693D01*
X126515603Y-102573333D01*
X126994777Y-102893506D01*
X127560000Y-103005936D01*
X128125223Y-102893506D01*
X128604397Y-102573333D01*
X128830000Y-102235693D01*
X129055603Y-102573333D01*
X129534777Y-102893506D01*
X130100000Y-103005936D01*
X130665223Y-102893506D01*
X131144397Y-102573333D01*
X131370000Y-102235693D01*
X131595603Y-102573333D01*
X132074777Y-102893506D01*
X132640000Y-103005936D01*
X133205223Y-102893506D01*
X133684397Y-102573333D01*
X133910000Y-102235693D01*
X134135603Y-102573333D01*
X134614777Y-102893506D01*
X135180000Y-103005936D01*
X135745223Y-102893506D01*
X136224397Y-102573333D01*
X136450000Y-102235693D01*
X136675603Y-102573333D01*
X137154777Y-102893506D01*
X137214000Y-102905286D01*
X137214000Y-107470000D01*
X137252517Y-107663638D01*
X137362204Y-107827796D01*
X137719057Y-108184649D01*
X137718864Y-108404669D01*
X137837514Y-108691823D01*
X138057021Y-108911714D01*
X138343968Y-109030864D01*
X138654669Y-109031136D01*
X138941823Y-108912486D01*
X139161714Y-108692979D01*
X139280864Y-108406032D01*
X139281136Y-108095331D01*
X139162486Y-107808177D01*
X138942979Y-107588286D01*
X138656032Y-107469136D01*
X138434534Y-107468942D01*
X138226000Y-107260408D01*
X138226000Y-102905286D01*
X138285223Y-102893506D01*
X138764397Y-102573333D01*
X138990000Y-102235693D01*
X139215603Y-102573333D01*
X139694777Y-102893506D01*
X140260000Y-103005936D01*
X140825223Y-102893506D01*
X141304397Y-102573333D01*
X141530000Y-102235693D01*
X141755603Y-102573333D01*
X142234777Y-102893506D01*
X142800000Y-103005936D01*
X143365223Y-102893506D01*
X143844397Y-102573333D01*
X144070000Y-102235693D01*
X144295603Y-102573333D01*
X144774777Y-102893506D01*
X145340000Y-103005936D01*
X145905223Y-102893506D01*
X146384397Y-102573333D01*
X146610000Y-102235693D01*
X146835603Y-102573333D01*
X147314777Y-102893506D01*
X147880000Y-103005936D01*
X148445223Y-102893506D01*
X148924397Y-102573333D01*
X149150000Y-102235693D01*
X149375603Y-102573333D01*
X149854777Y-102893506D01*
X150420000Y-103005936D01*
X150985223Y-102893506D01*
X151464397Y-102573333D01*
X151503500Y-102514811D01*
X151519380Y-102594643D01*
X151657959Y-102802041D01*
X151865357Y-102940620D01*
X152110000Y-102989283D01*
X152454000Y-102989283D01*
X152454000Y-103080408D01*
X148540408Y-106994000D01*
X146098421Y-106994000D01*
X145942979Y-106838286D01*
X145656032Y-106719136D01*
X145345331Y-106718864D01*
X145058177Y-106837514D01*
X144838286Y-107057021D01*
X144719136Y-107343968D01*
X144718864Y-107654669D01*
X144837514Y-107941823D01*
X145057021Y-108161714D01*
X145343968Y-108280864D01*
X145654669Y-108281136D01*
X145941823Y-108162486D01*
X146098583Y-108006000D01*
X148750000Y-108006000D01*
X148943638Y-107967483D01*
X149107796Y-107857796D01*
X153317796Y-103647796D01*
X153427483Y-103483638D01*
X153466000Y-103290000D01*
X153466000Y-102989283D01*
X153810000Y-102989283D01*
X154054643Y-102940620D01*
X154262041Y-102802041D01*
X154400620Y-102594643D01*
X154449283Y-102350000D01*
X154449283Y-100650000D01*
X154410694Y-100456000D01*
X154544000Y-100456000D01*
X154544000Y-113035855D01*
X154323333Y-112705603D01*
X153844159Y-112385430D01*
X153667227Y-112350236D01*
X153998056Y-112187652D01*
X154315245Y-111826964D01*
X154439489Y-111526980D01*
X154378627Y-111337000D01*
X153377000Y-111337000D01*
X153377000Y-111357000D01*
X153123000Y-111357000D01*
X153123000Y-111337000D01*
X152121373Y-111337000D01*
X152060511Y-111526980D01*
X152184755Y-111826964D01*
X152501944Y-112187652D01*
X152832773Y-112350236D01*
X152655841Y-112385430D01*
X152176667Y-112705603D01*
X151856494Y-113184777D01*
X151844714Y-113244000D01*
X151750000Y-113244000D01*
X151556362Y-113282517D01*
X151392204Y-113392204D01*
X150642204Y-114142204D01*
X150532517Y-114306362D01*
X150494000Y-114500000D01*
X150494000Y-115290408D01*
X146790408Y-118994000D01*
X144709592Y-118994000D01*
X143572572Y-117856980D01*
X144810511Y-117856980D01*
X144934755Y-118156964D01*
X145251944Y-118517652D01*
X145683018Y-118729501D01*
X145873000Y-118669193D01*
X145873000Y-117667000D01*
X146127000Y-117667000D01*
X146127000Y-118669193D01*
X146316982Y-118729501D01*
X146748056Y-118517652D01*
X147065245Y-118156964D01*
X147189489Y-117856980D01*
X147128627Y-117667000D01*
X146127000Y-117667000D01*
X145873000Y-117667000D01*
X144871373Y-117667000D01*
X144810511Y-117856980D01*
X143572572Y-117856980D01*
X139861572Y-114145980D01*
X139697414Y-114036293D01*
X139503776Y-113997776D01*
X127344645Y-113997776D01*
X127189203Y-113842062D01*
X126902256Y-113722912D01*
X126591555Y-113722640D01*
X126304401Y-113841290D01*
X126084510Y-114060797D01*
X125965360Y-114347744D01*
X125965088Y-114658445D01*
X126083738Y-114945599D01*
X126303245Y-115165490D01*
X126590192Y-115284640D01*
X126900893Y-115284912D01*
X127188047Y-115166262D01*
X127344807Y-115009776D01*
X139294184Y-115009776D01*
X144028408Y-119744000D01*
X143959592Y-119744000D01*
X139857796Y-115642204D01*
X139693638Y-115532517D01*
X139500000Y-115494000D01*
X126098421Y-115494000D01*
X125942979Y-115338286D01*
X125656032Y-115219136D01*
X125345331Y-115218864D01*
X125058177Y-115337514D01*
X124838286Y-115557021D01*
X124719136Y-115843968D01*
X124718864Y-116154669D01*
X124837514Y-116441823D01*
X125057021Y-116661714D01*
X125343968Y-116780864D01*
X125654669Y-116781136D01*
X125941823Y-116662486D01*
X126098583Y-116506000D01*
X127255663Y-116506000D01*
X127219136Y-116593968D01*
X127218864Y-116904669D01*
X127337514Y-117191823D01*
X127557021Y-117411714D01*
X127843968Y-117530864D01*
X128154669Y-117531136D01*
X128441823Y-117412486D01*
X128598583Y-117256000D01*
X137540408Y-117256000D01*
X140219057Y-119934649D01*
X140218864Y-120154669D01*
X140337514Y-120441823D01*
X140557021Y-120661714D01*
X140843968Y-120780864D01*
X141154669Y-120781136D01*
X141441823Y-120662486D01*
X141661714Y-120442979D01*
X141780864Y-120156032D01*
X141781136Y-119845331D01*
X141662486Y-119558177D01*
X141442979Y-119338286D01*
X141156032Y-119219136D01*
X140934534Y-119218942D01*
X138221592Y-116506000D01*
X139290408Y-116506000D01*
X143392204Y-120607796D01*
X143556362Y-120717483D01*
X143750000Y-120756000D01*
X147500000Y-120756000D01*
X147693638Y-120717483D01*
X147857796Y-120607796D01*
X151669592Y-116796000D01*
X151844714Y-116796000D01*
X151856494Y-116855223D01*
X152176667Y-117334397D01*
X152235189Y-117373500D01*
X152155357Y-117389380D01*
X151947959Y-117527959D01*
X151809380Y-117735357D01*
X151760717Y-117980000D01*
X151760717Y-119680000D01*
X151809380Y-119924643D01*
X151947959Y-120132041D01*
X152155357Y-120270620D01*
X152400000Y-120319283D01*
X154100000Y-120319283D01*
X154344643Y-120270620D01*
X154544000Y-120137414D01*
X154544000Y-129544000D01*
X154410694Y-129544000D01*
X154449283Y-129350000D01*
X154449283Y-127650000D01*
X154400620Y-127405357D01*
X154262041Y-127197959D01*
X154054643Y-127059380D01*
X153810000Y-127010717D01*
X152110000Y-127010717D01*
X151865357Y-127059380D01*
X151657959Y-127197959D01*
X151519380Y-127405357D01*
X151470717Y-127650000D01*
X151470717Y-127900618D01*
X151397652Y-127751944D01*
X151036964Y-127434755D01*
X150736980Y-127310511D01*
X150547000Y-127371373D01*
X150547000Y-128373000D01*
X150567000Y-128373000D01*
X150567000Y-128627000D01*
X150547000Y-128627000D01*
X150547000Y-128647000D01*
X150293000Y-128647000D01*
X150293000Y-128627000D01*
X150273000Y-128627000D01*
X150273000Y-128373000D01*
X150293000Y-128373000D01*
X150293000Y-127371373D01*
X150103020Y-127310511D01*
X149803036Y-127434755D01*
X149442348Y-127751944D01*
X149279764Y-128082773D01*
X149244570Y-127905841D01*
X148924397Y-127426667D01*
X148445223Y-127106494D01*
X147880000Y-126994064D01*
X147314777Y-127106494D01*
X146835603Y-127426667D01*
X146610000Y-127764307D01*
X146384397Y-127426667D01*
X145905223Y-127106494D01*
X145340000Y-126994064D01*
X144774777Y-127106494D01*
X144295603Y-127426667D01*
X144070000Y-127764307D01*
X143844397Y-127426667D01*
X143365223Y-127106494D01*
X142800000Y-126994064D01*
X142234777Y-127106494D01*
X141755603Y-127426667D01*
X141530000Y-127764307D01*
X141304397Y-127426667D01*
X140825223Y-127106494D01*
X140260000Y-126994064D01*
X139694777Y-127106494D01*
X139215603Y-127426667D01*
X138990000Y-127764307D01*
X138764397Y-127426667D01*
X138285223Y-127106494D01*
X137720000Y-126994064D01*
X137154777Y-127106494D01*
X136675603Y-127426667D01*
X136450000Y-127764307D01*
X136224397Y-127426667D01*
X135745223Y-127106494D01*
X135180000Y-126994064D01*
X134614777Y-127106494D01*
X134135603Y-127426667D01*
X133910000Y-127764307D01*
X133684397Y-127426667D01*
X133205223Y-127106494D01*
X132640000Y-126994064D01*
X132074777Y-127106494D01*
X131595603Y-127426667D01*
X131370000Y-127764307D01*
X131144397Y-127426667D01*
X130665223Y-127106494D01*
X130100000Y-126994064D01*
X129534777Y-127106494D01*
X129055603Y-127426667D01*
X128830000Y-127764307D01*
X128604397Y-127426667D01*
X128125223Y-127106494D01*
X128066000Y-127094714D01*
X128066000Y-126810000D01*
X128027483Y-126616362D01*
X127917796Y-126452204D01*
X116107796Y-114642204D01*
X115943638Y-114532517D01*
X115750000Y-114494000D01*
X111598421Y-114494000D01*
X111442979Y-114338286D01*
X111156032Y-114219136D01*
X110845331Y-114218864D01*
X110558177Y-114337514D01*
X110338286Y-114557021D01*
X110219136Y-114843968D01*
X110218864Y-115154669D01*
X110337514Y-115441823D01*
X110557021Y-115661714D01*
X110843968Y-115780864D01*
X111154669Y-115781136D01*
X111441823Y-115662486D01*
X111598583Y-115506000D01*
X115540408Y-115506000D01*
X127054000Y-127019592D01*
X127054000Y-127094714D01*
X126994777Y-127106494D01*
X126515603Y-127426667D01*
X126290000Y-127764307D01*
X126064397Y-127426667D01*
X125585223Y-127106494D01*
X125020000Y-126994064D01*
X124454777Y-127106494D01*
X124387224Y-127151632D01*
X113627796Y-116392204D01*
X113463638Y-116282517D01*
X113270000Y-116244000D01*
X110709592Y-116244000D01*
X109756000Y-115290408D01*
X109756000Y-114848421D01*
X109911714Y-114692979D01*
X110030864Y-114406032D01*
X110031136Y-114095331D01*
X109912486Y-113808177D01*
X109692979Y-113588286D01*
X109406032Y-113469136D01*
X109095331Y-113468864D01*
X108808177Y-113587514D01*
X108588286Y-113807021D01*
X108469136Y-114093968D01*
X108468864Y-114404669D01*
X108587514Y-114691823D01*
X108744000Y-114848583D01*
X108744000Y-115500000D01*
X108782517Y-115693638D01*
X108892204Y-115857796D01*
X110142204Y-117107796D01*
X110306362Y-117217483D01*
X110500000Y-117256000D01*
X113060408Y-117256000D01*
X122877550Y-127073142D01*
X122480000Y-126994064D01*
X121914777Y-127106494D01*
X121435603Y-127426667D01*
X121210000Y-127764307D01*
X120984397Y-127426667D01*
X120505223Y-127106494D01*
X119940000Y-126994064D01*
X119374777Y-127106494D01*
X118895603Y-127426667D01*
X118670000Y-127764307D01*
X118444397Y-127426667D01*
X117965223Y-127106494D01*
X117400000Y-126994064D01*
X116834777Y-127106494D01*
X116355603Y-127426667D01*
X116130000Y-127764307D01*
X115904397Y-127426667D01*
X115425223Y-127106494D01*
X114860000Y-126994064D01*
X114294777Y-127106494D01*
X113815603Y-127426667D01*
X113590000Y-127764307D01*
X113364397Y-127426667D01*
X112885223Y-127106494D01*
X112320000Y-126994064D01*
X111754777Y-127106494D01*
X111275603Y-127426667D01*
X111050000Y-127764307D01*
X110824397Y-127426667D01*
X110345223Y-127106494D01*
X109780000Y-126994064D01*
X109214777Y-127106494D01*
X108735603Y-127426667D01*
X108510000Y-127764307D01*
X108284397Y-127426667D01*
X107805223Y-127106494D01*
X107240000Y-126994064D01*
X106674777Y-127106494D01*
X106195603Y-127426667D01*
X105970000Y-127764307D01*
X105744397Y-127426667D01*
X105265223Y-127106494D01*
X104700000Y-126994064D01*
X104134777Y-127106494D01*
X103655603Y-127426667D01*
X103335430Y-127905841D01*
X103300236Y-128082773D01*
X103137652Y-127751944D01*
X102776964Y-127434755D01*
X102476980Y-127310511D01*
X102287000Y-127371373D01*
X102287000Y-128373000D01*
X102307000Y-128373000D01*
X102307000Y-128627000D01*
X102287000Y-128627000D01*
X102287000Y-128647000D01*
X102033000Y-128647000D01*
X102033000Y-128627000D01*
X102013000Y-128627000D01*
X102013000Y-128373000D01*
X102033000Y-128373000D01*
X102033000Y-127371373D01*
X101843020Y-127310511D01*
X101543036Y-127434755D01*
X101182348Y-127751944D01*
X101019764Y-128082773D01*
X100984570Y-127905841D01*
X100664397Y-127426667D01*
X100251000Y-127150445D01*
X100251000Y-125141368D01*
X107446184Y-117946184D01*
X107582968Y-117741473D01*
X107584323Y-117734663D01*
X107631000Y-117500000D01*
X107631000Y-112511368D01*
X110611271Y-109531098D01*
X110654669Y-109531136D01*
X110941823Y-109412486D01*
X111161714Y-109192979D01*
X111280864Y-108906032D01*
X111281136Y-108595331D01*
X111162486Y-108308177D01*
X110942979Y-108088286D01*
X110656032Y-107969136D01*
X110345331Y-107968864D01*
X110058177Y-108087514D01*
X109838286Y-108307021D01*
X109719136Y-108593968D01*
X109719097Y-108638534D01*
X106553816Y-111803816D01*
X106417032Y-112008527D01*
X106369000Y-112250000D01*
X106369000Y-117238632D01*
X99173816Y-124433816D01*
X99037032Y-124638527D01*
X98989000Y-124880000D01*
X98989000Y-127150445D01*
X98575603Y-127426667D01*
X98255430Y-127905841D01*
X98206000Y-128154342D01*
X98206000Y-118761816D01*
X98533802Y-118761816D01*
X98662236Y-119033158D01*
X98920523Y-119265337D01*
X99248000Y-119381000D01*
X99523000Y-119381000D01*
X99523000Y-118627000D01*
X99777000Y-118627000D01*
X99777000Y-119381000D01*
X100052000Y-119381000D01*
X100379477Y-119265337D01*
X100637764Y-119033158D01*
X100766198Y-118761816D01*
X100700419Y-118627000D01*
X99777000Y-118627000D01*
X99523000Y-118627000D01*
X98599581Y-118627000D01*
X98533802Y-118761816D01*
X98206000Y-118761816D01*
X98206000Y-118238184D01*
X98533802Y-118238184D01*
X98599581Y-118373000D01*
X99523000Y-118373000D01*
X99523000Y-117619000D01*
X99777000Y-117619000D01*
X99777000Y-118373000D01*
X100700419Y-118373000D01*
X100766198Y-118238184D01*
X100637764Y-117966842D01*
X100409284Y-117761457D01*
X101499261Y-117761457D01*
X101606672Y-118078537D01*
X101827248Y-118330376D01*
X102092138Y-118466237D01*
X102223000Y-118400074D01*
X102223000Y-117627000D01*
X102477000Y-117627000D01*
X102477000Y-118400074D01*
X102607862Y-118466237D01*
X102872752Y-118330376D01*
X103093328Y-118078537D01*
X103200739Y-117761457D01*
X103112451Y-117627000D01*
X102477000Y-117627000D01*
X102223000Y-117627000D01*
X101587549Y-117627000D01*
X101499261Y-117761457D01*
X100409284Y-117761457D01*
X100379477Y-117734663D01*
X100052000Y-117619000D01*
X99777000Y-117619000D01*
X99523000Y-117619000D01*
X99248000Y-117619000D01*
X98920523Y-117734663D01*
X98662236Y-117966842D01*
X98533802Y-118238184D01*
X98206000Y-118238184D01*
X98206000Y-117238543D01*
X101499261Y-117238543D01*
X101587549Y-117373000D01*
X102223000Y-117373000D01*
X102223000Y-116599926D01*
X102477000Y-116599926D01*
X102477000Y-117373000D01*
X103112451Y-117373000D01*
X103200739Y-117238543D01*
X103093328Y-116921463D01*
X102872752Y-116669624D01*
X102607862Y-116533763D01*
X102477000Y-116599926D01*
X102223000Y-116599926D01*
X102092138Y-116533763D01*
X101827248Y-116669624D01*
X101606672Y-116921463D01*
X101499261Y-117238543D01*
X98206000Y-117238543D01*
X98206000Y-112761457D01*
X101499261Y-112761457D01*
X101606672Y-113078537D01*
X101827248Y-113330376D01*
X102092138Y-113466237D01*
X102223000Y-113400074D01*
X102223000Y-112627000D01*
X102477000Y-112627000D01*
X102477000Y-113400074D01*
X102607862Y-113466237D01*
X102872752Y-113330376D01*
X103093328Y-113078537D01*
X103200739Y-112761457D01*
X103112451Y-112627000D01*
X102477000Y-112627000D01*
X102223000Y-112627000D01*
X101587549Y-112627000D01*
X101499261Y-112761457D01*
X98206000Y-112761457D01*
X98206000Y-111761816D01*
X98533802Y-111761816D01*
X98662236Y-112033158D01*
X98920523Y-112265337D01*
X99248000Y-112381000D01*
X99523000Y-112381000D01*
X99523000Y-111627000D01*
X99777000Y-111627000D01*
X99777000Y-112381000D01*
X100052000Y-112381000D01*
X100379477Y-112265337D01*
X100409283Y-112238543D01*
X101499261Y-112238543D01*
X101587549Y-112373000D01*
X102223000Y-112373000D01*
X102223000Y-111599926D01*
X102477000Y-111599926D01*
X102477000Y-112373000D01*
X103112451Y-112373000D01*
X103200739Y-112238543D01*
X103093328Y-111921463D01*
X102872752Y-111669624D01*
X102607862Y-111533763D01*
X102477000Y-111599926D01*
X102223000Y-111599926D01*
X102092138Y-111533763D01*
X101827248Y-111669624D01*
X101606672Y-111921463D01*
X101499261Y-112238543D01*
X100409283Y-112238543D01*
X100637764Y-112033158D01*
X100766198Y-111761816D01*
X100700419Y-111627000D01*
X99777000Y-111627000D01*
X99523000Y-111627000D01*
X98599581Y-111627000D01*
X98533802Y-111761816D01*
X98206000Y-111761816D01*
X98206000Y-111238184D01*
X98533802Y-111238184D01*
X98599581Y-111373000D01*
X99523000Y-111373000D01*
X99523000Y-110619000D01*
X99777000Y-110619000D01*
X99777000Y-111373000D01*
X100700419Y-111373000D01*
X100766198Y-111238184D01*
X100637764Y-110966842D01*
X100379477Y-110734663D01*
X100052000Y-110619000D01*
X99777000Y-110619000D01*
X99523000Y-110619000D01*
X99248000Y-110619000D01*
X98920523Y-110734663D01*
X98662236Y-110966842D01*
X98533802Y-111238184D01*
X98206000Y-111238184D01*
X98206000Y-107654669D01*
X111718864Y-107654669D01*
X111837514Y-107941823D01*
X112057021Y-108161714D01*
X112343968Y-108280864D01*
X112654669Y-108281136D01*
X112941823Y-108162486D01*
X112973364Y-108131000D01*
X129488632Y-108131000D01*
X134263815Y-112906184D01*
X134468526Y-113042968D01*
X134508589Y-113050937D01*
X134710000Y-113091000D01*
X144510717Y-113091000D01*
X144510717Y-113310000D01*
X144559380Y-113554643D01*
X144697959Y-113762041D01*
X144905357Y-113900620D01*
X144985189Y-113916500D01*
X144926667Y-113955603D01*
X144606494Y-114434777D01*
X144494064Y-115000000D01*
X144606494Y-115565223D01*
X144926667Y-116044397D01*
X145405841Y-116364570D01*
X145582773Y-116399764D01*
X145251944Y-116562348D01*
X144934755Y-116923036D01*
X144810511Y-117223020D01*
X144871373Y-117413000D01*
X145873000Y-117413000D01*
X145873000Y-117393000D01*
X146127000Y-117393000D01*
X146127000Y-117413000D01*
X147128627Y-117413000D01*
X147189489Y-117223020D01*
X147065245Y-116923036D01*
X146748056Y-116562348D01*
X146417227Y-116399764D01*
X146594159Y-116364570D01*
X147073333Y-116044397D01*
X147393506Y-115565223D01*
X147505936Y-115000000D01*
X147393506Y-114434777D01*
X147073333Y-113955603D01*
X147014811Y-113916500D01*
X147094643Y-113900620D01*
X147302041Y-113762041D01*
X147440620Y-113554643D01*
X147489283Y-113310000D01*
X147489283Y-111610000D01*
X147440620Y-111365357D01*
X147302041Y-111157959D01*
X147094643Y-111019380D01*
X146850000Y-110970717D01*
X145150000Y-110970717D01*
X144905357Y-111019380D01*
X144697959Y-111157959D01*
X144559380Y-111365357D01*
X144510717Y-111610000D01*
X144510717Y-111829000D01*
X134971369Y-111829000D01*
X134035389Y-110893020D01*
X152060511Y-110893020D01*
X152121373Y-111083000D01*
X153123000Y-111083000D01*
X153123000Y-110080807D01*
X153377000Y-110080807D01*
X153377000Y-111083000D01*
X154378627Y-111083000D01*
X154439489Y-110893020D01*
X154315245Y-110593036D01*
X153998056Y-110232348D01*
X153566982Y-110020499D01*
X153377000Y-110080807D01*
X153123000Y-110080807D01*
X152933018Y-110020499D01*
X152501944Y-110232348D01*
X152184755Y-110593036D01*
X152060511Y-110893020D01*
X134035389Y-110893020D01*
X130196184Y-107053816D01*
X129991473Y-106917032D01*
X129750000Y-106869000D01*
X112973639Y-106869000D01*
X112942979Y-106838286D01*
X112656032Y-106719136D01*
X112345331Y-106718864D01*
X112058177Y-106837514D01*
X111838286Y-107057021D01*
X111719136Y-107343968D01*
X111718864Y-107654669D01*
X98206000Y-107654669D01*
X98206000Y-101816982D01*
X98430499Y-101816982D01*
X98642348Y-102248056D01*
X99003036Y-102565245D01*
X99303020Y-102689489D01*
X99493000Y-102628627D01*
X99493000Y-101627000D01*
X98490807Y-101627000D01*
X98430499Y-101816982D01*
X98206000Y-101816982D01*
X98206000Y-100456000D01*
X98978877Y-100456000D01*
X98642348Y-100751944D01*
X98642348Y-100751944D01*
G37*
X98642348Y-100751944D02*
X98430499Y-101183018D01*
X98490807Y-101373000D01*
X99493000Y-101373000D01*
X99493000Y-101353000D01*
X99747000Y-101353000D01*
X99747000Y-101373000D01*
X99767000Y-101373000D01*
X99767000Y-101627000D01*
X99747000Y-101627000D01*
X99747000Y-102628627D01*
X99936980Y-102689489D01*
X100236964Y-102565245D01*
X100597652Y-102248056D01*
X100760236Y-101917227D01*
X100795430Y-102094159D01*
X101115603Y-102573333D01*
X101594777Y-102893506D01*
X102160000Y-103005936D01*
X102725223Y-102893506D01*
X103204397Y-102573333D01*
X103430000Y-102235693D01*
X103655603Y-102573333D01*
X104134777Y-102893506D01*
X104700000Y-103005936D01*
X105265223Y-102893506D01*
X105744397Y-102573333D01*
X105970000Y-102235693D01*
X106195603Y-102573333D01*
X106674777Y-102893506D01*
X107240000Y-103005936D01*
X107805223Y-102893506D01*
X108284397Y-102573333D01*
X108510000Y-102235693D01*
X108735603Y-102573333D01*
X109214777Y-102893506D01*
X109780000Y-103005936D01*
X110345223Y-102893506D01*
X110824397Y-102573333D01*
X111050000Y-102235693D01*
X111275603Y-102573333D01*
X111754777Y-102893506D01*
X112320000Y-103005936D01*
X112885223Y-102893506D01*
X113364397Y-102573333D01*
X113590000Y-102235693D01*
X113815603Y-102573333D01*
X114294777Y-102893506D01*
X114860000Y-103005936D01*
X115425223Y-102893506D01*
X115904397Y-102573333D01*
X116130000Y-102235693D01*
X116355603Y-102573333D01*
X116834777Y-102893506D01*
X117400000Y-103005936D01*
X117965223Y-102893506D01*
X118444397Y-102573333D01*
X118670000Y-102235693D01*
X118895603Y-102573333D01*
X119374777Y-102893506D01*
X119940000Y-103005936D01*
X120505223Y-102893506D01*
X120984397Y-102573333D01*
X121210000Y-102235693D01*
X121435603Y-102573333D01*
X121914777Y-102893506D01*
X122480000Y-103005936D01*
X123045223Y-102893506D01*
X123524397Y-102573333D01*
X123750000Y-102235693D01*
X123975603Y-102573333D01*
X124454777Y-102893506D01*
X125020000Y-103005936D01*
X125585223Y-102893506D01*
X126064397Y-102573333D01*
X126290000Y-102235693D01*
X126515603Y-102573333D01*
X126994777Y-102893506D01*
X127560000Y-103005936D01*
X128125223Y-102893506D01*
X128604397Y-102573333D01*
X128830000Y-102235693D01*
X129055603Y-102573333D01*
X129534777Y-102893506D01*
X130100000Y-103005936D01*
X130665223Y-102893506D01*
X131144397Y-102573333D01*
X131370000Y-102235693D01*
X131595603Y-102573333D01*
X132074777Y-102893506D01*
X132640000Y-103005936D01*
X133205223Y-102893506D01*
X133684397Y-102573333D01*
X133910000Y-102235693D01*
X134135603Y-102573333D01*
X134614777Y-102893506D01*
X135180000Y-103005936D01*
X135745223Y-102893506D01*
X136224397Y-102573333D01*
X136450000Y-102235693D01*
X136675603Y-102573333D01*
X137154777Y-102893506D01*
X137214000Y-102905286D01*
X137214000Y-107470000D01*
X137252517Y-107663638D01*
X137362204Y-107827796D01*
X137719057Y-108184649D01*
X137718864Y-108404669D01*
X137837514Y-108691823D01*
X138057021Y-108911714D01*
X138343968Y-109030864D01*
X138654669Y-109031136D01*
X138941823Y-108912486D01*
X139161714Y-108692979D01*
X139280864Y-108406032D01*
X139281136Y-108095331D01*
X139162486Y-107808177D01*
X138942979Y-107588286D01*
X138656032Y-107469136D01*
X138434534Y-107468942D01*
X138226000Y-107260408D01*
X138226000Y-102905286D01*
X138285223Y-102893506D01*
X138764397Y-102573333D01*
X138990000Y-102235693D01*
X139215603Y-102573333D01*
X139694777Y-102893506D01*
X140260000Y-103005936D01*
X140825223Y-102893506D01*
X141304397Y-102573333D01*
X141530000Y-102235693D01*
X141755603Y-102573333D01*
X142234777Y-102893506D01*
X142800000Y-103005936D01*
X143365223Y-102893506D01*
X143844397Y-102573333D01*
X144070000Y-102235693D01*
X144295603Y-102573333D01*
X144774777Y-102893506D01*
X145340000Y-103005936D01*
X145905223Y-102893506D01*
X146384397Y-102573333D01*
X146610000Y-102235693D01*
X146835603Y-102573333D01*
X147314777Y-102893506D01*
X147880000Y-103005936D01*
X148445223Y-102893506D01*
X148924397Y-102573333D01*
X149150000Y-102235693D01*
X149375603Y-102573333D01*
X149854777Y-102893506D01*
X150420000Y-103005936D01*
X150985223Y-102893506D01*
X151464397Y-102573333D01*
X151503500Y-102514811D01*
X151519380Y-102594643D01*
X151657959Y-102802041D01*
X151865357Y-102940620D01*
X152110000Y-102989283D01*
X152454000Y-102989283D01*
X152454000Y-103080408D01*
X148540408Y-106994000D01*
X146098421Y-106994000D01*
X145942979Y-106838286D01*
X145656032Y-106719136D01*
X145345331Y-106718864D01*
X145058177Y-106837514D01*
X144838286Y-107057021D01*
X144719136Y-107343968D01*
X144718864Y-107654669D01*
X144837514Y-107941823D01*
X145057021Y-108161714D01*
X145343968Y-108280864D01*
X145654669Y-108281136D01*
X145941823Y-108162486D01*
X146098583Y-108006000D01*
X148750000Y-108006000D01*
X148943638Y-107967483D01*
X149107796Y-107857796D01*
X153317796Y-103647796D01*
X153427483Y-103483638D01*
X153466000Y-103290000D01*
X153466000Y-102989283D01*
X153810000Y-102989283D01*
X154054643Y-102940620D01*
X154262041Y-102802041D01*
X154400620Y-102594643D01*
X154449283Y-102350000D01*
X154449283Y-100650000D01*
X154410694Y-100456000D01*
X154544000Y-100456000D01*
X154544000Y-113035855D01*
X154323333Y-112705603D01*
X153844159Y-112385430D01*
X153667227Y-112350236D01*
X153998056Y-112187652D01*
X154315245Y-111826964D01*
X154439489Y-111526980D01*
X154378627Y-111337000D01*
X153377000Y-111337000D01*
X153377000Y-111357000D01*
X153123000Y-111357000D01*
X153123000Y-111337000D01*
X152121373Y-111337000D01*
X152060511Y-111526980D01*
X152184755Y-111826964D01*
X152501944Y-112187652D01*
X152832773Y-112350236D01*
X152655841Y-112385430D01*
X152176667Y-112705603D01*
X151856494Y-113184777D01*
X151844714Y-113244000D01*
X151750000Y-113244000D01*
X151556362Y-113282517D01*
X151392204Y-113392204D01*
X150642204Y-114142204D01*
X150532517Y-114306362D01*
X150494000Y-114500000D01*
X150494000Y-115290408D01*
X146790408Y-118994000D01*
X144709592Y-118994000D01*
X143572572Y-117856980D01*
X144810511Y-117856980D01*
X144934755Y-118156964D01*
X145251944Y-118517652D01*
X145683018Y-118729501D01*
X145873000Y-118669193D01*
X145873000Y-117667000D01*
X146127000Y-117667000D01*
X146127000Y-118669193D01*
X146316982Y-118729501D01*
X146748056Y-118517652D01*
X147065245Y-118156964D01*
X147189489Y-117856980D01*
X147128627Y-117667000D01*
X146127000Y-117667000D01*
X145873000Y-117667000D01*
X144871373Y-117667000D01*
X144810511Y-117856980D01*
X143572572Y-117856980D01*
X139861572Y-114145980D01*
X139697414Y-114036293D01*
X139503776Y-113997776D01*
X127344645Y-113997776D01*
X127189203Y-113842062D01*
X126902256Y-113722912D01*
X126591555Y-113722640D01*
X126304401Y-113841290D01*
X126084510Y-114060797D01*
X125965360Y-114347744D01*
X125965088Y-114658445D01*
X126083738Y-114945599D01*
X126303245Y-115165490D01*
X126590192Y-115284640D01*
X126900893Y-115284912D01*
X127188047Y-115166262D01*
X127344807Y-115009776D01*
X139294184Y-115009776D01*
X144028408Y-119744000D01*
X143959592Y-119744000D01*
X139857796Y-115642204D01*
X139693638Y-115532517D01*
X139500000Y-115494000D01*
X126098421Y-115494000D01*
X125942979Y-115338286D01*
X125656032Y-115219136D01*
X125345331Y-115218864D01*
X125058177Y-115337514D01*
X124838286Y-115557021D01*
X124719136Y-115843968D01*
X124718864Y-116154669D01*
X124837514Y-116441823D01*
X125057021Y-116661714D01*
X125343968Y-116780864D01*
X125654669Y-116781136D01*
X125941823Y-116662486D01*
X126098583Y-116506000D01*
X127255663Y-116506000D01*
X127219136Y-116593968D01*
X127218864Y-116904669D01*
X127337514Y-117191823D01*
X127557021Y-117411714D01*
X127843968Y-117530864D01*
X128154669Y-117531136D01*
X128441823Y-117412486D01*
X128598583Y-117256000D01*
X137540408Y-117256000D01*
X140219057Y-119934649D01*
X140218864Y-120154669D01*
X140337514Y-120441823D01*
X140557021Y-120661714D01*
X140843968Y-120780864D01*
X141154669Y-120781136D01*
X141441823Y-120662486D01*
X141661714Y-120442979D01*
X141780864Y-120156032D01*
X141781136Y-119845331D01*
X141662486Y-119558177D01*
X141442979Y-119338286D01*
X141156032Y-119219136D01*
X140934534Y-119218942D01*
X138221592Y-116506000D01*
X139290408Y-116506000D01*
X143392204Y-120607796D01*
X143556362Y-120717483D01*
X143750000Y-120756000D01*
X147500000Y-120756000D01*
X147693638Y-120717483D01*
X147857796Y-120607796D01*
X151669592Y-116796000D01*
X151844714Y-116796000D01*
X151856494Y-116855223D01*
X152176667Y-117334397D01*
X152235189Y-117373500D01*
X152155357Y-117389380D01*
X151947959Y-117527959D01*
X151809380Y-117735357D01*
X151760717Y-117980000D01*
X151760717Y-119680000D01*
X151809380Y-119924643D01*
X151947959Y-120132041D01*
X152155357Y-120270620D01*
X152400000Y-120319283D01*
X154100000Y-120319283D01*
X154344643Y-120270620D01*
X154544000Y-120137414D01*
X154544000Y-129544000D01*
X154410694Y-129544000D01*
X154449283Y-129350000D01*
X154449283Y-127650000D01*
X154400620Y-127405357D01*
X154262041Y-127197959D01*
X154054643Y-127059380D01*
X153810000Y-127010717D01*
X152110000Y-127010717D01*
X151865357Y-127059380D01*
X151657959Y-127197959D01*
X151519380Y-127405357D01*
X151470717Y-127650000D01*
X151470717Y-127900618D01*
X151397652Y-127751944D01*
X151036964Y-127434755D01*
X150736980Y-127310511D01*
X150547000Y-127371373D01*
X150547000Y-128373000D01*
X150567000Y-128373000D01*
X150567000Y-128627000D01*
X150547000Y-128627000D01*
X150547000Y-128647000D01*
X150293000Y-128647000D01*
X150293000Y-128627000D01*
X150273000Y-128627000D01*
X150273000Y-128373000D01*
X150293000Y-128373000D01*
X150293000Y-127371373D01*
X150103020Y-127310511D01*
X149803036Y-127434755D01*
X149442348Y-127751944D01*
X149279764Y-128082773D01*
X149244570Y-127905841D01*
X148924397Y-127426667D01*
X148445223Y-127106494D01*
X147880000Y-126994064D01*
X147314777Y-127106494D01*
X146835603Y-127426667D01*
X146610000Y-127764307D01*
X146384397Y-127426667D01*
X145905223Y-127106494D01*
X145340000Y-126994064D01*
X144774777Y-127106494D01*
X144295603Y-127426667D01*
X144070000Y-127764307D01*
X143844397Y-127426667D01*
X143365223Y-127106494D01*
X142800000Y-126994064D01*
X142234777Y-127106494D01*
X141755603Y-127426667D01*
X141530000Y-127764307D01*
X141304397Y-127426667D01*
X140825223Y-127106494D01*
X140260000Y-126994064D01*
X139694777Y-127106494D01*
X139215603Y-127426667D01*
X138990000Y-127764307D01*
X138764397Y-127426667D01*
X138285223Y-127106494D01*
X137720000Y-126994064D01*
X137154777Y-127106494D01*
X136675603Y-127426667D01*
X136450000Y-127764307D01*
X136224397Y-127426667D01*
X135745223Y-127106494D01*
X135180000Y-126994064D01*
X134614777Y-127106494D01*
X134135603Y-127426667D01*
X133910000Y-127764307D01*
X133684397Y-127426667D01*
X133205223Y-127106494D01*
X132640000Y-126994064D01*
X132074777Y-127106494D01*
X131595603Y-127426667D01*
X131370000Y-127764307D01*
X131144397Y-127426667D01*
X130665223Y-127106494D01*
X130100000Y-126994064D01*
X129534777Y-127106494D01*
X129055603Y-127426667D01*
X128830000Y-127764307D01*
X128604397Y-127426667D01*
X128125223Y-127106494D01*
X128066000Y-127094714D01*
X128066000Y-126810000D01*
X128027483Y-126616362D01*
X127917796Y-126452204D01*
X116107796Y-114642204D01*
X115943638Y-114532517D01*
X115750000Y-114494000D01*
X111598421Y-114494000D01*
X111442979Y-114338286D01*
X111156032Y-114219136D01*
X110845331Y-114218864D01*
X110558177Y-114337514D01*
X110338286Y-114557021D01*
X110219136Y-114843968D01*
X110218864Y-115154669D01*
X110337514Y-115441823D01*
X110557021Y-115661714D01*
X110843968Y-115780864D01*
X111154669Y-115781136D01*
X111441823Y-115662486D01*
X111598583Y-115506000D01*
X115540408Y-115506000D01*
X127054000Y-127019592D01*
X127054000Y-127094714D01*
X126994777Y-127106494D01*
X126515603Y-127426667D01*
X126290000Y-127764307D01*
X126064397Y-127426667D01*
X125585223Y-127106494D01*
X125020000Y-126994064D01*
X124454777Y-127106494D01*
X124387224Y-127151632D01*
X113627796Y-116392204D01*
X113463638Y-116282517D01*
X113270000Y-116244000D01*
X110709592Y-116244000D01*
X109756000Y-115290408D01*
X109756000Y-114848421D01*
X109911714Y-114692979D01*
X110030864Y-114406032D01*
X110031136Y-114095331D01*
X109912486Y-113808177D01*
X109692979Y-113588286D01*
X109406032Y-113469136D01*
X109095331Y-113468864D01*
X108808177Y-113587514D01*
X108588286Y-113807021D01*
X108469136Y-114093968D01*
X108468864Y-114404669D01*
X108587514Y-114691823D01*
X108744000Y-114848583D01*
X108744000Y-115500000D01*
X108782517Y-115693638D01*
X108892204Y-115857796D01*
X110142204Y-117107796D01*
X110306362Y-117217483D01*
X110500000Y-117256000D01*
X113060408Y-117256000D01*
X122877550Y-127073142D01*
X122480000Y-126994064D01*
X121914777Y-127106494D01*
X121435603Y-127426667D01*
X121210000Y-127764307D01*
X120984397Y-127426667D01*
X120505223Y-127106494D01*
X119940000Y-126994064D01*
X119374777Y-127106494D01*
X118895603Y-127426667D01*
X118670000Y-127764307D01*
X118444397Y-127426667D01*
X117965223Y-127106494D01*
X117400000Y-126994064D01*
X116834777Y-127106494D01*
X116355603Y-127426667D01*
X116130000Y-127764307D01*
X115904397Y-127426667D01*
X115425223Y-127106494D01*
X114860000Y-126994064D01*
X114294777Y-127106494D01*
X113815603Y-127426667D01*
X113590000Y-127764307D01*
X113364397Y-127426667D01*
X112885223Y-127106494D01*
X112320000Y-126994064D01*
X111754777Y-127106494D01*
X111275603Y-127426667D01*
X111050000Y-127764307D01*
X110824397Y-127426667D01*
X110345223Y-127106494D01*
X109780000Y-126994064D01*
X109214777Y-127106494D01*
X108735603Y-127426667D01*
X108510000Y-127764307D01*
X108284397Y-127426667D01*
X107805223Y-127106494D01*
X107240000Y-126994064D01*
X106674777Y-127106494D01*
X106195603Y-127426667D01*
X105970000Y-127764307D01*
X105744397Y-127426667D01*
X105265223Y-127106494D01*
X104700000Y-126994064D01*
X104134777Y-127106494D01*
X103655603Y-127426667D01*
X103335430Y-127905841D01*
X103300236Y-128082773D01*
X103137652Y-127751944D01*
X102776964Y-127434755D01*
X102476980Y-127310511D01*
X102287000Y-127371373D01*
X102287000Y-128373000D01*
X102307000Y-128373000D01*
X102307000Y-128627000D01*
X102287000Y-128627000D01*
X102287000Y-128647000D01*
X102033000Y-128647000D01*
X102033000Y-128627000D01*
X102013000Y-128627000D01*
X102013000Y-128373000D01*
X102033000Y-128373000D01*
X102033000Y-127371373D01*
X101843020Y-127310511D01*
X101543036Y-127434755D01*
X101182348Y-127751944D01*
X101019764Y-128082773D01*
X100984570Y-127905841D01*
X100664397Y-127426667D01*
X100251000Y-127150445D01*
X100251000Y-125141368D01*
X107446184Y-117946184D01*
X107582968Y-117741473D01*
X107584323Y-117734663D01*
X107631000Y-117500000D01*
X107631000Y-112511368D01*
X110611271Y-109531098D01*
X110654669Y-109531136D01*
X110941823Y-109412486D01*
X111161714Y-109192979D01*
X111280864Y-108906032D01*
X111281136Y-108595331D01*
X111162486Y-108308177D01*
X110942979Y-108088286D01*
X110656032Y-107969136D01*
X110345331Y-107968864D01*
X110058177Y-108087514D01*
X109838286Y-108307021D01*
X109719136Y-108593968D01*
X109719097Y-108638534D01*
X106553816Y-111803816D01*
X106417032Y-112008527D01*
X106369000Y-112250000D01*
X106369000Y-117238632D01*
X99173816Y-124433816D01*
X99037032Y-124638527D01*
X98989000Y-124880000D01*
X98989000Y-127150445D01*
X98575603Y-127426667D01*
X98255430Y-127905841D01*
X98206000Y-128154342D01*
X98206000Y-118761816D01*
X98533802Y-118761816D01*
X98662236Y-119033158D01*
X98920523Y-119265337D01*
X99248000Y-119381000D01*
X99523000Y-119381000D01*
X99523000Y-118627000D01*
X99777000Y-118627000D01*
X99777000Y-119381000D01*
X100052000Y-119381000D01*
X100379477Y-119265337D01*
X100637764Y-119033158D01*
X100766198Y-118761816D01*
X100700419Y-118627000D01*
X99777000Y-118627000D01*
X99523000Y-118627000D01*
X98599581Y-118627000D01*
X98533802Y-118761816D01*
X98206000Y-118761816D01*
X98206000Y-118238184D01*
X98533802Y-118238184D01*
X98599581Y-118373000D01*
X99523000Y-118373000D01*
X99523000Y-117619000D01*
X99777000Y-117619000D01*
X99777000Y-118373000D01*
X100700419Y-118373000D01*
X100766198Y-118238184D01*
X100637764Y-117966842D01*
X100409284Y-117761457D01*
X101499261Y-117761457D01*
X101606672Y-118078537D01*
X101827248Y-118330376D01*
X102092138Y-118466237D01*
X102223000Y-118400074D01*
X102223000Y-117627000D01*
X102477000Y-117627000D01*
X102477000Y-118400074D01*
X102607862Y-118466237D01*
X102872752Y-118330376D01*
X103093328Y-118078537D01*
X103200739Y-117761457D01*
X103112451Y-117627000D01*
X102477000Y-117627000D01*
X102223000Y-117627000D01*
X101587549Y-117627000D01*
X101499261Y-117761457D01*
X100409284Y-117761457D01*
X100379477Y-117734663D01*
X100052000Y-117619000D01*
X99777000Y-117619000D01*
X99523000Y-117619000D01*
X99248000Y-117619000D01*
X98920523Y-117734663D01*
X98662236Y-117966842D01*
X98533802Y-118238184D01*
X98206000Y-118238184D01*
X98206000Y-117238543D01*
X101499261Y-117238543D01*
X101587549Y-117373000D01*
X102223000Y-117373000D01*
X102223000Y-116599926D01*
X102477000Y-116599926D01*
X102477000Y-117373000D01*
X103112451Y-117373000D01*
X103200739Y-117238543D01*
X103093328Y-116921463D01*
X102872752Y-116669624D01*
X102607862Y-116533763D01*
X102477000Y-116599926D01*
X102223000Y-116599926D01*
X102092138Y-116533763D01*
X101827248Y-116669624D01*
X101606672Y-116921463D01*
X101499261Y-117238543D01*
X98206000Y-117238543D01*
X98206000Y-112761457D01*
X101499261Y-112761457D01*
X101606672Y-113078537D01*
X101827248Y-113330376D01*
X102092138Y-113466237D01*
X102223000Y-113400074D01*
X102223000Y-112627000D01*
X102477000Y-112627000D01*
X102477000Y-113400074D01*
X102607862Y-113466237D01*
X102872752Y-113330376D01*
X103093328Y-113078537D01*
X103200739Y-112761457D01*
X103112451Y-112627000D01*
X102477000Y-112627000D01*
X102223000Y-112627000D01*
X101587549Y-112627000D01*
X101499261Y-112761457D01*
X98206000Y-112761457D01*
X98206000Y-111761816D01*
X98533802Y-111761816D01*
X98662236Y-112033158D01*
X98920523Y-112265337D01*
X99248000Y-112381000D01*
X99523000Y-112381000D01*
X99523000Y-111627000D01*
X99777000Y-111627000D01*
X99777000Y-112381000D01*
X100052000Y-112381000D01*
X100379477Y-112265337D01*
X100409283Y-112238543D01*
X101499261Y-112238543D01*
X101587549Y-112373000D01*
X102223000Y-112373000D01*
X102223000Y-111599926D01*
X102477000Y-111599926D01*
X102477000Y-112373000D01*
X103112451Y-112373000D01*
X103200739Y-112238543D01*
X103093328Y-111921463D01*
X102872752Y-111669624D01*
X102607862Y-111533763D01*
X102477000Y-111599926D01*
X102223000Y-111599926D01*
X102092138Y-111533763D01*
X101827248Y-111669624D01*
X101606672Y-111921463D01*
X101499261Y-112238543D01*
X100409283Y-112238543D01*
X100637764Y-112033158D01*
X100766198Y-111761816D01*
X100700419Y-111627000D01*
X99777000Y-111627000D01*
X99523000Y-111627000D01*
X98599581Y-111627000D01*
X98533802Y-111761816D01*
X98206000Y-111761816D01*
X98206000Y-111238184D01*
X98533802Y-111238184D01*
X98599581Y-111373000D01*
X99523000Y-111373000D01*
X99523000Y-110619000D01*
X99777000Y-110619000D01*
X99777000Y-111373000D01*
X100700419Y-111373000D01*
X100766198Y-111238184D01*
X100637764Y-110966842D01*
X100379477Y-110734663D01*
X100052000Y-110619000D01*
X99777000Y-110619000D01*
X99523000Y-110619000D01*
X99248000Y-110619000D01*
X98920523Y-110734663D01*
X98662236Y-110966842D01*
X98533802Y-111238184D01*
X98206000Y-111238184D01*
X98206000Y-107654669D01*
X111718864Y-107654669D01*
X111837514Y-107941823D01*
X112057021Y-108161714D01*
X112343968Y-108280864D01*
X112654669Y-108281136D01*
X112941823Y-108162486D01*
X112973364Y-108131000D01*
X129488632Y-108131000D01*
X134263815Y-112906184D01*
X134468526Y-113042968D01*
X134508589Y-113050937D01*
X134710000Y-113091000D01*
X144510717Y-113091000D01*
X144510717Y-113310000D01*
X144559380Y-113554643D01*
X144697959Y-113762041D01*
X144905357Y-113900620D01*
X144985189Y-113916500D01*
X144926667Y-113955603D01*
X144606494Y-114434777D01*
X144494064Y-115000000D01*
X144606494Y-115565223D01*
X144926667Y-116044397D01*
X145405841Y-116364570D01*
X145582773Y-116399764D01*
X145251944Y-116562348D01*
X144934755Y-116923036D01*
X144810511Y-117223020D01*
X144871373Y-117413000D01*
X145873000Y-117413000D01*
X145873000Y-117393000D01*
X146127000Y-117393000D01*
X146127000Y-117413000D01*
X147128627Y-117413000D01*
X147189489Y-117223020D01*
X147065245Y-116923036D01*
X146748056Y-116562348D01*
X146417227Y-116399764D01*
X146594159Y-116364570D01*
X147073333Y-116044397D01*
X147393506Y-115565223D01*
X147505936Y-115000000D01*
X147393506Y-114434777D01*
X147073333Y-113955603D01*
X147014811Y-113916500D01*
X147094643Y-113900620D01*
X147302041Y-113762041D01*
X147440620Y-113554643D01*
X147489283Y-113310000D01*
X147489283Y-111610000D01*
X147440620Y-111365357D01*
X147302041Y-111157959D01*
X147094643Y-111019380D01*
X146850000Y-110970717D01*
X145150000Y-110970717D01*
X144905357Y-111019380D01*
X144697959Y-111157959D01*
X144559380Y-111365357D01*
X144510717Y-111610000D01*
X144510717Y-111829000D01*
X134971369Y-111829000D01*
X134035389Y-110893020D01*
X152060511Y-110893020D01*
X152121373Y-111083000D01*
X153123000Y-111083000D01*
X153123000Y-110080807D01*
X153377000Y-110080807D01*
X153377000Y-111083000D01*
X154378627Y-111083000D01*
X154439489Y-110893020D01*
X154315245Y-110593036D01*
X153998056Y-110232348D01*
X153566982Y-110020499D01*
X153377000Y-110080807D01*
X153123000Y-110080807D01*
X152933018Y-110020499D01*
X152501944Y-110232348D01*
X152184755Y-110593036D01*
X152060511Y-110893020D01*
X134035389Y-110893020D01*
X130196184Y-107053816D01*
X129991473Y-106917032D01*
X129750000Y-106869000D01*
X112973639Y-106869000D01*
X112942979Y-106838286D01*
X112656032Y-106719136D01*
X112345331Y-106718864D01*
X112058177Y-106837514D01*
X111838286Y-107057021D01*
X111719136Y-107343968D01*
X111718864Y-107654669D01*
X98206000Y-107654669D01*
X98206000Y-101816982D01*
X98430499Y-101816982D01*
X98642348Y-102248056D01*
X99003036Y-102565245D01*
X99303020Y-102689489D01*
X99493000Y-102628627D01*
X99493000Y-101627000D01*
X98490807Y-101627000D01*
X98430499Y-101816982D01*
X98206000Y-101816982D01*
X98206000Y-100456000D01*
X98978877Y-100456000D01*
X98642348Y-100751944D01*
M02*
