M48
;DRILL file {KiCad (2017-05-18 revision 2a3a699)-master} date Sat Jun 17 08:25:03 2017
;FORMAT={-:-/ absolute / inch / decimal}
FMAT,2
INCH,TZ
T1C0.016
T2C0.020
T3C0.022
T4C0.039
%
G90
G05
M72
T1
X4.0945Y-4.2815
X4.311Y-4.498
X4.3602Y-4.2815
X4.3701Y-4.5276
X4.4291Y-4.2323
X4.5177Y-4.2913
X4.8819Y-4.498
X4.9114Y-4.5669
X4.9508Y-4.6063
X4.9803Y-4.7638
X5.Y-4.5079
X5.0394Y-4.4488
X5.0394Y-4.6063
X5.0689Y-4.5374
X5.4528Y-4.2618
X5.5512Y-4.7244
X5.7283Y-4.2323
T4
X5.748Y-4.4276
X5.748Y-4.5276
X5.748Y-4.6276
X6.0335Y-4.3783
X6.0335Y-4.4783
X6.0335Y-4.5783
X6.0335Y-4.6783
X3.922Y-3.9961
X4.022Y-3.9961
X4.122Y-3.9961
X4.222Y-3.9961
X4.322Y-3.9961
X4.422Y-3.9961
X4.522Y-3.9961
X4.622Y-3.9961
X4.722Y-3.9961
X4.822Y-3.9961
X4.922Y-3.9961
X5.022Y-3.9961
X5.122Y-3.9961
X5.222Y-3.9961
X5.322Y-3.9961
X5.422Y-3.9961
X5.522Y-3.9961
X5.622Y-3.9961
X5.722Y-3.9961
X5.822Y-3.9961
X5.922Y-3.9961
X6.022Y-3.9961
X3.922Y-5.0591
X4.022Y-5.0591
X4.122Y-5.0591
X4.222Y-5.0591
X4.322Y-5.0591
X4.422Y-5.0591
X4.522Y-5.0591
X4.622Y-5.0591
X4.722Y-5.0591
X4.822Y-5.0591
X4.922Y-5.0591
X5.022Y-5.0591
X5.122Y-5.0591
X5.222Y-5.0591
X5.322Y-5.0591
X5.422Y-5.0591
X5.522Y-5.0591
X5.622Y-5.0591
X5.722Y-5.0591
X5.822Y-5.0591
X5.922Y-5.0591
X6.022Y-5.0591
T2
X3.9104Y-4.3898G85X3.936Y-4.3898
G05
X3.9104Y-4.6654G85X3.936Y-4.6654
G05
T3
X4.0295Y-4.4232G85X4.0295Y-4.435
G05
X4.0295Y-4.6201G85X4.0295Y-4.6319
G05
T0
M30
