G04 #@! TF.GenerationSoftware,KiCad,Pcbnew,(2017-05-18 revision 2a3a699)-master*
G04 #@! TF.CreationDate,2017-06-18T12:29:58+03:00*
G04 #@! TF.ProjectId,stm32f072c8tx_breakout,73746D333266303732633874785F6272,rev?*
G04 #@! TF.FileFunction,Soldermask,Top*
G04 #@! TF.FilePolarity,Negative*
%FSLAX46Y46*%
G04 Gerber Fmt 4.6, Leading zero omitted, Abs format (unit mm)*
G04 Created by KiCad (PCBNEW (2017-05-18 revision 2a3a699)-master) date Sun Jun 18 12:29:58 2017*
%MOMM*%
%LPD*%
G01*
G04 APERTURE LIST*
%ADD10C,0.100000*%
%ADD11O,1.950000X1.400000*%
%ADD12O,1.350000X1.650000*%
%ADD13R,1.750000X0.800000*%
%ADD14R,2.100000X2.100000*%
%ADD15O,2.100000X2.100000*%
%ADD16R,2.000000X2.580000*%
%ADD17R,1.150000X1.200000*%
%ADD18C,1.150000*%
%ADD19R,1.400000X2.000000*%
%ADD20R,1.540000X2.430000*%
%ADD21C,0.650000*%
%ADD22R,1.600000X1.600000*%
%ADD23R,0.900000X1.300000*%
%ADD24R,1.300000X0.900000*%
%ADD25R,1.900000X2.400000*%
%ADD26R,4.200000X2.400000*%
G04 APERTURE END LIST*
D10*
D11*
X99650000Y-118500000D03*
X99650000Y-111500000D03*
D12*
X102350000Y-117500000D03*
X102350000Y-112500000D03*
D13*
X102350000Y-116300000D03*
X102350000Y-115650000D03*
X102350000Y-115000000D03*
X102350000Y-114350000D03*
X102350000Y-113700000D03*
D14*
X152960000Y-128500000D03*
D15*
X150420000Y-128500000D03*
X147880000Y-128500000D03*
X145340000Y-128500000D03*
X142800000Y-128500000D03*
X140260000Y-128500000D03*
X137720000Y-128500000D03*
X135180000Y-128500000D03*
X132640000Y-128500000D03*
X130100000Y-128500000D03*
X127560000Y-128500000D03*
X125020000Y-128500000D03*
X122480000Y-128500000D03*
X119940000Y-128500000D03*
X117400000Y-128500000D03*
X114860000Y-128500000D03*
X112320000Y-128500000D03*
X109780000Y-128500000D03*
X107240000Y-128500000D03*
X104700000Y-128500000D03*
X102160000Y-128500000D03*
X99620000Y-128500000D03*
X99620000Y-101500000D03*
X102160000Y-101500000D03*
X104700000Y-101500000D03*
X107240000Y-101500000D03*
X109780000Y-101500000D03*
X112320000Y-101500000D03*
X114860000Y-101500000D03*
X117400000Y-101500000D03*
X119940000Y-101500000D03*
X122480000Y-101500000D03*
X125020000Y-101500000D03*
X127560000Y-101500000D03*
X130100000Y-101500000D03*
X132640000Y-101500000D03*
X135180000Y-101500000D03*
X137720000Y-101500000D03*
X140260000Y-101500000D03*
X142800000Y-101500000D03*
X145340000Y-101500000D03*
X147880000Y-101500000D03*
X150420000Y-101500000D03*
D14*
X152960000Y-101500000D03*
D16*
X138500000Y-110410000D03*
X138500000Y-119590000D03*
D17*
X135250000Y-112500000D03*
X135250000Y-114000000D03*
D18*
X125280330Y-122280330D03*
D10*
G36*
X124449480Y-122262652D02*
X125262652Y-121449480D01*
X126111180Y-122298008D01*
X125298008Y-123111180D01*
X124449480Y-122262652D01*
X124449480Y-122262652D01*
G37*
D18*
X124219670Y-121219670D03*
D10*
G36*
X123388820Y-121201992D02*
X124201992Y-120388820D01*
X125050520Y-121237348D01*
X124237348Y-122050520D01*
X123388820Y-121201992D01*
X123388820Y-121201992D01*
G37*
D17*
X119000000Y-113250000D03*
X119000000Y-111750000D03*
D18*
X130719670Y-108780330D03*
D10*
G36*
X130701992Y-109611180D02*
X129888820Y-108798008D01*
X130737348Y-107949480D01*
X131550520Y-108762652D01*
X130701992Y-109611180D01*
X130701992Y-109611180D01*
G37*
D18*
X131780330Y-107719670D03*
D10*
G36*
X131762652Y-108550520D02*
X130949480Y-107737348D01*
X131798008Y-106888820D01*
X132611180Y-107701992D01*
X131762652Y-108550520D01*
X131762652Y-108550520D01*
G37*
D18*
X134280330Y-116219670D03*
D10*
G36*
X134262652Y-117050520D02*
X133449480Y-116237348D01*
X134298008Y-115388820D01*
X135111180Y-116201992D01*
X134262652Y-117050520D01*
X134262652Y-117050520D01*
G37*
D18*
X133219670Y-117280330D03*
D10*
G36*
X133201992Y-118111180D02*
X132388820Y-117298008D01*
X133237348Y-116449480D01*
X134050520Y-117262652D01*
X133201992Y-118111180D01*
X133201992Y-118111180D01*
G37*
D19*
X108750000Y-108750000D03*
X105750000Y-108750000D03*
X105000000Y-118000000D03*
X108000000Y-118000000D03*
D20*
X105050000Y-111500000D03*
X107450000Y-111500000D03*
D21*
X131520458Y-116131371D03*
D10*
G36*
X130689608Y-115760140D02*
X131149227Y-115300521D01*
X132351308Y-116502602D01*
X131891689Y-116962221D01*
X130689608Y-115760140D01*
X130689608Y-115760140D01*
G37*
D21*
X131166905Y-116484924D03*
D10*
G36*
X130336055Y-116113693D02*
X130795674Y-115654074D01*
X131997755Y-116856155D01*
X131538136Y-117315774D01*
X130336055Y-116113693D01*
X130336055Y-116113693D01*
G37*
D21*
X130813351Y-116838478D03*
D10*
G36*
X129982501Y-116467247D02*
X130442120Y-116007628D01*
X131644201Y-117209709D01*
X131184582Y-117669328D01*
X129982501Y-116467247D01*
X129982501Y-116467247D01*
G37*
D21*
X130459798Y-117192031D03*
D10*
G36*
X129628948Y-116820800D02*
X130088567Y-116361181D01*
X131290648Y-117563262D01*
X130831029Y-118022881D01*
X129628948Y-116820800D01*
X129628948Y-116820800D01*
G37*
D21*
X130106245Y-117545584D03*
D10*
G36*
X129275395Y-117174353D02*
X129735014Y-116714734D01*
X130937095Y-117916815D01*
X130477476Y-118376434D01*
X129275395Y-117174353D01*
X129275395Y-117174353D01*
G37*
D21*
X129752691Y-117899138D03*
D10*
G36*
X128921841Y-117527907D02*
X129381460Y-117068288D01*
X130583541Y-118270369D01*
X130123922Y-118729988D01*
X128921841Y-117527907D01*
X128921841Y-117527907D01*
G37*
D21*
X129399138Y-118252691D03*
D10*
G36*
X128568288Y-117881460D02*
X129027907Y-117421841D01*
X130229988Y-118623922D01*
X129770369Y-119083541D01*
X128568288Y-117881460D01*
X128568288Y-117881460D01*
G37*
D21*
X129045584Y-118606245D03*
D10*
G36*
X128214734Y-118235014D02*
X128674353Y-117775395D01*
X129876434Y-118977476D01*
X129416815Y-119437095D01*
X128214734Y-118235014D01*
X128214734Y-118235014D01*
G37*
D21*
X128692031Y-118959798D03*
D10*
G36*
X127861181Y-118588567D02*
X128320800Y-118128948D01*
X129522881Y-119331029D01*
X129063262Y-119790648D01*
X127861181Y-118588567D01*
X127861181Y-118588567D01*
G37*
D21*
X128338478Y-119313351D03*
D10*
G36*
X127507628Y-118942120D02*
X127967247Y-118482501D01*
X129169328Y-119684582D01*
X128709709Y-120144201D01*
X127507628Y-118942120D01*
X127507628Y-118942120D01*
G37*
D21*
X127984924Y-119666905D03*
D10*
G36*
X127154074Y-119295674D02*
X127613693Y-118836055D01*
X128815774Y-120038136D01*
X128356155Y-120497755D01*
X127154074Y-119295674D01*
X127154074Y-119295674D01*
G37*
D21*
X127631371Y-120020458D03*
D10*
G36*
X126800521Y-119649227D02*
X127260140Y-119189608D01*
X128462221Y-120391689D01*
X128002602Y-120851308D01*
X126800521Y-119649227D01*
X126800521Y-119649227D01*
G37*
D21*
X125368629Y-120020458D03*
D10*
G36*
X125739860Y-119189608D02*
X126199479Y-119649227D01*
X124997398Y-120851308D01*
X124537779Y-120391689D01*
X125739860Y-119189608D01*
X125739860Y-119189608D01*
G37*
D21*
X125015076Y-119666905D03*
D10*
G36*
X125386307Y-118836055D02*
X125845926Y-119295674D01*
X124643845Y-120497755D01*
X124184226Y-120038136D01*
X125386307Y-118836055D01*
X125386307Y-118836055D01*
G37*
D21*
X124661522Y-119313351D03*
D10*
G36*
X125032753Y-118482501D02*
X125492372Y-118942120D01*
X124290291Y-120144201D01*
X123830672Y-119684582D01*
X125032753Y-118482501D01*
X125032753Y-118482501D01*
G37*
D21*
X124307969Y-118959798D03*
D10*
G36*
X124679200Y-118128948D02*
X125138819Y-118588567D01*
X123936738Y-119790648D01*
X123477119Y-119331029D01*
X124679200Y-118128948D01*
X124679200Y-118128948D01*
G37*
D21*
X123954416Y-118606245D03*
D10*
G36*
X124325647Y-117775395D02*
X124785266Y-118235014D01*
X123583185Y-119437095D01*
X123123566Y-118977476D01*
X124325647Y-117775395D01*
X124325647Y-117775395D01*
G37*
D21*
X123600862Y-118252691D03*
D10*
G36*
X123972093Y-117421841D02*
X124431712Y-117881460D01*
X123229631Y-119083541D01*
X122770012Y-118623922D01*
X123972093Y-117421841D01*
X123972093Y-117421841D01*
G37*
D21*
X123247309Y-117899138D03*
D10*
G36*
X123618540Y-117068288D02*
X124078159Y-117527907D01*
X122876078Y-118729988D01*
X122416459Y-118270369D01*
X123618540Y-117068288D01*
X123618540Y-117068288D01*
G37*
D21*
X122893755Y-117545584D03*
D10*
G36*
X123264986Y-116714734D02*
X123724605Y-117174353D01*
X122522524Y-118376434D01*
X122062905Y-117916815D01*
X123264986Y-116714734D01*
X123264986Y-116714734D01*
G37*
D21*
X122540202Y-117192031D03*
D10*
G36*
X122911433Y-116361181D02*
X123371052Y-116820800D01*
X122168971Y-118022881D01*
X121709352Y-117563262D01*
X122911433Y-116361181D01*
X122911433Y-116361181D01*
G37*
D21*
X122186649Y-116838478D03*
D10*
G36*
X122557880Y-116007628D02*
X123017499Y-116467247D01*
X121815418Y-117669328D01*
X121355799Y-117209709D01*
X122557880Y-116007628D01*
X122557880Y-116007628D01*
G37*
D21*
X121833095Y-116484924D03*
D10*
G36*
X122204326Y-115654074D02*
X122663945Y-116113693D01*
X121461864Y-117315774D01*
X121002245Y-116856155D01*
X122204326Y-115654074D01*
X122204326Y-115654074D01*
G37*
D21*
X121479542Y-116131371D03*
D10*
G36*
X121850773Y-115300521D02*
X122310392Y-115760140D01*
X121108311Y-116962221D01*
X120648692Y-116502602D01*
X121850773Y-115300521D01*
X121850773Y-115300521D01*
G37*
D21*
X121479542Y-113868629D03*
D10*
G36*
X120648692Y-113497398D02*
X121108311Y-113037779D01*
X122310392Y-114239860D01*
X121850773Y-114699479D01*
X120648692Y-113497398D01*
X120648692Y-113497398D01*
G37*
D21*
X121833095Y-113515076D03*
D10*
G36*
X121002245Y-113143845D02*
X121461864Y-112684226D01*
X122663945Y-113886307D01*
X122204326Y-114345926D01*
X121002245Y-113143845D01*
X121002245Y-113143845D01*
G37*
D21*
X122186649Y-113161522D03*
D10*
G36*
X121355799Y-112790291D02*
X121815418Y-112330672D01*
X123017499Y-113532753D01*
X122557880Y-113992372D01*
X121355799Y-112790291D01*
X121355799Y-112790291D01*
G37*
D21*
X122540202Y-112807969D03*
D10*
G36*
X121709352Y-112436738D02*
X122168971Y-111977119D01*
X123371052Y-113179200D01*
X122911433Y-113638819D01*
X121709352Y-112436738D01*
X121709352Y-112436738D01*
G37*
D21*
X122893755Y-112454416D03*
D10*
G36*
X122062905Y-112083185D02*
X122522524Y-111623566D01*
X123724605Y-112825647D01*
X123264986Y-113285266D01*
X122062905Y-112083185D01*
X122062905Y-112083185D01*
G37*
D21*
X123247309Y-112100862D03*
D10*
G36*
X122416459Y-111729631D02*
X122876078Y-111270012D01*
X124078159Y-112472093D01*
X123618540Y-112931712D01*
X122416459Y-111729631D01*
X122416459Y-111729631D01*
G37*
D21*
X123600862Y-111747309D03*
D10*
G36*
X122770012Y-111376078D02*
X123229631Y-110916459D01*
X124431712Y-112118540D01*
X123972093Y-112578159D01*
X122770012Y-111376078D01*
X122770012Y-111376078D01*
G37*
D21*
X123954416Y-111393755D03*
D10*
G36*
X123123566Y-111022524D02*
X123583185Y-110562905D01*
X124785266Y-111764986D01*
X124325647Y-112224605D01*
X123123566Y-111022524D01*
X123123566Y-111022524D01*
G37*
D21*
X124307969Y-111040202D03*
D10*
G36*
X123477119Y-110668971D02*
X123936738Y-110209352D01*
X125138819Y-111411433D01*
X124679200Y-111871052D01*
X123477119Y-110668971D01*
X123477119Y-110668971D01*
G37*
D21*
X124661522Y-110686649D03*
D10*
G36*
X123830672Y-110315418D02*
X124290291Y-109855799D01*
X125492372Y-111057880D01*
X125032753Y-111517499D01*
X123830672Y-110315418D01*
X123830672Y-110315418D01*
G37*
D21*
X125015076Y-110333095D03*
D10*
G36*
X124184226Y-109961864D02*
X124643845Y-109502245D01*
X125845926Y-110704326D01*
X125386307Y-111163945D01*
X124184226Y-109961864D01*
X124184226Y-109961864D01*
G37*
D21*
X125368629Y-109979542D03*
D10*
G36*
X124537779Y-109608311D02*
X124997398Y-109148692D01*
X126199479Y-110350773D01*
X125739860Y-110810392D01*
X124537779Y-109608311D01*
X124537779Y-109608311D01*
G37*
D21*
X127631371Y-109979542D03*
D10*
G36*
X128002602Y-109148692D02*
X128462221Y-109608311D01*
X127260140Y-110810392D01*
X126800521Y-110350773D01*
X128002602Y-109148692D01*
X128002602Y-109148692D01*
G37*
D21*
X127984924Y-110333095D03*
D10*
G36*
X128356155Y-109502245D02*
X128815774Y-109961864D01*
X127613693Y-111163945D01*
X127154074Y-110704326D01*
X128356155Y-109502245D01*
X128356155Y-109502245D01*
G37*
D21*
X128338478Y-110686649D03*
D10*
G36*
X128709709Y-109855799D02*
X129169328Y-110315418D01*
X127967247Y-111517499D01*
X127507628Y-111057880D01*
X128709709Y-109855799D01*
X128709709Y-109855799D01*
G37*
D21*
X128692031Y-111040202D03*
D10*
G36*
X129063262Y-110209352D02*
X129522881Y-110668971D01*
X128320800Y-111871052D01*
X127861181Y-111411433D01*
X129063262Y-110209352D01*
X129063262Y-110209352D01*
G37*
D21*
X129045584Y-111393755D03*
D10*
G36*
X129416815Y-110562905D02*
X129876434Y-111022524D01*
X128674353Y-112224605D01*
X128214734Y-111764986D01*
X129416815Y-110562905D01*
X129416815Y-110562905D01*
G37*
D21*
X129399138Y-111747309D03*
D10*
G36*
X129770369Y-110916459D02*
X130229988Y-111376078D01*
X129027907Y-112578159D01*
X128568288Y-112118540D01*
X129770369Y-110916459D01*
X129770369Y-110916459D01*
G37*
D21*
X129752691Y-112100862D03*
D10*
G36*
X130123922Y-111270012D02*
X130583541Y-111729631D01*
X129381460Y-112931712D01*
X128921841Y-112472093D01*
X130123922Y-111270012D01*
X130123922Y-111270012D01*
G37*
D21*
X130106245Y-112454416D03*
D10*
G36*
X130477476Y-111623566D02*
X130937095Y-112083185D01*
X129735014Y-113285266D01*
X129275395Y-112825647D01*
X130477476Y-111623566D01*
X130477476Y-111623566D01*
G37*
D21*
X130459798Y-112807969D03*
D10*
G36*
X130831029Y-111977119D02*
X131290648Y-112436738D01*
X130088567Y-113638819D01*
X129628948Y-113179200D01*
X130831029Y-111977119D01*
X130831029Y-111977119D01*
G37*
D21*
X130813351Y-113161522D03*
D10*
G36*
X131184582Y-112330672D02*
X131644201Y-112790291D01*
X130442120Y-113992372D01*
X129982501Y-113532753D01*
X131184582Y-112330672D01*
X131184582Y-112330672D01*
G37*
D21*
X131166905Y-113515076D03*
D10*
G36*
X131538136Y-112684226D02*
X131997755Y-113143845D01*
X130795674Y-114345926D01*
X130336055Y-113886307D01*
X131538136Y-112684226D01*
X131538136Y-112684226D01*
G37*
D21*
X131520458Y-113868629D03*
D10*
G36*
X131891689Y-113037779D02*
X132351308Y-113497398D01*
X131149227Y-114699479D01*
X130689608Y-114239860D01*
X131891689Y-113037779D01*
X131891689Y-113037779D01*
G37*
D22*
X153100000Y-122000000D03*
X150900000Y-122000000D03*
X150900000Y-108000000D03*
X153100000Y-108000000D03*
D15*
X146000000Y-117540000D03*
X146000000Y-115000000D03*
D14*
X146000000Y-112460000D03*
D15*
X153250000Y-111210000D03*
X153250000Y-113750000D03*
X153250000Y-116290000D03*
D14*
X153250000Y-118830000D03*
D23*
X142000000Y-110000000D03*
X143500000Y-110000000D03*
X106000000Y-115750000D03*
X104500000Y-115750000D03*
X104500000Y-114250000D03*
X106000000Y-114250000D03*
D24*
X107500000Y-113500000D03*
X107500000Y-115000000D03*
D23*
X143500000Y-120000000D03*
X142000000Y-120000000D03*
X149250000Y-122000000D03*
X147750000Y-122000000D03*
X147750000Y-108000000D03*
X149250000Y-108000000D03*
D25*
X114800000Y-111600000D03*
X110200000Y-111600000D03*
X112500000Y-111600000D03*
D26*
X112500000Y-117900000D03*
M02*
