G04 #@! TF.GenerationSoftware,KiCad,Pcbnew,(2017-05-18 revision 2a3a699)-master*
G04 #@! TF.CreationDate,2017-06-18T12:29:58+03:00*
G04 #@! TF.ProjectId,stm32f072c8tx_breakout,73746D333266303732633874785F6272,rev?*
G04 #@! TF.FileFunction,Legend,Bot*
G04 #@! TF.FilePolarity,Positive*
%FSLAX46Y46*%
G04 Gerber Fmt 4.6, Leading zero omitted, Abs format (unit mm)*
G04 Created by KiCad (PCBNEW (2017-05-18 revision 2a3a699)-master) date Sun Jun 18 12:29:58 2017*
%MOMM*%
%LPD*%
G01*
G04 APERTURE LIST*
%ADD10C,0.100000*%
%ADD11C,0.300000*%
G04 APERTURE END LIST*
D10*
D11*
X139142857Y-119107142D02*
X138928571Y-119178571D01*
X138571428Y-119178571D01*
X138428571Y-119107142D01*
X138357142Y-119035714D01*
X138285714Y-118892857D01*
X138285714Y-118750000D01*
X138357142Y-118607142D01*
X138428571Y-118535714D01*
X138571428Y-118464285D01*
X138857142Y-118392857D01*
X139000000Y-118321428D01*
X139071428Y-118250000D01*
X139142857Y-118107142D01*
X139142857Y-117964285D01*
X139071428Y-117821428D01*
X139000000Y-117750000D01*
X138857142Y-117678571D01*
X138500000Y-117678571D01*
X138285714Y-117750000D01*
X137857142Y-117678571D02*
X137000000Y-117678571D01*
X137428571Y-119178571D02*
X137428571Y-117678571D01*
X136500000Y-119178571D02*
X136500000Y-117678571D01*
X136000000Y-118750000D01*
X135500000Y-117678571D01*
X135500000Y-119178571D01*
X134928571Y-117678571D02*
X134000000Y-117678571D01*
X134500000Y-118250000D01*
X134285714Y-118250000D01*
X134142857Y-118321428D01*
X134071428Y-118392857D01*
X134000000Y-118535714D01*
X134000000Y-118892857D01*
X134071428Y-119035714D01*
X134142857Y-119107142D01*
X134285714Y-119178571D01*
X134714285Y-119178571D01*
X134857142Y-119107142D01*
X134928571Y-119035714D01*
X133428571Y-117821428D02*
X133357142Y-117750000D01*
X133214285Y-117678571D01*
X132857142Y-117678571D01*
X132714285Y-117750000D01*
X132642857Y-117821428D01*
X132571428Y-117964285D01*
X132571428Y-118107142D01*
X132642857Y-118321428D01*
X133500000Y-119178571D01*
X132571428Y-119178571D01*
X131428571Y-118392857D02*
X131928571Y-118392857D01*
X131928571Y-119178571D02*
X131928571Y-117678571D01*
X131214285Y-117678571D01*
X130357142Y-117678571D02*
X130214285Y-117678571D01*
X130071428Y-117750000D01*
X130000000Y-117821428D01*
X129928571Y-117964285D01*
X129857142Y-118250000D01*
X129857142Y-118607142D01*
X129928571Y-118892857D01*
X130000000Y-119035714D01*
X130071428Y-119107142D01*
X130214285Y-119178571D01*
X130357142Y-119178571D01*
X130500000Y-119107142D01*
X130571428Y-119035714D01*
X130642857Y-118892857D01*
X130714285Y-118607142D01*
X130714285Y-118250000D01*
X130642857Y-117964285D01*
X130571428Y-117821428D01*
X130500000Y-117750000D01*
X130357142Y-117678571D01*
X129357142Y-117678571D02*
X128357142Y-117678571D01*
X129000000Y-119178571D01*
X127857142Y-117821428D02*
X127785714Y-117750000D01*
X127642857Y-117678571D01*
X127285714Y-117678571D01*
X127142857Y-117750000D01*
X127071428Y-117821428D01*
X127000000Y-117964285D01*
X127000000Y-118107142D01*
X127071428Y-118321428D01*
X127928571Y-119178571D01*
X127000000Y-119178571D01*
X126500000Y-119178571D02*
X125714285Y-118178571D01*
X126500000Y-118178571D02*
X125714285Y-119178571D01*
X124928571Y-118321428D02*
X125071428Y-118250000D01*
X125142857Y-118178571D01*
X125214285Y-118035714D01*
X125214285Y-117964285D01*
X125142857Y-117821428D01*
X125071428Y-117750000D01*
X124928571Y-117678571D01*
X124642857Y-117678571D01*
X124500000Y-117750000D01*
X124428571Y-117821428D01*
X124357142Y-117964285D01*
X124357142Y-118035714D01*
X124428571Y-118178571D01*
X124500000Y-118250000D01*
X124642857Y-118321428D01*
X124928571Y-118321428D01*
X125071428Y-118392857D01*
X125142857Y-118464285D01*
X125214285Y-118607142D01*
X125214285Y-118892857D01*
X125142857Y-119035714D01*
X125071428Y-119107142D01*
X124928571Y-119178571D01*
X124642857Y-119178571D01*
X124500000Y-119107142D01*
X124428571Y-119035714D01*
X124357142Y-118892857D01*
X124357142Y-118607142D01*
X124428571Y-118464285D01*
X124500000Y-118392857D01*
X124642857Y-118321428D01*
X122071428Y-118392857D02*
X121857142Y-118464285D01*
X121785714Y-118535714D01*
X121714285Y-118678571D01*
X121714285Y-118892857D01*
X121785714Y-119035714D01*
X121857142Y-119107142D01*
X122000000Y-119178571D01*
X122571428Y-119178571D01*
X122571428Y-117678571D01*
X122071428Y-117678571D01*
X121928571Y-117750000D01*
X121857142Y-117821428D01*
X121785714Y-117964285D01*
X121785714Y-118107142D01*
X121857142Y-118250000D01*
X121928571Y-118321428D01*
X122071428Y-118392857D01*
X122571428Y-118392857D01*
X121071428Y-119178571D02*
X121071428Y-118178571D01*
X121071428Y-118464285D02*
X121000000Y-118321428D01*
X120928571Y-118250000D01*
X120785714Y-118178571D01*
X120642857Y-118178571D01*
X119571428Y-119107142D02*
X119714285Y-119178571D01*
X120000000Y-119178571D01*
X120142857Y-119107142D01*
X120214285Y-118964285D01*
X120214285Y-118392857D01*
X120142857Y-118250000D01*
X120000000Y-118178571D01*
X119714285Y-118178571D01*
X119571428Y-118250000D01*
X119500000Y-118392857D01*
X119500000Y-118535714D01*
X120214285Y-118678571D01*
X118214285Y-119178571D02*
X118214285Y-118392857D01*
X118285714Y-118250000D01*
X118428571Y-118178571D01*
X118714285Y-118178571D01*
X118857142Y-118250000D01*
X118214285Y-119107142D02*
X118357142Y-119178571D01*
X118714285Y-119178571D01*
X118857142Y-119107142D01*
X118928571Y-118964285D01*
X118928571Y-118821428D01*
X118857142Y-118678571D01*
X118714285Y-118607142D01*
X118357142Y-118607142D01*
X118214285Y-118535714D01*
X117500000Y-119178571D02*
X117500000Y-117678571D01*
X117357142Y-118607142D02*
X116928571Y-119178571D01*
X116928571Y-118178571D02*
X117500000Y-118750000D01*
X116071428Y-119178571D02*
X116214285Y-119107142D01*
X116285714Y-119035714D01*
X116357142Y-118892857D01*
X116357142Y-118464285D01*
X116285714Y-118321428D01*
X116214285Y-118250000D01*
X116071428Y-118178571D01*
X115857142Y-118178571D01*
X115714285Y-118250000D01*
X115642857Y-118321428D01*
X115571428Y-118464285D01*
X115571428Y-118892857D01*
X115642857Y-119035714D01*
X115714285Y-119107142D01*
X115857142Y-119178571D01*
X116071428Y-119178571D01*
X114285714Y-118178571D02*
X114285714Y-119178571D01*
X114928571Y-118178571D02*
X114928571Y-118964285D01*
X114857142Y-119107142D01*
X114714285Y-119178571D01*
X114500000Y-119178571D01*
X114357142Y-119107142D01*
X114285714Y-119035714D01*
X113785714Y-118178571D02*
X113214285Y-118178571D01*
X113571428Y-117678571D02*
X113571428Y-118964285D01*
X113499999Y-119107142D01*
X113357142Y-119178571D01*
X113214285Y-119178571D01*
M02*
