G04 #@! TF.GenerationSoftware,KiCad,Pcbnew,(2017-05-18 revision 2a3a699)-master*
G04 #@! TF.CreationDate,2017-06-17T08:25:41+03:00*
G04 #@! TF.ProjectId,stm32f072c8tx_breakout,73746D333266303732633874785F6272,rev?*
G04 #@! TF.FileFunction,Legend,Bot*
G04 #@! TF.FilePolarity,Positive*
%FSLAX46Y46*%
G04 Gerber Fmt 4.6, Leading zero omitted, Abs format (unit mm)*
G04 Created by KiCad (PCBNEW (2017-05-18 revision 2a3a699)-master) date Sat Jun 17 08:25:41 2017*
%MOMM*%
%LPD*%
G01*
G04 APERTURE LIST*
%ADD10C,0.100000*%
%ADD11C,0.300000*%
G04 APERTURE END LIST*
D10*
D11*
X141642857Y-123107142D02*
X141428571Y-123178571D01*
X141071428Y-123178571D01*
X140928571Y-123107142D01*
X140857142Y-123035714D01*
X140785714Y-122892857D01*
X140785714Y-122750000D01*
X140857142Y-122607142D01*
X140928571Y-122535714D01*
X141071428Y-122464285D01*
X141357142Y-122392857D01*
X141500000Y-122321428D01*
X141571428Y-122250000D01*
X141642857Y-122107142D01*
X141642857Y-121964285D01*
X141571428Y-121821428D01*
X141500000Y-121750000D01*
X141357142Y-121678571D01*
X141000000Y-121678571D01*
X140785714Y-121750000D01*
X140357142Y-121678571D02*
X139500000Y-121678571D01*
X139928571Y-123178571D02*
X139928571Y-121678571D01*
X139000000Y-123178571D02*
X139000000Y-121678571D01*
X138500000Y-122750000D01*
X138000000Y-121678571D01*
X138000000Y-123178571D01*
X137428571Y-121678571D02*
X136500000Y-121678571D01*
X137000000Y-122250000D01*
X136785714Y-122250000D01*
X136642857Y-122321428D01*
X136571428Y-122392857D01*
X136500000Y-122535714D01*
X136500000Y-122892857D01*
X136571428Y-123035714D01*
X136642857Y-123107142D01*
X136785714Y-123178571D01*
X137214285Y-123178571D01*
X137357142Y-123107142D01*
X137428571Y-123035714D01*
X135928571Y-121821428D02*
X135857142Y-121750000D01*
X135714285Y-121678571D01*
X135357142Y-121678571D01*
X135214285Y-121750000D01*
X135142857Y-121821428D01*
X135071428Y-121964285D01*
X135071428Y-122107142D01*
X135142857Y-122321428D01*
X136000000Y-123178571D01*
X135071428Y-123178571D01*
X133928571Y-122392857D02*
X134428571Y-122392857D01*
X134428571Y-123178571D02*
X134428571Y-121678571D01*
X133714285Y-121678571D01*
X132857142Y-121678571D02*
X132714285Y-121678571D01*
X132571428Y-121750000D01*
X132500000Y-121821428D01*
X132428571Y-121964285D01*
X132357142Y-122250000D01*
X132357142Y-122607142D01*
X132428571Y-122892857D01*
X132500000Y-123035714D01*
X132571428Y-123107142D01*
X132714285Y-123178571D01*
X132857142Y-123178571D01*
X133000000Y-123107142D01*
X133071428Y-123035714D01*
X133142857Y-122892857D01*
X133214285Y-122607142D01*
X133214285Y-122250000D01*
X133142857Y-121964285D01*
X133071428Y-121821428D01*
X133000000Y-121750000D01*
X132857142Y-121678571D01*
X131857142Y-121678571D02*
X130857142Y-121678571D01*
X131500000Y-123178571D01*
X130357142Y-121821428D02*
X130285714Y-121750000D01*
X130142857Y-121678571D01*
X129785714Y-121678571D01*
X129642857Y-121750000D01*
X129571428Y-121821428D01*
X129500000Y-121964285D01*
X129500000Y-122107142D01*
X129571428Y-122321428D01*
X130428571Y-123178571D01*
X129500000Y-123178571D01*
X129000000Y-123178571D02*
X128214285Y-122178571D01*
X129000000Y-122178571D02*
X128214285Y-123178571D01*
X127428571Y-122321428D02*
X127571428Y-122250000D01*
X127642857Y-122178571D01*
X127714285Y-122035714D01*
X127714285Y-121964285D01*
X127642857Y-121821428D01*
X127571428Y-121750000D01*
X127428571Y-121678571D01*
X127142857Y-121678571D01*
X127000000Y-121750000D01*
X126928571Y-121821428D01*
X126857142Y-121964285D01*
X126857142Y-122035714D01*
X126928571Y-122178571D01*
X127000000Y-122250000D01*
X127142857Y-122321428D01*
X127428571Y-122321428D01*
X127571428Y-122392857D01*
X127642857Y-122464285D01*
X127714285Y-122607142D01*
X127714285Y-122892857D01*
X127642857Y-123035714D01*
X127571428Y-123107142D01*
X127428571Y-123178571D01*
X127142857Y-123178571D01*
X127000000Y-123107142D01*
X126928571Y-123035714D01*
X126857142Y-122892857D01*
X126857142Y-122607142D01*
X126928571Y-122464285D01*
X127000000Y-122392857D01*
X127142857Y-122321428D01*
X124571428Y-122392857D02*
X124357142Y-122464285D01*
X124285714Y-122535714D01*
X124214285Y-122678571D01*
X124214285Y-122892857D01*
X124285714Y-123035714D01*
X124357142Y-123107142D01*
X124500000Y-123178571D01*
X125071428Y-123178571D01*
X125071428Y-121678571D01*
X124571428Y-121678571D01*
X124428571Y-121750000D01*
X124357142Y-121821428D01*
X124285714Y-121964285D01*
X124285714Y-122107142D01*
X124357142Y-122250000D01*
X124428571Y-122321428D01*
X124571428Y-122392857D01*
X125071428Y-122392857D01*
X123571428Y-123178571D02*
X123571428Y-122178571D01*
X123571428Y-122464285D02*
X123500000Y-122321428D01*
X123428571Y-122250000D01*
X123285714Y-122178571D01*
X123142857Y-122178571D01*
X122071428Y-123107142D02*
X122214285Y-123178571D01*
X122500000Y-123178571D01*
X122642857Y-123107142D01*
X122714285Y-122964285D01*
X122714285Y-122392857D01*
X122642857Y-122250000D01*
X122500000Y-122178571D01*
X122214285Y-122178571D01*
X122071428Y-122250000D01*
X122000000Y-122392857D01*
X122000000Y-122535714D01*
X122714285Y-122678571D01*
X120714285Y-123178571D02*
X120714285Y-122392857D01*
X120785714Y-122250000D01*
X120928571Y-122178571D01*
X121214285Y-122178571D01*
X121357142Y-122250000D01*
X120714285Y-123107142D02*
X120857142Y-123178571D01*
X121214285Y-123178571D01*
X121357142Y-123107142D01*
X121428571Y-122964285D01*
X121428571Y-122821428D01*
X121357142Y-122678571D01*
X121214285Y-122607142D01*
X120857142Y-122607142D01*
X120714285Y-122535714D01*
X120000000Y-123178571D02*
X120000000Y-121678571D01*
X119857142Y-122607142D02*
X119428571Y-123178571D01*
X119428571Y-122178571D02*
X120000000Y-122750000D01*
X118571428Y-123178571D02*
X118714285Y-123107142D01*
X118785714Y-123035714D01*
X118857142Y-122892857D01*
X118857142Y-122464285D01*
X118785714Y-122321428D01*
X118714285Y-122250000D01*
X118571428Y-122178571D01*
X118357142Y-122178571D01*
X118214285Y-122250000D01*
X118142857Y-122321428D01*
X118071428Y-122464285D01*
X118071428Y-122892857D01*
X118142857Y-123035714D01*
X118214285Y-123107142D01*
X118357142Y-123178571D01*
X118571428Y-123178571D01*
X116785714Y-122178571D02*
X116785714Y-123178571D01*
X117428571Y-122178571D02*
X117428571Y-122964285D01*
X117357142Y-123107142D01*
X117214285Y-123178571D01*
X117000000Y-123178571D01*
X116857142Y-123107142D01*
X116785714Y-123035714D01*
X116285714Y-122178571D02*
X115714285Y-122178571D01*
X116071428Y-121678571D02*
X116071428Y-122964285D01*
X115999999Y-123107142D01*
X115857142Y-123178571D01*
X115714285Y-123178571D01*
M02*
